<?xml version="1.0" encoding="utf-8"?>
<!-- Generator: Adobe Illustrator 19.1.0, SVG Export Plug-In . SVG Version: 6.00 Build 0)  -->
<svg version="1.1" id="Layer_1" xmlns="http://www.w3.org/2000/svg" xmlns:xlink="http://www.w3.org/1999/xlink" x="0px" y="0px"
	 viewBox="0 0 83.7 79.1" style="enable-background:new 0 0 83.7 79.1;" xml:space="preserve">
<style type="text/css">
	.st0{fill:#4D4D4D;}
</style>
<polygon class="st0" points="82.5,11.8 83.7,10.5 76.2,8.6 77.5,7.2 76.4,6.1 75.1,7.5 73,0 71.8,1.3 73.8,8.8 72.6,10 70.5,2.6 
	69.2,3.9 71.3,11.3 70,12.6 67.9,5.2 66.7,6.5 68.6,13.5 42.2,40.6 15.1,14.1 17,7 15.7,5.7 13.7,13.2 12.4,11.9 14.4,4.4 13.1,3.2 
	11.2,10.7 9.9,9.4 11.8,1.9 10.5,0.6 8.6,8.1 7.2,6.8 6.1,7.9 7.5,9.2 0,11.3 1.3,12.6 8.8,10.5 10,11.8 2.6,13.9 3.9,15.1 
	11.3,13.1 12.6,14.3 5.2,16.4 6.5,17.7 13.5,15.7 40.6,42.2 14.1,69.2 12.4,63.2 6,79.1 21.7,72.3 15.7,70.8 42.2,43.8 69.2,70.3 
	63.2,71.9 79.1,78.4 72.3,62.6 70.8,68.6 43.8,42.2 70.3,15.1 77.4,17 78.7,15.7 71.2,13.7 72.4,12.4 79.9,14.4 81.2,13.1 
	73.7,11.2 75,9.9 "/>
</svg>
