<?xml version="1.0" encoding="utf-8"?>
<!-- Generator: Adobe Illustrator 19.2.0, SVG Export Plug-In . SVG Version: 6.00 Build 0)  -->
<svg version="1.1" id="Layer_1" xmlns="http://www.w3.org/2000/svg" xmlns:xlink="http://www.w3.org/1999/xlink" x="0px" y="0px"
	 viewBox="0 0 464.5 629.4" style="enable-background:new 0 0 464.5 629.4;" xml:space="preserve">
<style type="text/css">
	.st0{fill:#231F20;}
	.st1{fill:#EC1C24;}
	.st2{fill:#FFC90D;}
	.st3{fill:#EA2227;}
	.st4{fill:#1A1A1A;}
</style>
<g>
	<g>
		<g>
			<path class="st0" d="M148.3,180.6c-1.1,0.9-2.5,2.1-4.2,3.5c-1.7,1.4-3.2,2.6-4.4,3.5c-1.6,1.3-3.9,2.6-6.9,3.8
				c-3,1.2-5.3,3-6.9,5.3c-0.7,0.9-1.1,2.4-1,4.5c0,2.1-0.5,3.7-1.6,4.8c-1.1,2-2,5.8-2.9,11.4c-0.9,5.7-1.6,9.4-2.2,11.1
				c-0.6,1.8-1.2,4.1-1.8,7.1c-0.6,3-1.3,5.6-2.2,7.9c0,0.3-0.3,0.9-0.8,1.6c-0.5,0.7-1,1.4-1.3,2.1c-0.5,2.3-0.9,4.7-1,7.3
				c-0.2,2.6-0.3,4.9-0.5,6.8l-0.3,0l-1.1,0.8c0,0.9,0.1,2.1,0.3,3.7c0.2,1.6,0.1,3.3-0.2,5.1l-3.2,0.4c-1.1,0.1-1.9-0.4-2.6-1.4
				c-0.6-1-1.5-1.6-2.6-1.9c-5.6-2.8-9.5-6.2-11.6-10.2c-2.1-4-3.4-8.3-3.9-12.8c-0.5-4.5-0.7-11-0.6-19.2c0.1-8.3-0.4-14.3-1.5-18
				c-2,0.8-4.1,1.2-6.5,1.3c-2.3,0.1-5,0.2-7.9,0.3c-2.9,0.2-5.8,0.4-8.7,0.6c-2.9,0.3-5.5,0.5-7.8,0.8c-1.4,1.6-2.1,3.1-2,4.5
				c0.1,1.4-0.7,2.5-2.5,3.3c-2.4,11.7-4.2,20.3-5.5,25.7c-1.2,5.4-2.5,10.8-3.9,16l0.3,2.3c0.5,0.3,1.8-0.2,3.8-1.5
				c0.4,1.2,0.3,2.6-0.2,4.2c0.4,0.3,0.7,0.7,1,1.1c0.3,0.4,0.5,1.1,0.7,2.2c0,1.7-0.6,3.2-1.7,4.5c-1.2,1.3-2.4,1.9-3.6,2
				c-0.9,0.2-1.8-0.1-2.7-0.9c-0.9-0.8-1.8-1.2-2.7-1.1c-3.3-0.2-5.9-1.5-8-4.1c-2.1-2.6-3.7-5.6-4.8-9c-1.1-3.5-1.8-6.9-2.1-10.4
				c-0.3-3.4-0.5-5.9-0.5-7.5c-0.4-7.7-0.1-16.6,1.1-26.6c1.2-10,2.8-21,5-33.2c2.1-12.1,4.5-22.9,7.2-32.3
				c2.6-9.4,5.1-17.2,7.4-23.3c0.4-0.7,1-2.6,1.8-5.5c0.9-3,1.9-6.1,3-9.2c1.1-3.2,2.5-6.1,4-8.6c1.5-2.6,3-3.9,4.4-4
				c3.1-0.2,5.4,1.1,7.1,3.7c1.6,2.7,2.8,5.8,3.5,9.2c0.7,3.5,1,6.8,1,9.9c0,3.1,0.1,4.8,0.3,5.2c0,4,0,9,0,15
				c0,6-0.3,10.8-0.8,14.3c-0.5,3.5-1.2,8.7-2.2,15.5c-0.9,6.9-1.7,11.4-2.2,13.7c0.4,0.3,0.5,0.5,0.3,0.5c-0.2,0,0.3,0,1.4-0.1
				c0.4-0.2,1.4-0.4,3.1-0.6c1.7-0.2,4-0.5,6.8-1c2.8-0.5,5.7-0.8,8.8-0.8c3.1,0,5.8-0.2,8.1-0.7c1.7-9.6,3.2-18.4,4.5-26.4
				c1.3-8,4.8-18.9,10.7-32.7c2.1-5.3,4.4-10.6,6.9-15.8c2.5-5.2,5.5-10.5,9.1-15.9c1.8,0.4,3.9,0.9,6.2,1.5c2.3,0.6,4.3,1.1,6,1.7
				c0,0.3,0.3,0.8,0.8,1.2c0.5,0.5,1,1,1.4,1.5c1.6,1.6,2.8,3.6,3.6,6c0.7,2.4,1.1,4,1.1,4.9c0,1-0.2,2-0.6,3
				c-0.4,1-0.7,1.9-0.7,2.8c-0.1,7.1-0.1,13.7,0,19.9c0.1,6.2-0.3,12.6-1.3,19.2c-0.9,4.2-1.6,8.5-2.3,12.8c-0.7,4.4-1.2,9-1.5,13.8
				c2.2,0,4.5,0.1,6.9,0.2c2.4,0.1,4.2,0.1,5.3,0.1c0.9-0.2,1.8-0.3,2.7-0.3C146.5,180.7,147.4,180.7,148.3,180.6z"/>
		</g>
		<g>
			<path class="st0" d="M221.3,173.8c0,0.5,0,1.6,0,3.1c0,1.6,0,3.4-0.1,5.4c-0.1,2.1-0.2,4.2-0.3,6.5c-0.2,2.3-0.3,4-0.5,5.2
				c-0.3,3.3-0.9,7-1.7,11.2c-0.8,4.2-1.6,8.3-2.3,12.3c-0.8,4-1.5,8-2.1,12c-0.6,4-0.9,6.3-0.9,6.8c0,0.9,0.3,3.2,0.7,6.9
				c0.5,3.8,1.1,7,1.9,9.7l-0.3,0c-0.2,0-0.5,0.3-1.1,0.8c1.6,1.6,3.9,3.1,6.8,4.5c-0.9,0.1-2,0.5-3.2,1.2c-1.3,0.8-2.3,1.2-3.2,1.2
				c-1.4,0.1-3.3-0.5-5.6-1.6c-2.3-1.2-4.7-2.7-7.2-4.5c-2.5-1.8-4.8-3.9-6.8-6.1c-2-2.2-3.4-4.6-4.1-7.1c-1.5-4.2-2.4-8.1-2.7-11.8
				c-0.3-3.6-0.4-6.2-0.3-7.9c0.1-1.6,0.2-3.2,0.4-4.8c0.2-1.6,0.1-3.5-0.1-5.7c-1.8,1.8-3.4,3.9-4.8,6.4c-1.4,2.4-3.1,4.5-5.1,6.4
				c-1.8,2.2-3.6,4.7-5.4,7.6c-1.8,2.9-3.6,6.3-5.3,10.4c-0.4,0.4-0.6,1.3-0.7,2.8c-0.1,1.5-0.4,2.7-0.9,3.5c-1.6,2.9-3.1,5.5-4.5,8
				c-1.4,2.5-3.2,4.6-5.4,6.3c-0.9,0.9-2.3,1.8-4.2,2.6c-1.9,0.8-3.4,1.2-4.5,1.3l-4.1,0.2c-0.7,0-1.5-0.4-2.3-1.4
				c-0.8-1-1.7-1.7-2.6-2.2c-2.5-1.6-4.5-3.1-5.7-4.7c-1.3-1.6-2.2-3.1-2.9-4.5c-0.6-1.4-1-2.9-1.1-4.5c-0.1-1.5-0.2-2.9-0.2-4.1
				c0-1.6,0.1-3.3,0.4-5.3c0.3-2,0.6-4,1.2-6c0.5-2,1-3.9,1.4-5.6c0.4-1.7,0.9-3.1,1.5-4c1.4-3.9,3.2-8.1,5.4-12.6
				c2.2-4.5,4.5-8.8,6.8-12.7c1.8-3.2,4-7,6.8-11.4c2.8-4.4,5.8-9.1,9.1-14.2c3.3-5.1,6.9-10.2,10.7-15.4c3.8-5.1,7.9-9.9,12.2-14.3
				c0.4-0.4,1-0.5,1.9-0.5c0.9,0,1.9,0,3,0c3.8-0.2,7.6,0.1,11.5,1c3.9,0.9,7.6,1.8,11,2.6l0,2.8c-1.6,2.5-3.2,4.5-4.8,5.8
				c-1.6,1.4-2.2,2.8-1.9,4.4c2-0.5,4.3-0.6,7-0.5c2.7,0.1,5.4,0.2,8.1,0.4c-0.3,1.9-0.3,4.5,0.2,7.8
				C221.1,170.9,221.3,172.9,221.3,173.8z M200.4,163.6c-1.3,0.4-2.4,1-3.4,1.7c-1,0.7-2.2,1.6-3.6,2.5c-0.4-0.5-0.5-0.9-0.4-1.1
				c0.1-0.3,0-0.4-0.4-0.4c-1.6,1.8-3.4,4.1-5.5,6.9c-2.1,2.8-4.1,5.7-6,8.6c-2,3-3.7,5.9-5.2,8.7c-1.5,2.9-2.5,5.4-3,7.7
				c-0.4,0.9-0.9,2.1-1.7,3.6c-0.8,1.5-1.4,3-1.7,4.4l0.5-0.8l0.3,0.2c-1.1,2.3-2,4.3-2.7,6c-0.7,1.7-1.5,3.6-2.3,5.7
				c-0.8,2.1-1.7,4.4-2.6,6.9c-1,2.5-2.1,5.6-3.3,9.5c10.9-14.6,19.6-27.8,26.2-39.6C192.1,182.5,197,172.3,200.4,163.6z"/>
		</g>
		<g>
			<path class="st0" d="M335.9,168.2c-2.9,1.4-6.1,2.7-9.7,4.1c-3.6,1.3-7.1,2.6-10.4,3.8c-3.3,1.2-6.3,2.2-8.8,3
				c-2.5,0.8-4.1,1.1-4.9,1.2c-0.9,0.1-3.3,0.5-7.2,1.3c-3.9,0.8-7.2,1.4-9.9,1.7l-0.5,0c-0.2,0-0.3,0.4-0.3,1.3
				c0.2,1,1.2,2.5,3,4.4c1.8,1.9,3.1,3.7,3.8,5.6c0.9,2.2,2.2,5.1,3.7,8.8c1.6,3.7,2.5,6.9,2.9,9.7c0.7,2.7,1.3,5.7,1.6,9
				c0.3,3.3,0.6,6.5,0.8,9.8c0.9,1,1.4,1.8,1.4,2.5c0.2,1.4,0.2,2.8-0.1,4.3c-0.3,1.5-0.6,3-0.9,4.6c0,0.3,0.2-0.2,0.7-1.6
				c0.4-1.4,0.7-1.7,0.7-0.8c0,2.2-0.1,3.6-0.2,4.2c-0.2,0.5-0.2,1.2,0,1.9c0.2,0.8,0.1,2.2-0.2,4.4c-0.3,2.2-1.2,6.2-2.6,11.9
				c-1.4,5.8-3,11.4-4.7,17c-1.8,5.5-3.7,10.8-5.7,15.9c-2,5-4.1,9.5-6.2,13.4c-0.7,0.9-2,1.9-3.9,3.1c-1.9,1.1-3.3,1.7-4.2,1.8
				c-1.1,0.1-2.8-0.1-5-0.6c-2.3-0.5-4.1-0.9-5.6-1.4c-1.3-0.3-3.1-0.1-5.4,0.6c-2.3,0.7-4.1,0.7-5.4,0.1c-5.3-2.3-9.6-5.1-13.1-8.6
				c-3.5-3.4-6.3-7.2-8.4-11.3c-2.1-4.1-3.6-8.5-4.6-13.1c-0.9-4.6-1.5-9.1-1.7-13.6c-0.4-6.9-0.2-13.8,0.8-20.9
				c0.9-7,2.1-14.1,3.6-21c1.5-7,3.1-13.9,4.8-20.6c1.7-6.7,3.4-13.1,5-19.1c-1.8-0.8-3.8-1.5-5.8-2.2c-2.1-0.7-3.9-1.6-5.6-2.5
				c1.3-0.4,2.7-0.7,4.5-0.8c1.7-0.1,3-0.2,3.9-0.2c1.1-0.1,2-0.2,2.7-0.3c0.7-0.1,1.4-0.5,2.2-1c2.6-8.8,5.2-17.1,7.8-25
				c2.5-7.9,5.1-15.6,7.8-23.1c2.6-7.5,5.6-14.9,8.9-22.3c3.3-7.3,6.7-15,10.2-23c0.4-0.7,0.6-1.3,0.8-1.7c0.2-0.4,0.5-1.2,1.1-2.3
				c0.7-1.4,1.9-3.6,3.5-6.4c1.6-2.9,3.1-5.5,4.5-7.9c1.4-2.4,2.9-4.3,4.4-5.7c1.5-1.4,3.3-2.2,5.3-2.5c0.5,0,1.7,0.1,3.4,0.3
				c1.7,0.2,3.5,0.7,5.4,1.4c1.9,0.7,3.5,1.4,4.9,2.2c1.4,0.8,2,1.6,2.1,2.5c0,0.3-0.5,2-1.6,5c-1.1,3-2.5,6.5-4.2,10.5
				c-1.8,4-3.5,8.3-5.3,12.9c-1.8,4.6-3.3,8.4-4.5,11.4c-0.9,3-2.1,6.4-3.6,10.2c-1.5,3.8-2.8,7.4-3.8,10.7
				c-1.6,7.3-3.7,14.8-6.4,22.2c-2.7,7.5-4.3,14.6-4.8,21.4c-0.4,0.2-0.7,0.4-1.1,0.7c-0.4,0.3-0.7,0.6-1.1,1
				c6-0.7,11.3-1.3,16.1-1.7c4.8-0.4,9.4-1.1,13.8-1.8c4.4-0.8,9-1.8,13.8-3c4.8-1.2,14.7-3.4,29.9-6.5c0,1-2.1,2.8-6.2,5.1
				C337.7,164.7,335.7,166.7,335.9,168.2z M280.4,201.7c-0.2-0.5-0.3-1.4-0.4-2.8c-0.1-1.4-0.3-2.9-0.6-4.6
				c-0.3-1.7-0.5-3.3-0.7-4.9c-0.2-1.5-0.4-2.8-0.6-3.9l1.1-1.4l-9.7,0.8c-0.8,7.1-2.2,14.8-4.1,22.9c-1.9,8.1-3.7,16.4-5.3,24.8
				c-1.6,8.4-2.9,16.9-3.8,25.6c-0.9,8.7-1.2,17.1-1,25.2c0.2,1.5,0.7,3.8,1.4,6.9c0.7,3.1,1.8,5.2,3,6.3
				c3.9-6.4,7.3-13.7,10.1-21.7c2.8-8,5-16.2,6.7-24.6c1.6-8.4,2.8-16.8,3.4-25.2C280.4,216.8,280.6,208.9,280.4,201.7z"/>
		</g>
		<g>
			<path class="st0" d="M355.5,244.7c0,1.4-0.6,2.8-1.7,4.4c-1.2,1.5-2.5,2.9-3.9,4.1c-1.4,1.2-2.9,2.2-4.3,3.1
				c-1.4,0.9-2.5,1.2-3.2,1.1c-1.1,0.1-1.7-0.3-1.9-1.1c-0.2-0.8-0.8-1.1-1.9-1.1c-1.1,0.1-1.4,0.2-1.1,0.3c0.4,0.1,0,0.3-1.1,0.3
				c-1.1-0.1-2.5-0.8-4.4-1.9c-1.8-1.2-3.2-1.8-4.1-1.7c-1.1-0.1-1.4,0-0.8,0.3c0.5,0.3,0.3,0.4-0.8,0.3c-0.2,0-0.7-0.4-1.6-1.3
				c-0.9-0.9-2-2-3.1-3.3c-1.2-1.3-2.3-2.8-3.3-4.3c-1-1.6-1.8-2.9-2.3-3.9c-1.1-1.3-2.1-3.1-3-5.4c-0.9-2.3-1.6-4.4-2-6.5
				c-0.7-2.5-1.2-5.7-1.3-9.4c-0.1-3.7-0.2-6.1-0.2-7.1c0-0.9,0.2-2.6,0.8-5.2c0.5-2.6,0.9-4.8,1.3-6.5c0.3-4.5,1.1-9.4,2.3-14.8
				c1.2-5.3,2.8-10.6,4.7-15.8c1.9-5.2,4.5-10.4,7.6-15.6c3.1-5.2,6.8-9.9,11.1-14.1c2.3,0,4.5,0.8,6.4,2.3c1.9,1.5,3.6,3.3,4.9,5.3
				c1.4,2,2.4,4.2,3.2,6.5c0.7,2.4,1.1,4.3,1.1,5.9c0,0.5-0.5,2.5-1.4,5.9c-1,3.4-2.1,7.7-3.3,12.9c-1.2,5.2-2.5,10.7-3.9,16.7
				c-1.4,5.9-2.7,11.5-3.9,16.5c-1.2,5.1-2.3,9.4-3.3,13c-1,3.6-1.4,5.6-1.4,5.9l-0.4,15.6c0.4,0.3,0.8,0.5,1.2,0.4
				c0.4,0,1.2-0.1,2.3-0.1c2.5-0.1,5.1-0.9,7.8-2.4c2.7-1.5,5.8-3.1,9.2-4.8L355.5,244.7z M365.7,111.6c0,2.1-1,4-3.1,5.7
				c-2.1,1.8-4.4,3.3-7,4.5c-2.6,1.3-5.2,2.3-7.7,3c-2.5,0.8-4.4,1.2-5.7,1.2c-0.9-0.1-2.3-0.6-4.2-1.4c-1.9-0.8-3.7-1.6-5.3-2.4
				c0.3-5,2.1-9.5,5.3-13.4c3.2-3.9,7.4-5.9,12.7-6c0.7,0,1.9,0,3.4,0.2c1.5,0.2,3,0.5,4.3,1c1.4,0.5,2.7,1,4.1,1.4
				c1.4,0.4,2.1,0.7,2.3,0.9C365.6,107.8,365.9,109.5,365.7,111.6z"/>
		</g>
		<g>
			<path class="st0" d="M460.5,232.4c-0.7,1.4-1.6,2.9-2.8,4.4c-1.2,1.5-2.4,3-3.6,4.5c-1.4,2-3.6,4.7-6.6,8c-3,3.4-5.6,6.2-7.9,8.6
				c-1.6,1.6-3.8,3.3-6.6,5c-2.8,1.7-5.4,2.8-8,3.3c-1.3,0.1-2.4,0.2-3.5,0.3c-1.1,0.1-2.2,0.3-3.2,0.3c-0.4,0-1.3,0-2.7,0
				c-1.4,0-3.1,0-4.9-0.1c-1.8-0.1-3.7-0.3-5.7-0.6c-2-0.3-3.7-0.7-5.2-1.1c-1.5-0.4-3.1-1.3-4.9-2.6c-1.8-1.3-3.7-2.7-5.6-4.2
				c-1.9-1.5-3.9-3.1-5.9-4.7c-2-1.6-3.9-3-5.7-4.3c-3.3-2.1-6.1-4.3-8.5-6.9c-2.4-2.5-5.1-3.7-8.2-3.5c-0.9,0.1-2.4,0.8-4.4,2.2
				c-2.1,1.4-3.5,2.1-4.5,2.2c-0.9,0.1-1.8-0.3-2.7-1.1c-0.9-0.8-1.8-1.7-2.6-2.7c-0.8-1-1.5-2-2.1-3.1c-0.5-1.1-0.8-1.9-0.8-2.4
				c0-0.5,0.7-1.5,2-3.1c1.3-1.5,3-3.3,5-5.3c2-2,4-4,6-6c2.1-2,3.8-3.8,5.2-5.2c9.1-9,18.2-18.3,27.2-28c9-9.7,18.4-19.3,28.1-28.8
				c-2.5,0.3-5.4,0.8-8.5,1.5c-3.2,0.7-6.2,1.4-9.2,2c-3,0.6-5.5,1.2-7.7,1.7c-2.2,0.6-3.5,0.9-4.1,0.9c-0.9,0.1-2.1,0.2-3.5,0.6
				c-1.4,0.3-2.7,0.5-3.8,0.6c-0.7,0-2.3-0.8-4.8-2.6c-2.5-1.8-4.1-3.7-5.1-5.9c-0.7-1.5-1.3-3.5-1.7-6c-0.4-2.5-0.9-4.5-1.7-6
				c0.4-0.9,0.9-1.7,1.7-2.6c0.8-0.8,1.7-1.3,2.6-1.3c0.9-0.1,1.9,0,2.8,0.2c1,0.2,2,0.3,3.1,0.2c0.4,0,2.1-0.4,5.3-1.1
				c3.2-0.7,6.5-1.5,10.1-2.3c3.6-0.8,6.9-1.6,10-2.3c3.1-0.7,5-1.1,5.7-1.1c0.4,0,1,0,1.9,0c0.9,0,1.8,0.1,2.8,0.1
				c1,0,1.9,0.1,2.8,0.1c0.9,0,1.6,0,2.2,0c0.5,0,1.6-0.2,3.2-0.6c1.6-0.4,3.4-0.7,5.3-1.1c1.9-0.4,3.6-0.7,5.1-1.1
				c1.5-0.3,2.7-0.5,3.4-0.6c1.6-0.1,3.5,0.1,5.6,0.5c2.1,0.4,4.2,1.1,6.2,2.1c2.1,1,3.9,2.2,5.3,3.7c1.5,1.5,2.2,3.1,2.2,4.8
				c0,1.4-1.8,3.9-5.5,7.7c-3.7,3.8-8,7.8-12.9,12.3c-4.9,4.4-9.8,8.6-14.5,12.5c-4.8,3.9-8,6.6-9.8,8.1c-2.9,2.9-5.6,5.7-8.3,8.4
				c-2.7,2.7-5.6,5.2-8.6,7.6c-1.4,1.1-3.2,2.6-5.2,4.6c-2.1,1.9-3.8,3.5-5.2,4.8c-3.2,2.6-5.7,5.3-7.5,7.9
				c-1.8,2.7-2.9,4.6-3.5,5.6c2.5,1.9,5.5,4.1,9,6.5c3.4,2.4,6.9,4.6,10.4,6.6c3.4,2,6.9,3.7,10.5,5.1c3.5,1.3,7.2,1.9,11,1.7
				c2.5-0.1,5.9-0.7,10.1-1.6c4.2-0.9,8.4-1.9,12.4-3c4.1-1.1,9.1-2.4,15.3-4L460.5,232.4z"/>
		</g>
	</g>
	<g>
		<g>
			<path class="st1" d="M38,27.7h2.7c-0.2,3.3-1.4,5.9-3.5,7.8c-2.1,1.9-4.9,2.8-8.4,2.8c-4,0-7.2-1.4-9.5-4.2
				c-2.3-2.8-3.5-6.7-3.5-11.6c0-4.9,1.2-8.7,3.5-11.4c2.3-2.8,5.5-4.2,9.5-4.2c3.4,0,6.1,0.9,8.2,2.6c2.1,1.7,3.2,4,3.3,6.9h-2.7
				c-0.2-2.2-1.1-3.9-2.7-5.2c-1.6-1.3-3.6-1.9-6.1-1.9c-3.2,0-5.7,1.1-7.5,3.4c-1.8,2.3-2.7,5.5-2.7,9.7c0,4.2,0.9,7.5,2.7,9.9
				c1.8,2.4,4.4,3.6,7.6,3.6c2.6,0,4.7-0.7,6.3-2.2C36.9,32.2,37.8,30.2,38,27.7z"/>
			<path class="st1" d="M18.2,34.9c-2.6-3.1-3.8-7.4-3.8-12.5l0,0c0-5.1,1.2-9.3,3.9-12.4l0,0c2.6-3.1,6.3-4.7,10.6-4.7l0,0
				c3.6,0,6.7,0.9,9.1,2.9l0,0c2.4,2,3.7,4.7,3.9,7.9l0,0l0.1,1.5h-5.5l-0.1-1.3c-0.2-1.9-0.9-3.2-2.2-4.2l0,0
				c-1.3-1-2.9-1.6-5.2-1.6l0,0c-2.9,0-4.8,1-6.4,2.9l0,0c-1.5,2-2.4,4.8-2.4,8.8l0,0c0,4,0.9,6.9,2.4,9l0,0c1.6,2,3.6,3,6.4,3l0,0
				c2.4,0,4.1-0.6,5.4-1.8l0,0c1.3-1.2,2-2.7,2.2-5l0,0l0.1-1.3h5.6l-0.1,1.5c-0.2,3.6-1.6,6.6-4,8.7l0,0c-2.4,2.1-5.6,3.2-9.4,3.2
				l0,0c0,0-0.1,0-0.1,0l0,0C24.4,39.7,20.8,38.1,18.2,34.9L18.2,34.9z"/>
		</g>
		<g>
			<path class="st1" d="M65,37.4V7.6h19.5v2.4H67.7v10.9h15.3v2.4H67.7V35H85v2.4H65z"/>
			<polygon class="st1" points="65,38.8 65,37.4 66.5,37.4 65,37.4 65,38.8 63.6,38.8 63.6,6.2 85.9,6.2 85.9,11.5 69.2,11.5 
				69.2,19.5 84.5,19.5 84.5,20.9 84.5,24.7 69.2,24.7 69.2,33.5 86.5,33.5 86.5,38.8 65,38.8 			"/>
		</g>
		<g>
			<path class="st1" d="M109.1,37.4V7.6h9.9c2.3,0,4,0.1,5,0.3c1,0.2,1.9,0.5,2.7,0.9c1.2,0.7,2.1,1.6,2.7,2.7c0.6,1.2,1,2.5,1,4
				c0,1.8-0.4,3.4-1.2,4.6c-0.8,1.3-2,2.2-3.6,2.7c1.2,0.4,2.1,1,2.6,1.9c0.5,0.8,0.9,2.5,1.1,5.1l0.4,4.5c0.1,0.7,0.2,1.3,0.3,1.7
				c0.2,0.5,0.4,0.8,0.6,1v0.4h-3c-0.2-0.3-0.3-0.7-0.4-1.2c-0.1-0.5-0.2-1.1-0.2-1.8l-0.3-3.9c-0.2-2.7-0.7-4.5-1.5-5.2
				c-0.8-0.7-2.3-1.1-4.6-1.1h-8.7v13.3H109.1z M111.9,21.6h7.9c2.8,0,4.8-0.5,6-1.4c1.2-0.9,1.8-2.5,1.8-4.6c0-1-0.2-1.8-0.6-2.6
				c-0.4-0.8-0.9-1.4-1.6-1.9c-0.6-0.4-1.2-0.6-2-0.8c-0.8-0.2-2-0.2-3.8-0.2h-1.2h-6.6V21.6z"/>
			<path class="st1" d="M126.8,38.8l-0.4-0.8c-0.3-0.5-0.4-1-0.5-1.6l0,0c-0.1-0.6-0.2-1.3-0.3-2l0,0l-0.3-4c-0.1-2.6-0.8-4.1-1-4.3
				l0,0c-0.2-0.3-1.4-0.7-3.6-0.7l0,0h-7.3v13.3h-1.4h-2.7v-1.4h1.4h-1.4v1.4h-1.5V6.2h11.4c2.4,0,4.1,0.1,5.3,0.3l0,0
				c1.2,0.2,2.2,0.6,3.1,1.1l0,0c1.4,0.8,2.5,1.9,3.3,3.3l0,0c0.8,1.4,1.1,3,1.1,4.7l0,0c0,2-0.5,3.9-1.5,5.4l0,0
				c-0.5,0.8-1.1,1.4-1.8,1.9l0,0c0.3,0.3,0.6,0.6,0.9,1l0,0c0.8,1.3,1.1,3.1,1.3,5.7l0,0l0.4,4.5c0,0.6,0.1,1.1,0.2,1.4l0,0
				c0.1,0.3,0.2,0.4,0.2,0.4l0,0l0.5,0.4V37v1.9H126.8L126.8,38.8z M119.8,20.2c2.6,0,4.3-0.5,5.1-1.1l0,0c0.8-0.6,1.3-1.6,1.3-3.4
				l0,0c0-0.8-0.2-1.4-0.4-2l0,0c-0.3-0.6-0.6-1-1.2-1.3l0,0c-0.4-0.3-0.9-0.5-1.5-0.6l0,0c-0.6-0.1-1.8-0.2-3.5-0.2l0,0h-1.2h-5.1
				v8.7H119.8L119.8,20.2z"/>
		</g>
		<g>
			<path class="st1" d="M155.1,37.4V7.6h2.8v29.8H155.1z"/>
			<polygon class="st1" points="158,38.8 155.1,38.8 155.1,37.4 156.6,37.4 155.1,37.4 155.1,38.8 153.7,38.8 153.7,6.2 159.4,6.2 
				159.4,38.8 158,38.8 			"/>
		</g>
		<g>
			<path class="st1" d="M190.1,37.4V10.1h-9.2V7.6h21.3v2.4h-9.2v27.3H190.1z"/>
			<polygon class="st1" points="192.9,38.8 190.1,38.8 190.1,37.4 191.6,37.4 190.1,37.4 190.1,38.8 188.7,38.8 188.7,11.5 
				179.4,11.5 179.4,6.2 203.6,6.2 203.6,11.5 194.4,11.5 194.4,38.8 192.9,38.8 			"/>
		</g>
		<g>
			<path class="st1" d="M219.9,37.4l11.3-29.8h3.3l11.3,29.8H243l-3.4-9.2h-13.4l-3.4,9.2H219.9z M227.1,25.9h11.6l-5.8-15.3
				L227.1,25.9z"/>
			<path class="st1" d="M242,38.8l-3.4-9.2h-11.3l-3.4,9.2h-1h-2.9v-1.4l1.4,0.5l-1.4-0.5v1.4h-2.1l12.4-32.7h5.3l12.4,32.7H242
				L242,38.8z M236.6,24.4l-3.7-9.8l-3.7,9.8H236.6L236.6,24.4z"/>
		</g>
		<g>
			<path class="st1" d="M298.1,37.4V7.6h2.7v12.9h17V7.6h2.8v29.8h-2.8V23h-17v14.4H298.1z"/>
			<polygon class="st1" points="316.4,38.8 316.4,24.4 302.3,24.4 302.3,38.8 300.9,38.8 298.1,38.8 298.1,37.4 299.6,37.4 
				298.1,37.4 298.1,38.8 296.7,38.8 296.7,6.2 302.3,6.2 302.3,19.1 316.4,19.1 316.4,6.2 322.1,6.2 322.1,38.8 316.4,38.8 			"/>
		</g>
		<g>
			<path class="st1" d="M342.8,37.4l11.3-29.8h3.3l11.3,29.8h-2.9l-3.4-9.2h-13.4l-3.4,9.2H342.8z M350,25.9h11.6l-5.8-15.3
				L350,25.9z"/>
			<path class="st1" d="M364.8,38.8l-3.4-9.2h-11.3l-3.4,9.2h-1h-2.8v-1.4l1.3,0.5l-1.3-0.5v1.4h-2.1l12.4-32.7h5.3l12.4,32.7H364.8
				L364.8,38.8z M359.4,24.4l-3.7-9.8l-3.7,9.8H359.4L359.4,24.4z"/>
		</g>
		<g>
			<path class="st1" d="M395.7,37.4V10.1h-9.2V7.6h21.3v2.4h-9.2v27.3H395.7z"/>
			<polygon class="st1" points="398.6,38.8 395.7,38.8 395.7,37.4 397.2,37.4 395.7,37.4 395.7,38.8 394.3,38.8 394.3,11.5 
				385.1,11.5 385.1,6.2 409.2,6.2 409.2,11.5 400,11.5 400,38.8 398.6,38.8 			"/>
		</g>
		<g>
			<path class="st1" d="M430.7,37.4V7.6h2.8v29.8H430.7z"/>
			<polygon class="st1" points="433.5,38.8 430.7,38.8 430.7,37.4 432.2,37.4 430.7,37.4 430.7,38.8 429.3,38.8 429.3,6.2 435,6.2 
				435,38.8 433.5,38.8 			"/>
		</g>
	</g>
	<g>
		<g>
			<path class="st0" d="M83.5,359.6c-0.7,0.6-1.5,1.3-2.5,2.1c-1,0.8-1.9,1.6-2.7,2.1c-1,0.8-2.4,1.6-4.2,2.3
				c-1.8,0.7-3.2,1.8-4.2,3.2c-0.4,0.6-0.6,1.5-0.6,2.7c0,1.3-0.3,2.2-1,2.9c-0.6,1.2-1.2,3.5-1.7,7c-0.5,3.4-1,5.7-1.3,6.8
				c-0.4,1.1-0.7,2.5-1.1,4.3c-0.4,1.8-0.8,3.4-1.4,4.8c0,0.2-0.2,0.5-0.5,1c-0.3,0.4-0.6,0.9-0.8,1.3c-0.3,1.4-0.5,2.9-0.6,4.4
				c-0.1,1.6-0.2,3-0.3,4.1l-0.2,0l-0.7,0.5c0,0.5,0.1,1.3,0.2,2.3c0.1,1,0.1,2-0.1,3.1l-2,0.3c-0.7,0-1.2-0.2-1.6-0.9
				c-0.4-0.6-0.9-1-1.6-1.2c-3.4-1.7-5.8-3.8-7.1-6.2c-1.3-2.4-2.1-5.1-2.4-7.8c-0.3-2.8-0.4-6.7-0.4-11.7c0.1-5-0.2-8.7-0.9-11
				c-1.2,0.5-2.5,0.8-3.9,0.8c-1.4,0-3,0.1-4.8,0.2c-1.8,0.1-3.5,0.2-5.3,0.4c-1.8,0.2-3.4,0.3-4.8,0.5c-0.9,1-1.3,1.9-1.2,2.7
				c0.1,0.8-0.5,1.5-1.5,2c-1.5,7.1-2.6,12.3-3.3,15.6c-0.7,3.3-1.5,6.5-2.4,9.7l0.2,1.4c0.3,0.2,1.1-0.1,2.3-0.9
				c0.2,0.7,0.2,1.6-0.1,2.5c0.2,0.2,0.4,0.4,0.6,0.7c0.2,0.3,0.3,0.7,0.4,1.3c0,1-0.3,2-1,2.7c-0.7,0.8-1.4,1.2-2.2,1.2
				c-0.6,0.1-1.1,0-1.7-0.5c-0.6-0.5-1.1-0.7-1.7-0.7c-2-0.1-3.6-0.9-4.9-2.5c-1.3-1.6-2.3-3.4-2.9-5.5c-0.7-2.1-1.1-4.2-1.3-6.3
				c-0.2-2.1-0.3-3.6-0.3-4.6c-0.3-4.7,0-10.1,0.7-16.2c0.7-6.1,1.7-12.8,3-20.2c1.3-7.4,2.8-13.9,4.4-19.6
				c1.6-5.7,3.1-10.4,4.5-14.2c0.2-0.4,0.6-1.6,1.1-3.4c0.5-1.8,1.1-3.7,1.8-5.6c0.7-1.9,1.5-3.7,2.4-5.3c0.9-1.6,1.8-2.4,2.7-2.4
				c1.9-0.1,3.3,0.6,4.3,2.3c1,1.6,1.7,3.5,2.1,5.6c0.4,2.1,0.6,4.1,0.6,6c0,1.9,0.1,2.9,0.2,3.1c0,2.4,0,5.5,0,9.1
				c0,3.7-0.2,6.6-0.5,8.7c-0.3,2.1-0.8,5.3-1.3,9.4c-0.6,4.2-1,7-1.3,8.3c0.2,0.2,0.3,0.3,0.2,0.3c-0.1,0,0.2,0,0.8,0
				c0.2-0.1,0.8-0.2,1.9-0.3c1-0.1,2.4-0.3,4.1-0.6c1.7-0.3,3.5-0.5,5.4-0.5c1.9,0,3.5-0.2,4.9-0.4c1-5.8,2-11.2,2.7-16.1
				c0.8-4.9,2.9-11.5,6.5-19.9c1.3-3.2,2.7-6.4,4.2-9.6c1.5-3.2,3.3-6.4,5.5-9.7c1.1,0.3,2.4,0.5,3.8,0.9c1.4,0.3,2.6,0.7,3.6,1
				c0,0.2,0.2,0.5,0.5,0.8c0.3,0.3,0.6,0.6,0.8,0.9c1,1,1.7,2.2,2.2,3.7c0.4,1.4,0.7,2.4,0.7,3c0,0.6-0.1,1.2-0.4,1.8
				c-0.3,0.6-0.4,1.2-0.4,1.7c-0.1,4.3-0.1,8.4,0,12.1c0.1,3.8-0.2,7.7-0.8,11.7c-0.5,2.6-1,5.2-1.4,7.8c-0.4,2.7-0.7,5.5-0.9,8.4
				c1.3,0,2.7,0.1,4.2,0.2c1.5,0.1,2.6,0.1,3.2,0.1c0.5-0.1,1.1-0.2,1.6-0.2C82.4,359.6,83,359.6,83.5,359.6z"/>
		</g>
		<g>
			<path class="st0" d="M128,355.4c0,0.3,0,0.9,0,1.9c0,0.9,0,2.1-0.1,3.3c0,1.3-0.1,2.6-0.2,4c-0.1,1.4-0.2,2.4-0.3,3.2
				c-0.2,2-0.5,4.3-1,6.8c-0.5,2.5-0.9,5-1.4,7.5c-0.5,2.4-0.9,4.9-1.3,7.3c-0.4,2.4-0.5,3.8-0.5,4.1c0,0.5,0.2,1.9,0.5,4.2
				c0.3,2.3,0.7,4.3,1.1,5.9l-0.2,0c-0.1,0-0.3,0.2-0.7,0.5c1,1,2.4,1.9,4.1,2.8c-0.6,0-1.2,0.3-2,0.7c-0.8,0.5-1.4,0.7-2,0.7
				c-0.9,0.1-2-0.3-3.4-1c-1.4-0.7-2.8-1.6-4.4-2.7c-1.6-1.1-2.9-2.3-4.2-3.7c-1.2-1.3-2.1-2.8-2.5-4.3c-0.9-2.6-1.4-5-1.6-7.2
				c-0.2-2.2-0.3-3.8-0.2-4.8c0-1,0.1-2,0.2-2.9c0.1-1,0.1-2.1,0-3.5c-1.1,1.1-2.1,2.4-2.9,3.9c-0.9,1.5-1.9,2.8-3.1,3.9
				c-1.1,1.3-2.2,2.9-3.3,4.6c-1.1,1.7-2.2,3.9-3.2,6.3c-0.2,0.2-0.4,0.8-0.4,1.7c0,0.9-0.2,1.6-0.6,2.2c-1,1.7-1.9,3.4-2.8,4.9
				c-0.9,1.5-2,2.8-3.3,3.8c-0.5,0.6-1.4,1.1-2.5,1.6s-2.1,0.7-2.7,0.8l-2.5,0.1c-0.4,0-0.9-0.3-1.4-0.9c-0.5-0.6-1-1-1.6-1.3
				c-1.5-1-2.7-1.9-3.5-2.9c-0.8-1-1.4-1.9-1.8-2.7c-0.4-0.9-0.6-1.8-0.7-2.7c-0.1-0.9-0.1-1.8-0.1-2.5c0-0.9,0.1-2,0.2-3.2
				c0.2-1.2,0.4-2.4,0.7-3.7c0.3-1.2,0.6-2.4,0.9-3.4c0.3-1.1,0.6-1.9,0.9-2.4c0.9-2.4,2-4.9,3.3-7.7c1.3-2.8,2.7-5.3,4.1-7.7
				c1.1-2,2.5-4.3,4.1-6.9c1.7-2.7,3.5-5.6,5.5-8.7c2-3.1,4.2-6.2,6.5-9.4c2.3-3.1,4.8-6,7.4-8.7c0.2-0.2,0.6-0.3,1.2-0.3
				c0.5,0,1.2,0,1.8,0c2.3-0.1,4.6,0.1,7,0.6c2.4,0.5,4.6,1.1,6.7,1.6l0,1.7c-1,1.5-2,2.7-2.9,3.6c-1,0.8-1.4,1.7-1.1,2.7
				c1.2-0.3,2.6-0.4,4.3-0.3c1.6,0.1,3.3,0.2,4.9,0.3c-0.2,1.2-0.2,2.7,0.1,4.7C127.9,353.7,128,354.9,128,355.4z M115.3,349.3
				c-0.8,0.3-1.5,0.6-2.1,1.1c-0.6,0.5-1.3,1-2.2,1.5c-0.2-0.3-0.3-0.5-0.3-0.7c0.1-0.2,0-0.2-0.3-0.2c-1,1.1-2.1,2.5-3.3,4.2
				c-1.3,1.7-2.5,3.5-3.7,5.3c-1.2,1.8-2.2,3.6-3.2,5.3c-0.9,1.7-1.5,3.3-1.9,4.7c-0.2,0.5-0.6,1.3-1,2.2c-0.5,0.9-0.8,1.8-1,2.7
				l0.3-0.5l0.2,0.1c-0.6,1.4-1.2,2.6-1.6,3.6c-0.4,1-0.9,2.2-1.4,3.5c-0.5,1.3-1,2.7-1.6,4.2c-0.6,1.5-1.3,3.4-2,5.8
				c6.6-8.9,11.9-16.9,15.9-24.1C110.2,360.7,113.2,354.5,115.3,349.3z"/>
		</g>
		<g>
			<path class="st0" d="M246.5,381.5c-2.2,2-4.5,4.3-7,6.7c-2.5,2.5-5.3,4.9-8.5,7.3c-1.7,1.3-4.1,2.6-7,4c-2.9,1.4-5.7,3.2-8.3,5.2
				l-2.1,0.1c-2.5,0.1-4.8-0.6-6.9-2.2c-2.1-1.6-3.9-3.6-5.4-5.8c-1.5-2.3-2.7-4.5-3.6-6.7c-0.9-2.2-1.4-3.8-1.4-4.9
				c-0.2-2-0.4-4.3-0.4-6.9c0-2.6-0.2-5.1-0.4-7.5c-0.8,1-1.3,1.9-1.6,2.6c-0.3,0.8-0.5,1.5-0.6,2.2c-0.1,0.7-0.2,1.4-0.4,2.1
				c-0.2,0.6-0.4,1.3-0.7,1.9c-1.2,2.4-2.6,4.7-4.2,7.1c-1.6,2.4-3.1,4.6-4.4,6.6c-0.5,0.8-1.2,1.8-2,3c-0.8,1.3-1.6,2.5-2.4,3.6
				c-0.8,1.1-1.5,2.1-2.1,3c-0.7,0.8-1.1,1.2-1.3,1.3l-3.3,0.2c-0.5,0-1.3-0.5-2.2-1.5c-0.9-1-1.7-2-2.2-2.8
				c-1.1-1.3-1.9-2.4-2.5-3.3c-0.6-0.9-1-1.8-1.3-2.7c-0.3-0.9-0.4-1.8-0.4-2.7c0-0.9,0-1.9,0-3.1c0-0.3,0.2-1.9,0.7-4.8
				c0.5-2.9,1-6.3,1.6-10.3c0.6-4,1.3-8.1,2-12.4c0.7-4.3,1.3-8,1.7-11.2c-2.4,4.3-4.7,9-7,14c-2.3,5-4.4,9.9-6.3,14.8
				c-1.9,4.9-3.8,9.5-5.5,13.9c-1.7,4.4-3.3,8.1-4.7,11.4c-0.3,0.7-0.9,1.5-1.8,2.6c-0.9,1.1-1.6,1.7-2.1,1.7
				c-0.7,0-1.7-0.5-3.1-1.7c-1.4-1.2-2.5-2.2-3.4-3.1c-1.7-2.1-2.7-4.1-3.1-6.1c-0.4-2-0.6-4.3-0.6-6.9c0-2.2,0-4.3,0.1-6.2
				c0.1-1.9,0.3-3.7,0.6-5.5c0.3-1.8,0.6-3.6,0.9-5.4c0.3-1.9,0.7-4,1.3-6.5c0.3-2,0.9-4.3,1.7-6.8c0.8-2.5,1.6-4.9,2.3-7.1
				c1.1-3.4,2-6.1,2.8-8c0.8-1.9,1.6-4.5,2.5-7.9c0.2-0.1,0.4-0.4,0.7-0.8c0.2-0.4,0.5-0.8,0.8-1c0.2,0,0.6,0.1,1.2,0.5
				c0.6,0.3,1,0.6,1.5,0.8c0.4,0.1,1.2,0.1,2.3,0.1c1.1,0,2.2,0.1,3.4,0.4c1.2,0.3,2.2,0.8,3,1.4c0.8,0.6,1.3,1.6,1.3,3
				c0,0.5-0.3,1-0.9,1.5c-0.6,0.5-1,0.8-1.1,1.2c-0.6,2.6-1.1,4.3-1.3,5.2c-0.2,0.9-0.7,2.5-1.6,4.9c-0.3,1-0.9,2-1.7,3.2
				c-0.8,1.2-1.3,2.3-1.5,3.2c-1.3,4.9-2.7,9.9-4.4,15c-1.7,5.1-2.6,10.6-2.7,16.5c2.5-3.5,4.9-7.6,7.3-12.3
				c2.4-4.7,4.7-9.6,7.1-14.7c2.4-5.1,4.7-10.2,7-15.4c2.3-5.1,4.6-10,6.9-14.5c0.1-0.2,0.4-0.5,1-0.9c0.5-0.4,1.1-0.6,1.6-0.6
				c0.7,0,1.2,0.1,1.6,0.5c0.4,0.3,0.8,0.6,1.2,0.8c1,0.5,2,0.8,3,0.8c1,0.1,2,0.1,3,0.1c0.4,0.3,0.8,0.8,1.1,1.5
				c0.3,0.7,0.5,1.5,0.7,2.3c0.2,0.8,0.3,1.6,0.3,2.2c0.1,0.6,0.1,1.1,0.1,1.4c0,1.7-0.2,4.2-0.7,7.4c-0.5,3.3-1.1,6.6-1.8,9.9
				c-0.7,3.3-1.7,7.3-2.9,12.1l0,1.1l0.7,0c1.1-2.2,2.3-4.5,3.6-6.9c1.3-2.4,2.8-5,4.4-7.6c0.2-0.5,0.5-1.3,0.8-2.3
				c0.3-1,0.6-1.8,1-2.5c0-0.1,0.6-1.1,1.7-3.1c1.1-2,2.5-4,4-6.2c1.5-2.2,3-4.2,4.6-6c1.5-1.8,2.8-2.8,3.8-2.8
				c0.2,0,0.8,0.1,1.7,0.4c0.9,0.3,2,0.6,3.1,1c1.2,0.4,2.3,0.8,3.5,1.2c1.2,0.4,2.1,0.7,2.7,0.9c0.2,0.1,0.4,0.4,0.7,0.9
				c0.2,0.5,0.4,1,0.7,1.4c0.3,0.9,0.7,2,1,3.1c0.3,1.1,0.6,2.2,0.7,3.1c0.1-0.1,0.2-0.2,0.3-0.2c0.2,0,0.3,0.2,0.3,0.8
				c0,0.6-0.1,1.6-0.2,2.9c-0.2,1.3-0.3,2.5-0.4,3.6c-0.3,1.2-0.9,2.9-1.7,5.1c-0.8,2.3-1.4,4.2-1.8,5.8c-1.1,3.2-1.9,6.4-2.6,9.5
				c-0.7,3.1-1,6.3-1,9.6c0,1.7,0.1,3.5,0.1,5.3c0.1,1.9,0.9,3.8,2.4,5.7c3-0.5,5.7-1.2,8.1-2.1c2.4-0.9,4.8-2,7.2-3.3
				c2.4-1.3,5-2.8,7.8-4.4C239.6,384.7,242.8,383.1,246.5,381.5z"/>
		</g>
		<g>
			<path class="st0" d="M253.2,396.1c0,0.8-0.3,1.7-1,2.7c-0.7,0.9-1.5,1.8-2.4,2.5c-0.9,0.7-1.7,1.4-2.6,1.9
				c-0.9,0.5-1.5,0.7-2,0.7c-0.7,0-1-0.2-1.2-0.6c-0.1-0.5-0.5-0.7-1.2-0.6c-0.7,0-0.9,0.1-0.7,0.2c0.2,0.1,0,0.2-0.7,0.2
				c-0.7-0.1-1.5-0.5-2.6-1.2c-1.1-0.7-1.9-1.1-2.5-1c-0.7-0.1-0.8,0-0.5,0.2c0.3,0.2,0.2,0.3-0.5,0.2c-0.1,0-0.4-0.3-1-0.8
				c-0.6-0.5-1.2-1.2-1.9-2c-0.7-0.8-1.4-1.7-2-2.6c-0.6-1-1.1-1.7-1.4-2.4c-0.7-0.8-1.3-1.9-1.8-3.3c-0.6-1.4-1-2.7-1.2-3.9
				c-0.5-1.5-0.7-3.4-0.8-5.7c-0.1-2.3-0.1-3.7-0.1-4.3c0-0.5,0.1-1.6,0.5-3.2c0.3-1.6,0.6-2.9,0.8-4c0.2-2.7,0.7-5.7,1.4-9
				c0.7-3.2,1.7-6.5,2.9-9.6c1.2-3.2,2.7-6.3,4.6-9.5c1.9-3.2,4.1-6,6.8-8.6c1.4,0,2.7,0.5,3.9,1.4c1.2,0.9,2.2,2,3,3.2
				c0.8,1.2,1.5,2.5,1.9,4c0.4,1.4,0.7,2.6,0.7,3.6c0,0.3-0.3,1.5-0.9,3.6c-0.6,2.1-1.3,4.7-2,7.8c-0.7,3.1-1.5,6.5-2.4,10.1
				c-0.8,3.6-1.6,7-2.4,10.1c-0.7,3.1-1.4,5.7-2,7.9c-0.6,2.2-0.9,3.4-0.9,3.6l-0.2,9.5c0.2,0.2,0.5,0.3,0.7,0.3
				c0.3,0,0.7,0,1.4-0.1c1.5-0.1,3.1-0.6,4.8-1.5c1.6-0.9,3.5-1.9,5.6-2.9L253.2,396.1z M259.4,315.1c0,1.3-0.6,2.4-1.9,3.5
				c-1.3,1.1-2.7,2-4.3,2.8c-1.6,0.8-3.2,1.4-4.7,1.8c-1.5,0.5-2.7,0.7-3.5,0.8c-0.6-0.1-1.4-0.4-2.6-0.9c-1.2-0.5-2.2-1-3.2-1.5
				c0.2-3.1,1.3-5.8,3.2-8.1c2-2.4,4.5-3.6,7.7-3.7c0.4,0,1.1,0,2.1,0.1c0.9,0.1,1.8,0.3,2.6,0.6c0.8,0.3,1.7,0.6,2.5,0.9
				c0.8,0.3,1.3,0.5,1.4,0.5C259.3,312.8,259.5,313.8,259.4,315.1z"/>
		</g>
		<g>
			<path class="st0" d="M335.1,378.3c-0.4,0.7-1,1.5-1.5,2.5c-0.6,1-1.1,1.9-1.5,2.5c-0.9,1.1-2,2.5-3.3,4c-1.3,1.6-2.4,3-3.3,4
				c-0.2,0.3-0.7,0.8-1.6,1.5c-0.8,0.7-1.4,1.1-1.9,1.4c-1.3,0.7-3,1.4-5.1,2c-2.1,0.6-3.4,1-3.9,1.2c-0.7,0-1.6,0.1-3,0.3
				c-1.3,0.1-2.5,0-3.5-0.5c-1.8-0.8-3.4-2-4.8-3.3c-1.4-1.4-2.7-2.9-3.9-4.6c-1.2-1.7-2.2-3.4-3.2-5.1c-1-1.7-1.9-3.5-2.8-5.2
				c-1,1.5-2,3.5-3,6c-1,2.5-2.2,4.9-3.6,7.3c-1.4,2.4-2.8,4.5-4.3,6.3c-1.5,1.8-3.3,2.8-5.2,3.1c-2.6,0.4-5.2,0.3-7.7-0.3
				c-2.5-0.5-4.7-1.5-6.7-2.8c-2-1.4-3.6-3.1-4.9-5.3c-1.3-2.2-2-4.8-2.3-7.8c-0.1-0.5,0-1.9,0.5-4c0.4-2.2,0.7-4.2,0.9-6
				c0.7-3.7,1.9-7.5,3.4-11.4c1.5-3.9,3.3-7.7,5.3-11.5c2.1-3.8,4.2-7.5,6.6-11c2.3-3.5,4.7-6.9,7.1-9.9c0.3-0.2,0.9-0.4,1.7-0.7
				c0.8-0.2,1.7-0.4,2.7-0.5c1-0.1,1.9-0.2,2.6-0.3c0.8-0.1,1.3-0.2,1.6-0.3c1.1-0.1,2.6,0.2,4.5,0.8c0.6-2.3,1.5-5.2,2.6-8.5
				c1.1-3.3,2.3-6.5,3.5-9.7c1.4-3.8,3.1-8,5-12.7c1.9-4.7,4.1-8.9,6.6-12.6c0.1-0.2,0.5-0.5,1.1-0.9c0.7-0.4,1.3-0.7,2.1-0.9
				c0.7-0.2,1.4-0.4,2.1-0.6c0.7-0.1,1.2-0.3,1.4-0.4c0.7,0,1.7,0.1,3.1,0.3c1.4,0.2,2.7,0.5,3.8,0.9l0.7,8.1c0,0.2-0.1,0.9-0.2,2.2
				c-0.2,1.3-0.4,2.7-0.6,4.4c-0.3,1.6-0.5,3.3-0.8,5.1c-0.3,1.7-0.4,3.3-0.5,4.7c-0.6,6.5-2.5,13.7-5.8,21.4
				c-3.3,7.7-7.3,16.4-12,25.9c0,0.2,0,1-0.1,2.3c0,1.3-0.1,2.8,0,4.3c0,1.6,0.1,3,0.1,4.3c0.1,1.3,0.1,2.1,0.1,2.3
				c0.1,0.9,0.4,2.7,0.7,5.3c0.4,2.6,1,5.2,1.8,7.8c0.8,2.6,1.9,4.9,3.3,6.9c1.3,2,2.9,2.9,4.8,2.6c1.5-0.2,3.3-0.9,5.2-2.3
				c1.9-1.3,3.9-2.8,5.9-4.4c2-1.6,3.9-3.3,5.7-4.9C332.6,380.3,334,379.1,335.1,378.3z M288.7,347.7l-2.5,0.3
				c-0.8,0.4-1.8,1.4-3.2,3c-1.4,1.7-2.7,3.8-4.1,6.3c-1.4,2.5-2.8,5.4-4.1,8.4c-1.3,3.1-2.6,6.2-3.6,9.3c-1.1,3.1-1.9,6.1-2.6,8.9
				c-0.6,2.8-0.8,5.2-0.6,7c0,0.2,0.2,0.8,0.7,1.9c0.4,1,1,1.8,1.5,2.3c1.5-0.7,3.1-2.1,4.6-4.3c1.5-2.1,3-4.5,4.3-7.1
				c1.3-2.6,2.6-5.3,3.9-8c1.2-2.8,2.3-4.9,3.2-6.6c0.1-0.5,0.2-1.2,0.2-2.1c0-0.8,0.2-1.4,0.4-1.6c0.2-0.4,0.6-0.9,1.1-1.5
				c0.5-0.6,0.8-1.1,0.9-1.8c0.2-2.4,0.1-4.9-0.1-7.5C288.2,352.2,288.3,349.8,288.7,347.7z M313.7,305.1
				c-2.6,5.6-4.3,10.1-5.1,13.4c-0.8,3.3-1.6,6.4-2.5,9.4c1.1-3.2,2.4-6.3,4-9.3C311.7,315.7,312.9,311.2,313.7,305.1z"/>
		</g>
		<g>
			<path class="st0" d="M392.9,371.3c-1.6,1.7-3.2,3.3-4.7,4.8c-1.5,1.5-2.8,3-3.8,4.4c-0.3,0.6-0.6,1.3-0.8,2
				c-0.2,0.7-0.5,1.3-1,1.9c-0.3,0.5-1.1,1.5-2.4,2.8c-1.3,1.3-2.7,2.8-4.3,4.3c-1.6,1.5-3.3,2.8-4.9,3.9c-1.6,1.1-2.9,1.7-3.8,1.7
				c-0.6,0-1.7-0.4-3.5-1.1c-1.8-0.8-3.4-1.7-5-2.8c-0.8-0.5-1.5-1.3-2.2-2.4c-0.7-1.1-1.4-2.3-2.1-3.7c-0.7-1.3-1.3-2.7-1.8-4.2
				c-0.5-1.4-0.8-2.7-0.9-3.7c-0.2-1.6-0.3-3.3-0.2-5.1c0.1-1.8,0-3.7-0.2-5.4c-2.8,4.3-5.4,8.3-7.9,12.2c-2.4,3.9-5.2,7.6-8.2,11.1
				c-0.2,0.2-0.7,0.6-1.6,1.1c-0.8,0.5-1.7,1-2.5,1.6c-0.9,0.5-1.7,1-2.6,1.4c-0.9,0.4-1.5,0.6-1.8,0.7c-2.1,0.1-3.7-0.6-5-2.2
				c-1.2-1.6-2.1-3.4-2.8-5.4c-0.6-2.1-1-4-1.2-5.9c-0.2-1.9-0.3-3.1-0.3-3.8c0-1.4,0-3,0.1-4.9c0.1-1.9,0.3-3.9,0.6-5.9
				c0.3-2.1,0.6-4.1,0.9-6c0.3-2,0.5-3.6,0.9-5c0.5-2.2,1.5-5.2,3-8.8c1.4-3.6,3.2-7.1,5.2-10.5c2-3.4,4-6.5,6-9.1
				c2-2.6,3.8-4.2,5.5-4.7c0.3,0.3,0.7,0.6,1.2,1c0.4,0.3,0.8,0.6,1.2,0.6c0,0.9,0,2.2,0,3.6c0,1.5,0,2.5,0,3c0,0.2,0,0.9-0.1,2.2
				c0,1.3-0.3,2.7-0.6,4.3c-0.4,1.6-0.8,3.3-1.4,5.2c-0.5,1.9-1,3.5-1.3,4.9c-0.2,1-0.5,2.2-0.8,3.6c-0.3,1.4-0.6,2.7-0.8,3.9
				c-0.6,3.5-1.1,7.2-1.5,11.2c-0.4,4-0.6,8-0.7,12.1c2.7-3.8,5.3-8,7.9-12.4c2.5-4.5,4.7-8.5,6.6-12.2c0.8-1.7,1.7-3.7,2.7-6.1
				c1.1-2.3,2.2-4.7,3.3-7.3c1.1-2.5,2.3-5.1,3.6-7.7c1.2-2.6,2.5-5.1,3.6-7.5c0.2-0.6,0.6-1,1.3-1.2c0.7-0.1,1.3-0.2,2-0.3
				c0.7,0,1.5,0,2.5,0.2c1,0.2,2,0.3,3.1,0.5c1.1,0.2,2.1,0.4,3,0.5c0.9,0.2,1.6,0.3,2.1,0.3c1.3,1.7,2.1,2.8,2.2,3.2
				c0.1,0.4,0.2,1.1,0.2,2.2c0,0.6-0.2,1.6-0.6,3c-0.4,1.3-0.7,2.5-0.8,3.4c-0.1,1-0.1,2-0.1,3.2c0.1,1.2,0,2.3-0.2,3.3
				c-0.5,2.3-1.2,5.1-2.2,8.2c-0.9,3.1-1.6,6.4-2.1,10c-0.3,1.6-0.7,3.5-1,5.7c-0.4,2.2-0.7,4.3-1.1,6.4c-0.4,2.1-0.7,3.8-0.9,5.3
				c-0.2,1.5-0.3,2.4-0.3,2.9l0,2.7c3.3-1.1,6.3-2.9,8.9-5.3c2.7-2.4,5.5-4.5,8.4-6.2c0.7-0.4,1.6-0.8,2.7-1.3
				C390.9,372.9,391.9,372.2,392.9,371.3z"/>
		</g>
		<g>
			<path class="st0" d="M456.3,374.4c-1.4,1-3.1,2.5-5,4.5c-1.9,2-3.6,3.9-5.1,5.7c-0.8,0.7-1.5,1.6-2.4,2.8
				c-0.8,1.2-1.6,2.1-2.4,2.8c-0.5,0.5-1.4,0.7-2.5,0.7c-1.1,0-2,0-2.6,0.1c-3.5,0.2-6.6-0.5-9.2-2c-2.6-1.5-4.8-3.4-6.6-5.8
				c-1.8-2.3-3.1-4.8-3.9-7.6c-0.8-2.7-1.1-6.4-0.7-10.9c0-2.1,0.2-4.3,0.6-6.6c0.4-2.3,0.8-4.5,1.3-6.7c0.4-2.2,0.8-4.3,1.1-6.4
				c0.3-2.1,0.3-3.9,0.1-5.6c-1.6,2.3-3.2,4.9-4.7,7.7c-1.5,2.8-2.6,5.3-3.4,7.4l-0.3,0.5c-0.2,0.2-0.1,0.3,0.5,0.3
				c-0.5,1.4-0.8,2-0.8,1.9c0-0.1,0.1-0.2,0.3-0.2c-0.8,1.5-1.6,3.4-2.6,5.5c-1,2.2-2.1,5-3.5,8.5c-1.3,3.5-2.6,6.5-3.6,8.9
				c-1.1,2.4-2.1,4.6-2.9,6.6c-0.1,0.4-0.1,0.9,0,1.4c0.1,0.5,0.3,1,0.5,1.5c0.2,0.5,0.3,1,0.3,1.5c0,0.5-0.2,1-0.6,1.5
				c-0.6-0.2-1.1,0.1-1.6,0.7c-0.5,0.7-0.9,1.3-1.1,1.8c-0.6,0.1-1-0.1-1.4-0.8c-0.4-0.7-0.9-1-1.6-0.9c-0.6,0-0.8,0.1-0.7,0.3
				c0.1,0.2-0.2,0.3-0.9,0.3c-0.2,0-0.6-0.1-1.2-0.5c-0.6-0.3-1.2-0.8-1.9-1.4c-0.7-0.6-1.3-1.2-1.9-1.9c-0.6-0.6-1-1.2-1.3-1.7
				c-0.4-0.7-0.7-1.7-0.8-2.9c-0.1-1.2-0.2-2.4-0.4-3.5c-0.1-1.1-0.2-2.2-0.2-3.1c0-0.9,0-1.5,0-2c0-3.5,0.4-7.7,1.3-12.8
				c0.9-5,1.9-9.7,2.9-14c1.1-4.3,2.3-8.6,3.6-13c1.3-4.4,2.6-8.8,3.9-13.1c0.1-0.2,0.1-0.6,0.1-1c-0.1-0.5-0.2-0.9-0.4-1.3
				c1.1-0.3,2.3-0.7,3.5-1.1c1.3-0.5,2.2-0.8,2.9-0.8c1.9-0.1,3.7,0.1,5.4,0.7c1.7,0.6,2.6,1.8,2.6,3.7c0,0.3-0.1,1.2-0.2,2.8
				c-0.2,1.5-0.4,3.3-0.7,5.4c-0.3,2.1-0.6,4.3-1,6.6c-0.4,2.3-0.8,4.5-1.2,6.4c1.8-3.3,3.9-6.9,6.1-10.8c2.2-4,4.7-7.5,7.4-10.7
				c0.4-0.7,1.4-1.1,2.8-1.3c1.4-0.2,2.4-0.3,3-0.3s1.8,0.1,3.7,0.4c1.9,0.3,3.6,0.6,4.9,0.8c0.4,0.6,0.9,1.5,1.3,2.6
				c0.5,1.1,0.8,2.4,1.1,3.8c0.3,1.4,0.5,2.8,0.8,4.3c0.2,1.5,0.4,2.8,0.4,3.9c0,0.2,0,0.9-0.1,2.1c-0.1,1.2-0.2,2.6-0.4,4.3
				c-0.1,1.6-0.3,3.3-0.5,5.1c-0.2,1.7-0.4,3.3-0.6,4.7c-0.3,1.2-0.8,2.5-1.4,3.9c-0.6,1.4-1,3-1.4,4.6c-0.2,1.1-0.6,2.9-1,5.4
				c-0.5,2.5-0.8,4.5-0.9,5.8c-0.2,1.3-0.3,2.5-0.5,3.6c-0.2,1.1-0.2,1.8-0.2,2.2c0,1.3,0.2,2.5,0.7,3.7c0.4,1.2,1.3,1.8,2.5,1.7
				c1-0.1,2.5-0.5,4.4-1.3c2-0.8,4-1.8,6.2-3c2.1-1.2,4.3-2.4,6.6-3.6C452.7,376.4,454.6,375.3,456.3,374.4z"/>
		</g>
	</g>
	<g>
		<g>
			<polygon class="st2" points="269,490.7 214.7,482.3 214.7,585.3 229.7,582 229.7,500 257,504.3 257,576 269,573.3 			"/>
		</g>
		<g>
			<polygon class="st3" points="225.5,471.2 220.2,473.6 214.7,469.6 214.7,480.8 225.5,482.5 			"/>
		</g>
		<g>
			<polygon class="st4" points="202.9,580.4 213.2,585.3 213.2,482.3 202.9,486.6 			"/>
		</g>
		<g>
			<polygon class="st4" points="245.5,510.8 245.5,570.9 255.4,575.8 255.4,506.8 			"/>
		</g>
		<g>
			<polygon class="st4" points="231.1,501.7 231.1,507.4 244.5,509.6 254.7,505.4 			"/>
		</g>
		<g>
			<path class="st4" d="M188.8,623.5v-13.3c0-3.2-2.8-4.8-6.3-3v16.3h-4.6v-21.2h4.1l0.6,0.3c1.7-0.5,4.7-1.1,7.4,0.2
				c2.1,1,3.6,2.9,3.6,6.1v14.7H188.8z"/>
		</g>
		<g>
			<path class="st4" d="M209.6,623.5l-0.3-0.3c-0.7,0.3-1.7,0.7-3.2,0.7c-5.1,0-8-2.5-8-7.8v-13.9h4.7v13.3c0,2.4,0.6,3.8,3.3,3.8
				c2.8,0,3.2-1.9,3.2-4v-13.1h4.7v21.2H209.6z"/>
		</g>
		<g>
			<path class="st4" d="M234.7,616.8c0,3-1.4,4.9-3.3,5.9c-3.8,1.9-7,1.2-12.3,0.8v-29.6h4.7v8.5c1.8-0.4,4.6-0.9,7.4,0.4
				c2.1,1,3.6,2.9,3.6,6.1V616.8z M230,610.1c0-4.6-5.3-3.7-6.4-2.8v12.1c1.6,0.5,6.4,0.3,6.4-2.5V610.1z"/>
		</g>
		<g>
			<path class="st4" d="M254.1,615.7c0,4.3-2.2,8.2-7.8,8.2c-5.5,0-8-3.9-8-8.2v-5.6c0-5.3,2.8-8.3,8-8.3c4.9,0,7.8,3.2,7.8,8.3
				V615.7z M249.5,610.1c0-3.4-2-3.6-3.2-3.6c-1.4,0-3.3,0.5-3.3,3.6v6c0,2.5,1.6,3.2,3.3,3.2c1.7,0,3.2-0.9,3.2-3.2V610.1z"/>
		</g>
		<g>
			<path class="st4" d="M273.5,615.7c0,4.3-2.2,8.2-7.8,8.2c-5.5,0-8-3.9-8-8.2v-5.6c0-5.3,2.8-8.3,8-8.3c4.9,0,7.8,3.2,7.8,8.3
				V615.7z M268.9,610.1c0-3.4-2-3.6-3.2-3.6c-1.4,0-3.3,0.5-3.3,3.6v6c0,2.5,1.6,3.2,3.3,3.2c1.7,0,3.2-0.9,3.2-3.2V610.1z"/>
		</g>
		<g>
			<path class="st4" d="M289.4,623.5l-6.3-10.8l-0.6,0.6v10.2h-4.7v-29.6h4.7v13.5l6.3-5.8l3.4,3.3l-5.6,4.7c1.2,2,3.9,6.6,8.6,14.1
				H289.4z"/>
		</g>
	</g>
</g>
</svg>
