<?xml version="1.0" encoding="utf-8"?>
<!-- Generator: Adobe Illustrator 19.0.0, SVG Export Plug-In . SVG Version: 6.00 Build 0)  -->
<svg version="1.1" id="Layer_1" xmlns="http://www.w3.org/2000/svg" xmlns:xlink="http://www.w3.org/1999/xlink" x="0px" y="0px"
	 viewBox="0 0 272.8 205.7" style="enable-background:new 0 0 272.8 205.7;" xml:space="preserve">
<style type="text/css">
	.st0{fill:#FFFFFF;}
</style>
<g>
	<g>
		<g>
			<path id="XMLID_199_" class="st0" d="M99.2,124c-1.9,4.4,1.1,12,1.6,16.1c0.3,1.9-0.3,4.1-0.3,6h0.3l0,0
				c2.7-5.2-0.8-11.7-0.8-17.2c0.3,0,0.3,0,0.3-0.3h0.3c0.3,0.3,0.5,0.8,0.8,0.8C100.8,128.1,100.3,125.1,99.2,124"/>
			<path class="st0" d="M101.1,146.3h-0.5v-0.3c0-0.8,0-1.4,0-2.2c0-1.4,0.3-2.5,0-3.8c-0.3-1.1-0.5-2.5-0.8-3.8
				c-1.1-4.1-2.2-9.3-0.8-12.5v-0.3h0.3c1.1,0.8,1.6,2.7,1.9,4.6c0,0.5,0.3,0.8,0.3,1.1v0.3h-0.3c-0.3,0-0.5-0.3-0.8-0.5l0,0
				c0,1.9,0.5,3.8,0.8,5.7C101.9,138.7,102.7,142.5,101.1,146.3L101.1,146.3L101.1,146.3z M99.2,124.3c-1.1,3,0,8.2,1.1,12
				c0.3,1.4,0.5,2.7,0.8,3.8c0.3,1.4,0,2.5,0,3.8c0,0.5,0,1.1,0,1.6c1.6-3.3,0.8-7.1,0-10.6c-0.5-2.2-1.1-4.1-1.1-6.3v-0.3h0.3v-0.3
				h0.5l0,0c0.3,0.3,0.3,0.5,0.5,0.5c0-0.3,0-0.5-0.3-0.8C100.3,127,100,125.1,99.2,124.3L99.2,124.3z"/>
		</g>
		<g>
			<path id="XMLID_196_" class="st0" d="M96.2,124.3c-1.6,1.1-3.8,1.4-6,2.2c-1.9,0.5-3.5,1.4-5.2,2.2c-1.1,0.5-2.2,0.8-3,1.6
				c-0.3,0.3-0.8,1.1-0.5,1.1l0,0c0.3,0,0.3,0,0.3,0c2.2-1.1,4.4-2.5,6.8-3.3c1.9-0.8,4.1-1.4,6.3-2.2c0.3-0.3,1.9-1.1,1.9-1.1
				C96.5,124.5,96.5,124.3,96.2,124.3L96.2,124.3z"/>
			<path class="st0" d="M81.5,131.6L81.5,131.6L81.5,131.6L81.5,131.6h-0.5v-0.3l0,0c0-0.3,0.5-1.1,0.8-1.4c0.5-0.5,1.4-0.8,2.2-1.4
				c0.3,0,0.5-0.3,0.8-0.5l0,0c1.6-0.8,3.3-1.6,5.2-2.2c0.5-0.3,0.8-0.3,1.4-0.5c1.6-0.5,3-0.8,4.4-1.6l0,0h0.3v0.3v0.3v0.3l0,0
				c0,0-1.6,1.1-1.9,1.4c-0.8,0.3-1.6,0.5-2.2,0.8c-1.4,0.5-2.7,0.8-3.8,1.4c-1.1,0.5-2.5,1.1-3.5,1.6c-1.1,0.5-1.9,1.1-3,1.6
				C81.7,131.6,81.7,131.6,81.5,131.6C81.7,131.6,81.7,131.6,81.5,131.6L81.5,131.6z M81.5,131.3L81.5,131.3L81.5,131.3L81.5,131.3
				L81.5,131.3z M81.5,131.3L81.5,131.3L81.5,131.3L81.5,131.3c1.1-0.5,2.2-1.1,3.3-1.6c1.1-0.5,2.5-1.4,3.5-1.9
				c1.4-0.5,2.7-1.1,4.1-1.4c0.8-0.3,1.4-0.5,2.2-0.8c0.3,0,1.4-0.8,1.9-1.1l0,0c-1.4,0.8-3,1.1-4.4,1.6c-0.5,0-0.8,0.3-1.4,0.5
				c-1.9,0.5-3.5,1.4-5.2,2.2l0,0c-0.3,0.3-0.5,0.3-0.8,0.5c-0.8,0.3-1.6,0.8-2.2,1.1l0,0C82,130.5,81.7,131.1,81.5,131.3
				L81.5,131.3z"/>
		</g>
		<g>
			<path id="XMLID_192_" class="st0" d="M105.5,124.3c-0.8,1.4-1.1,2.2-1.1,3.8c0.3,0,0.3,0,0.5,0.3c0-0.3,0.3-0.8,0.5-0.8
				C104.9,126.2,106,125.3,105.5,124.3"/>
			<path class="st0" d="M105.2,128.6L105.2,128.6c-0.3,0-0.5,0-0.5,0s0,0-0.3,0h-0.3v-0.5c0-1.6,0.3-2.7,1.1-4.1l0.3-0.3l0.3,0.3
				c0.3,0.5,0,1.1,0,1.4c0,0.5-0.3,1.1,0.3,1.9l0.3,0.3H106C105.7,127.8,105.5,128.1,105.2,128.6L105.2,128.6L105.2,128.6z
				 M104.9,128.1L104.9,128.1L104.9,128.1c0.3,0,0.5-0.3,0.5-0.5c-0.3-0.8-0.3-1.4,0-1.9c0-0.3,0-0.5,0-0.8
				C104.9,125.9,104.9,126.7,104.9,128.1L104.9,128.1z"/>
		</g>
		<g>
			<path id="XMLID_189_" class="st0" d="M121,124.3c-2.7,1.4-18.5,6.3-18.5,9h0.3V133c2.7-1.4,5.4-3,8.4-4.1c3-1.1,6-2.2,9-3.5
				C120.7,125.3,120.7,125.1,121,124.3"/>
			<path class="st0" d="M103,133.5h-0.8v-0.3c0-1.9,6.3-4.4,13.9-7.1c2.2-0.8,4.1-1.4,4.9-1.9l0.3-0.3v0.3c0,0.8-0.3,1.1-0.8,1.4
				c-3,1.1-6,2.5-9,3.5c-2.5,0.8-4.9,2.2-7.1,3.3C103.8,132.7,103.3,133,103,133.5L103,133.5L103,133.5z M120.7,124.5
				c-0.8,0.5-2.5,1.1-4.6,1.9c-4.6,1.6-12.5,4.6-13.4,6.5c0.5-0.3,0.8-0.5,1.4-0.5c2.2-1.1,4.6-2.5,7.1-3.3c2.7-1.1,5.7-2.2,9-3.5
				C120.4,125.3,120.4,125.1,120.7,124.5L120.7,124.5z"/>
		</g>
		<g>
			<path id="XMLID_186_" class="st0" d="M130.5,124.3c-0.8,1.6-1.1,3-1.1,4.9h0.5c0.3-0.5,0.3-0.8,0.5-1.4c0,0-0.5,0.3-0.5,0l0,0
				C130,127,131.1,125.1,130.5,124.3"/>
			<path class="st0" d="M130.2,129.4h-0.8v-0.3c0-1.9,0.3-3.3,1.1-4.9l0.3-0.3l0.3,0.3c0.3,0.5,0,1.4-0.3,2.5c0,0.5-0.3,0.8-0.3,1.1
				l0,0l0,0c0,0,0,0,0.3,0c0,0,0,0,0.3,0h0.3v0.3c-0.3,0.3-0.3,0.5-0.5,1.1L130.2,129.4L130.2,129.4z M129.7,129.2L129.7,129.2
				l0.3-0.3c0-0.3,0.3-0.5,0.3-0.5c-0.3,0-0.3,0-0.3,0h-0.3v-0.3c0-0.5,0.3-0.8,0.3-1.4c0.3-0.5,0.3-1.1,0.3-1.6
				C129.7,126.2,129.7,127.3,129.7,129.2L129.7,129.2z"/>
		</g>
		<g>
			<path id="XMLID_183_" class="st0" d="M146.3,124.8c-2.5,1.9-17.7,5.7-17.7,8.7h0.3l0,0l0,0l0,0c4.6-2.5,9.5-4.1,14.4-6.3
				c1.1-0.5,2.7-0.8,3.5-1.9h0.3C146.6,125.1,146.3,124.8,146.3,124.8"/>
			<path class="st0" d="M128.9,133.8h-0.5l0,0h-0.3v-0.3c0-1.9,6.3-4.4,11.7-6.3c2.7-1.1,5.2-1.9,6-2.5h0.3l0,0l0.3,0.3
				c0,0,0,0,0.3,0l0.5,0.3h-0.5c-0.5,0.8-1.6,1.1-2.5,1.4c-0.3,0-0.8,0.3-1.1,0.3c-1.9,0.8-3.8,1.6-5.7,2.5
				C134.6,130.8,131.9,132.2,128.9,133.8L128.9,133.8L128.9,133.8z M128.6,133.2L128.6,133.2c2.7-1.4,5.7-2.7,8.7-3.8
				c1.9-0.8,3.8-1.6,5.7-2.5c0.3-0.3,0.5-0.3,1.1-0.3c0.8-0.3,1.9-0.5,2.5-1.4c0,0-0.3,0-0.3-0.3c-1.1,0.5-3.3,1.6-6,2.5
				C135.4,129.2,129.2,131.6,128.6,133.2L128.6,133.2z"/>
		</g>
		<g>
			<path id="XMLID_180_" class="st0" d="M166.5,124.8c-0.5,1.1-1.6,2.5-1.6,3.8c0,0.5,0.3,1.1,0.3,1.4h0.5c0-0.3,0.8-1.4,0.5-1.4
				v-0.3c-0.3,0-0.3,0.3-0.5,0.3C165.4,127.5,166.8,126.4,166.5,124.8C166.8,125.1,166.8,125.1,166.5,124.8
				C166.5,125.1,166.5,125.1,166.5,124.8"/>
			<path class="st0" d="M165.4,130.5h-0.8v-0.3c0-0.5,0-1.1-0.3-1.4l0,0l0,0c0-1.1,0.8-2.5,1.4-3.5c0-0.3,0.3-0.3,0.3-0.5v-0.3
				l0.3,0.3c0,0,0,0,0.3,0c0.3,0,0.3,0,0.3,0.3v0.3c0,0.5-0.3,1.1-0.5,1.6c-0.3,0.5-0.5,1.1-0.5,1.9c0,0,0.3,0,0.3-0.3l0.3-0.3v0.3
				l0,0C166.2,129.2,165.7,130.2,165.4,130.5L165.4,130.5L165.4,130.5z M165.1,130L165.1,130c0.3-0.3,0.5-0.8,0.8-0.8l0,0l0,0
				c0,0-0.3,0-0.3,0.3l-0.3,0.3v-0.3c0-0.8,0.5-1.6,0.8-2.2c0.3-0.5,0.5-1.1,0.5-1.6l0,0c0,0,0,0.3-0.3,0.3
				c-0.5,1.1-1.4,2.2-1.4,3.3C165.1,129.2,165.1,129.7,165.1,130L165.1,130z"/>
		</g>
		<g>
			<path id="XMLID_177_" class="st0" d="M149.3,125.1c-0.5,1.9,0.5,7.4,0.8,9.5c0.3,2.7,0.5,5.7,0.5,8.4c0,2.5,0,5.2,0.5,7.6
				c0.3,1.1,0.8,2.2,1.9,2.7c3.5,1.6,4.9-2.7,6.3-2.7c0,0.3,0,0-0.3,0v0.3c1.1,2.5,3.3,2.7,6,2.7c0.8,0,1.6,0,2.5,0
				c1.1-0.3,1.9-0.5,3-0.8c1.6-0.5,3.5-1.6,5.4-1.6c0,1.9,0.8,3,3,3c1.1-0.8,1.9-1.4,2.7-2.7c0,0,0.3,0,0.3-0.3V151
				c0.5,1.4,1.4,3.3,3,1.9c0.5-0.8,1.1-1.6,1.6-2.2l0,0h0.3l0,0c0.8,1.1,1.1,2.2,3,2.2c3.5-2.2,1.4-6,0.3-8.7c0-0.3-0.5-1.1-0.3-1.1
				c0.3,0,0.3,0.3,0.5,0.3v-0.3c0,0,0.3,0,0,0c-0.3-0.5-1.1-2.7-1.6-2.7v0.3c-1.4,2.7,3.8,9.5,1.6,10.1c-1.4,0.3-2.5-0.8-2.5-1.9
				c0,0-0.3,0-0.3,0.3c-0.5,0.5-0.8,1.6-1.6,1.9c-1.9,1.4-2.5-0.3-2.5-1.9h-1.1l0,0c-0.5,0.5-1.1,1.4-1.4,1.9
				c-1.1,0.8-3.8,1.4-4.1-0.8c0-0.3-0.3-1.1,0-1.1v-0.3c-4.6,0.5-9.3,3.8-14.7,2.2c-1.4-0.5-2.5-1.1-2.5-2.7c-0.3,0-0.3,0-0.3,0.3
				c-1.4,0.8-1.9,2.5-3.5,3c-1.4,0.3-3,0-3.8-1.1c-0.5-1.4-0.5-3-0.5-4.6c-0.3-5.7-0.5-11.7-1.4-17.2
				C150.1,127,149.9,125.9,149.3,125.1"/>
			<path class="st0" d="M179,154L179,154c-1.9,0-3-0.8-3-3c-1.4,0-2.5,0.5-3.5,1.1c-0.5,0.3-1.1,0.5-1.4,0.5
				c-0.8,0.3-1.6,0.5-2.7,0.8h-0.5c-0.5,0-1.4,0-1.9,0c-0.3,0-0.3,0-0.5,0l0,0c-2.7,0-4.9-0.3-6.3-2.7l0,0l0,0
				c-0.3,0.3-0.8,0.5-1.1,1.1c-0.8,0.8-1.9,2.2-3.3,2.2c-0.5,0-1.1-0.3-1.6-0.3c-1.1-0.5-1.6-1.4-1.9-2.7c-0.5-1.9-0.5-4.1-0.5-6
				c0-0.5,0-1.1,0-1.4c0-1.4-0.3-2.7-0.3-4.1s-0.3-2.7-0.3-4.4c0-0.5-0.3-1.4-0.3-2.2c-0.5-2.5-1.1-6-0.5-7.4v-0.3l0.3,0.3
				c0.5,0.8,0.8,1.9,1.1,3v0.3c0.8,4.1,1.1,8.7,1.4,13.1c0,1.4,0.3,2.7,0.3,4.1c0,0.3,0,0.8,0,1.1c0,1.1,0,2.5,0.5,3.3
				c0.5,0.8,1.4,1.4,2.5,1.4c0.3,0,0.8,0,1.1-0.3c1.1-0.3,1.6-0.8,2.2-1.6c0.3-0.5,0.8-0.8,1.4-1.1c0-0.3,0.3-0.3,0.3-0.3l0,0h0.3
				v0.3c0,1.6,1.1,2.2,2.2,2.7c1.1,0.3,2.2,0.5,3.3,0.5c2.2,0,4.4-0.8,6.5-1.4c1.6-0.5,3.3-1.1,4.9-1.4h0.3v0.8h-0.5
				c0,0,0,0.5,0,0.8c0.3,1.1,1.1,1.4,1.6,1.4c0.8,0,1.6-0.3,2.2-0.5c0.5-0.5,0.8-1.4,1.4-1.9v-0.3h0.8v0.3c0,0.5,0,1.1,0.3,1.6
				c0.3,0.8,1.1,0.8,1.9,0.3c0.5-0.3,0.5-0.5,0.8-1.1c0.3-0.3,0.3-0.5,0.8-0.8c0-0.3,0-0.3,0.3-0.3l0,0l0,0h0.3v0.3
				c0,0.5,0.3,1.1,0.5,1.4c0.5,0.5,1.1,0.5,1.6,0.5c0.3,0,0.3,0,0.3-0.3c0.3-0.5-0.3-2.2-0.8-3.5c-0.8-2.2-1.9-4.4-1.1-6v-0.3h0.3
				c0.5,0,1.1,1.1,1.9,2.5l0,0l0,0v0.3v0.3l-0.3-0.3c0,0-0.3-0.3-0.5-0.3c0,0.3,0,0.5,0.3,0.8c0,0.3,0.3,0.5,0.3,0.8
				c1.1,2.7,2.7,6.3-0.5,8.2l0,0l0,0c-1.4,0-1.9-0.8-2.7-1.6c0-0.3-0.3-0.3-0.3-0.5c-0.5,0.5-1.1,1.4-1.6,2.2l0,0
				c-0.5,0.3-0.8,0.5-1.4,0.5c-1.1,0-1.6-1.1-1.9-2.2l0,0C181.2,152.3,180.4,153.1,179,154L179,154L179,154z M176.3,150.4
				L176.3,150.4L176.3,150.4c0.3,2.2,1.1,3,2.7,3c1.1-0.8,1.9-1.4,2.5-2.5l0,0l0,0l0,0l0,0l0,0h0.3c0.3,1.1,0.8,2.2,1.9,2.2
				c0.3,0,0.5,0,1.1-0.3c0.5-0.8,1.1-1.4,1.6-2.2v-0.3h0.5v0.3c0,0.3,0.3,0.3,0.3,0.5c0.5,0.8,1.1,1.6,2.2,1.6
				c3-1.9,1.6-5.2,0.3-7.6c0-0.3-0.3-0.5-0.3-0.8s-0.3-1.1-0.3-1.4h0.3l0,0l0,0h0.3l0,0c-0.5-1.4-1.1-2.2-1.4-2.2
				c-0.5,1.4,0.3,3.5,1.1,5.7c0.8,1.6,1.4,3.3,0.8,4.1c0,0.3-0.3,0.3-0.5,0.5c-0.8,0-1.4,0-1.9-0.5c-0.3-0.3-0.5-0.8-0.8-1.4
				c-0.3,0.3-0.5,0.5-0.5,0.8c-0.3,0.5-0.5,0.8-1.1,1.1c-1.1,0.8-2.2,0.5-2.5-0.3c-0.3-0.5-0.3-0.8-0.3-1.6l0,0l0,0
				c-0.5,0.8-1.1,1.4-1.6,1.9l0,0c-0.5,0.5-1.6,0.8-2.5,0.8C177.4,152,176.6,151.5,176.3,150.4c0-0.3,0-0.8,0-1.1l0,0
				c-1.4,0.3-3,0.8-4.4,1.1c-2.2,0.8-4.4,1.4-6.8,1.4c-1.1,0-2.5-0.3-3.5-0.5c-1.1-0.5-2.5-1.1-2.5-2.7c-0.5,0.3-0.8,0.8-1.4,1.1
				c-0.5,0.8-1.4,1.4-2.5,1.6c-0.3,0-0.8,0.3-1.1,0.3c-1.4,0-2.2-0.5-2.7-1.4c-0.5-1.1-0.5-2.2-0.5-3.5c0-0.3,0-0.8,0-1.1
				c0-1.4-0.3-2.7-0.3-4.1c-0.3-4.4-0.5-8.7-1.1-12.8v-0.3c0-0.8-0.3-1.6-0.8-2.5c-0.3,1.6,0.3,4.6,0.8,6.8c0.3,0.8,0.3,1.6,0.3,2.2
				c0,1.4,0.3,3,0.3,4.4s0.3,2.7,0.3,4.1c0,0.5,0,1.1,0,1.4c0,2.2,0,4.1,0.5,6c0.3,1.4,0.8,2.2,1.6,2.5c0.5,0.3,1.1,0.3,1.4,0.3
				c1.4,0,2.2-1.1,3-1.9c0.5-0.5,1.1-1.4,1.6-1.4h0.3v0.3c0,0,0,0,0,0.3l0,0c1.1,2.5,3.3,2.5,5.7,2.5c0.3,0,0.3,0,0.5,0
				c0.5,0,1.4,0,1.9,0h0.3c0.8-0.3,1.6-0.5,2.7-0.8c0.5-0.3,0.8-0.3,1.4-0.5C173.6,151,174.7,150.4,176.3,150.4L176.3,150.4z"/>
		</g>
		<g>
			<path id="XMLID_174_" class="st0" d="M155.6,125.1c0,0.3,0,0.5,0,0.8c0,0.3,0.3,0.5,0.3,0.8c1.1,2.2,1.9,3.5,1.9,6.3
				c0,0.3,0,0.8,0.3,0.8v0.3h0.3C158.3,130.5,158.3,127,155.6,125.1"/>
			<path class="st0" d="M158,133.8h-0.5v-0.3l0,0c-0.3,0-0.3-0.3,0-0.8c0,0,0,0,0-0.3c0.3-2.7-0.5-4.1-1.6-6l-0.3-0.3
				c0-0.3-0.3-0.5-0.3-0.8l0,0l0,0c0-0.3,0-0.5,0-0.8v-0.3l0.3,0.3C158.6,127,158.6,130.5,158,133.8L158,133.8L158,133.8z
				 M157.8,133.2L157.8,133.2c0.3-2.7,0.3-6-1.9-7.9v0.3c0,0.3,0.3,0.5,0.3,0.5l0.3,0.3c1.1,1.9,1.9,3.5,1.6,6.3l0,0
				C157.8,133,157.8,133.2,157.8,133.2L157.8,133.2z"/>
		</g>
		<g>
			<path id="XMLID_171_" class="st0" d="M186.4,125.1c-1.9,0.5-3.8,1.1-5.7,1.6c-4.4,1.4-28.3,9-28.3,13.1h0.5v-0.3
				c7.1-4.4,15.5-7.1,23.4-10.1c2.5-0.8,8.7-2.2,10.1-3.8c0.3-0.3,0.3-0.3,0.3-0.5c0,0,0.3-0.3,0-0.3
				C186.4,125.1,186.4,125.1,186.4,125.1"/>
			<path class="st0" d="M152.9,140.1H152v-0.3c0-3.8,19.9-10.6,28.3-13.4c0.5,0,0.8-0.3,1.4-0.3c1.4-0.5,3-0.8,4.4-1.4l0,0l0,0l0,0
				c0,0,0,0,0.3,0c0,0,0.3,0,0.3,0.3v0.3c0,0,0,0.3-0.3,0.3c0,0,0,0.3-0.3,0.3l0,0c-1.1,1.4-4.6,2.2-7.4,3c-1.1,0.3-2.2,0.5-3,0.8
				c-1.4,0.5-2.7,1.1-4.1,1.4C165.7,133.5,158.9,136,152.9,140.1L152.9,140.1L152.9,140.1z M152.6,139.5L152.6,139.5L152.6,139.5
				L152.6,139.5c6.3-3.8,12.8-6.3,19.6-8.7c1.4-0.5,2.7-1.1,4.1-1.4c0.8-0.3,1.9-0.5,3-0.8c2.7-0.8,6-1.6,7.1-2.7c0,0,0-0.3,0.3-0.3
				c0,0,0-0.3,0.3-0.3l0,0l0,0c-1.4,0.5-3,0.8-4.4,1.4c-0.5,0-0.8,0.3-1.4,0.3C167.3,131.1,153.1,136.5,152.6,139.5L152.6,139.5z"/>
		</g>
		<g>
			<path id="XMLID_168_" class="st0" d="M194,125.3c-1.4,4.1,1.1,13.6,1.9,18c0.5,2.5,0.5,5.2,0.5,7.9h0.3v0.3h0.3v-0.3l0,0
				c0-1.4,0.3-2.7,0.3-4.1c-0.3-5.2-1.4-10.1-2.2-15.3c0-0.3-0.3-2.2,0.3-2.2c0,0.3,0.3,0.8,0.5,0.8l0,0l0,0
				C195.6,129.2,195.1,126.2,194,125.3"/>
			<path class="st0" d="M196.7,151.5h-0.5v-0.3h-0.3v-0.8c0-2.5,0-4.9-0.5-7.4c-0.3-0.8-0.3-1.9-0.5-3c-1.1-4.9-2.5-11.7-1.4-15
				v-0.3l0.3,0.3c1.4,1.1,1.9,4.1,1.9,5.4v0.3h-0.5l0,0c-0.3,0-0.3-0.3-0.3-0.5c0,0.3,0,0.8,0,1.6v0.3c0.3,1.6,0.5,3,0.8,4.6
				c0.5,3.5,1.4,7.1,1.4,10.6l0,0l0,0C197,148.5,196.7,149.9,196.7,151.5L196.7,151.5L196.7,151.5L196.7,151.5L196.7,151.5z
				 M196.5,151L196.5,151c0.3-1.4,0.3-2.7,0.5-3.8c-0.3-3.5-0.8-7.1-1.4-10.4c-0.3-1.6-0.5-3-0.8-4.6c0,0,0,0,0-0.3
				c0-0.8-0.3-1.6,0-2.2l0.3-0.3l0,0l0,0c0,0,0,0,0,0.3s0,0.3,0,0.3c0-1.4-0.5-3.5-1.6-4.4c-0.8,3.5,0.3,9.8,1.4,14.4
				c0.3,1.1,0.5,2.2,0.5,3c0.5,2.5,0.5,4.9,0.5,7.4L196.5,151L196.5,151L196.5,151z"/>
		</g>
		<g>
			<path id="XMLID_165_" class="st0" d="M122.6,127.5c-0.5,0.5-1.1,1.1-0.8,1.9c0,0.5,1.1,1.1,1.1,1.1s0,0.3,0.3,0.3
				c-1.4,1.6-3,3-4.6,4.4c-1.4,0.8-2.7,1.9-4.1,2.7c0,0.3-0.3,0.3-0.3,0.3h0.3v0.3h0.3v-0.3c1.9-1.1,4.1-2.2,6-3.5
				c0.8-0.5,3-3.5,3.8-3.5h0.3h0.3v-0.3C124.5,130,123.4,128.1,122.6,127.5"/>
			<path class="st0" d="M114.4,138.4h-0.5v-0.3h-0.3v-0.3c0,0,0-0.3,0.3-0.3c0,0,0,0,0.3-0.3l0,0l0,0c0.5-0.3,1.1-0.8,1.6-1.1
				c0.8-0.5,1.6-1.1,2.5-1.6c1.9-1.1,3.3-2.7,4.6-4.1l0,0c-0.3-0.3-1.1-0.8-1.1-1.4c0-0.8,0.5-1.4,0.8-1.9l0.3-0.3l0,0
				c0.8,0.5,1.9,2.5,1.9,3.5v0.3h-0.3h-0.3c-0.3,0-1.4,1.1-2.2,1.9c-0.5,0.5-1.1,1.4-1.6,1.6c-0.8,0.5-1.9,1.1-2.7,1.6
				C116.4,137.1,115.5,137.6,114.4,138.4L114.4,138.4L114.4,138.4z M114.2,137.9L114.2,137.9c1.1-0.5,2.2-1.1,3-1.9
				c0.8-0.5,1.9-1.1,2.7-1.6c0.3-0.3,0.8-0.8,1.4-1.4c1.1-1.4,1.9-2.2,2.5-2.2l0,0l0,0l0,0l0,0c0.3-0.8-0.8-2.5-1.6-3.3
				c-0.3,0.5-0.8,1.1-0.8,1.6c0,0.3,0.5,0.8,1.1,1.1l0,0l0,0c0,0,0,0,0,0.3l0,0l0,0l0,0c-1.4,1.4-3,3-4.6,4.4
				c-0.8,0.5-1.6,1.1-2.5,1.6C115.3,137.1,114.7,137.6,114.2,137.9L114.2,137.9z"/>
		</g>
		<g>
			<path id="XMLID_162_" class="st0" d="M182,128.1c-0.3,0.5-2.2,4.9-0.5,4.9c0-0.3,0.3-0.5,0.5-0.5v-0.3l0,0v-0.3
				c0,0-0.5,0.3-0.5,0h-0.3c0.3-1.1,1.1-2.5,1.1-3.5C182.3,128.3,182.3,128.1,182,128.1"/>
			<path class="st0" d="M181.7,133.2L181.7,133.2c-0.5,0-0.8-0.3-0.8-0.3c-0.5-0.5,0-2.2,1.1-4.6c0,0,0,0,0-0.3v-0.3l0.3,0.3l0,0
				c0,0,0,0,0.3,0.3l0,0l0,0c0,0.5-0.3,1.4-0.5,1.9c-0.3,0.5-0.5,1.1-0.5,1.4l0,0l0,0l0,0l0,0h0.3v0.3l0,0v0.5h-0.3
				C182,132.7,181.7,132.7,181.7,133.2L181.7,133.2L181.7,133.2z M180.9,132.2c0,0.3,0,0.5,0,0.5s0,0,0.3,0.3c0-0.3,0.3-0.3,0.3-0.5
				l0,0l0,0C181.5,132.2,181.2,132.2,180.9,132.2L180.9,132.2L180.9,132.2z M182,128.3c-0.5,1.6-1.1,2.5-1.1,3.3
				c0-0.5,0.3-1.1,0.5-1.4C182,129.4,182.3,128.9,182,128.3C182.3,128.3,182.3,128.3,182,128.3L182,128.3z"/>
		</g>
		<g>
			<path id="XMLID_158_" class="st0" d="M122.3,128.6c0.3,0,0.5,0,0.5,0.3h-0.3c0,0.3,0,0.3,0.3,0.3v0.3c-0.3,0-0.3,0-0.3-0.3
				S122.3,128.9,122.3,128.6"/>
			<path id="XMLID_157_" class="st0" d="M122.6,129.4c0,0-0.3,0-0.3-0.3l-0.3-0.3l-0.3-0.5h0.5l0,0c0.3,0,0.5,0,0.5,0.5l0,0v0.5
				L122.6,129.4C122.9,129.4,122.9,129.4,122.6,129.4L122.6,129.4L122.6,129.4z"/>
		</g>
		<g>
			<path id="XMLID_156_" class="st0" d="M189.6,129.7c-0.8,1.1-1.6,2.7-1.6,4.1c0,0.5,0.3,1.1,0.3,1.4h0.3v-0.3
				c0-0.3,0.5-0.8,0.5-0.8v-0.3l0,0c-0.3,0-0.3,0-0.5,0.3C188.6,133.2,189.9,130.2,189.6,129.7"/>
			<path class="st0" d="M188.6,135.7H188v-0.3c0-0.3,0-0.5,0-0.8c0-0.3,0-0.5,0-0.5l0,0l0,0c0-1.6,1.1-3.3,1.9-4.4l0.3-0.3l0.3,0.3
				c0,0.3,0,1.1-0.5,2.2c-0.3,0.8-0.5,1.6-0.5,2.2c0,0,0,0,0.3,0l0,0h0.3v0.5h-0.3c0,0-0.3,0.3-0.5,0.5v0.5H188.6z M188,134.1
				c0,0.3,0,0.5,0,0.5c0,0.3,0,0.3,0,0.5c0.3-0.3,0.3-0.5,0.5-0.5l0,0h-0.3v-0.3c0-0.5,0.3-1.6,0.5-2.5c0-0.3,0.3-0.8,0.3-1.1
				C188.8,131.6,188.3,133,188,134.1L188,134.1z"/>
		</g>
		<g>
			<path id="XMLID_153_" class="st0" d="M143.6,130c-0.8,1.6-1.6,3.8-1.6,6c0,0.8,0.5,1.1,0.5,1.6l0,0v-0.3c0.5-0.3,1.1-1.1,1.1-1.6
				l0,0v-0.3c-0.3,0-0.3,0-0.3,0.3C141.4,136,144.1,130.8,143.6,130"/>
			<path class="st0" d="M143.1,137.9h-0.5v-0.3c0-0.3,0-0.5-0.3-0.5c-0.3-0.3-0.3-0.5-0.3-1.1c-0.3-2.2,0.5-4.1,1.6-6v-0.3l0.3,0.3
				c0.3,0.3,0,1.1-0.3,2.5c-0.3,1.1-0.8,2.7-0.3,3.3c0,0,0.3,0.3,0.5,0.3l0,0c0,0,0,0,0.3,0l0,0l0,0h0.3v0.3l0,0v0.3
				C144.1,136.2,143.6,137.1,143.1,137.9L143.1,137.9L143.1,137.9z M143.3,130.8c-0.8,1.6-1.4,3.3-1.1,5.2c0,0.3,0.3,0.5,0.3,0.8
				c0,0.3,0.3,0.3,0.3,0.5c0.3-0.3,0.8-0.8,1.1-1.4l0,0c-0.5,0-0.8,0-1.1-0.3c-0.5-0.5,0-2.2,0.3-3.5
				C143.3,131.6,143.3,131.1,143.3,130.8L143.3,130.8z"/>
		</g>
		<g>
			<path id="XMLID_150_" class="st0" d="M87.2,130.2c-0.8,1.4-1.9,3.5-1.6,5.2c0.3,0.5,0.3,1.1,0.5,1.6h0.3v-0.3
				c0.3-0.3,0.8-0.8,0.8-1.4c-0.3,0-0.5,0.3-0.8,0.3v-0.3h-0.3c0-0.3,0-1.9,0.3-1.9C86.4,132.7,87.7,131.3,87.2,130.2"/>
			<path class="st0" d="M86.4,137.3h-0.5v-0.3c0-0.5-0.3-1.1-0.5-1.6l0,0c0-1.9,1.1-3.8,1.9-5.2l0.3-0.3l0.3,0.3
				c0.3,0.8,0,1.6-0.5,2.5c-0.3,0.5-0.3,0.8-0.5,1.4v0.3l0,0c0,0,0,0.5,0,1.4h0.3l0,0l0,0c0.3,0,0.3,0,0.5-0.3h0.3v0.3
				c0,0.3-0.3,0.8-0.8,1.4v0.3H86.4z M85.8,135.4c0.3,0.5,0.3,0.8,0.3,1.4l0,0c0.3-0.3,0.5-0.5,0.5-0.8l0,0h-0.3h-0.3v-0.3l0,0
				L85.8,135.4c0.3-0.8,0.3-1.4,0.5-1.6l0,0c0-0.3,0.3-0.8,0.5-1.4c0.3-0.5,0.5-1.1,0.5-1.6C86.7,132.2,85.8,133.8,85.8,135.4
				L85.8,135.4z"/>
		</g>
		<g>
			<path id="XMLID_147_" class="st0" d="M79.3,131.1c-1.4,2.7-3.3,5.7-2.7,9c0,0.3,0.3,1.1,0.5,1.1c-1.9,5.4-3,13.6,5.4,13.6
				c0.3,0,0.5,0,0.8,0c0.8-0.3,1.9-0.5,2.7-0.8c2.5-0.8,12.3-5.4,10.6-9.3c-1.1-2.2-7.4-1.6-7.6-4.4c0-1.4,3.5-5.2,4.9-3.8
				c0,0.3,0.3,0.3,0.3,0.5h0.3c0.3-0.5,0.5-1.4,0.5-2.2c-0.5-1.9-3.3,0-3.8,0.8c-1.6,1.6-4.4,5.4-2.2,7.9c1.4,1.4,3.3,1.6,4.9,2.2
				c0.5,0.3,1.9,1.1,1.6,1.1c-0.5,1.4-3,2.2-4.1,2.7c-3.5,1.9-9.3,4.9-13.4,1.9c-1.4-1.1-1.9-2.7-1.9-4.6c0-2.2,0.5-4.4,1.9-5.7
				c0.3-0.3,1.9-3,1.4-3v-0.3l0,0v0.3c-1.4,1.6-2.5,0.8-2.2-1.4c0-0.8,1.9-5.2,2.5-5.2C79.6,131.3,79.3,131.1,79.3,131.1"/>
			<path class="st0" d="M82.6,155L82.6,155c-2.7,0-4.6-0.8-6-2.5c-2.2-3-0.8-8.4,0.3-11.4c-0.3-0.3-0.5-1.4-0.5-1.4
				c-0.5-2.7,0.5-5.2,1.9-7.6c0.3-0.5,0.5-1.1,0.8-1.6v-0.3l0.3,0.3c0,0,0,0,0.3,0.3c0.3,0,0.3,0.3,0.3,0.3l0.3,0.3h-0.5
				c-0.3,0.3-2.2,4.4-2.2,4.9c0,0.8,0,1.6,0.3,1.9c0.3,0.3,0.8,0,1.4-0.5v-0.3h0.5v0.3l0,0c0.3,0.5-1.4,3.3-1.4,3.3l0,0
				c-1.1,1.4-1.9,3.3-1.9,5.7c0,1.9,0.5,3.5,1.9,4.4c1.1,0.8,2.5,1.4,4.1,1.4l0,0c3,0,6-1.6,8.4-2.7c0.3,0,0.3-0.3,0.5-0.3
				s0.5-0.3,0.8-0.3c1.1-0.5,2.7-1.1,3.3-2.2c-0.3-0.3-1.1-0.8-1.6-0.8c-0.3,0-0.8-0.3-1.1-0.3c-1.4-0.3-2.7-0.8-3.8-1.9
				c-2.7-2.5,0.8-6.8,2.2-8.2c0.5-0.5,1.9-1.6,3-1.6c0.5,0,1.1,0.3,1.1,0.8c0.3,0.5,0,1.1-0.3,1.6c0,0.3,0,0.3-0.3,0.5l0,0H94l0,0
				c0,0,0-0.3-0.3-0.3c0,0,0-0.3-0.3-0.3c-0.3,0-0.3-0.3-0.5-0.3c-0.8,0-1.9,0.5-2.7,1.6c-0.8,0.8-1.4,1.6-1.4,2.2
				c0,1.4,1.9,1.9,3.8,2.5c1.6,0.5,3.3,0.8,3.8,1.9c0.3,0.5,0.3,1.4,0,2.2c-1.6,3.8-10.6,7.4-10.6,7.4c-0.8,0.3-1.9,0.5-2.7,0.8
				C83.4,155,83.1,155,82.6,155L82.6,155L82.6,155z M79.3,131.3c-0.3,0.5-0.5,1.1-0.8,1.4c-1.1,2.2-2.5,4.6-1.6,7.4
				c0,0.3,0.3,1.1,0.5,1.1h0.3v0.3c-1.1,3-2.5,8.2-0.3,11.2c1.1,1.6,3,2.2,5.4,2.2c0.3,0,0.5,0,0.8,0c0.8-0.3,1.9-0.5,2.7-0.8
				c2.2-0.8,9.3-4.1,10.6-7.1c0.3-0.5,0.3-1.1,0-1.6c-0.5-0.8-1.9-1.4-3.5-1.6c-1.9-0.5-4.1-1.1-4.1-2.7c0-0.8,0.8-1.9,1.4-2.5
				c1.1-1.1,2.2-1.6,3-1.6c0.3,0,0.5,0,0.8,0.3l0,0c0,0,0,0.3,0.3,0.3c0,0,0,0,0,0.3l0,0c0,0,0-0.3,0.3-0.3c0.3-0.5,0.3-1.1,0.3-1.4
				c0-0.5-0.3-0.5-0.8-0.5c-0.8,0-2.2,1.1-2.7,1.6c-1.1,1.1-4.6,5.2-2.2,7.6c1.1,1.1,2.2,1.4,3.5,1.6c0.3,0,0.8,0.3,1.1,0.3
				s0.8,0.5,1.1,0.5c0.8,0.5,0.8,0.5,0.8,0.5v0.3l0,0c-0.5,1.1-2.2,1.9-3.3,2.5c-0.3,0-0.5,0.3-0.8,0.3c-0.3,0-0.3,0.3-0.5,0.3
				c-2.5,1.4-5.7,3-8.7,3l0,0c-1.6,0-3-0.5-4.1-1.4c-1.4-1.1-1.9-2.5-1.9-4.6c0-2.5,0.5-4.6,1.9-6c0.3-0.5,1.1-2.2,1.4-2.7
				c-0.5,0.5-0.8,0.8-1.4,0.8c-0.3,0-0.5,0-0.5-0.3c-0.3-0.3-0.5-1.1-0.3-2.2c0-0.3,0.5-1.9,1.1-3C79,132.2,79.3,131.6,79.3,131.3
				C79.6,131.3,79.3,131.3,79.3,131.3L79.3,131.3L79.3,131.3z"/>
		</g>
		<g>
			<path id="XMLID_144_" class="st0" d="M113.6,131.6c-0.3,0.5-0.8,2.5,0.3,2.2C115.5,133.8,114.7,131.9,113.6,131.6"/>
			<path class="st0" d="M113.9,134.1L113.9,134.1c-0.3,0-0.5-0.3-0.5-0.3c-0.3-0.5,0-1.9,0.3-2.2v-0.3h0.3c0.8,0.3,1.4,1.1,1.4,1.9
				C115,133.5,114.7,134.1,113.9,134.1L113.9,134.1L113.9,134.1z M113.6,131.9c-0.3,0.5-0.5,1.4-0.3,1.6c0,0,0,0.3,0.3,0.3l0,0l0,0
				c0.3,0,0.5-0.3,0.5-0.5C114.7,132.7,114.2,131.9,113.6,131.9L113.6,131.9z"/>
		</g>
		<g>
			<path id="XMLID_141_" class="st0" d="M113.6,132.4c0.3,0.3,0.8,0.3,0.8,0.8l0,0l0,0c-0.3,0-0.3,0-0.3,0
				C113.9,133,113.6,132.7,113.6,132.4"/>
			<path id="XMLID_140_" class="st0" d="M114.2,133.5c0,0-0.3,0-0.3-0.3V133c0-0.3,0-0.3-0.3-0.5l-0.3-0.5l0.5,0.3
				c0.3,0.3,0.8,0.5,0.8,0.8v0.5l0,0l0,0H114.2L114.2,133.5L114.2,133.5L114.2,133.5z"/>
		</g>
		<g>
			<path id="XMLID_139_" class="st0" d="M131.3,134.6c-0.8,1.6-2.5,4.9-1.4,6.8c0.5,0.8,1.6-0.3,1.6-0.8c0,0,0,0,0-0.3l0,0l0,0h-0.3
				c-0.3,0-0.5,0.3-0.8,0.5C129.7,138.4,131.9,136.5,131.3,134.6"/>
			<path class="st0" d="M130.5,142.2c-0.3,0-0.5,0-0.8-0.5c-1.1-1.9,0-4.9,1.4-7.1l0.3-0.3l0.3,0.5c0.3,0.8,0,1.6-0.3,2.7
				c-0.3,1.1-0.8,2.2-0.3,3.3c0.3,0,0.3-0.3,0.5-0.3l0,0h0.5v0.3h0.3v0.3c0,0,0,0,0,0.3c0,0,0,0-0.3,0.3
				C131.9,141.4,131.3,142.2,130.5,142.2L130.5,142.2z M131.3,135.2c-1.1,1.9-1.9,4.6-1.1,6.3c0,0.3,0.3,0.3,0.3,0.3
				c0.3,0,0.5-0.3,0.5-0.3c0.3-0.3,0.3-0.5,0.3-0.5l0,0l0,0c-0.3,0.3-0.5,0.3-0.5,0.3h-0.3v-0.3c-0.8-1.4-0.3-2.7,0.3-3.8
				C131.1,136.5,131.3,136,131.3,135.2L131.3,135.2z"/>
		</g>
		<g>
			<path id="XMLID_136_" class="st0" d="M106.3,135.7c-1.1,4.9,7.9,6.5,7.9,9.3c0,1.6-10.6,7.4-12.5,6.5c-1.6-0.8-1.4-2.7-1.1-4.4
				c0,0,0.3-0.3,0-0.3v-0.3h-0.3v0.3c-1.6,2.7-1.1,7.1,2.7,7.1c0.5-0.3,3.3-1.4,3.3-1.6c0.3,0,0.3,0,0.5,0.3c2.2-3,8.4-3.5,8.2-8.4
				c0-1.4-1.1-2.5-2.2-3c-0.5-0.3-4.4-2.5-4.4-3c0.3,0,0.5,0,0.5-0.3v-0.5C108.2,136.8,107.1,136.2,106.3,135.7"/>
			<path class="st0" d="M103,154.2L103,154.2c-1.9,0-3-1.1-3.5-1.9c-0.8-1.6-0.5-3.8,0.5-5.4v-0.3h0.5v0.3l0,0c0,0.3,0,0.3,0,0.5
				l0,0c-0.3,1.6-0.3,3.5,1.1,4.1c0,0,0.3,0,0.5,0l0,0c2.5,0,9.8-3.8,11.4-5.7c0.3-0.3,0.3-0.5,0.3-0.5c0-1.1-1.6-2.2-3.3-3
				c-2.5-1.6-5.4-3.3-4.6-6.3v-0.3h0.3c0.5,0.3,1.4,0.8,2.2,1.1c0.3,0,0.5,0.3,0.8,0.3l0,0v0.8l0,0H109l0,0c0.3,0.3,0.8,1.1,4.1,2.7
				l0,0c1.1,0.5,2.2,1.6,2.5,3.3c0.3,3.3-2.2,4.6-4.6,6c-1.4,0.8-2.7,1.6-3.5,2.7l0,0l0,0h-0.3l0,0c-0.3,0.3-0.8,0.5-2.5,1.1
				C103.5,154,103.3,154,103,154.2L103,154.2L103,154.2z M100.3,147.1c-1.1,1.6-1.1,3.5-0.3,5.2c0.5,1.1,1.6,1.6,3,1.6
				c0.3,0,0.5-0.3,0.8-0.3c0.8-0.3,2.2-0.8,2.5-1.1v-0.3h0.3h0.3c0.8-1.1,2.2-1.9,3.5-2.7c2.5-1.4,4.9-2.7,4.6-5.7
				c0-1.4-1.1-2.5-2.2-3l0,0c-4.4-2.5-4.4-3-4.4-3.3v-0.3l0,0h0.3h0.3v-0.3c-0.3,0-0.5-0.3-0.5-0.3c-0.5-0.3-1.4-0.5-1.9-0.8
				c-0.3,2.5,2.2,4.1,4.6,5.7c1.9,1.1,3.3,2.2,3.5,3.3c0,0.3-0.3,0.5-0.5,0.8c-1.9,2.2-9.3,6-11.7,6l0,0c-0.3,0-0.5,0-0.5,0
				C100,151,100,149,100.3,147.1L100.3,147.1L100.3,147.1L100.3,147.1L100.3,147.1z"/>
		</g>
		<g>
			<path id="XMLID_133_" class="st0" d="M177.9,135.7L177.9,135.7c-0.5,0.5-1.1,1.4-1.1,1.9h3.5c0,0.3,0,0.3-0.3,0.3
				c-0.5,0.3-3.5,1.9-3.5,1.9h-0.3v0.3h1.1c0.5,0,0.8,0,1.4-0.3c1.4-0.8,2.5-2.2,3.3-3.5c0.3,0,0.3-0.3,0.3-0.3v-0.3l0,0v-0.3
				C180.9,135.7,179.6,135.7,177.9,135.7"/>
			<path class="st0" d="M177.7,140.3h-1.4v-0.5h0.3c0.3-0.3,0.8-0.5,2.2-1.4c0.5-0.3,1.1-0.5,1.4-0.5h-3.5v-0.3
				c0-0.8,0.5-1.6,1.1-1.9v-0.3h0.3c0.5,0,1.4,0,1.9,0c0.8,0,1.6,0,2.5,0h0.3v0.3l0,0v0.5l0,0l-0.3,0.3c-0.8,1.6-1.9,2.7-3.3,3.5
				l0,0l0,0c-0.3,0-0.3,0-0.5,0C178.2,140.3,177.9,140.3,177.7,140.3L177.7,140.3L177.7,140.3z M177.1,140.1h0.5c0.3,0,0.5,0,0.8,0
				c0.3,0,0.3,0,0.5,0c1.4-0.8,2.5-1.9,3.3-3.5l0,0l0,0l0.3-0.3l0,0l0,0l0,0V136c-0.8,0-1.4,0-2.2,0c-0.5,0-1.4,0-1.9,0l0,0l0,0
				c-0.5,0.3-1.1,1.1-1.1,1.6h3.5v0.3l0,0v0.3h-0.3c-0.3,0-0.8,0.3-1.4,0.8C178.5,139.2,177.7,139.8,177.1,140.1L177.1,140.1z"/>
		</g>
		<g>
			<path id="XMLID_130_" class="st0" d="M170.6,138.4L170.6,138.4c-1.1,0.8-1.1,2.5-1.1,3.8h-0.3c-0.3-1.1-0.8-3-2.2-2.7
				c-0.3,0-0.3,0-0.3,0.3c0,0.8,1.1,1.1,1.4,1.4c1.6,1.9,0.5,3.8-1.1,4.9c-0.8,0.5-1.6,1.1-2.5,1.6c0,0.3,0,0.3,0.3,0.3l0,0
				c3.8-1.4,4.6-2.7,5.4-6.8c0.3-0.5,0.5-1.1,0.8-1.6h0.3v0.3c0,0.3,0.3,0.5,0.3,0.8h0.3v-0.3l0,0
				C171.4,139.2,171.1,138.7,170.6,138.4"/>
			<path class="st0" d="M164.3,148.2L164.3,148.2C164.3,148,164.3,148,164.3,148.2c-0.3-0.3,0-0.5,0-0.5l0,0l0,0l0,0
				c0.3-0.3,0.5-0.5,1.1-0.5c0.5-0.3,1.1-0.5,1.4-1.1c1.1-0.5,1.9-1.6,1.9-2.5s0-1.4-0.8-2.2c-0.3-0.3-0.3-0.3-0.5-0.5
				c-0.3-0.3-0.8-0.5-0.8-1.1l0,0c0-0.3,0.3-0.3,0.5-0.3c1.4-0.3,1.9,1.6,2.2,2.5c0-1.1,0.3-2.5,1.1-3.3v-0.3l0.3,0.3
				c0.8,0.3,1.1,1.1,1.1,1.9v0.3l0,0v0.3h-0.5v-0.3c0-0.3,0-0.3-0.3-0.5v-0.3c0,0.3-0.3,0.5-0.3,0.8s0,0.3-0.3,0.5
				C169.2,145.2,168.4,146.6,164.3,148.2L164.3,148.2L164.3,148.2z M168.9,142.5c0,0.3,0,0.5,0,1.1c-0.3,1.1-0.8,1.9-2.2,2.7
				c-0.5,0.3-1.1,0.5-1.4,0.8c-0.3,0.3-0.5,0.3-0.8,0.5c3-1.1,4.1-2.2,4.6-5.2H168.9L168.9,142.5z M166.8,139.5
				c0,0.3,0.3,0.5,0.8,0.8c0.3,0.3,0.5,0.3,0.5,0.5c0.3,0.3,0.5,0.8,0.8,1.1c-0.3-1.1-0.8-2.7-1.9-2.7
				C167,139.5,167,139.5,166.8,139.5L166.8,139.5C167,139.5,166.8,139.5,166.8,139.5L166.8,139.5z M170.6,138.7L170.6,138.7
				c-0.8,0.5-1.1,1.6-1.1,2.7c0-0.3,0-0.3,0-0.5l0,0c0-0.3,0.3-0.3,0.3-0.5c0.3-0.3,0.3-0.8,0.5-1.1l0,0h0.5v0.3l0,0v0.3l0,0
				C171.1,139.2,171.1,139,170.6,138.7L170.6,138.7z"/>
		</g>
		<g>
			<path id="XMLID_125_" class="st0" d="M144.4,139.5c-0.8,2.2,0.5,4.4,1.6,6c0.3,0.5,0.5,1.4,1.1,1.9c0,0.3,0.3,0.8,0,0.8
				c-0.8,1.6-2.7,2.5-4.1,3.3c-3.8,2.5-12.3,6.5-15.3,0.3c-0.5-1.6-0.5-4.4,0-6c0.3-0.5,0.5-1.4,0.8-1.9v-0.3h-0.3v-0.3
				c-0.3,0,0,0,0,0.3h-0.3c-3,5.7-2.5,13.6,6,13.6c0.3,0,0.8,0,1.1-0.3c0.3,0,0.5,0,0.8-0.3c1.4-0.8,3-1.1,4.4-1.6
				c2.5-1.1,7.6-4.9,7.4-8.2c0-1.1-0.5-2.2-1.1-3c-0.5-0.8-0.8-1.6-1.4-2.5l0,0c0.3,0,0.3-0.3,0.5-0.3
				C145.5,140.9,145,140.3,144.4,139.5"/>
			<path class="st0" d="M134.3,157.8L134.3,157.8c-3,0-5.2-1.1-6.5-3c-1.6-2.7-1.4-7.1,0.5-10.9l0,0l0,0l0,0l0,0l0,0l0,0l0,0h0.3
				l0,0h0.3v0.5l0,0c0,0.3-0.3,0.5-0.3,0.8s-0.3,0.5-0.5,1.1c-0.5,1.6-0.8,4.4,0,5.7c0.8,2.2,2.7,3.3,5.2,3.3l0,0
				c3.8,0,8.4-2.7,9.8-3.5h0.3c1.4-0.8,3-1.6,3.8-3.3l0,0l0,0v-0.3l0,0c0-0.3-0.3-0.5-0.3-0.8c-0.3-0.3-0.3-0.8-0.5-1.1
				c-1.1-1.9-2.5-4.1-1.6-6.3v-0.3l0.3,0.3c0.3,0.3,0.8,0.8,1.1,1.1c0.3,0.3,0.5,0.5,0.5,0.5l0.3,0.3h-0.3l-0.3,0.3c0,0,0,0-0.3,0
				c0.3,0.5,0.5,0.8,0.8,1.4c0.3,0.3,0.3,0.5,0.5,0.8c0.5,1.1,0.8,2.2,1.1,3.3c0.3,3.5-4.9,7.1-7.4,8.4c-0.5,0.3-1.4,0.5-1.9,0.8
				c-0.8,0.3-1.6,0.5-2.2,0.8l0,0c-0.3,0-0.5,0-0.5,0h-0.3c-0.3,0-0.3,0-0.5,0C134.6,157.8,134.6,157.8,134.3,157.8L134.3,157.8
				L134.3,157.8z M128.6,143.9c-1.9,3.8-1.9,7.9-0.5,10.4c1.1,1.9,3.3,3,6.3,3h0.3c0.3,0,0.3,0,0.5,0h0.3c0.3,0,0.3,0,0.5,0
				c0.8-0.3,1.4-0.5,2.2-0.8c0.5-0.3,1.4-0.5,1.9-0.8c2.7-1.4,7.4-4.9,7.1-7.9c0-1.1-0.3-1.9-1.1-3c-0.3-0.3-0.3-0.5-0.5-0.8
				c-0.3-0.5-0.5-1.1-0.8-1.4l-0.3-0.3h0.5c0,0,0,0,0.3,0l0,0c-0.3-0.3-0.3-0.3-0.5-0.5c-0.3-0.3-0.5-0.5-0.8-0.8
				c-0.5,1.9,0.5,3.8,1.9,5.4c0.3,0.3,0.5,0.8,0.5,1.1s0.3,0.5,0.3,0.8l0,0l0,0c0,0.3,0.3,0.5,0,0.8l0,0c-0.8,1.4-2.5,2.5-3.8,3.3
				h-0.3c-1.4,0.8-6,3.5-9.8,3.5l0,0c-2.7,0-4.4-1.1-5.4-3.5c-0.8-1.6-0.5-4.4,0-6c0.3-0.3,0.3-0.5,0.5-1.1
				C128.6,144.7,128.6,144.4,128.6,143.9L128.6,143.9L128.6,143.9L128.6,143.9z"/>
		</g>
		<g>
			<path id="XMLID_122_" class="st0" d="M136.5,140.9c-0.5,1.4-0.3,3.5,1.6,3.5c0-0.3,0.5-1.6,0.8-1.6v-0.3
				C138.1,142,137.3,141.4,136.5,140.9"/>
			<path class="st0" d="M138.1,144.7L138.1,144.7c-0.8,0-1.4-0.3-1.9-0.8c-0.5-0.8-0.5-1.9-0.3-3v-0.3h0.3c0.3,0,0.5,0.3,0.5,0.3
				c0.5,0.3,1.4,0.8,1.9,1.1l0,0v0.5h0.3C139,142.8,138.7,143.1,138.1,144.7L138.1,144.7L138.1,144.7z M136.5,141.1
				c-0.3,0.8-0.3,1.9,0.3,2.5c0.3,0.3,0.8,0.5,1.4,0.5c0.3-1.1,0.5-1.6,0.8-1.6l0,0c-0.5-0.3-1.4-0.8-1.9-1.1
				C136.8,141.4,136.8,141.4,136.5,141.1L136.5,141.1z"/>
		</g>
		<g>
			<path id="XMLID_119_" class="st0" d="M157.8,140.9c-0.3,0.5-0.5,1.1-0.8,1.6c-0.3,0-0.3,0-0.3-0.3c-1.1-0.5-2.5-1.6-2.5,1.1
				c0.5,0.3,1.4,1.4,1.9,1.4c0-0.3,0.3-1.1,0.8-1.4c0.5-0.3,2.2,0.8,2.2,1.1h0.3v-0.3C160.2,142.5,159.4,141.7,157.8,140.9"/>
			<path class="st0" d="M156.4,145L156.4,145c-0.8,0-1.4-0.5-1.9-0.8c-0.3-0.3-0.3-0.3-0.5-0.3l0,0l0,0c0-0.5,0-1.9,1.1-1.9
				c0.5,0,0.8,0.3,1.4,0.5c0,0,0.3,0,0.3,0.3l0,0l0,0c0.3-0.3,0.3-0.5,0.5-0.8c0-0.3,0.3-0.5,0.3-0.5v-0.3h0.3
				c1.1,0.5,1.6,0.8,1.9,1.6c0.3,0.5,0.3,1.1,0,1.9v0.5h-0.8v-0.8c0-0.3-1.1-0.8-1.9-0.8l0,0C157,143.6,156.7,144.1,156.4,145
				L156.4,145L156.4,145z M154.5,143.3l0.3,0.3c0.3,0.3,0.8,0.8,1.4,0.8c0-0.3,0.3-1.1,0.8-1.1h0.3c0.5,0,1.6,0.5,2.2,1.1l0,0l0,0
				c0.3-0.5,0.3-1.1,0.3-1.6c-0.3-0.5-0.8-0.8-1.6-1.4c0,0.3-0.3,0.3-0.3,0.5c-0.3,0.3-0.3,0.5-0.5,1.1l0,0l0,0l0,0l0,0H157
				c0,0,0,0,0-0.3c0,0,0,0-0.3,0c-0.5-0.3-0.8-0.5-1.4-0.5C155,142,154.5,142,154.5,143.3L154.5,143.3z"/>
		</g>
		<g>
			<path id="XMLID_116_" class="st0" d="M82.6,143.6v0.3v0.5c0,0.8,1.1,1.6,1.4,2.5c0.5,1.4,0.5,2.7,0.5,4.1c0,0.3,0,0.8,0.3,0.8
				C85,148.8,85.3,145.2,82.6,143.6"/>
			<path class="st0" d="M85,152L85,152c-0.5,0-0.5-0.5-0.5-0.8V151c0-1.4-0.3-2.7-0.5-3.8c0-0.3-0.3-0.5-0.5-0.8
				c-0.3-0.5-0.8-1.1-0.8-1.6l0,0v-0.5l0,0v-0.3v-0.3l0.3,0.3C85.3,145.2,85.3,148.5,85,152L85,152L85,152z M82.8,144.4
				c0,0.5,0.3,0.8,0.8,1.4c0.3,0.3,0.5,0.5,0.5,0.8c0.5,1.1,0.5,2.5,0.5,3.8c0.3-2.7,0-5.2-1.9-6.5l0,0V144.4L82.8,144.4z"/>
		</g>
		<g>
			<path class="st0" d="M125.6,139.2c-0.5-0.5-0.8-1.1-1.1-1.6c0-0.3,0-0.3,0.3-0.3c1.1-0.5-0.8-1.6-1.4-1.9
				c-1.1,3.5,4.6,6.8,0.8,8.4c-2.2,0.8-3-3.5-5.4-1.4c-0.8,0.8-1.1,2.5-0.3,3.5s2.7,1.1,3.8,0.8c0,0,0.3-0.3,0.3,0
				c0.3,0.8-0.5,1.6-1.1,1.9c-4.9,4.1-10.6,7.1-16.3,9.3c-0.5,0.3-1.4,0.5-1.9,0.8c0,0.3,0,0.3,0,0.3l0,0c1.4-0.5,3-1.1,4.4-1.1
				c0.8-0.3,1.9-0.3,2.7-0.5c3.8-2.2,8.4-4.1,11.4-7.6c0.8-1.1,0.8-2.5,1.6-3.5c0.5-0.5,1.4-1.1,1.9-1.6
				C127,143.6,126.4,140.9,125.6,139.2 M121,144.7c-0.8,0-1.4-0.3-2.2-0.5c0-0.3,0-0.3,0.3-0.3v-0.3c0.3,0,1.6,0.3,1.6,0.8h0.3
				L121,144.7L121,144.7z"/>
			<path class="st0" d="M102.7,159.4L102.7,159.4L102.7,159.4c0-0.3,0-0.5,0-0.5l0,0l0,0h0.3c0.5-0.3,1.1-0.5,1.6-0.8l0,0
				c6.3-2.2,11.7-5.4,16.3-9.3c0.5-0.5,1.1-1.1,1.1-1.6l0,0c-0.5,0-1.1,0.3-1.6,0.3c-1.1,0-2.2-0.3-2.5-1.1c-0.8-1.1-0.5-3,0.5-3.8
				c0.5-0.5,1.1-0.8,1.4-0.8c0.8,0,1.4,0.5,1.9,1.1c0.5,0.5,1.1,1.1,1.6,1.1c0.3,0,0.3,0,0.5,0c0.5-0.3,1.1-0.5,1.1-1.1
				c0.3-0.8-0.3-1.6-0.8-2.7c-0.8-1.4-1.6-3-1.4-4.6v-0.3h0.3c0.3,0.3,1.6,1.1,1.6,1.6c0,0.3,0,0.5-0.3,0.5l0,0l0,0l0,0
				c0.3,0.3,0.5,0.8,0.8,1.1l0.3,0.3c0.8,1.6,1.6,4.4-0.3,6c-0.3,0.3-0.8,0.5-1.1,0.8c-0.3,0.3-0.5,0.5-1.1,0.8
				c-0.3,0.5-0.5,1.1-0.8,1.6c-0.3,0.5-0.5,1.4-0.8,1.9c-2.5,3-6,4.9-9.3,6.5c-0.8,0.3-1.6,0.8-2.2,1.1l0,0l0,0
				c-0.5,0-1.1,0.3-1.6,0.3c-0.3,0-0.8,0-1.1,0.3l0,0c-1.1,0-2.2,0.3-3.3,0.8C103.5,159.1,103.3,159.4,102.7,159.4L102.7,159.4
				L102.7,159.4z M104.9,158.3c-0.5,0.3-0.8,0.5-1.4,0.5c0.3,0,0.3,0,0.5-0.3c1.1-0.3,2.2-0.8,3.5-0.8c0.3,0,0.8,0,1.1-0.3
				c0.5,0,1.1-0.3,1.6-0.3c0.8-0.3,1.4-0.8,2.2-1.1c3.3-1.6,6.8-3.5,9.3-6.5c0.5-0.5,0.5-1.1,0.8-1.6c0.3-0.5,0.3-1.1,0.8-1.6l0,0
				c0.3-0.3,0.5-0.5,1.1-0.8c0.3-0.3,0.5-0.5,1.1-0.8c1.6-1.4,0.8-4.1,0-5.4l-0.3-0.3c-0.3-0.5-0.5-0.8-1.1-1.4l0,0l0,0l0,0v-0.3
				c0,0,0,0,0.3,0c0.3,0,0.3-0.3,0.3-0.3c0-0.3-0.5-0.8-1.4-1.4c-0.3,1.4,0.5,2.7,1.4,4.1c0.8,1.1,1.4,2.2,1.1,3
				c-0.3,0.5-0.5,0.8-1.4,1.4c-0.3,0-0.3,0-0.5,0c-0.8,0-1.4-0.5-1.9-1.1c-0.5-0.5-1.1-1.1-1.6-1.1c-0.3,0-0.8,0.3-1.1,0.5
				c-0.8,0.8-1.1,2.5-0.3,3.3c0.5,0.5,1.4,0.8,2.2,0.8c0.5,0,1.1,0,1.4-0.3l0,0c0,0,0,0,0.3,0c0,0,0.3,0,0.3,0.3
				c0.3,1.1-0.5,1.9-1.1,2.2C116.6,152.9,111.2,155.9,104.9,158.3L104.9,158.3z M121.3,145L121.3,145c-0.5,0-1.1-0.3-1.4-0.3
				c-0.3,0-0.5-0.3-1.1-0.3h-0.3v0l0,0v-0.3l0,0c0,0,0,0,0-0.3v-0.3h0.3h0.3c0.8,0.3,1.4,0.3,1.6,0.5h0.3v0.8H121.3z M119.1,144.1
				c0.3,0,0.5,0,0.8,0.3c0.3,0,0.5,0,0.8,0.3l0,0C120.7,144.4,120.2,144.1,119.1,144.1C119.3,144.1,119.3,144.1,119.1,144.1
				C119.3,144.1,119.1,144.1,119.1,144.1L119.1,144.1L119.1,144.1L119.1,144.1z"/>
		</g>
		<g>
			<path id="XMLID_107_" class="st0" d="M135.7,146.9c-0.8,1.1-1.6,2.5-1.6,4.1c0,0.5,0,0.8,0.3,1.4h0.5c0-0.3,0.8-1.1,0.5-1.1V151
				l0,0c-0.3,0-0.3,0.3-0.5,0.3V151l0,0c0-0.8,1.4-4.1,1.1-4.1C135.7,146.9,135.7,146.9,135.7,146.9"/>
			<path class="st0" d="M134.9,152.6h-0.8v-0.3c0-0.5-0.3-1.1-0.3-1.4l0,0l0,0c0-1.9,1.1-3.5,1.6-4.1v-0.3h0.3c0,0,0,0,0.3,0l0,0
				l0,0c0,0,0,0-0.3,1.1c-0.3,0.8-0.8,2.2-0.8,2.7l0,0l0,0c0,0,0,0,0.3,0l0,0h0.3v0.3l0,0C135.7,151.5,135.2,152,134.9,152.6
				L134.9,152.6L134.9,152.6z M134.3,152h0.3c0.3-0.3,0.3-0.5,0.5-0.8l0,0V151c0,0-0.3,0-0.3,0.3l-0.3,0.3v-0.3h-0.3V151
				c0-0.5,0.5-1.9,0.8-3c0-0.3,0.3-0.5,0.3-0.8l0,0c-0.8,1.1-1.4,2.7-1.4,3.8C134.3,151.2,134.3,151.8,134.3,152L134.3,152z"/>
		</g>
		<g>
			<path id="XMLID_104_" class="st0" d="M122.6,152.9c-0.5,1.4-0.5,1.9,0.5,3l0.3,0.3l0,0c0.5-0.5,1.1-1.4,1.1-1.9
				C124,153.4,123.4,153.1,122.6,152.9"/>
			<path class="st0" d="M123.7,156.4l-0.3-0.3c0,0,0,0-0.3,0l0,0c-1.1-1.1-1.4-1.6-0.5-3.3v-0.3h0.3c0.8,0.3,1.4,0.5,1.9,0.8
				c0,0,0.3,0,0.3,0.3l0,0l0,0c0,0.8-0.8,1.9-1.1,2.2v0.5H123.7z M122.9,153.1c-0.5,1.1-0.3,1.6,0.5,2.7l0,0
				c0.3-0.3,1.1-1.1,1.1-1.6c0,0,0,0-0.3,0C124,153.7,123.4,153.4,122.9,153.1L122.9,153.1z"/>
		</g>
		<g>
			<path id="XMLID_101_" class="st0" d="M151.2,153.4c-0.3,0.3-2.7,4.9-0.8,4.9V158c0.3-0.3,0.5-0.5,0.8-1.1H151c0,0-0.5,0.3-0.5,0
				h-0.3C150.7,156.1,151.8,154.5,151.2,153.4"/>
			<path class="st0" d="M150.7,158.6L150.7,158.6c-0.5,0-0.8-0.3-0.8-0.3c-0.3-0.5,0-2.2,1.4-4.6c0,0,0,0,0-0.3l0.3-0.3l0.3,0.3
				c0.3,0.8,0,1.6-0.3,2.5c-0.3,0.5-0.3,0.8-0.3,1.1l0,0l0,0l0,0l0,0l0,0h0.5l-0.3,0.3c-0.3,0.3-0.5,0.5-0.8,1.1L150.7,158.6
				L150.7,158.6z M151.2,154c-1.4,2.7-1.4,3.8-1.1,4.1c0,0,0,0,0.3,0.3l0,0l0,0c0.3-0.3,0.3-0.3,0.5-0.5c0,0-0.3,0-0.3-0.3h-0.3
				v-0.3c0-0.5,0.3-1.1,0.5-1.6C151,155,151.2,154.5,151.2,154L151.2,154z"/>
		</g>
		<g>
			<path id="XMLID_98_" class="st0" d="M191.6,154.2c-0.3,0.5-0.5,1.1-0.8,1.6c-0.8-0.3-1.4-0.8-2.2-1.1c-0.5,0.8-0.5,3.3,1.1,3.3v0
				c0.3-0.5,0.5-0.8,0.8-1.4c0.5-0.3,2.2,0.8,2.2,1.4l0,0v-0.3h0.3C194,155.6,193.5,155.3,191.6,154.2"/>
			<path class="st0" d="M189.9,158.3L189.9,158.3c-0.8,0-1.1-0.3-1.4-0.8c-0.5-0.8-0.5-2.2,0-3v-0.3h0.3c0.5,0.3,0.8,0.5,1.4,0.5
				c0.3,0,0.5,0.3,0.8,0.3c0.3-0.3,0.3-0.8,0.5-1.1c0-0.3,0-0.3,0.3-0.5v-0.3h0.3c1.9,1.1,2.7,1.6,1.9,3.8l0,0l0,0v1.1h-0.5l0,0
				c0-0.3-1.4-1.1-1.9-1.1l0,0C190.5,157.2,190.2,157.8,189.9,158.3L189.9,158.3L189.9,158.3z M188.6,155c-0.3,0.5-0.3,1.6,0,2.5
				c0.3,0.3,0.5,0.5,0.8,0.5l0,0c0.3-0.5,0.5-0.8,0.8-1.4l0,0l0,0h0.3c0.5,0,1.6,0.5,2.2,1.1l0,0c0.5-1.9,0.3-2.2-1.6-3.3v0.3
				c-0.3,0.5-0.3,0.8-0.5,1.4v0.3h-0.3c-0.3-0.3-0.5-0.3-0.8-0.5C189.4,155.3,189.1,155.3,188.6,155L188.6,155z"/>
		</g>
		<g>
			<path id="XMLID_95_" class="st0" d="M92.4,154.8c-0.3,0.5-0.3,0.8-0.5,1.4c-0.3,0-0.3,0-0.5,0.3c-0.3-0.3-1.6-1.4-1.6-1.1
				c-1.1,1.1-0.3,3.3,1.1,3.3c0.3-0.5,0.3-1.1,0.5-1.4c0.8,0.5,1.6,0.8,2.5,1.4C94.6,156.1,94.6,155.9,92.4,154.8"/>
			<path class="st0" d="M90.7,158.6L90.7,158.6c-0.8,0-1.4-0.5-1.9-1.1c-0.3-0.8-0.3-1.6,0.3-2.5c0,0,0,0,0.3,0s1.4,0.8,1.6,1.1h0.3
				c0-0.3,0.3-0.3,0.3-0.5c0-0.3,0.3-0.5,0.3-0.5v-0.3h0.3c2.2,1.1,2.2,1.4,1.6,3.5v0.3h-0.3c-0.3,0-0.5-0.3-0.5-0.3
				c-0.5-0.3-1.1-0.5-1.6-0.8c0,0.3,0,0.3-0.3,0.5C91,158,91,158.3,90.7,158.6L90.7,158.6L90.7,158.6z M89.6,155.3
				c-0.5,0.5-0.5,1.4-0.3,1.9c0.3,0.5,0.5,0.8,1.1,1.1c0-0.3,0.3-0.5,0.3-0.5c0-0.3,0.3-0.5,0.3-0.5V157h0.3
				c0.5,0.3,1.4,0.5,1.9,1.1c0.3,0,0.3,0.3,0.5,0.3c0.5-1.9,0.5-1.9-1.4-3c0,0.3-0.3,0.3-0.3,0.5c0,0.3-0.3,0.5-0.3,0.5l0,0h-0.3
				c-0.3,0-0.3,0-0.5,0l0,0l0,0C90.7,156.1,89.9,155.6,89.6,155.3L89.6,155.3z"/>
		</g>
		<g>
			<path id="XMLID_92_" class="st0" d="M164.3,155.3c-0.3,0.5-0.5,1.4-0.5,2.2h-0.3c-0.3-0.8-0.8-1.9-1.9-1.9
				c0.3,1.4,1.9,1.9,1.9,3.3c0.3,0,0,0,0,0h0.3l0,0c0.3-0.8,0.3-1.6,0.5-2.7c0.3,0,0.3,0,0.3-0.3h0.3v0.3c0,0.3,0.3,0.3,0.3,0.5h0.3
				C165.1,155.9,164.9,155.6,164.3,155.3"/>
			<path class="st0" d="M164,159.1h-0.5l0,0l0,0v-0.3c0-0.8-0.5-1.1-0.8-1.6c-0.5-0.5-0.8-0.8-1.1-1.6v-0.3h0.3
				c1.1,0,1.6,1.1,1.9,1.9c0-0.8,0.3-1.4,0.5-1.9V155h0.3c0.8,0.3,1.1,0.5,1.1,1.4v0.3h-0.5l0,0c0,0,0,0,0-0.3l-0.3-0.3
				c0,0,0,0-0.3,0c0,0.8-0.3,1.6-0.5,2.5V159.1L164,159.1z M163.5,158.6L163.5,158.6L163.5,158.6c0-0.3,0.3-0.5,0.3-0.8h-0.5
				C163.5,158,163.5,158.3,163.5,158.6L163.5,158.6z M161.9,155.9c0.3,0.5,0.5,0.8,0.8,1.1c0.3,0.3,0.5,0.5,0.5,0.8l0,0
				C162.9,157,162.7,155.9,161.9,155.9L161.9,155.9z M164.9,156.1C164.9,156.1,164.9,156.4,164.9,156.1L164.9,156.1L164.9,156.1
				L164.9,156.1z M164,156.1L164,156.1L164,156.1l0.5-0.3c0,0-0.3-0.3-0.5-0.3C164.3,155.9,164.3,155.9,164,156.1L164,156.1z"/>
		</g>
		<g>
			<path id="XMLID_86_" class="st0" d="M176.8,155.6L176.8,155.6c0,0.3-0.3,0.5-0.3,0.8c-0.5,0-2.5,1.1-3,1.4
				c-0.8,0.8-2.2,2.5-3.5,2.5v0.3h0.3v0.3c1.4-0.5,2.2-1.6,3.5-2.2c0.8-0.5,1.6-0.5,2.5-0.8c0.3,0,0.8,0,0.8-0.3
				C176.8,156.4,176.8,155.9,176.8,155.6"/>
			<path class="st0" d="M170,160.8L170,160.8L170,160.8v-0.8h0.3c0.8,0,1.6-0.8,2.5-1.6c0.3-0.3,0.5-0.5,0.8-0.8
				c0.5-0.3,2.2-1.1,3-1.4l0,0c0,0,0-0.3,0.3-0.3l0,0h0.3c0.3,0.5,0,1.1,0,1.6c0,0.3-0.3,0.3-0.5,0.5h-0.3c-0.3,0-0.5,0.3-0.8,0.3
				c-0.5,0.3-1.1,0.3-1.6,0.5c-0.5,0.3-1.1,0.5-1.6,1.1C171.7,159.9,171.1,160.5,170,160.8L170,160.8L170,160.8z M176.6,156.4
				L176.6,156.4L176.6,156.4L176.6,156.4c-0.8,0.3-2.5,1.1-3,1.4c-0.3,0.3-0.5,0.5-0.8,0.8c0,0,0,0-0.3,0.3c0.3-0.3,0.5-0.5,1.1-0.5
				c0.5-0.3,1.1-0.5,1.6-0.5c0.3,0,0.5-0.3,0.8-0.3h0.3h0.3l0,0C176.6,156.7,176.6,156.4,176.6,156.4L176.6,156.4z"/>
		</g>
	</g>
	<g>
		<g>
			<g>
				<path id="XMLID_83_" class="st0" d="M137.9,74.1l-1.4-1.9l0,0c-2.2-3-15.5-20.7-30.5-28.3c-18.5-10.6-33-9-33-9
					s-3.3,42.8,44.7,85.3c0,0-39.2-41.7-38.1-79.3c0,0,11.4-0.3,25.3,7.4C124,58.9,136.8,76,136.8,76l0,0l0,0l0,0
					c12.5,16.6,16.9,34.1,18.3,40.9C151.5,98.1,145.2,84.5,137.9,74.1z"/>
			</g>
			<g>
				<path id="XMLID_82_" class="st0" d="M154.8,116.9c0.3,1.1,0.3,1.9,0.5,3C155.3,120.2,155,119.1,154.8,116.9z"/>
			</g>
		</g>
		<g>
			<path id="XMLID_81_" class="st0" d="M153.1,53.7c-4.1-9.5-12.5-17.4-16.6-19.9c-4.1,2.5-12.5,10.4-16.6,19.9
				c-8.4,20.2-8.2,38.4-2.2,66.5c0,0-4.6-36,6.8-62.1c2.7-6,6.8-12,12-16.3c5.2,4.4,9.3,10.1,12,16.3c11.4,26.2,6.8,62.1,6.8,62.1
				C161.3,91.8,161.6,73.6,153.1,53.7z"/>
		</g>
		<g>
			<path id="XMLID_80_" class="st0" d="M167,43.6C160.2,21.8,144.1,6,136.5,0c-7.6,6-23.7,22.1-30.5,43.6
				c-6.5,21-3.3,48.5,11.7,76.3c0,0-16.6-33.5-7.6-68.7c4.6-18.3,13.1-30,26.4-41.1c13.6,11.2,21.8,22.9,26.4,41.1
				c9,35.2-7.6,68.7-7.6,68.7C170.3,92.4,173.3,64.6,167,43.6z"/>
		</g>
		<g>
			<g>
				<path id="XMLID_79_" class="st0" d="M118.3,116.9c-0.3,1.9-0.5,3-0.5,3C117.7,119.1,118,118,118.3,116.9z"/>
			</g>
			<g>
				<path id="XMLID_78_" class="st0" d="M200,34.9c0,0-14.4-1.6-33,9c-15,7.6-28.3,25.3-30.5,28.3l0,0l-1.4,1.9
					c-7.4,10.4-13.6,24-16.9,42.8c1.4-6.8,5.7-24.5,18.3-40.9l0,0l0,0l0,0c0,0,12.8-17.2,31.9-27.8c13.9-7.6,25.3-7.4,25.3-7.4
					c1.1,37.6-38.1,79.3-38.1,79.3C203.3,77.7,200,34.9,200,34.9z"/>
			</g>
		</g>
	</g>
	<g>
		<path id="XMLID_77_" class="st0" d="M0.5,190.2v-25.1h5.2v25.1H0.5z"/>
		<path id="XMLID_76_" class="st0" d="M9.5,182l4.9-0.5c0.3,1.6,0.8,3,1.9,3.5c0.8,0.8,2.2,1.1,3.8,1.1s3-0.3,3.8-1.1
			c0.8-0.8,1.4-1.6,1.4-2.5c0-0.5-0.3-1.1-0.5-1.6c-0.3-0.5-1.1-0.8-1.9-1.1c-0.5-0.3-1.9-0.5-4.1-1.1c-2.7-0.5-4.6-1.6-5.7-2.5
			c-1.6-1.4-2.5-3-2.5-5.2c0-1.4,0.3-2.5,1.1-3.5c0.8-1.1,1.9-1.9,3.3-2.5c1.4-0.5,3-0.8,4.9-0.8c3.3,0,5.4,0.8,7.1,2.2
			c1.6,1.4,2.5,3.3,2.5,5.4l-5.2,0.3c-0.3-1.4-0.5-2.2-1.4-2.7s-1.9-0.8-3.3-0.8s-2.7,0.3-3.5,0.8c-0.5,0.3-0.8,0.8-0.8,1.6
			c0,0.5,0.3,1.1,0.8,1.6c0.5,0.5,2.2,1.1,4.6,1.6c2.5,0.5,4.4,1.1,5.4,1.9c1.1,0.5,2.2,1.4,2.7,2.5c0.5,1.1,1.1,2.5,1.1,4.1
			c0,1.4-0.3,2.7-1.1,4.1c-0.8,1.4-1.9,2.2-3.3,2.7c-1.4,0.5-3.3,0.8-5.4,0.8c-3.3,0-5.7-0.8-7.4-2.2C10.9,186.9,10.1,184.7,9.5,182
			z"/>
		<path id="XMLID_75_" class="st0" d="M40.6,190.2v-21h-7.4v-4.4h19.9v4.4h-7.4v21H40.6z"/>
		<path class="st0" d="M77.1,190.2h-5.4l-2.2-5.7H59.4l-2.2,5.7h-5.4l9.8-25.1H67L77.1,190.2z M67.6,180.1l-3.5-9.3l-3.5,9.3H67.6z"
			/>
		<path id="XMLID_72_" class="st0" d="M80.4,190.2v-25.1h4.9L95.6,182v-16.9h4.6v25.1h-5.2L85,173.8v16.3H80.4z"/>
		<path class="st0" d="M128.9,190.2h-5.4l-2.2-5.7h-10.1l-2.2,5.7h-5.4l9.8-25.1h5.4L128.9,190.2z M119.6,180.1l-3.5-9.3l-3.5,9.3
			H119.6z"/>
		<path class="st0" d="M140.6,164.9h10.1c1.9,0,3.5,0,4.4,0.3c1.1,0.3,1.9,0.5,2.7,1.1c0.8,0.5,1.4,1.1,1.9,2.2
			c0.5,0.8,0.8,1.9,0.8,3c0,1.1-0.3,2.2-1.1,3.3c-0.5,1.1-1.6,1.6-2.7,2.2c1.6,0.5,2.7,1.1,3.5,2.2c0.8,1.1,1.4,2.5,1.4,3.8
			c0,1.1-0.3,2.2-0.8,3.3c-0.5,1.1-1.4,1.9-2.2,2.7c-0.8,0.5-2.2,1.1-3.3,1.1c-0.8,0-3,0.3-6.3,0.3h-8.4L140.6,164.9L140.6,164.9z
			 M145.8,169.2v5.7h3.3c1.9,0,3.3,0,3.8,0c0.8,0,1.6-0.3,1.9-0.8c0.5-0.5,0.8-1.1,0.8-1.9c0-0.8-0.3-1.4-0.5-1.9
			c-0.5-0.5-1.1-0.8-1.9-0.8c-0.5,0-1.9,0-4.4,0h-3V169.2z M145.8,179.3v6.8h4.6c1.9,0,3,0,3.5-0.3c0.8-0.3,1.4-0.5,1.9-1.1
			c0.5-0.5,0.8-1.4,0.8-2.2s-0.3-1.4-0.5-1.9c-0.3-0.5-0.8-0.8-1.6-1.1c-0.8-0.3-2.2-0.3-4.6-0.3H145.8z"/>
		<path id="XMLID_66_" class="st0" d="M164,164.9h5.2v13.6c0,2.2,0,3.5,0.3,4.1c0.3,1.1,0.8,1.9,1.6,2.5c0.8,0.5,1.9,0.8,3.3,0.8
			c1.4,0,2.5-0.3,3.3-0.8c0.8-0.5,1.1-1.4,1.4-2.2c0-0.8,0.3-2.2,0.3-4.4v-13.9h5.2v13.4c0,3,0,5.2-0.5,6.5
			c-0.3,1.4-0.8,2.2-1.6,3.3c-0.8,0.8-1.6,1.6-3,2.2c-1.4,0.5-2.7,0.8-4.9,0.8c-2.5,0-4.4-0.3-5.4-0.8c-1.4-0.5-2.2-1.4-3-2.2
			c-0.8-0.8-1.1-1.9-1.4-2.7c-0.3-1.4-0.5-3.5-0.5-6.3V164.9z"/>
		<path class="st0" d="M187.2,164.9h9.3c2.2,0,3.8,0.3,4.9,0.5c1.4,0.5,2.7,1.1,3.8,2.5c1.1,1.1,1.9,2.5,2.5,4.1
			c0.5,1.6,0.8,3.5,0.8,6c0,2.2-0.3,3.8-0.8,5.4c-0.5,1.9-1.6,3.3-2.7,4.4c-0.8,0.8-2.2,1.6-3.5,1.9c-1.1,0.3-2.7,0.5-4.6,0.5h-9.5
			L187.2,164.9L187.2,164.9z M192.4,169.2v16.6h3.8c1.4,0,2.5,0,3-0.3c0.8-0.3,1.6-0.5,2.2-1.1c0.5-0.5,1.1-1.4,1.4-2.5
			c0.3-1.1,0.5-2.7,0.5-4.6c0-1.9-0.3-3.5-0.5-4.4c-0.3-1.1-0.8-1.9-1.4-2.5c-0.5-0.5-1.4-1.1-2.5-1.1c-0.8-0.3-2.2-0.3-4.1-0.3
			H192.4z"/>
		<path class="st0" d="M233.5,190.2h-5.4l-2.2-5.7h-10.1l-2.2,5.7h-5.4l9.8-25.1h5.4L233.5,190.2z M224,180.1l-3.5-9.3l-3.3,9.3H224
			z"/>
		<path id="XMLID_61_" class="st0" d="M237.3,190.2v-10.6l-9.3-14.7h6l6,10.1l5.7-10.1h5.7l-9.3,14.7v10.6
			C242.2,190.2,237.3,190.2,237.3,190.2z"/>
		<path class="st0" d="M271.7,190.2h-5.4l-2.2-5.7H254l-2.2,5.7h-5.4l9.8-25.1h5.4L271.7,190.2z M262.4,180.1l-3.5-9.3l-3.3,9.3
			H262.4z"/>
	</g>
	<g>
		<path id="XMLID_58_" class="st0" d="M0,197.8h0.8v2.7l2.7-2.7h1.1l-3.5,3.3l3.8,3.8H3.8l-3.3-3.3v3.3H0V197.8z"/>
		<path id="XMLID_57_" class="st0" d="M5.7,197.8h4.1v0.8H6.5v2.2h3.3v0.8H6.5v2.7h3.3v0.8H5.7V197.8z"/>
		<path id="XMLID_56_" class="st0" d="M10.9,204.9l1.1-7.1l0,0l3,6l3-6l0,0l1.1,7.1h-0.8l-0.8-5.2l-2.5,5.2h-0.3l-2.5-5.2l-0.8,5.2
			H10.9z"/>
		<path id="XMLID_55_" class="st0" d="M20.2,197.8h4.1v0.8H21v2.2h3.3v0.8H21v2.7h3.3v0.8h-4.1V197.8z"/>
		<path id="XMLID_54_" class="st0" d="M25.6,204.9v-7.1h0.3l4.6,5.4v-5.4h0.8v7.1h-0.3l-4.6-5.4v5.4H25.6z"/>
		<path id="XMLID_53_" class="st0" d="M32.2,198.6v-0.8H36v0.8h-1.6v6.5h-0.8v-6.5H32.2z"/>
		<path id="XMLID_52_" class="st0" d="M37.3,197.8h4.1v0.8h-3.3v2.2h3.3v0.8h-3.3v2.7h3.3v0.8h-4.1V197.8z"/>
		<path class="st0" d="M42.5,197.8h1.4c0.8,0,1.4,0,1.6,0c0.5,0,0.8,0.3,1.1,0.5c0.3,0.3,0.3,0.8,0.3,1.1c0,0.3,0,0.8-0.3,1.1
			c-0.3,0.3-0.5,0.5-0.8,0.5c-0.3,0.3-0.8,0.3-1.4,0.3l2.5,3.3h-0.5l-2.7-3h-0.3v3.3h-0.8V197.8z M43.3,198.6v2.5h1.1
			c0.5,0,0.8,0,1.1,0c0.3,0,0.3-0.3,0.5-0.5c0-0.3,0.3-0.5,0.3-0.5c0-0.3,0-0.5-0.3-0.5c-0.3-0.3-0.3-0.3-0.5-0.5
			c-0.3,0-0.5,0-1.1,0h-1.1V198.6z"/>
		<path id="XMLID_49_" class="st0" d="M48.5,197.8h0.8v7.1h-0.8V197.8z"/>
		<path class="st0" d="M53.7,197.8l3.3,7.1h-0.8l-1.1-2.5h-3l-1.1,2.5h-0.8L53.7,197.8L53.7,197.8z M53.7,199.5l-1.1,2.7H55
			L53.7,199.5z"/>
		<path id="XMLID_46_" class="st0" d="M58.3,204.9v-7.1h0.3l4.6,5.4v-5.4H64v7.1h-0.3l-4.6-5.4v5.4H58.3z"/>
		<path class="st0" d="M68.4,197.8h1.4c0.8,0,1.4,0,1.6,0c0.5,0,0.8,0.3,1.1,0.5s0.3,0.8,0.3,1.1c0,0.5,0,0.8-0.3,1.1
			s-0.5,0.5-1.1,0.5c-0.3,0-0.8,0-1.9,0h-0.5v3.3h-0.8v-6.5H68.4z M68.9,198.6v2.5H70c0.5,0,0.8,0,1.1,0c0.3,0,0.3-0.3,0.5-0.5
			c0.3-0.3,0.3-0.5,0.3-0.5c0-0.3,0-0.5-0.3-0.5c0-0.3-0.3-0.3-0.5-0.5c-0.3,0-0.5,0-1.1,0h-1.1V198.6z"/>
		<path id="XMLID_43_" class="st0" d="M74.4,197.8h4.1v0.8h-3.3v2.2h3.3v0.8h-3.3v2.7h3.3v0.8h-4.1V197.8z"/>
		<path id="XMLID_42_" class="st0" d="M79.6,197.8h0.8v6.5h2.7v0.8h-3.5V197.8z"/>
		<path class="st0" d="M87.2,197.8l3.3,7.1h-0.8l-1.1-2.5h-3l-1.1,2.5h-0.8L87.2,197.8L87.2,197.8z M86.9,199.5l-1.1,2.7h2.5
			L86.9,199.5z"/>
		<path id="XMLID_39_" class="st0" d="M91.6,204.9v-7.1h0.3l4.9,5.4v-5.4h0.8v7.1h-0.3l-4.6-5.4v5.4H91.6z"/>
		<path id="XMLID_38_" class="st0" d="M105.7,199.2l-0.5,0.5c-0.3-0.3-0.8-0.8-1.1-0.8c-0.5-0.3-0.8-0.3-1.4-0.3
			c-0.5,0-1.1,0-1.6,0.3c-0.5,0.3-0.8,0.5-1.1,1.1c-0.3,0.5-0.3,1.1-0.3,1.6c0,0.8,0.3,1.6,0.8,2.2c0.5,0.5,1.4,0.8,2.2,0.8
			c1.1,0,1.9-0.3,2.5-1.1l0.5,0.5c-0.3,0.5-0.8,0.8-1.4,1.1c-0.5,0.3-1.1,0.3-1.9,0.3c-1.4,0-2.2-0.5-3-1.4
			c-0.5-0.8-0.8-1.6-0.8-2.5c0-1.1,0.3-1.9,1.1-2.7c0.8-0.8,1.6-1.1,2.7-1.1c0.5,0,1.4,0,1.9,0.3
			C104.9,198.4,105.2,198.6,105.7,199.2z"/>
		<path class="st0" d="M110.4,197.6c1.1,0,1.9,0.3,2.7,1.1c0.8,0.8,1.1,1.6,1.1,2.7s-0.3,1.9-1.1,2.7c-0.8,0.8-1.6,1.1-2.7,1.1
			c-1.1,0-1.9-0.3-2.7-1.1c-0.8-0.8-1.1-1.6-1.1-2.7c0-0.8,0.3-1.4,0.5-1.9c0.3-0.5,0.8-1.1,1.4-1.4
			C109.3,197.8,109.8,197.6,110.4,197.6z M110.4,198.4c-0.5,0-1.1,0.3-1.4,0.5c-0.5,0.3-0.8,0.5-1.1,1.1c-0.3,0.5-0.3,1.1-0.3,1.6
			c0,0.8,0.3,1.6,0.8,2.2c0.5,0.5,1.4,0.8,2.2,0.8c0.5,0,1.1-0.3,1.6-0.3c0.5-0.3,0.8-0.5,1.1-1.1c0.3-0.5,0.3-1.1,0.3-1.6
			c0-0.5,0-1.1-0.3-1.6c-0.3-0.5-0.5-0.8-1.1-1.1C111.4,198.4,110.9,198.4,110.4,198.4z"/>
		<path id="XMLID_35_" class="st0" d="M115.8,204.9v-7.1h0.3l4.6,5.4v-5.4h0.8v7.1h-0.3l-4.6-5.4v5.4H115.8z"/>
		<path id="XMLID_34_" class="st0" d="M130,198.9l-0.5,0.5c-0.3-0.3-0.8-0.8-1.4-0.8c-0.5-0.3-0.8-0.3-1.4-0.3
			c-0.5,0-1.1,0.3-1.6,0.5c-0.5,0.3-0.8,0.5-1.1,1.1c-0.3,0.5-0.5,1.1-0.5,1.6c0,0.5,0.3,1.1,0.5,1.6c0.3,0.5,0.8,0.8,1.1,1.1
			c0.5,0.3,1.1,0.5,1.6,0.5c0.8,0,1.4-0.3,1.9-0.5c0.5-0.5,0.8-1.1,0.8-1.6h-2.2v-1.1h3c0,1.1-0.3,1.9-1.1,2.7
			c-0.5,0.5-1.6,1.1-2.7,1.1c-1.4,0-2.5-0.5-3.3-1.4c-0.5-0.8-0.8-1.6-0.8-2.5c0-0.5,0.3-1.4,0.5-1.9c0.3-0.5,0.8-1.1,1.4-1.4
			c0.5-0.3,1.4-0.5,1.9-0.5c0.5,0,1.1,0,1.6,0.3C128.9,198.1,129.4,198.6,130,198.9z"/>
		<path class="st0" d="M134.6,197.8l3.3,7.1h-0.8l-1.1-2.5h-3l-1.1,2.5h-0.8L134.6,197.8L134.6,197.8z M134.6,199.5l-1.4,2.7h2.5
			L134.6,199.5z"/>
		<path id="XMLID_31_" class="st0" d="M139.2,204.9v-7.1h0.3l4.6,5.4v-5.4h0.8v7.1h-0.3l-4.6-5.4v5.4H139.2z"/>
		<path class="st0" d="M154.8,202.5l0.5,0.5c-0.3,0.3-0.5,0.5-0.8,0.8c0.3,0.3,0.5,0.5,0.8,0.8c0.3,0.3,0.5,0.5,0.5,0.5h-1.1
			l-0.8-1.1c-0.5,0.5-1.1,0.8-1.4,0.8c-0.3,0.3-0.8,0.3-1.1,0.3c-0.5,0-1.1-0.3-1.4-0.5c-0.3-0.3-0.5-0.8-0.5-1.1s0-0.8,0.3-1.1
			c0.3-0.3,0.8-0.8,1.4-1.4c-0.3-0.5-0.5-0.8-0.8-1.1c0-0.3-0.3-0.5-0.3-0.5c0-0.3,0-0.5,0.5-0.8c0.3-0.3,0.8-0.5,1.1-0.5
			c0.3,0,0.5,0,0.8,0.3c0.3,0,0.5,0.3,0.5,0.5c0.3,0.3,0.3,0.5,0.3,0.5c0,0.3,0,0.5-0.3,0.8c-0.3,0.3-0.5,0.5-1.1,1.1l1.1,1.1
			l0.8,0.8C154.2,202.7,154.5,202.5,154.8,202.5z M151.5,201.6c-0.5,0.5-1.1,0.8-1.1,1.1c-0.3,0.3-0.3,0.5-0.3,0.8
			c0,0.3,0,0.5,0.3,0.8c0.3,0.3,0.5,0.3,0.8,0.3c0.3,0,0.5,0,0.8-0.3c0.3-0.3,0.8-0.5,1.4-0.8l-1.1-1.1
			C151.8,202.2,151.8,201.9,151.5,201.6z M151.5,200.5c0.3-0.3,0.5-0.5,0.8-0.8c0-0.3,0.3-0.3,0.3-0.5s0-0.3-0.3-0.5
			c-0.3,0-0.3-0.3-0.5-0.3c-0.3,0-0.5,0-0.5,0.3c-0.3,0-0.3,0.3-0.3,0.5s0,0.3,0,0.3C151,200,151.2,200.3,151.5,200.5z"/>
		<path id="XMLID_27_" class="st0" d="M159.4,197.8h0.8v2.7l3-2.7h1.1l-3.5,3.3l3.8,3.8h-1.1l-3.3-3.3v3.3h-0.8V197.8z"/>
		<path id="XMLID_26_" class="st0" d="M165.4,197.8h4.1v0.8h-3.3v2.2h3.3v0.8h-3.3v2.7h3.3v0.8h-4.1V197.8z"/>
		<path class="st0" d="M170.8,197.8h1.4c0.5,0,1.1,0,1.4,0.3c0.3,0,0.5,0.3,0.8,0.5c0.3,0.3,0.3,0.5,0.3,0.8s0,0.5-0.3,0.8
			c-0.3,0.3-0.3,0.5-0.8,0.5c0.3,0,0.5,0.3,0.8,0.5c0.3,0.3,0.3,0.3,0.5,0.5c0,0.3,0.3,0.5,0.3,0.8c0,0.5-0.3,1.1-0.5,1.4
			c-0.5,0.3-1.1,0.5-1.6,0.5h-1.9v-6.8H170.8z M171.4,198.6v2.2h0.5c0.5,0,0.8,0,1.1,0s0.5-0.3,0.5-0.5s0.3-0.5,0.3-0.5
			c0-0.3,0-0.5-0.3-0.8c-0.3-0.3-0.5-0.3-1.1-0.3C172.5,198.6,171.4,198.6,171.4,198.6z M171.4,201.6v2.7h0.8c0.5,0,0.8,0,1.1-0.3
			c0.3,0,0.5-0.3,0.5-0.5c0.3-0.3,0.3-0.5,0.3-0.8s0-0.5-0.3-0.8c-0.3-0.3-0.5-0.3-0.8-0.5c-0.3,0-0.5,0-1.4,0h-0.3V201.6z"/>
		<path id="XMLID_22_" class="st0" d="M176.6,197.8h0.8v4.4c0,0.5,0,0.8,0,1.1c0,0.3,0,0.5,0.3,0.8c0,0.3,0.3,0.3,0.5,0.5
			c0.3,0,0.5,0.3,0.8,0.3c0.3,0,0.5,0,0.5-0.3c0.3,0,0.3-0.3,0.5-0.5c0.3-0.3,0.3-0.3,0.3-0.5s0-0.5,0-1.1v-4.4h0.8v4.4
			c0,0.5,0,1.1-0.3,1.6c0,0.3-0.3,0.8-0.8,1.1c-0.3,0.3-0.8,0.5-1.4,0.5c-0.5,0-1.1,0-1.4-0.5c-0.5-0.3-0.8-0.5-0.8-1.1
			c0-0.3,0-0.8,0-1.6L176.6,197.8L176.6,197.8z"/>
		<path class="st0" d="M183.1,204.9v-7.1h1.4c1.1,0,1.9,0,2.5,0.3c0.8,0.3,1.4,0.5,1.6,1.4c0.3,0.5,0.5,1.4,0.5,2.2
			s-0.3,1.4-0.5,1.9c-0.3,0.5-0.8,0.8-1.1,1.1c-0.5,0.3-1.1,0.3-2.2,0.3H183.1z M183.7,204.4h0.8c1.1,0,1.6,0,2.2-0.3
			c0.5-0.3,1.1-0.5,1.4-0.8c0.3-0.5,0.5-1.1,0.5-1.6c0-0.8-0.3-1.4-0.5-1.6c-0.3-0.5-0.8-0.8-1.4-1.1c-0.5,0-1.1-0.3-2.2-0.3h-0.5
			v5.7H183.7z"/>
		<path class="st0" d="M193.2,197.8l3.3,7.1h-0.8l-1.1-2.5h-3l-1.1,2.5h-0.8L193.2,197.8L193.2,197.8z M193.2,199.5l-1.1,2.7h2.5
			L193.2,199.5z"/>
		<path id="XMLID_17_" class="st0" d="M195.9,197.8h0.8l1.9,3l1.9-3h0.8l-2.5,3.8v3.5h-0.8v-3.5L195.9,197.8z"/>
		<path class="st0" d="M204.1,197.8l3.3,7.1h-0.8l-1.1-2.5h-3l-1.1,2.5h-0.8L204.1,197.8L204.1,197.8z M204.1,199.5l-1.4,2.7h2.5
			L204.1,199.5z"/>
		<path class="st0" d="M211.4,197.8l3.3,7.1h-0.8l-1.1-2.5h-3l-1.1,2.5h-0.8L211.4,197.8L211.4,197.8z M211.4,199.5l-1.4,2.7h2.5
			L211.4,199.5z"/>
		<path id="XMLID_12_" class="st0" d="M216.1,204.9v-7.1h0.3l4.6,5.4v-5.4h0.8v7.1h-0.3l-4.6-5.4v5.4H216.1z"/>
		<path id="XMLID_11_" class="st0" d="M225.9,204.9l1.1-7.1l0,0l3,6l3-6l0,0l1.1,7.1h-0.8l-0.8-5.2l-2.5,5.2h-0.3l-2.5-5.2l-0.8,5.2
			H225.9z"/>
		<path class="st0" d="M238.2,197.8l3.3,7.1h-0.8l-1.1-2.5h-3l-1.1,2.5h-0.8L238.2,197.8L238.2,197.8z M238.2,199.5l-1.4,2.7h2.5
			L238.2,199.5z"/>
		<path id="XMLID_8_" class="st0" d="M242.5,197.8h0.8v6.5h2.7v0.8h-3.5V197.8z"/>
		<path class="st0" d="M250.1,197.8l3.3,7.1h-0.8l-1.1-2.5h-3l-1.1,2.5h-0.8L250.1,197.8L250.1,197.8z M250.1,199.5l-1.4,2.7h2.5
			L250.1,199.5z"/>
		<path id="XMLID_5_" class="st0" d="M252.9,197.8h0.8l1.9,3l1.9-3h0.8l-2.2,3.8v3.5h-0.8v-3.5L252.9,197.8z"/>
		<path id="XMLID_4_" class="st0" d="M258.6,203.5l0.5-0.3c0.5,0.8,0.8,1.1,1.4,1.1c0.3,0,0.5,0,0.5-0.3c0.3,0,0.3-0.3,0.5-0.5
			c0-0.3,0.3-0.3,0.3-0.5c0-0.3,0-0.5-0.3-0.8c-0.3-0.3-0.5-0.8-1.4-1.1c-0.5-0.5-1.1-0.8-1.1-1.1c-0.3-0.3-0.3-0.8-0.3-1.1
			s0-0.5,0.3-0.8s0.3-0.5,0.5-0.5c0.3-0.3,0.5-0.3,0.8-0.3c0.3,0,0.5,0,0.8,0.3c0.3,0.3,0.5,0.5,0.8,0.8l-0.5,0.5
			c-0.3-0.3-0.5-0.5-0.8-0.8c-0.3,0-0.3-0.3-0.5-0.3c-0.3,0-0.5,0-0.8,0.3c-0.3,0.3-0.3,0.3-0.3,0.5s0,0.3,0,0.5
			c0,0.3,0.3,0.3,0.3,0.5c0,0,0.3,0.3,0.8,0.8c0.5,0.5,1.1,0.8,1.4,1.4c0.3,0.3,0.3,0.8,0.3,1.1c0,0.5-0.3,1.1-0.5,1.4
			c-0.3,0.3-0.8,0.5-1.4,0.5c-0.5,0-0.8,0-1.1-0.3C259.1,204.6,258.9,204.1,258.6,203.5z"/>
		<path id="XMLID_3_" class="st0" d="M264,197.8h0.8v7.1H264V197.8z"/>
		<path class="st0" d="M269.5,197.8l3.3,7.1h-0.8l-1.1-2.5h-3l-1.1,2.5h-0.8L269.5,197.8L269.5,197.8z M269.2,199.5l-1.1,2.7h2.5
			L269.2,199.5z"/>
	</g>
</g>
</svg>
