<?xml version="1.0" encoding="utf-8"?>
<!-- Generator: Adobe Illustrator 19.0.0, SVG Export Plug-In . SVG Version: 6.00 Build 0)  -->
<svg version="1.1" id="Layer_1" xmlns="http://www.w3.org/2000/svg" xmlns:xlink="http://www.w3.org/1999/xlink" x="0px" y="0px"
	 viewBox="0 0 961.4 269.6" style="enable-background:new 0 0 961.4 269.6;" xml:space="preserve">
<style type="text/css">
	.st0{fill:#626D80;}
</style>
<g>
	<g id="XMLID_1011_">
		<g id="XMLID_1081_">
			<path id="XMLID_1153_" class="st0" d="M22.5,269.1H0l1.9-3.2c10.6-18.3,16-28.9,16-32c0-2.2-0.6-4.1-1.9-5.5
				c-1.3-1.4-3-2.1-5-2.1c-1.4,0-2.7,0.4-3.8,1.3c-1.2,0.9-2.1,2-2.7,3.5l-3.9-1.6c0.9-2.2,2.3-4,4.2-5.4c1.9-1.3,4-2,6.2-2
				c3.3,0,6,1.1,8.1,3.4c2.1,2.2,3.2,5.1,3.2,8.5c0,2.4-1.2,6-3.5,10.8c-1.9,3.8-5.6,10.5-11.1,20.1h15V269.1z"/>
			<path id="XMLID_1151_" class="st0" d="M48.4,222.7v46.4h-4.3v-18.9h-19l4.2-27.5h4.3l-3.6,23.2h14.1v-23.2H48.4z"/>
			<path id="XMLID_1148_" class="st0" d="M92.4,243.6v4.3h-2.9v21.2H79.1c-3.5,0-6.5-1.2-9-3.7c-2.5-2.5-3.7-5.5-3.7-9
				c0-2.5,0.7-4.8,2-6.9c1.3-2,3.1-3.6,5.2-4.6c-3-2.5-4.4-5.7-4.4-9.6c0-3.5,1.2-6.4,3.7-8.9c2.5-2.5,5.4-3.7,8.9-3.7h5.5v4.3h-5.5
				c-2.3,0-4.2,0.8-5.9,2.5c-1.6,1.6-2.5,3.6-2.5,5.9c0,2.3,0.8,4.3,2.5,5.9c1.6,1.6,3.6,2.5,5.9,2.5h3.4v-5.3h4.3v5.3H92.4z
				 M85.2,247.9h-6.1c-2.3,0-4.3,0.8-5.9,2.5c-1.7,1.6-2.5,3.6-2.5,5.9c0,2.3,0.8,4.4,2.5,6c1.6,1.7,3.6,2.5,5.9,2.5h6.1V247.9z"/>
			<path id="XMLID_1146_" class="st0" d="M130.3,269.1h-22.5l1.9-3.2c10.6-18.3,16-28.9,16-32c0-2.2-0.6-4.1-1.9-5.5
				c-1.3-1.4-3-2.1-5-2.1c-1.4,0-2.7,0.4-3.8,1.3c-1.2,0.9-2.1,2-2.7,3.5l-3.9-1.6c0.9-2.2,2.3-4,4.2-5.4c1.9-1.3,4-2,6.2-2
				c3.3,0,6,1.1,8.1,3.4c2.1,2.2,3.2,5.1,3.2,8.5c0,2.4-1.2,6-3.5,10.8c-1.9,3.8-5.6,10.5-11.1,20.1h15V269.1z"/>
			<path id="XMLID_1144_" class="st0" d="M133.1,264.8l3.2-2.8c1.9,2.2,4.3,3.3,7.2,3.3c2.6,0,4.9-0.9,6.8-2.8s2.8-4.1,2.8-6.8
				c0-2.6-0.9-4.9-2.8-6.7c-1.9-1.9-4.1-2.8-6.8-2.8h-8.1l2.3-23.5h17.6v4.3h-13.7l-1.5,14.9h3.5c3.8,0,7.1,1.3,9.8,4
				c2.7,2.7,4.1,5.9,4.1,9.8c0,3.8-1.4,7.1-4.1,9.8c-2.7,2.7-6,4.1-9.8,4.1C139.4,269.6,135.9,268,133.1,264.8z"/>
			<path id="XMLID_1141_" class="st0" d="M176.1,269.1v-46.4h11.4c6.4,0,11.9,2.3,16.4,6.8c4.5,4.5,6.8,10,6.8,16.4
				c0,6.4-2.3,11.9-6.8,16.4c-4.5,4.5-10,6.8-16.4,6.8H176.1z M180.3,264.8h7.2c5.2,0,9.7-1.9,13.4-5.6c3.7-3.7,5.6-8.2,5.6-13.4
				s-1.9-9.7-5.6-13.4c-3.7-3.7-8.2-5.6-13.4-5.6h-7.2V264.8z"/>
			<path id="XMLID_1139_" class="st0" d="M213,222.4h4.3v46.6H213V222.4z"/>
			<path id="XMLID_1137_" class="st0" d="M233.4,269.5c-3-0.1-5.7-0.9-8.2-2.4c-2.8-1.6-4.8-3.8-5.8-6.6l4-1.5
				c0.7,1.9,2.1,3.4,4.2,4.5c1.9,1,3.9,1.5,6,1.6c3.3,0.1,6.1-0.7,8.3-2.5c2-1.6,3-3.5,3.1-5.6c0.2-4-3.5-7.1-11.1-9.3
				c-5.5-1.5-9.4-3.7-11.7-6.4c-1.8-2.1-2.6-4.4-2.5-7c0.2-4.4,2.1-7.7,5.6-9.9c2.8-1.7,6.2-2.5,10.2-2.3c4.8,0.2,8.7,1.9,11.6,5
				l-3.1,2.9c-2.1-2.3-5-3.5-8.6-3.7c-3.1-0.1-5.8,0.4-7.8,1.7c-2.3,1.4-3.5,3.6-3.6,6.5c-0.2,4,3.5,7,11.1,9.1
				c5.5,1.5,9.4,3.7,11.7,6.4c1.8,2.1,2.6,4.5,2.5,7.1c-0.2,3.5-1.7,6.4-4.7,8.8c-2.8,2.3-6.3,3.4-10.3,3.4
				C234,269.5,233.7,269.5,233.4,269.5z"/>
			<path id="XMLID_1135_" class="st0" d="M276.6,222.7v4.3h-19.4v16.7h15.3v4.3h-15.3v16.9h19.4v4.3H253v-46.4H276.6z"/>
			<path id="XMLID_1133_" class="st0" d="M324.7,222.7V269h-4.2V233l-15.6,36.1h-4.7L284.7,233V269h-4.3v-46.4h4.5l17.7,41l17.7-41
				H324.7z"/>
			<path id="XMLID_1129_" class="st0" d="M330.3,269.1v-46.4h14c3.5,0,6.4,1.2,8.9,3.7c2.5,2.5,3.7,5.5,3.7,8.9
				c0,3.9-1.5,7.1-4.4,9.6c2.2,1,4,2.6,5.3,4.6c1.3,2.1,2,4.4,2,6.9c0,3.5-1.2,6.5-3.7,9c-2.5,2.5-5.5,3.7-9,3.7H330.3z
				 M334.6,243.6h9.7c2.3,0,4.2-0.8,5.9-2.5c1.6-1.6,2.5-3.6,2.5-5.9c0-2.3-0.8-4.3-2.5-5.9c-1.6-1.6-3.6-2.5-5.9-2.5h-9.7V243.6z
				 M334.6,264.8H347c2.3,0,4.3-0.8,6-2.5c1.6-1.7,2.5-3.7,2.5-6c0-2.3-0.8-4.3-2.5-5.9c-1.7-1.6-3.7-2.5-6-2.5h-12.4V264.8z"/>
			<path id="XMLID_1127_" class="st0" d="M387.2,222.7v4.3h-19.4v16.7h15.3v4.3h-15.3v16.9h19.4v4.3h-23.7v-46.4H387.2z"/>
			<path id="XMLID_1124_" class="st0" d="M422.1,269.1h-4.8l-10.9-21h-11.1V269h-4.3v-46.4h16.7c3.5,0,6.5,1.3,9,3.7
				c2.5,2.5,3.7,5.5,3.7,9c0,2.9-0.9,5.5-2.7,7.8c-1.7,2.2-4,3.7-6.7,4.5L422.1,269.1z M407.8,243.8c2.3,0,4.3-0.8,6-2.5
				c1.6-1.7,2.5-3.7,2.5-6c0-2.3-0.8-4.3-2.5-6c-1.7-1.7-3.7-2.5-6-2.5h-12.4v16.9H407.8z"/>
			<path id="XMLID_1122_" class="st0" d="M459.2,269.1h-22.5l1.9-3.2c10.6-18.3,16-28.9,16-32c0-2.2-0.6-4.1-1.9-5.5
				c-1.3-1.4-3-2.1-5-2.1c-1.4,0-2.7,0.4-3.8,1.3c-1.2,0.9-2.1,2-2.7,3.5l-3.9-1.6c0.9-2.2,2.3-4,4.2-5.4c1.9-1.3,4-2,6.2-2
				c3.3,0,6,1.1,8.1,3.4c2.1,2.2,3.2,5.1,3.2,8.5c0,2.4-1.2,6-3.5,10.8c-1.9,3.8-5.6,10.5-11.1,20.1h15V269.1z"/>
			<path id="XMLID_1119_" class="st0" d="M465.9,263.6c-2.8-4.1-4.2-10-4.2-17.7c0-7.8,1.6-13.9,4.9-18.1c2.8-3.7,6.2-5.5,10.2-5.5
				s7.4,1.8,10.2,5.5c3.2,4.2,4.8,10.3,4.8,18.1c0,9.3-1.9,15.9-5.8,19.8c-2.5,2.5-5.6,3.8-9.2,3.8
				C472.2,269.5,468.6,267.5,465.9,263.6z M469.9,230.5c-2.6,3.4-3.9,8.6-3.9,15.4c0,6.2,0.9,10.9,2.8,14.3c1.9,3.4,4.6,5.1,8,5.1
				s6.1-1.7,8-5.1c1.9-3.4,2.8-8.2,2.8-14.3c0-6.8-1.3-12-3.9-15.4c-2-2.7-4.3-4-6.9-4C474.2,226.5,471.9,227.8,469.9,230.5z"/>
			<path id="XMLID_1117_" class="st0" d="M500.9,222.7v46.4h-4.3v-42.1h-2.3v-4.3H500.9z"/>
			<path id="XMLID_1115_" class="st0" d="M503.9,264.8l3.2-2.8c1.9,2.2,4.3,3.3,7.2,3.3c2.6,0,4.9-0.9,6.8-2.8
				c1.9-1.9,2.8-4.1,2.8-6.8c0-2.6-0.9-4.9-2.8-6.7c-1.9-1.9-4.1-2.8-6.8-2.8h-8.1l2.3-23.5h17.6v4.3h-13.7l-1.5,14.9h3.5
				c3.8,0,7.1,1.3,9.8,4c2.7,2.7,4.1,5.9,4.1,9.8c0,3.8-1.4,7.1-4.1,9.8c-2.7,2.7-6,4.1-9.8,4.1C510.2,269.6,506.7,268,503.9,264.8z
				"/>
			<path id="XMLID_1113_" class="st0" d="M549.6,241.4c0.8,0,1.6,0.3,2.2,0.9c0.6,0.6,0.9,1.3,0.9,2.2c0,0.9-0.3,1.6-0.9,2.2
				c-0.6,0.6-1.3,0.9-2.2,0.9c-0.9,0-1.6-0.3-2.2-0.9c-0.6-0.6-0.9-1.3-0.9-2.2c0-0.9,0.3-1.6,0.9-2.2
				C548,241.7,548.8,241.4,549.6,241.4z"/>
			<path id="XMLID_1111_" class="st0" d="M571.7,222.4h4.3v46.6h-4.3V222.4z"/>
			<path id="XMLID_1109_" class="st0" d="M592.1,269.5c-3-0.1-5.7-0.9-8.2-2.4c-2.8-1.6-4.8-3.8-5.8-6.6l4-1.5
				c0.7,1.9,2.1,3.4,4.2,4.5c1.9,1,3.9,1.5,6,1.6c3.3,0.1,6.1-0.7,8.3-2.5c2-1.6,3-3.5,3.1-5.6c0.2-4-3.5-7.1-11.1-9.3
				c-5.5-1.5-9.4-3.7-11.7-6.4c-1.8-2.1-2.6-4.4-2.5-7c0.2-4.4,2.1-7.7,5.6-9.9c2.8-1.7,6.2-2.5,10.2-2.3c4.8,0.2,8.7,1.9,11.6,5
				l-3.1,2.9c-2.1-2.3-5-3.5-8.6-3.7c-3.1-0.1-5.8,0.4-7.8,1.7c-2.3,1.4-3.5,3.6-3.6,6.5c-0.2,4,3.5,7,11.1,9.1
				c5.5,1.5,9.4,3.7,11.7,6.4c1.8,2.1,2.6,4.5,2.5,7.1c-0.2,3.5-1.7,6.4-4.7,8.8c-2.8,2.3-6.3,3.4-10.3,3.4
				C592.7,269.5,592.4,269.5,592.1,269.5z"/>
			<path id="XMLID_1107_" class="st0" d="M638.2,222.7v4.3h-12.1v42.1h-4.3v-42.1h-12.2v-4.3H638.2z"/>
			<path id="XMLID_1104_" class="st0" d="M667,222.7v46.4h-4.2v-11.6h-18.4l-7.3,11.6h-5l29.3-46.4H667z M647,253.2h15.7v-24.8
				L647,253.2z"/>
			<path id="XMLID_1102_" class="st0" d="M704.7,222.7v46.4h-4.6L677,230.4v38.7h-4.3v-46.4h4.6l23.1,38.7v-38.7H704.7z"/>
			<path id="XMLID_1099_" class="st0" d="M742.7,222.7v46.4h-4.2v-11.6h-18.4l-7.3,11.6h-5l29.3-46.4H742.7z M722.8,253.2h15.7
				v-24.8L722.8,253.2z"/>
			<path id="XMLID_1095_" class="st0" d="M763.4,269.1v-46.4h14c3.5,0,6.4,1.2,8.9,3.7c2.5,2.5,3.7,5.5,3.7,8.9
				c0,3.9-1.5,7.1-4.4,9.6c2.2,1,4,2.6,5.3,4.6c1.3,2.1,2,4.4,2,6.9c0,3.5-1.2,6.5-3.7,9c-2.5,2.5-5.5,3.7-9,3.7H763.4z
				 M767.7,243.6h9.7c2.3,0,4.2-0.8,5.9-2.5c1.6-1.6,2.5-3.6,2.5-5.9c0-2.3-0.8-4.3-2.5-5.9c-1.6-1.6-3.6-2.5-5.9-2.5h-9.7V243.6z
				 M767.7,264.8h12.4c2.3,0,4.3-0.8,6-2.5c1.6-1.7,2.5-3.7,2.5-6c0-2.3-0.8-4.3-2.5-5.9c-1.7-1.6-3.7-2.5-6-2.5h-12.4V264.8z"/>
			<path id="XMLID_1093_" class="st0" d="M801.3,264.9c-3.1-3.1-4.7-6.9-4.7-11.3v-30.8h4.3v30.8c0,3.2,1.1,6,3.4,8.3
				c2.3,2.3,5.1,3.5,8.3,3.5c3.2,0,6-1.2,8.3-3.5c2.3-2.3,3.4-5.1,3.4-8.3v-30.8h4.3v30.8c0,4.4-1.6,8.2-4.7,11.3
				c-3.1,3.1-6.9,4.7-11.3,4.7C808.2,269.6,804.4,268,801.3,264.9z"/>
			<path id="XMLID_1090_" class="st0" d="M833.6,269.1v-46.4H845c6.4,0,11.9,2.3,16.4,6.8c4.5,4.5,6.8,10,6.8,16.4
				c0,6.4-2.3,11.9-6.8,16.4c-4.5,4.5-10,6.8-16.4,6.8H833.6z M837.8,264.8h7.2c5.2,0,9.7-1.9,13.4-5.6c3.7-3.7,5.6-8.2,5.6-13.4
				s-1.9-9.7-5.6-13.4c-3.7-3.7-8.2-5.6-13.4-5.6h-7.2V264.8z"/>
			<path id="XMLID_1087_" class="st0" d="M899.1,222.7v46.4h-4.2v-11.6h-18.4l-7.3,11.6h-5l29.3-46.4H899.1z M879.1,253.2h15.7
				v-24.8L879.1,253.2z"/>
			<path id="XMLID_1085_" class="st0" d="M934.8,222.7l-14.2,24.2v22.2h-4.3v-22.2L902,222.7h4.9l11.4,19.5l11.5-19.5H934.8z"/>
			<path id="XMLID_1082_" class="st0" d="M961.4,222.7v46.4h-4.2v-11.6h-18.4l-7.3,11.6h-5l29.3-46.4H961.4z M941.4,253.2h15.7
				v-24.8L941.4,253.2z"/>
		</g>
		<g id="XMLID_1012_">
			<g id="XMLID_1041_">
				<path id="XMLID_1079_" class="st0" d="M71.3,0.7v73.7h-6.7V17.1L39.8,74.5h-7.4L7.6,17.1v57.4H0.8V0.7h7.1L36.1,66L64.3,0.7
					H71.3z"/>
				<path id="XMLID_1076_" class="st0" d="M131.4,0.7v73.8h-6.7V56.1H95.4L83.7,74.5h-8l46.7-73.8H131.4z M99.7,49.3h25V9.8
					L99.7,49.3z"/>
				<path id="XMLID_1074_" class="st0" d="M147.3,0.7v67h34.3v6.8h-41.1V0.7H147.3z"/>
				<path id="XMLID_1071_" class="st0" d="M239.2,0.7v73.8h-6.7V56.1h-29.3l-11.7,18.4h-8l46.7-73.8H239.2z M207.4,49.3h25V9.8
					L207.4,49.3z"/>
				<path id="XMLID_1069_" class="st0" d="M318.8,0.7v73.7H312V17.1l-24.8,57.4h-7.4L255,17.1v57.4h-6.8V0.7h7.1L283.5,66l28.2-65.3
					H318.8z"/>
				<path id="XMLID_1067_" class="st0" d="M398.1,0.7l-29.5,36.7L399,74.5h-8.7l-26.1-31.7l-6.2,7.8v23.8h-6.8V0.8h6.8v39.1
					l31.4-39.1H398.1z"/>
				<path id="XMLID_1064_" class="st0" d="M455.2,0.7v73.8h-6.7V56.1h-29.3l-11.7,18.4h-8l46.7-73.8H455.2z M423.4,49.3h25V9.8
					L423.4,49.3z"/>
				<path id="XMLID_1062_" class="st0" d="M471.1,0.7v67h34.3v6.8h-41.1V0.7H471.1z"/>
				<path id="XMLID_1060_" class="st0" d="M509,0.4h6.8v74.2H509V0.4z"/>
				<path id="XMLID_1058_" class="st0" d="M593.3,0.7v73.7h-6.7V17.1l-24.8,57.4h-7.4l-24.8-57.4v57.4h-6.8V0.7h7.1L558,66
					l28.2-65.3H593.3z"/>
				<path id="XMLID_1055_" class="st0" d="M653.4,0.7v73.8h-6.7V56.1h-29.3l-11.7,18.4h-8l46.7-73.8H653.4z M621.7,49.3h25V9.8
					L621.7,49.3z"/>
				<path id="XMLID_1053_" class="st0" d="M712.8,0.7v73.8H706V40.9h-37.4v33.6h-6.8V0.7h6.8v33.4H706V0.7H712.8z"/>
				<path id="XMLID_1051_" class="st0" d="M779.1,68.5c6.1,0,11.6-1.7,16.8-5v7.8c-5.3,2.6-10.9,4-16.8,4c-10.4,0-19.2-3.7-26.6-11
					c-7.4-7.3-11-16.2-11-26.6s3.7-19.2,11-26.6c7.3-7.4,16.2-11,26.6-11c5.9,0,11.5,1.3,16.8,4v7.8c-5.1-3.3-10.7-5-16.8-5
					c-8.5,0-15.8,3-21.8,9c-6,6-9,13.3-9,21.8c0,8.5,3,15.8,9,21.8C763.3,65.4,770.6,68.5,779.1,68.5z"/>
				<path id="XMLID_1049_" class="st0" d="M799.2,0.4h6.8v74.2h-6.8V0.4z"/>
				<path id="XMLID_1047_" class="st0" d="M863.9,0.7v73.8h-7.3L819.8,13v61.5H813V0.7h7.3l36.7,61.5V0.7H863.9z"/>
				<path id="XMLID_1045_" class="st0" d="M914.8,0.7v6.8h-19.3v67h-6.8v-67h-19.4V0.7H914.8z"/>
				<path id="XMLID_1042_" class="st0" d="M960.6,0.7v73.8h-6.7V56.1h-29.3l-11.7,18.4h-8l46.7-73.8H960.6z M928.8,49.3h25V9.8
					L928.8,49.3z"/>
			</g>
			<g id="XMLID_1013_">
				<path id="XMLID_1039_" class="st0" d="M80,89.2v112.9H69.6v-51.4H12.4v51.4H2V89.2h10.4v51.1h57.2V89.2H80z"/>
				<path id="XMLID_1036_" class="st0" d="M171.2,89.2v112.9h-10.3v-28.2h-44.8l-17.8,28.2H86l71.4-112.9H171.2z M122.6,163.5h38.3
					v-60.5L122.6,163.5z"/>
				<path id="XMLID_1034_" class="st0" d="M242.7,89.2v10.4h-47.3v40.7h37.3v10.4h-37.3v51.4h-10.4V89.2H242.7z"/>
				<path id="XMLID_1032_" class="st0" d="M247.9,88.7h10.5v113.5h-10.5V88.7z"/>
				<path id="XMLID_1030_" class="st0" d="M334.6,89.2l-55.5,102.5h50.2v10.4h-67.7l55.6-102.5H267V89.2H334.6z"/>
				<path id="XMLID_1028_" class="st0" d="M454.5,89.2v112.9h-10.4v-51.4h-57.2v51.4h-10.4V89.2h10.4v51.1h57.2V89.2H454.5z"/>
				<path id="XMLID_1025_" class="st0" d="M545.7,89.2v112.9h-10.3v-28.2h-44.8l-17.8,28.2h-12.3l71.4-112.9H545.7z M497.1,163.5
					h38.3v-60.5L497.1,163.5z"/>
				<path id="XMLID_1023_" class="st0" d="M667.5,89.2V202h-10.3v-87.7l-38,87.8h-11.3L570,114.3V202h-10.4V89.2h10.9l43.1,99.9
					l43.2-99.9H667.5z"/>
				<path id="XMLID_1021_" class="st0" d="M676.9,88.7h10.5v113.5h-10.5V88.7z"/>
				<path id="XMLID_1018_" class="st0" d="M697.8,202.1V89.2h27.8c15.6,0,28.9,5.5,39.9,16.6c11,11,16.5,24.3,16.5,39.9
					c0,15.6-5.5,28.9-16.5,39.9c-11.1,11.1-24.4,16.6-39.9,16.6H697.8z M708.1,191.8h17.5c12.7,0,23.6-4.5,32.6-13.5
					c9-9,13.5-19.9,13.5-32.6s-4.5-23.6-13.5-32.6c-9-9-19.9-13.5-32.6-13.5h-17.5V191.8z"/>
				<path id="XMLID_1016_" class="st0" d="M802.7,192c-7.6-7.6-11.4-16.8-11.4-27.5v-75h10.4v75c0,7.9,2.8,14.6,8.3,20.2
					c5.6,5.6,12.3,8.4,20.2,8.4c7.9,0,14.6-2.8,20.2-8.4c5.6-5.6,8.3-12.3,8.3-20.2v-75h10.4v75c0,10.7-3.8,19.9-11.4,27.5
					c-7.6,7.6-16.8,11.4-27.5,11.4S810.3,199.6,802.7,192z"/>
				<path id="XMLID_1014_" class="st0" d="M959.4,89.2v112.9h-11.2L891.9,108v94.1h-10.4V89.2h11.2l56.2,94.1V89.2H959.4z"/>
			</g>
		</g>
	</g>
</g>
</svg>
