<?xml version="1.0" encoding="utf-8"?>
<!-- Generator: Adobe Illustrator 19.1.0, SVG Export Plug-In . SVG Version: 6.00 Build 0)  -->
<svg version="1.1" id="Layer_1" xmlns="http://www.w3.org/2000/svg" xmlns:xlink="http://www.w3.org/1999/xlink" x="0px" y="0px"
	 viewBox="0 0 505.1 78.3" style="enable-background:new 0 0 505.1 78.3;" xml:space="preserve">
<style type="text/css">
	.st0{fill:#FEFEFE;}
	.st1{fill:#EC252B;}
	.st2{fill:#282525;}
	.st3{fill:#020202;}
	.st4{fill:#902B7D;}
	.st5{fill:#912D7E;}
	.st6{fill:#929292;}
	.st7{fill:#FDFDFD;}
	.st8{fill:#FFDD15;}
</style>
<g>
	<g>
		<path class="st0" d="M250.5,40.8c0-1.9,0-3.8,0-5.8c0-5.3,0-10.6,0-15.8c0-0.8-0.2-1.1-1.1-1c-0.8,0.1-1.7,0.1-2.5,0
			c-1-0.1-1.3,0.2-1.3,1.2c0.1,5,0,10.1,0.1,15.1c0,1.1-0.3,1.4-1.3,1.3c-1-0.1-2,0-3,0c-4,0.1-7.2,1.7-9.1,5.3
			c-3,5.7-2.8,14.1,2.3,19.6c1.8,1.9,3.9,2.8,6.5,2.8c2.7,0,5.4-0.1,8,0c1.1,0,1.5-0.2,1.5-1.4C250.5,55,250.5,47.9,250.5,40.8z
			 M284.1,62.3c0,0.6,0,1,0,1.4c0,3.8,0,7.7,0,11.5c0,0.8,0.2,1.1,1.1,1.1c0.9-0.1,1.8,0,2.6,0c0.6,0,0.9-0.1,0.9-0.8
			c0-8.1,0-16.2,0-24.3c0-0.6-0.1-0.9-0.8-0.8c-1,0-1.9,0.1-2.9,0c-0.8,0-1,0.2-1,1c0.1,2.2,0,4.3,0,6.5c0,2.6-2.6,4.6-5.1,4.1
			c-2.1-0.4-3.2-2-4-3.8c-1.7-4.1-1.7-8.4-0.9-12.7c0.4-2.1,1-4.2,2.4-5.9c1.9-2.5,6.1-2.2,7.3,0.6c0.4,0.9,1,1.6,1.6,2.4
			c0.7,0.9,1.3,0.1,1.9-0.2c0.6-0.3,0.7-0.8,0.2-1.4c-0.7-0.9-1.3-1.8-2.1-2.6c-3.8-3.9-9.4-3.6-12.9,0.6
			c-4.6,5.4-4.9,15.9-0.7,21.7C274.3,64.1,279.7,66,284.1,62.3z M222.6,53.6c-0.1,0-0.2,0.1-0.2,0.1c-1.3-2.3-2.5-4.6-3.8-6.8
			c-1.5-2.8-3-5.5-4.6-8.3c-0.7-1.3-1.6-2.3-3.1-2.5c-2.4-0.3-4.1,1.4-4.1,4.2c0,7.4,0,14.8,0,22.2c0,0.9,0.2,1.2,1.2,1.2
			c0.9,0,1.2-0.2,1.2-1.2c0-6.7,0-13.4,0-20c0-0.4,0-0.8,0-1.4c0.6,0.3,0.7,0.7,0.9,1.1c4,7.1,7.9,14.1,11.9,21.2
			c0.3,0.6,0.7,1,1.4,0.9c0.7-0.1,1.3-0.5,1.5-1.2c0.1-0.5,0.1-1,0.1-1.5c0-7.8,0-15.7,0-23.5c0-0.9-0.1-1.3-1.2-1.3
			c-1,0-1.2,0.3-1.2,1.2C222.7,43,222.6,48.3,222.6,53.6z M198.5,43.1c0-6.5,0-13,0-19.4c0-1-0.3-1.2-1.2-1.2
			c-1.3,0.1-2.6,0.1-3.8,0c-0.9-0.1-1.1,0.3-1.1,1.2c0,7.7,0,15.4,0,23c0,5.3,0,10.6,0,15.8c0,0.8,0.2,1.1,1.1,1.1
			c1.2-0.1,2.3,0,3.5,0c1.7,0,1.6,0.2,1.6-1.5C198.5,55.7,198.5,49.4,198.5,43.1z M343.9,39.5c0,6.6,0,13.2,0,19.8
			c0,0.8,0.1,1.6,0.3,2.4c0.5,1.4,1.2,1.9,2.7,1.9c1.6,0,3.1,0,4.7,0c0.3,0,0.8,0.2,0.9-0.2c0.1-0.6,0.1-1.2,0-1.8
			c-0.1-0.5-0.7-0.2-1-0.3c-0.3,0-0.6,0-0.8,0c-1.9,0-2.1-0.2-2.1-2.1c0-12.5,0-25,0-37.5c0-1.1,0.5-2.6-0.2-3.2
			c-0.7-0.6-2.1-0.1-3.2-0.2c-0.9-0.1-1.1,0.2-1.1,1.1C343.9,26,343.9,32.7,343.9,39.5z M337,63.5c0.5,0,1,0,1.4,0
			c1,0.1,1.1-0.2,0.9-1.1c-1.2-4.8-2.3-9.7-3.4-14.6c-0.8-3.1-1.3-6.3-2.4-9.4c-0.7-2-2.3-3.1-4.2-3c-1.8,0.1-3,1.3-3.5,3.6
			c-0.6,2.8-1.3,5.7-1.9,8.5c-1.1,5-2.3,10-3.4,15.1c-0.1,0.3-0.2,0.7-0.1,0.8c0.5,0.3,1.1,0.1,1.6,0.1c0.5,0,0.5-0.3,0.6-0.7
			c0.5-2.2,1-4.4,1.4-6.7c0.1-0.7,0.4-0.9,1.1-0.9c2.2,0,4.3,0,6.5,0c0.8,0,1,0.2,1.2,1c0.3,1.7,0.8,3.3,1.2,5
			C334.6,63.5,334.6,63.5,337,63.5z M309.1,50.9c0,3.2,0,6.4,0,9.6c0,3.1,0,3,3,3.1c1.2,0,1.6-0.3,1.6-1.5c-0.1-6.8,0-13.5,0-20.3
			c0-1.1-0.5-2.5,0.2-3.2c0.7-0.6,2.1-0.1,3.1-0.2c0.2,0,0.5,0,0.7,0c0.9,0.1,0.8-0.5,0.8-1c0-0.6,0.1-1.1-0.8-1.1
			c-4.2,0-8.3,0-12.5,0c-0.3,0-0.6-0.1-0.7,0.4c-0.3,1.1,0.1,1.7,1.2,1.7c0.7,0,1.4,0.1,2.2,0c0.9-0.1,1.2,0.2,1.2,1.2
			C309.1,43.3,309.1,47.1,309.1,50.9z M295.1,50c0,4.1,0,8.2,0,12.3c0,1,0.3,1.2,1.2,1.2c0.9-0.1,1.8,0,2.8,0c0.6,0,0.8-0.2,0.8-0.8
			c0-8.5,0-17,0-25.5c0-0.7-0.3-0.8-0.8-0.8c-0.9,0-1.8,0.1-2.8,0c-0.9-0.1-1.1,0.2-1.1,1.1C295.2,41.7,295.1,45.9,295.1,50z
			 M262.8,50c0-4.2,0-8.3,0-12.5c0-0.8-0.2-1.1-1.1-1.1c-0.8,0.1-1.7,0.1-2.5,0c-1-0.1-1.1,0.3-1.1,1.1c0,7.5,0,15,0,22.5
			c0,1.1-0.5,2.6,0.2,3.2c0.6,0.5,2.1,0.1,3.1,0.2c1.1,0.1,1.3-0.3,1.3-1.3C262.7,58.1,262.8,54.1,262.8,50z M353.3,71.5
			c0-1.5,0-3,0-4.4c0-0.7-0.2-0.8-0.8-0.8c-0.6,0-0.8,0.2-0.7,0.8c0,0.5,0,1,0,1.4c0.1,0.7-0.2,0.9-0.9,0.9c-1,0-2,0-3,0
			c-1.3,0.1-1.9,0.7-2,1.9c-0.1,1.6-0.1,3.3,0,4.9c0,1.3,0.9,2,2.2,2.1c0.8,0,1.6,0,2.4,0c2,0,2.7-0.8,2.8-2.7
			C353.3,74.2,353.3,72.8,353.3,71.5z M310.7,71.5c0-1.4,0-2.9,0-4.3c0-0.6,0-1-0.8-1c-0.9,0-0.7,0.5-0.7,1c0,0.4,0,0.7,0,1.1
			c0.1,0.7-0.2,1-0.9,1c-1-0.1-1.9,0-2.9,0c-1.3,0.1-2,0.7-2.1,2c-0.1,1.6-0.1,3.2,0,4.8c0,1.3,0.9,2.1,2.2,2.2c0.8,0,1.7,0,2.5,0
			c1.7,0,2.6-0.8,2.6-2.5C310.7,74.3,310.7,72.9,310.7,71.5z M327,71.5c0,1.4,0,2.9,0,4.3c0,1.5,0.9,2.4,2.4,2.5c0.8,0,1.7,0,2.5,0
			c1.5,0,2.3-0.7,2.3-2.1c0.1-1.6,0.1-3.2,0-4.8c-0.1-1.4-0.8-2-2.2-2c-0.4,0-0.9,0-1.3,0c-2.3,0-2.3,0-2.3-2.2
			c0-0.6-0.1-0.8-0.8-0.8c-0.6,0-0.7,0.3-0.7,0.8C327,68.5,327,70,327,71.5z M336.4,72.3c0,1.7,0,3.4,0,5.2c0,0.6,0.2,0.8,0.8,0.8
			c0.6,0,0.7-0.3,0.7-0.8c0-1.3,0-2.6,0-3.8c0-2.9,0-2.9,3-2.9c1.1,0,1.5,0.4,1.5,1.5c0,1.8,0,3.5,0,5.3c0,0.6,0.2,0.8,0.7,0.8
			c0.6,0,0.8-0.1,0.8-0.7c0-1.5,0-3,0-4.6c0-3.4-0.3-3.7-3.6-3.7c-2.2,0-2.2,0-2.3-2.2c0-0.6-0.1-0.8-0.8-0.8
			c-0.8,0-0.7,0.4-0.7,0.9C336.4,68.9,336.4,70.6,336.4,72.3z M263.6,27.1c0-2.1-1.2-3.8-2.7-4.1c-1.4-0.3-2.8,0.7-3.3,2.3
			c-0.2,0.4-0.2,0.9-0.3,1.4c-0.1,1.8,1.1,3.6,2.7,4c1.4,0.3,2.9-0.8,3.4-2.4C263.5,27.8,263.6,27.4,263.6,27.1z M300.6,27.1
			c0-2.4-1.5-4.2-3.2-4.2c-1.7,0-3.2,1.9-3.1,4c0,0.3,0,0.6,0.1,0.8c0.4,1.7,1.7,2.9,3.1,2.9c1.3,0,2.6-1.1,3.1-2.8
			C300.6,27.6,300.6,27.2,300.6,27.1z M320.1,74.5C320.1,74.5,320.1,74.5,320.1,74.5c0-1,0-2.1,0-3.1c-0.1-1.3-0.7-2-2-2.1
			c-1-0.1-1.9,0-2.9,0c-1.7,0-2.4,0.7-2.5,2.4c0,1.9,0,3.8,0,5.8c0,0.6,0.2,0.8,0.8,0.8c0.7,0,0.7-0.4,0.7-0.9c0-1.2,0-2.4,0-3.6
			c0-3.3-0.5-3,3.1-3c0.9,0,1.3,0.4,1.3,1.3c0,1.8,0,3.6,0,5.4c0,0.7,0.2,0.8,0.8,0.8c0.6,0,0.7-0.3,0.7-0.8
			C320.1,76.5,320.1,75.5,320.1,74.5z M297.6,78.3c0.6,0,1.1,0,1.7,0c1.4,0,2.1-0.7,2.1-2c0-0.4,0-0.9,0-1.3c-0.1-1.3-0.7-2-2-2.1
			c-0.6,0-1.2,0-1.8,0c-0.8,0-1.3-0.1-1.3-1.1c0-1,0.6-1,1.3-1c1,0,2.1,0,3.1,0c0.6,0,0.7-0.2,0.7-0.7c0-0.6-0.1-0.8-0.7-0.7
			c-1.2,0-2.5,0-3.7,0c-1.4,0-2.1,0.6-2.1,2c-0.1,2.1,0.4,2.9,2,3c0.8,0.1,1.5,0,2.3,0c1,0,0.8,0.8,0.8,1.4c0,0.7-0.1,1.1-0.9,1
			c-1.1,0-2.2,0-3.4,0c-0.6,0-0.8,0.1-0.8,0.8c0,0.7,0.4,0.7,0.9,0.7C296.3,78.3,297,78.3,297.6,78.3z"/>
		<path class="st1" d="M250.5,40.8c0,7.1,0,14.2,0,21.4c0,1.2-0.3,1.4-1.5,1.4c-2.7-0.1-5.4,0-8,0c-2.6,0-4.7-1-6.5-2.8
			c-5.1-5.5-5.3-13.9-2.3-19.6c1.9-3.6,5.1-5.2,9.1-5.3c1,0,2-0.1,3,0c1,0.1,1.4-0.2,1.3-1.3c-0.1-5,0-10.1-0.1-15.1
			c0-1,0.3-1.3,1.3-1.2c0.8,0.1,1.7,0.1,2.5,0c0.8-0.1,1.1,0.2,1.1,1c0,5.3,0,10.6,0,15.8C250.5,37,250.5,38.9,250.5,40.8z
			 M245.7,50.2c0-3.4-0.1-6.9,0-10.3c0-1.2-0.5-1.5-1.5-1.7c-3.5-0.5-6,0.8-7.5,4.2c-2.1,4.7-2,9.5,0.1,14.2c1.4,3.2,4,5,7.7,4.9
			c0.9,0,1.2-0.2,1.1-1.1C245.7,57,245.7,53.6,245.7,50.2z"/>
		<path class="st1" d="M284.1,62.3c-4.4,3.7-9.9,1.8-12.5-1.9c-4.2-5.8-3.9-16.3,0.7-21.7c3.5-4.2,9.1-4.4,12.9-0.6
			c0.8,0.8,1.4,1.7,2.1,2.6c0.4,0.6,0.4,1-0.2,1.4c-0.6,0.3-1.2,1.1-1.9,0.2c-0.6-0.7-1.2-1.5-1.6-2.4c-1.2-2.8-5.4-3.1-7.3-0.6
			c-1.3,1.8-2,3.8-2.4,5.9c-0.7,4.3-0.8,8.6,0.9,12.7c0.8,1.8,1.9,3.4,4,3.8c2.5,0.5,5.1-1.5,5.1-4.1c0-2.2,0-4.3,0-6.5
			c0-0.8,0.2-1,1-1c1,0.1,1.9,0.1,2.9,0c0.7,0,0.8,0.2,0.8,0.8c0,8.1,0,16.2,0,24.3c0,0.7-0.3,0.9-0.9,0.8c-0.9,0-1.8-0.1-2.6,0
			c-0.9,0.1-1.1-0.3-1.1-1.1c0-3.8,0-7.7,0-11.5C284.1,63.3,284.1,62.9,284.1,62.3z"/>
		<path class="st1" d="M222.6,53.6c0-5.3,0-10.6,0-15.8c0-0.9,0.2-1.2,1.2-1.2c1,0,1.2,0.4,1.2,1.3c0,7.8,0,15.7,0,23.5
			c0,0.5,0,1-0.1,1.5c-0.2,0.7-0.7,1.1-1.5,1.2c-0.7,0.1-1.1-0.3-1.4-0.9C218,56.1,214,49,210,42c-0.2-0.3-0.3-0.7-0.9-1.1
			c0,0.6,0,1,0,1.4c0,6.7,0,13.4,0,20c0,1-0.3,1.2-1.2,1.2c-1,0-1.2-0.3-1.2-1.2c0-7.4,0-14.8,0-22.2c0-2.8,1.7-4.5,4.1-4.2
			c1.5,0.2,2.4,1.3,3.1,2.5c1.5,2.8,3.1,5.5,4.6,8.3c1.3,2.3,2.5,4.6,3.8,6.8C222.5,53.6,222.6,53.6,222.6,53.6z"/>
		<path class="st1" d="M198.5,43.1c0,6.3,0,12.6,0,19c0,1.7,0.2,1.5-1.6,1.5c-1.2,0-2.3-0.1-3.5,0c-0.8,0.1-1.1-0.2-1.1-1.1
			c0-5.3,0-10.6,0-15.8c0-7.7,0-15.4,0-23c0-0.9,0.2-1.2,1.1-1.2c1.3,0.1,2.6,0.1,3.8,0c0.9-0.1,1.2,0.2,1.2,1.2
			C198.5,30.1,198.5,36.6,198.5,43.1z"/>
		<path class="st1" d="M343.9,39.5c0-6.7,0-13.4,0-20.2c0-0.9,0.2-1.2,1.1-1.1c1.1,0.1,2.6-0.3,3.2,0.2c0.7,0.6,0.2,2.1,0.2,3.2
			c0,12.5,0,25,0,37.5c0,2,0.2,2.1,2.1,2.1c0.3,0,0.6,0,0.8,0c0.4,0.1,0.9-0.2,1,0.3c0.1,0.6,0.1,1.2,0,1.8
			c-0.1,0.4-0.6,0.2-0.9,0.2c-1.6,0-3.1,0-4.7,0c-1.5,0-2.2-0.5-2.7-1.9c-0.3-0.8-0.3-1.5-0.3-2.4C343.9,52.7,343.9,46.1,343.9,39.5
			z"/>
		<path class="st1" d="M337,63.5c-2.4,0-2.4,0-3-2.3c-0.4-1.7-0.9-3.3-1.2-5c-0.1-0.7-0.4-1-1.2-1c-2.2,0-4.3,0-6.5,0
			c-0.7,0-1,0.2-1.1,0.9c-0.4,2.2-0.9,4.5-1.4,6.7c-0.1,0.4-0.1,0.7-0.6,0.7c-0.6,0-1.1,0.1-1.6-0.1c-0.1,0,0-0.5,0.1-0.8
			c1.1-5,2.3-10,3.4-15.1c0.6-2.8,1.3-5.7,1.9-8.5c0.5-2.2,1.7-3.4,3.5-3.6c1.8-0.1,3.4,0.9,4.2,3c1.1,3,1.6,6.3,2.4,9.4
			c1.2,4.8,2.2,9.7,3.4,14.6c0.2,1,0.1,1.2-0.9,1.1C338,63.5,337.5,63.5,337,63.5z M328.5,52.8c1,0,1.9,0,2.9,0
			c0.5,0,0.6-0.2,0.5-0.6c-0.8-3.6-1.6-7.2-2.4-10.7c-0.1-0.6-0.2-1.6-0.9-1.6c-0.8,0-1,1-1.1,1.6c-0.8,3.5-1.6,7.1-2.3,10.6
			c-0.1,0.5,0,0.7,0.6,0.7C326.6,52.8,327.6,52.8,328.5,52.8z"/>
		<path class="st1" d="M309.1,50.9c0-3.8,0-7.6,0-11.4c0-1-0.3-1.2-1.2-1.2c-0.7,0.1-1.4,0-2.2,0c-1.2,0-1.6-0.6-1.2-1.7
			c0.1-0.5,0.4-0.4,0.7-0.4c4.2,0,8.3,0,12.5,0c0.9,0,0.8,0.5,0.8,1.1c0,0.6,0,1.2-0.8,1c-0.2,0-0.5,0-0.7,0
			c-1.1,0.1-2.5-0.5-3.1,0.2c-0.7,0.7-0.2,2.1-0.2,3.2c0,6.8,0,13.5,0,20.3c0,1.3-0.3,1.6-1.6,1.5c-3-0.1-3,0-3-3.1
			C309.1,57.3,309.1,54.1,309.1,50.9z"/>
		<path class="st1" d="M295.1,50c0-4.2,0-8.3,0-12.5c0-0.9,0.2-1.2,1.1-1.1c0.9,0.1,1.8,0,2.8,0c0.6,0,0.8,0.1,0.8,0.8
			c0,8.5,0,17,0,25.5c0,0.6-0.2,0.8-0.8,0.8c-0.9,0-1.8-0.1-2.8,0c-0.9,0.1-1.2-0.2-1.2-1.2C295.2,58.3,295.1,54.2,295.1,50z"/>
		<path class="st1" d="M262.8,50c0,4.1,0,8.2,0,12.2c0,1-0.2,1.5-1.3,1.3c-1.1-0.1-2.5,0.3-3.1-0.2c-0.7-0.6-0.2-2.1-0.2-3.2
			c0-7.5,0-15,0-22.5c0-0.9,0.1-1.2,1.1-1.1c0.8,0.1,1.7,0.1,2.5,0c0.8-0.1,1.1,0.2,1.1,1.1C262.7,41.7,262.8,45.8,262.8,50z"/>
		<path class="st2" d="M353.3,71.5c0,1.4,0,2.7,0,4.1c-0.1,2-0.8,2.7-2.8,2.7c-0.8,0-1.6,0-2.4,0c-1.2,0-2.1-0.8-2.2-2.1
			c-0.1-1.6-0.1-3.3,0-4.9c0-1.2,0.7-1.9,2-1.9c1-0.1,2-0.1,3,0c0.7,0,0.9-0.2,0.9-0.9c-0.1-0.5,0-1,0-1.4c0-0.5,0.1-0.8,0.7-0.8
			c0.6,0,0.9,0.1,0.8,0.8C353.3,68.5,353.3,70,353.3,71.5z M347.4,73.8c0,3.4-0.4,2.9,3.2,3c0.9,0,1.2-0.4,1.2-1.3
			c0-1.2,0-2.4,0-3.6c0-0.8-0.4-1.2-1.2-1.2c-3.7,0-3.2-0.3-3.2,2.9C347.4,73.7,347.4,73.8,347.4,73.8z"/>
		<path class="st2" d="M310.7,71.5c0,1.4,0,2.8,0,4.2c0,1.7-0.9,2.5-2.6,2.5c-0.8,0-1.7,0-2.5,0c-1.3,0-2.2-0.9-2.2-2.2
			c-0.1-1.6-0.1-3.2,0-4.8c0-1.3,0.7-1.9,2.1-2c1,0,1.9-0.1,2.9,0c0.8,0,1-0.2,0.9-1c0-0.4,0-0.7,0-1.1c0-0.5-0.2-1,0.7-1
			c0.8,0,0.8,0.4,0.8,1C310.7,68.7,310.7,70.1,310.7,71.5z M304.8,73.7c0,3.5-0.3,3,3.2,3.1c0.8,0,1.2-0.4,1.2-1.2
			c0-1.2,0-2.5,0-3.7c0-0.7-0.4-1.1-1.1-1.1C304.4,70.8,304.8,70.4,304.8,73.7z"/>
		<path class="st2" d="M327,71.5c0-1.5,0-3,0-4.4c0-0.5,0-0.8,0.7-0.8c0.7,0,0.8,0.3,0.8,0.8c0.1,2.2,0.1,2.2,2.3,2.2
			c0.4,0,0.9,0,1.3,0c1.4,0.1,2.1,0.7,2.2,2c0.1,1.6,0.1,3.2,0,4.8c-0.1,1.5-0.8,2.1-2.3,2.1c-0.8,0-1.7,0-2.5,0
			c-1.5,0-2.4-0.9-2.4-2.5C327,74.4,327,72.9,327,71.5z M332.8,73.9c0-0.7,0-1.4,0-2c0-1.4-1.1-1.1-1.8-1c-0.9,0.1-2.4-0.8-2.5,1
			c-0.1,1.2,0,2.4,0,3.6c0,1,0.4,1.4,1.3,1.4C333.3,76.8,332.8,77.2,332.8,73.9z"/>
		<path class="st2" d="M336.4,72.3c0-1.7,0-3.4,0-5.2c0-0.5,0-0.9,0.7-0.9c0.7,0,0.8,0.3,0.8,0.8c0.1,2.2,0.1,2.2,2.3,2.2
			c3.4,0,3.6,0.3,3.6,3.7c0,1.5,0,3,0,4.6c0,0.6-0.2,0.7-0.8,0.7c-0.6,0-0.7-0.2-0.7-0.8c0-1.8,0-3.5,0-5.3c0-1.1-0.4-1.5-1.5-1.5
			c-3,0-3,0-3,2.9c0,1.3,0,2.6,0,3.8c0,0.5-0.1,0.8-0.7,0.8c-0.6,0-0.8-0.2-0.8-0.8C336.4,75.8,336.4,74,336.4,72.3z"/>
		<path class="st1" d="M263.6,27.1c0,0.3-0.1,0.8-0.2,1.2c-0.5,1.6-2.1,2.7-3.4,2.4c-1.5-0.3-2.7-2.1-2.7-4c0-0.5,0.1-1,0.3-1.4
			c0.6-1.6,2-2.6,3.3-2.3C262.4,23.3,263.6,25,263.6,27.1z"/>
		<path class="st1" d="M300.6,27.1c0,0.1,0,0.5-0.1,0.8c-0.4,1.6-1.7,2.8-3.1,2.8c-1.4,0-2.7-1.2-3.1-2.9c-0.1-0.3-0.1-0.6-0.1-0.8
			c-0.1-2.1,1.4-4,3.1-4C299.1,22.9,300.6,24.7,300.6,27.1z"/>
		<path class="st2" d="M320.1,74.5c0,1,0,2,0,3c0,0.5-0.1,0.8-0.7,0.8c-0.6,0-0.8-0.1-0.8-0.8c0-1.8,0-3.6,0-5.4
			c0-0.9-0.4-1.3-1.3-1.3c-3.7,0-3.1-0.3-3.1,3c0,1.2,0,2.4,0,3.6c0,0.5,0,0.9-0.7,0.9c-0.6,0-0.8-0.2-0.8-0.8c0-1.9,0-3.8,0-5.8
			c0-1.7,0.8-2.4,2.5-2.4c1,0,1.9,0,2.9,0c1.3,0.1,2,0.8,2,2.1C320.1,72.4,320.1,73.5,320.1,74.5C320.1,74.5,320.1,74.5,320.1,74.5z
			"/>
		<path class="st2" d="M297.6,78.3c-0.6,0-1.3,0-1.9,0c-0.5,0-0.9,0-0.9-0.7c0-0.7,0.2-0.8,0.8-0.8c1.1,0,2.2,0,3.4,0
			c0.8,0,0.9-0.4,0.9-1c0-0.6,0.1-1.4-0.8-1.4c-0.8,0-1.5,0-2.3,0c-1.5-0.1-2.1-0.9-2-3c0.1-1.4,0.7-2,2.1-2c1.2,0,2.5,0,3.7,0
			c0.6,0,0.7,0.2,0.7,0.7c0,0.6-0.2,0.8-0.7,0.7c-1,0-2.1,0-3.1,0c-0.7,0-1.3,0-1.3,1c0,1,0.6,1.1,1.3,1.1c0.6,0,1.2,0,1.8,0
			c1.3,0.1,1.9,0.8,2,2.1c0,0.4,0,0.9,0,1.3c-0.1,1.4-0.7,2-2.1,2C298.7,78.3,298.2,78.3,297.6,78.3z"/>
		<path class="st0" d="M245.7,50.2c0,3.4,0,6.8,0,10.2c0,0.9-0.3,1.1-1.1,1.1c-3.7,0.1-6.3-1.7-7.7-4.9c-2.1-4.6-2.2-9.5-0.1-14.2
			c1.5-3.4,4-4.7,7.5-4.2c1,0.1,1.5,0.5,1.5,1.7C245.7,43.3,245.7,46.7,245.7,50.2z"/>
		<path class="st0" d="M328.5,52.8c-1,0-1.9,0-2.9,0c-0.6,0-0.7-0.2-0.6-0.7c0.8-3.5,1.5-7.1,2.3-10.6c0.1-0.6,0.3-1.7,1.1-1.6
			c0.7,0,0.8,1,0.9,1.6c0.9,3.6,1.6,7.1,2.4,10.7c0.1,0.5,0,0.6-0.5,0.6C330.5,52.8,329.5,52.8,328.5,52.8z"/>
		<path class="st0" d="M347.4,73.8c0,0,0-0.1,0-0.1c0-3.2-0.5-2.9,3.2-2.9c0.8,0,1.2,0.4,1.2,1.2c0,1.2,0,2.4,0,3.6
			c0,0.8-0.4,1.3-1.2,1.3C347,76.8,347.4,77.2,347.4,73.8z"/>
		<path class="st0" d="M304.8,73.7c0-3.4-0.3-3,3.3-3c0.7,0,1.1,0.4,1.1,1.1c0,1.2,0,2.5,0,3.7c0,0.7-0.4,1.2-1.2,1.2
			C304.5,76.8,304.8,77.3,304.8,73.7z"/>
		<path class="st0" d="M332.8,73.9c-0.1,3.3,0.5,2.9-3,2.9c-1,0-1.4-0.4-1.3-1.4c0-1.2-0.1-2.4,0-3.6c0.1-1.8,1.6-0.9,2.5-1
			c0.7-0.1,1.8-0.4,1.8,1C332.8,72.5,332.8,73.2,332.8,73.9z"/>
	</g>
	<g>
		<path class="st3" d="M48.2,9.3c1.3,0.5,2.6,0.4,3.9,0.7c1.7,0.4,3.2,1.3,4.5,2.4c0.8,0.7,0.9,1.7,0.8,2.6c-0.4,3.8-2.1,7.2-4,10.4
			c-0.5,0.8-1.3,1-2.2,1c-2,0.1-4-0.1-6-0.3c-3.8-0.5-7.5,0-11.2,0.1c-0.1,0-0.2,0-0.4,0c-3.8,0.3-4.8-0.2-6.6-3.7
			c-1.2-2.5-2.1-5.2-2.8-7.9c-0.3-1.1,0.4-2.3,1.7-3.2c1.8-1.1,3.9-1.4,5.9-1.7c0.7-0.1,1.5,0,2.1-0.4C38.8,9.3,43.5,9.3,48.2,9.3z
			 M35.3,19.7c1.9,0,2.7-0.8,2.2-1.9c-1-2.2-5-3.1-6.9-1.5c-0.4,0.3-0.4,0.5-0.1,0.9C32,18.7,33.6,19.5,35.3,19.7z M49.8,15.5
			c-1.3,0.1-2.5,0.7-3.6,1.6c-0.5,0.4-0.9,1-0.6,1.7c0.3,0.7,0.9,0.9,1.5,0.9c1.4,0.1,2.7-0.4,3.8-1.1c0.7-0.5,2-1.1,1.7-1.9
			c-0.3-0.9-1.6-1.2-2.7-1.2C49.9,15.5,49.9,15.5,49.8,15.5z"/>
		<path class="st4" d="M0,69.3c0.4,0,0.8,0,1.2,0c25,0,50.1,0,75.1,0c1.3,0,1.9,0.9,1.4,2.1c-0.1,0.3-0.3,0.3-0.6,0.3
			c-0.3,0-0.6,0-1,0c-25.4,0-50.8,0-76.2,0C0,70.9,0,70.1,0,69.3z"/>
		<path class="st4" d="M49.5,40.7c-0.7,0.9-1.3,1.8-2,2.6c-5.1,7-10.2,13.9-15.3,20.9c-0.4,0.6-0.9,0.8-1.6,0.7
			c-1-0.1-2.4,0.4-3-0.2c-0.6-0.6-0.2-2-0.2-3c0-6.7,0-13.4,0-20c0-0.4,0-0.8,0-1.5c-1.8,2.6-3.3,4.9-4.9,7.2
			c-3.8,5.6-7.6,11.2-11.4,16.8c-0.5,0.7-0.9,0.9-1.7,0.9c-2.5-0.1-4.9,0-7.6,0c0.8-1.1,1.4-2,2-2.9c7.6-11,15.1-22,22.6-33
			c0.5-0.8,1.1-1.1,2-1c1.1,0.1,2.2,0.1,3.4,0c1-0.1,1.4,0.2,1.3,1.3c-0.1,6.7,0,13.4,0,20.2c0,0.4,0,0.8,0,1.5
			c1.9-2.7,3.6-5,5.3-7.4c3.5-4.9,7-9.7,10.5-14.6c0.5-0.7,1-0.9,1.8-0.9c1.5,0.1,3,0.1,4.6,0c0.9,0,1.2,0.2,1.2,1.2
			c0,7.6,0,15.1,0,22.7c0,4,0,8.1,0,12.1c0,0.9-0.3,1.1-1.1,1.1c-3,0-6,0-9,0c-0.8,0-1.1-0.2-1-1c0.1-1,0.1-2.1,0-3.1
			c0-0.8,0.3-1,1-0.9c0.8,0.1,1.7,0,2.5,0c0.6,0,0.9-0.1,0.9-0.9c0-6.1,0-12.2,0-18.4C49.6,40.8,49.6,40.8,49.5,40.7z"/>
		<path class="st4" d="M84.1,37c-1.6,2.4-3.2,4.7-4.8,7c-4.6,6.7-9.1,13.3-13.7,20c-0.6,0.8-1.1,1.2-2.1,1.1c-1.3-0.1-2.6,0-4.2,0
			c0.5-0.7,0.8-1.2,1.1-1.6c7.8-11.4,15.7-22.8,23.5-34.2c0.6-0.9,1.2-1.4,2.3-1.2c1.1,0.1,2.5-0.5,3.1,0.3c0.5,0.6,0.2,2,0.2,3
			c0,10.8,0,21.7,0,32.5c0,1-0.2,1.4-1.2,1.3c-0.8-0.1-1.7-0.1-2.5,0c-1.1,0.1-1.5-0.2-1.5-1.4c0.1-6,0-12.1,0-18.1
			c0-2.4,0-4.9,0-7.3C84.3,37.9,84.5,37.5,84.1,37z"/>
		<path class="st5" d="M113.7,28.4c-1.5,1.5-3,3-4.5,4.5c-0.5,0.5-1.1,0.2-1.6,0.2c-2.1-0.3-4.1-0.4-6.2,0.1
			c-2.2,0.5-3.5,1.7-3.8,3.6c-0.4,2.2,0.7,3.6,2.4,4.7c2,1.3,4.3,2,6.4,3c1.2,0.6,2.4,1.2,3.5,2c4,2.9,5.4,7.8,3.5,12.4
			c-1,2.4-2.8,3.9-5.1,4.8c-5.3,2-10.8,1.7-16.4,1.2c1.4-1.3,2.7-2.6,4.1-4c0.3-0.3,0.7-0.3,1.1-0.3c2.6,0.1,5.3,0.1,7.8-0.8
			c3.1-1.1,4.6-3.7,3.8-6.5c-0.3-1.2-1.1-2-2.1-2.7c-1.8-1.2-3.8-1.7-5.8-2.5c-1.2-0.5-2.5-1-3.6-1.6c-3.8-2.1-5.4-5.7-4.7-10
			c0.7-4.3,3.1-6.6,7.2-7.7c1.6-0.4,3.3-0.7,5-0.7c3,0,6,0,9,0C113.6,28.2,113.7,28.3,113.7,28.4z"/>
		<path class="st5" d="M146.2,65.1c-2.5,0-4.6,0-6.8,0c-0.4,0-0.6-0.3-0.8-0.6c-4.7-5.7-9.4-11.3-14.1-17c-0.5-0.6-0.4-0.9,0-1.4
			c4.5-5.8,9-11.5,13.4-17.3c0.3-0.5,0.7-0.7,1.3-0.7c1.7,0,3.4,0,5,0c0.2,0.5-0.2,0.7-0.4,0.9c-4.4,5.4-8.7,10.8-13.1,16.2
			c-0.5,0.7-0.6,1,0,1.7c5,5.8,9.9,11.6,14.9,17.4C145.8,64.5,145.9,64.7,146.2,65.1z"/>
		<path class="st4" d="M122.4,46.6c0,5.8,0,11.5,0,17.3c0,1-0.2,1.4-1.2,1.3c-1.1-0.1-2.2-0.1-3.2,0c-0.9,0.1-1.2-0.2-1.2-1.2
			c0.1-3.9,0-7.8,0-11.7c0-7.6,0-15.3,0-22.9c0-0.9,0.2-1.3,1.2-1.2c1.1,0.1,2.2,0.1,3.4,0c0.9-0.1,1.2,0.2,1.1,1.1
			C122.4,35,122.4,40.8,122.4,46.6z"/>
		<path class="st6" d="M120.3,70.7c0-1.3,0-2.6,0-3.8c0-0.4,0.1-0.7,0.5-0.7c2.5,0,4.9-0.6,7.3,0.2c0.3,0.1,0.5-0.1,0.8-0.2
			c2.1-0.3,4.1-0.4,6.2,0c1,0.2,1.5,0.9,1.5,1.9c0,2.2,0,4.3,0,6.5c0,0.3,0.1,0.7-0.4,0.7c-0.5,0-0.5-0.4-0.5-0.7c0-2,0-4.1,0-6.1
			c0-1.1-0.4-1.6-1.6-1.6c-1.3,0.1-2.6,0-4,0c-0.9,0-1.3,0.3-1.3,1.3c0,2.1,0,4.2,0,6.2c0,0.4,0.2,0.9-0.5,0.9
			c-0.7,0-0.5-0.5-0.5-0.9c0-2,0-4.1,0-6.1c0-1-0.4-1.4-1.4-1.4c-1.3,0-2.6,0-3.8,0c-1.3,0-1.7,0.4-1.7,1.7c0,1.9,0,3.8,0,5.8
			c0,0.3,0.2,0.8-0.3,0.9c-0.7,0.1-0.4-0.5-0.4-0.9C120.2,73.2,120.2,71.9,120.3,70.7C120.2,70.7,120.2,70.7,120.3,70.7z"/>
		<path class="st6" d="M110.8,75.4c-1,0-1.9,0-2.9,0c-1.7-0.1-2.5-1-2.5-3.1c0-1.6,0.7-2.4,2.4-2.4c1.4,0,2.9,0,4.3,0
			c0.5,0,1.3,0.5,1.4-0.6c0.1-0.9,0-1.8-1.1-2.1c-0.5-0.1-0.9-0.1-1.4-0.2c-1.2,0-2.3,0-3.5,0c-0.3,0-0.7,0.1-0.7-0.4
			c0-0.4,0.3-0.5,0.6-0.5c1.5,0,3-0.1,4.6,0c1.6,0.1,2.5,1.2,2.5,2.8c0,1.8,0,3.7,0,5.5c0,0.7-0.2,1-1,0.9
			C112.6,75.3,111.7,75.4,110.8,75.4z M110.2,74.4c0.9,0,1.8,0,2.6,0c0.6,0,0.8-0.3,0.7-0.8c-0.2-0.9,0.5-2-0.4-2.8c0,0-0.2,0-0.2,0
			c-1.8,0-3.5,0-5.3,0c-0.9,0-1.3,0.4-1.2,1.4c0,0.3,0,0.6,0,1c0,0.9,0.4,1.3,1.3,1.3C108.5,74.4,109.3,74.4,110.2,74.4z"/>
		<path class="st6" d="M96.1,70.8c-1,0-2.1,0-3.1,0c-0.6,0-0.9,0.2-0.9,0.8c0,0.5,0,1,0,1.6c0.1,0.8,0.5,1.3,1.4,1.3
			c1.5,0,3,0,4.4,0c0.4,0,0.9-0.2,0.9,0.5c0,0.6-0.6,0.4-0.9,0.4c-1.3,0-2.6,0-4,0c-1.7,0-2.8-1-2.9-2.7c-0.1-1.3-0.1-2.6,0-4
			c0.1-1.4,1.2-2.6,2.7-2.6c1.2,0,2.5-0.1,3.7,0c1.8,0.1,3.4,3,2.6,4.5c-0.2,0.3-0.5,0.2-0.7,0.2C98.2,70.8,97.1,70.8,96.1,70.8z
			 M95.6,69.8c0.9,0,1.8,0,2.6,0c0,0,0.1,0,0.1,0c0.3,0,0.6,0.1,0.8-0.4c0.3-0.9-0.5-2.4-1.4-2.5c-1.5-0.1-3-0.1-4.4,0
			c-1.1,0.1-1.3,1.2-1.2,2.1c0,1.1,0.9,0.6,1.3,0.6C94.2,69.9,94.9,69.8,95.6,69.8z"/>
		<path class="st6" d="M82.1,70c0-0.2,0-0.4,0-0.6c0-2.3,0-2.3-2.3-2.4c-0.3,0-0.7,0.1-0.7-0.4c0-0.5,0.4-0.5,0.8-0.5
			c0.7-0.1,1.7,0.4,2.1-0.3c0.4-0.5,0.1-1.5,0.1-2.2c0-0.2,0-0.5,0-0.7c0-0.3,0.1-0.5,0.4-0.5c0.4,0,0.5,0.2,0.5,0.5
			c0,0.7,0,1.4,0,2.2c-0.1,0.8,0.2,1.1,1,1c0.5-0.1,1,0,1.6,0c0.3,0,0.6,0.1,0.6,0.5c0,0.4-0.2,0.4-0.5,0.5c-0.4,0-0.7,0-1.1,0
			c-1.7,0-1.5-0.2-1.5,1.6c0,1.1,0,2.2,0,3.2c0,1.2,0.6,2,1.7,2.3c0.5,0.2,0.8,0.4,0.6,0.9c-0.2,0.7-0.7,0.2-1,0.1
			c-1.6-0.6-2.3-1.6-2.3-3.3C82.1,71.2,82.1,70.6,82.1,70z"/>
		<path class="st7" d="M35.3,19.7c-1.7-0.1-3.3-1-4.7-2.5c-0.3-0.3-0.3-0.6,0.1-0.9c1.8-1.6,5.8-0.8,6.9,1.5
			C38.1,18.8,37.2,19.7,35.3,19.7z"/>
		<path class="st7" d="M49.8,15.5c0.1,0,0.2,0,0.2,0c1.1,0.1,2.4,0.3,2.7,1.2c0.3,0.8-1,1.4-1.7,1.9c-1.1,0.8-2.4,1.2-3.8,1.1
			c-0.7-0.1-1.3-0.3-1.5-0.9c-0.3-0.7,0.1-1.2,0.6-1.7C47.3,16.2,48.4,15.5,49.8,15.5z"/>
		<path class="st7" d="M110.2,74.4c-0.8,0-1.7,0-2.5,0c-0.9,0-1.3-0.4-1.3-1.3c0-0.3,0-0.6,0-1c-0.1-0.9,0.3-1.3,1.2-1.4
			c1.8,0,3.5,0,5.3,0c0.1,0,0.2,0,0.2,0c0.9,0.8,0.2,1.9,0.4,2.8c0.1,0.5-0.1,0.8-0.7,0.8C111.9,74.4,111,74.4,110.2,74.4z"/>
		<path class="st7" d="M95.6,69.8c-0.7,0-1.4,0.1-2.2,0c-0.5-0.1-1.3,0.4-1.3-0.6c0-1,0.1-2,1.2-2.1c1.5-0.2,2.9-0.1,4.4,0
			c0.9,0.1,1.6,1.6,1.4,2.5c-0.1,0.5-0.5,0.3-0.8,0.4c0,0-0.1,0-0.1,0C97.4,69.8,96.5,69.8,95.6,69.8z"/>
	</g>
	<g>
		<g>
			<g>
				<path class="st8" d="M441.4,45.5c-0.7,1.6,0.4,4.4,0.6,5.9c0.1,0.7-0.1,1.5-0.1,2.2h0.1v0c1-1.9-0.3-4.3-0.3-6.3
					c0.1,0,0.1,0,0.1-0.1h0.1c0.1,0.1,0.2,0.3,0.3,0.3C442,47,441.8,45.9,441.4,45.5"/>
				<path class="st8" d="M442.1,53.7h-0.2v-0.1c0-0.3,0-0.5,0-0.8c0-0.5,0.1-0.9,0-1.4c-0.1-0.4-0.2-0.9-0.3-1.4
					c-0.4-1.5-0.8-3.4-0.3-4.6l0-0.1l0.1,0c0.4,0.3,0.6,1,0.7,1.7c0,0.2,0.1,0.3,0.1,0.4l0,0.1h-0.1c-0.1,0-0.2-0.1-0.3-0.2
					c0,0,0,0,0,0c0,0.7,0.2,1.4,0.3,2.1C442.4,50.9,442.7,52.3,442.1,53.7L442.1,53.7L442.1,53.7z M441.4,45.6c-0.4,1.1,0,3,0.4,4.4
					c0.1,0.5,0.2,1,0.3,1.4c0.1,0.5,0,0.9,0,1.4c0,0.2,0,0.4,0,0.6c0.6-1.2,0.3-2.6,0-3.9c-0.2-0.8-0.4-1.5-0.4-2.3v-0.1h0.1v-0.1
					h0.2l0,0c0.1,0.1,0.1,0.2,0.2,0.2c0-0.1,0-0.2-0.1-0.3C441.8,46.6,441.7,45.9,441.4,45.6L441.4,45.6z"/>
			</g>
			<g>
				<path class="st8" d="M440.3,45.6c-0.6,0.4-1.4,0.5-2.2,0.8c-0.7,0.2-1.3,0.5-1.9,0.8c-0.4,0.2-0.8,0.3-1.1,0.6
					c-0.1,0.1-0.3,0.4-0.2,0.4v0c0.1,0,0.1,0,0.1,0c0.8-0.4,1.6-0.9,2.5-1.2c0.7-0.3,1.5-0.5,2.3-0.8c0.1-0.1,0.7-0.4,0.7-0.4
					C440.4,45.7,440.4,45.6,440.3,45.6L440.3,45.6z"/>
				<path class="st8" d="M434.9,48.3L434.9,48.3C434.9,48.3,434.9,48.3,434.9,48.3C434.9,48.3,434.9,48.3,434.9,48.3l-0.2,0v-0.1
					c0,0,0,0,0,0c0-0.1,0.2-0.4,0.3-0.5c0.2-0.2,0.5-0.3,0.8-0.5c0.1,0,0.2-0.1,0.3-0.2l0,0c0.6-0.3,1.2-0.6,1.9-0.8
					c0.2-0.1,0.3-0.1,0.5-0.2c0.6-0.2,1.1-0.3,1.6-0.6l0,0h0.1l0,0.1c0,0,0,0.1,0,0.1l0,0.1l0,0c0,0-0.6,0.4-0.7,0.5
					c-0.3,0.1-0.6,0.2-0.8,0.3c-0.5,0.2-1,0.3-1.4,0.5c-0.4,0.2-0.9,0.4-1.3,0.6c-0.4,0.2-0.7,0.4-1.1,0.6
					C435,48.3,435,48.3,434.9,48.3C435,48.3,435,48.3,434.9,48.3L434.9,48.3z M434.9,48.2L434.9,48.2L434.9,48.2
					C434.9,48.2,434.9,48.2,434.9,48.2L434.9,48.2z M434.9,48.2L434.9,48.2L434.9,48.2L434.9,48.2c0.4-0.2,0.8-0.4,1.2-0.6
					c0.4-0.2,0.9-0.5,1.3-0.7c0.5-0.2,1-0.4,1.5-0.5c0.3-0.1,0.5-0.2,0.8-0.3c0.1,0,0.5-0.3,0.7-0.4c0,0,0,0,0,0
					c-0.5,0.3-1.1,0.4-1.6,0.6c-0.2,0-0.3,0.1-0.5,0.2c-0.7,0.2-1.3,0.5-1.9,0.8l0,0c-0.1,0.1-0.2,0.1-0.3,0.2
					c-0.3,0.1-0.6,0.3-0.8,0.4l0,0C435.1,47.9,435,48.1,434.9,48.2L434.9,48.2z"/>
			</g>
			<g>
				<path class="st8" d="M443.7,45.6c-0.3,0.5-0.4,0.8-0.4,1.4c0.1,0,0.1,0,0.2,0.1c0-0.1,0.1-0.3,0.2-0.3
					C443.5,46.3,443.9,46,443.7,45.6"/>
				<path class="st8" d="M443.6,47.2L443.6,47.2c-0.1,0-0.2,0-0.2,0c0,0,0,0-0.1,0l-0.1,0V47c0-0.6,0.1-1,0.4-1.5l0.1-0.1l0.1,0.1
					c0.1,0.2,0,0.4,0,0.5c0,0.2-0.1,0.4,0.1,0.7l0.1,0.1h-0.1C443.8,46.9,443.7,47,443.6,47.2L443.6,47.2L443.6,47.2z M443.5,47
					C443.5,47,443.5,47,443.5,47C443.5,47,443.5,47,443.5,47c0.1,0,0.2-0.1,0.2-0.2c-0.1-0.3-0.1-0.5,0-0.7c0-0.1,0-0.2,0-0.3
					C443.5,46.2,443.5,46.5,443.5,47L443.5,47z"/>
			</g>
			<g>
				<path class="st8" d="M449.4,45.6c-1,0.5-6.8,2.3-6.8,3.3h0.1v-0.1c1-0.5,2-1.1,3.1-1.5c1.1-0.4,2.2-0.8,3.3-1.3
					C449.3,46,449.3,45.9,449.4,45.6"/>
				<path class="st8" d="M442.8,49h-0.3v-0.1c0-0.7,2.3-1.6,5.1-2.6c0.8-0.3,1.5-0.5,1.8-0.7l0.1-0.1l0,0.1c0,0.3-0.1,0.4-0.3,0.5
					c-1.1,0.4-2.2,0.9-3.3,1.3c-0.9,0.3-1.8,0.8-2.6,1.2C443.1,48.7,442.9,48.8,442.8,49L442.8,49L442.8,49z M449.3,45.7
					c-0.3,0.2-0.9,0.4-1.7,0.7c-1.7,0.6-4.6,1.7-4.9,2.4c0.2-0.1,0.3-0.2,0.5-0.2c0.8-0.4,1.7-0.9,2.6-1.2c1-0.4,2.1-0.8,3.3-1.3
					C449.2,46,449.2,45.9,449.3,45.7L449.3,45.7z"/>
			</g>
			<g>
				<path class="st8" d="M452.9,45.6c-0.3,0.6-0.4,1.1-0.4,1.8h0.2c0.1-0.2,0.1-0.3,0.2-0.5c0,0-0.2,0.1-0.2,0h0
					C452.7,46.6,453.1,45.9,452.9,45.6"/>
				<path class="st8" d="M452.8,47.5h-0.3v-0.1c0-0.7,0.1-1.2,0.4-1.8l0.1-0.1l0.1,0.1c0.1,0.2,0,0.5-0.1,0.9c0,0.2-0.1,0.3-0.1,0.4
					h0v0c0,0,0,0,0.1,0c0,0,0,0,0.1,0l0.1,0l0,0.1c-0.1,0.1-0.1,0.2-0.2,0.4L452.8,47.5L452.8,47.5z M452.6,47.4L452.6,47.4l0.1-0.1
					c0-0.1,0.1-0.2,0.1-0.2c-0.1,0-0.1,0-0.1,0h-0.1v-0.1c0-0.2,0.1-0.3,0.1-0.5c0.1-0.2,0.1-0.4,0.1-0.6
					C452.6,46.3,452.6,46.7,452.6,47.4L452.6,47.4z"/>
			</g>
			<g>
				<path class="st8" d="M458.7,45.8c-0.9,0.7-6.5,2.1-6.5,3.2h0.1V49h0V49c1.7-0.9,3.5-1.5,5.3-2.3c0.4-0.2,1-0.3,1.3-0.7h0.1
					C458.8,45.9,458.7,45.8,458.7,45.8"/>
				<path class="st8" d="M452.3,49.1h-0.2v0h-0.1V49c0-0.7,2.3-1.6,4.3-2.3c1-0.4,1.9-0.7,2.2-0.9l0.1,0l0,0c0,0,0.1,0.1,0.1,0.1
					c0,0,0,0,0.1,0l0.2,0.1h-0.2c-0.2,0.3-0.6,0.4-0.9,0.5c-0.1,0-0.3,0.1-0.4,0.1c-0.7,0.3-1.4,0.6-2.1,0.9
					C454.4,48,453.4,48.5,452.3,49.1L452.3,49.1L452.3,49.1z M452.2,48.9L452.2,48.9c1-0.5,2.1-1,3.2-1.4c0.7-0.3,1.4-0.6,2.1-0.9
					c0.1-0.1,0.2-0.1,0.4-0.1c0.3-0.1,0.7-0.2,0.9-0.5c0,0-0.1,0-0.1-0.1c-0.4,0.2-1.2,0.6-2.2,0.9
					C454.7,47.4,452.4,48.3,452.2,48.9L452.2,48.9z"/>
			</g>
			<g>
				<path class="st8" d="M466.1,45.8c-0.2,0.4-0.6,0.9-0.6,1.4c0,0.2,0.1,0.4,0.1,0.5h0.2c0-0.1,0.3-0.5,0.2-0.5v-0.1
					c-0.1,0-0.1,0.1-0.2,0.1C465.7,46.8,466.2,46.4,466.1,45.8C466.2,45.9,466.2,45.9,466.1,45.8C466.1,45.9,466.1,45.9,466.1,45.8"
					/>
				<path class="st8" d="M465.7,47.9h-0.3l0-0.1c0-0.2,0-0.4-0.1-0.5l0,0v0c0-0.4,0.3-0.9,0.5-1.3c0-0.1,0.1-0.1,0.1-0.2l0-0.1
					l0.1,0.1c0,0,0,0,0.1,0c0.1,0,0.1,0,0.1,0.1c0,0,0,0.1,0,0.1c0,0.2-0.1,0.4-0.2,0.6c-0.1,0.2-0.2,0.4-0.2,0.7c0,0,0.1,0,0.1-0.1
					l0.1-0.1l0,0.1c0,0,0,0,0,0C466,47.4,465.8,47.8,465.7,47.9L465.7,47.9L465.7,47.9z M465.6,47.7L465.6,47.7
					c0.1-0.1,0.2-0.3,0.3-0.3h0v0c0,0-0.1,0-0.1,0.1l-0.1,0.1l0-0.1c0-0.3,0.2-0.6,0.3-0.8c0.1-0.2,0.2-0.4,0.2-0.6c0,0,0,0,0,0
					c0,0,0,0.1-0.1,0.1c-0.2,0.4-0.5,0.8-0.5,1.2C465.6,47.4,465.6,47.6,465.6,47.7L465.6,47.7z"/>
			</g>
			<g>
				<path class="st8" d="M459.8,45.9c-0.2,0.7,0.2,2.7,0.3,3.5c0.1,1,0.2,2.1,0.2,3.1c0,0.9,0,1.9,0.2,2.8c0.1,0.4,0.3,0.8,0.7,1
					c1.3,0.6,1.8-1,2.3-1c0,0.1,0,0-0.1,0v0.1c0.4,0.9,1.2,1,2.2,1c0.3,0,0.6,0,0.9,0c0.4-0.1,0.7-0.2,1.1-0.3
					c0.6-0.2,1.3-0.6,2-0.6c0,0.7,0.3,1.1,1.1,1.1c0.4-0.3,0.7-0.5,1-1c0,0,0.1,0,0.1-0.1v-0.1c0.2,0.5,0.5,1.2,1.1,0.7
					c0.2-0.3,0.4-0.6,0.6-0.8v0h0.1v0c0.3,0.4,0.4,0.8,1.1,0.8c1.3-0.8,0.5-2.2,0.1-3.2c0-0.1-0.2-0.4-0.1-0.4
					c0.1,0,0.1,0.1,0.2,0.1v-0.1c0,0,0.1,0,0,0c-0.1-0.2-0.4-1-0.6-1v0.1c-0.5,1,1.4,3.5,0.6,3.7c-0.5,0.1-0.9-0.3-0.9-0.7
					c0,0-0.1,0-0.1,0.1c-0.2,0.2-0.3,0.6-0.6,0.7c-0.7,0.5-0.9-0.1-0.9-0.7H472v0c-0.2,0.2-0.4,0.5-0.5,0.7
					c-0.4,0.3-1.4,0.5-1.5-0.3c0-0.1-0.1-0.4,0-0.4v-0.1c-1.7,0.2-3.4,1.4-5.4,0.8c-0.5-0.2-0.9-0.4-0.9-1c-0.1,0-0.1,0-0.1,0.1
					c-0.5,0.3-0.7,0.9-1.3,1.1c-0.5,0.1-1.1,0-1.4-0.4c-0.2-0.5-0.2-1.1-0.2-1.7c-0.1-2.1-0.2-4.3-0.5-6.3
					C460.1,46.6,460,46.2,459.8,45.9"/>
				<path class="st8" d="M470.7,56.5L470.7,56.5c-0.7,0-1.1-0.3-1.1-1.1c-0.5,0-0.9,0.2-1.3,0.4c-0.2,0.1-0.4,0.2-0.5,0.2
					c-0.3,0.1-0.6,0.2-1,0.3l-0.2,0c-0.2,0-0.5,0-0.7,0c-0.1,0-0.1,0-0.2,0l0,0c-1,0-1.8-0.1-2.3-1l0,0v0c-0.1,0.1-0.3,0.2-0.4,0.4
					c-0.3,0.3-0.7,0.8-1.2,0.8c-0.2,0-0.4-0.1-0.6-0.1c-0.4-0.2-0.6-0.5-0.7-1c-0.2-0.7-0.2-1.5-0.2-2.2c0-0.2,0-0.4,0-0.5
					c0-0.5-0.1-1-0.1-1.5c0-0.5-0.1-1-0.1-1.6c0-0.2-0.1-0.5-0.1-0.8c-0.2-0.9-0.4-2.2-0.2-2.7l0-0.1l0.1,0.1
					c0.2,0.3,0.3,0.7,0.4,1.1l0,0.1c0.3,1.5,0.4,3.2,0.5,4.8c0,0.5,0.1,1,0.1,1.5c0,0.1,0,0.3,0,0.4c0,0.4,0,0.9,0.2,1.2
					c0.2,0.3,0.5,0.5,0.9,0.5c0.1,0,0.3,0,0.4-0.1c0.4-0.1,0.6-0.3,0.8-0.6c0.1-0.2,0.3-0.3,0.5-0.4c0-0.1,0.1-0.1,0.1-0.1
					c0,0,0,0,0,0h0.1v0.1c0,0.6,0.4,0.8,0.8,1c0.4,0.1,0.8,0.2,1.2,0.2c0.8,0,1.6-0.3,2.4-0.5c0.6-0.2,1.2-0.4,1.8-0.5l0.1,0v0.3
					H470c0,0,0,0.2,0,0.3c0.1,0.4,0.4,0.5,0.6,0.5c0.3,0,0.6-0.1,0.8-0.2c0.2-0.2,0.3-0.5,0.5-0.7v-0.1h0.3v0.1c0,0.2,0,0.4,0.1,0.6
					c0.1,0.3,0.4,0.3,0.7,0.1c0.2-0.1,0.2-0.2,0.3-0.4c0.1-0.1,0.1-0.2,0.3-0.3c0-0.1,0-0.1,0.1-0.1c0,0,0,0,0,0c0,0,0,0,0,0h0.1
					v0.1c0,0.2,0.1,0.4,0.2,0.5c0.2,0.2,0.4,0.2,0.6,0.2c0.1,0,0.1,0,0.1-0.1c0.1-0.2-0.1-0.8-0.3-1.3c-0.3-0.8-0.7-1.6-0.4-2.2
					v-0.1h0.1c0.2,0,0.4,0.4,0.7,0.9c0,0,0,0,0,0c0,0,0,0,0,0c0,0,0,0.1,0,0.1v0.1l-0.1-0.1c0,0-0.1-0.1-0.2-0.1
					c0,0.1,0,0.2,0.1,0.3c0,0.1,0.1,0.2,0.1,0.3c0.4,1,1,2.3-0.2,3l0,0h0c-0.5,0-0.7-0.3-1-0.6c0-0.1-0.1-0.1-0.1-0.2
					c-0.2,0.2-0.4,0.5-0.6,0.8l0,0c-0.2,0.1-0.3,0.2-0.5,0.2c-0.4,0-0.6-0.4-0.7-0.8c0,0,0,0,0,0C471.5,55.9,471.2,56.2,470.7,56.5
					L470.7,56.5L470.7,56.5z M469.7,55.2L469.7,55.2L469.7,55.2c0.1,0.8,0.4,1.1,1,1.1c0.4-0.3,0.7-0.5,0.9-0.9l0,0l0,0c0,0,0,0,0,0
					c0,0,0,0,0,0v0l0.1,0c0.1,0.4,0.3,0.8,0.7,0.8c0.1,0,0.2,0,0.4-0.1c0.2-0.3,0.4-0.5,0.6-0.8v-0.1h0.2v0.1c0,0.1,0.1,0.1,0.1,0.2
					c0.2,0.3,0.4,0.6,0.8,0.6c1.1-0.7,0.6-1.9,0.1-2.8c0-0.1-0.1-0.2-0.1-0.3c0-0.1-0.1-0.4-0.1-0.5c0,0,0.1,0,0.1,0h0l0,0
					c0,0,0.1,0,0.1,0c0,0,0,0,0,0c-0.2-0.5-0.4-0.8-0.5-0.8c-0.2,0.5,0.1,1.3,0.4,2.1c0.3,0.6,0.5,1.2,0.3,1.5
					c0,0.1-0.1,0.1-0.2,0.2c-0.3,0-0.5,0-0.7-0.2c-0.1-0.1-0.2-0.3-0.3-0.5c-0.1,0.1-0.2,0.2-0.2,0.3c-0.1,0.2-0.2,0.3-0.4,0.4
					c-0.4,0.3-0.8,0.2-0.9-0.1c-0.1-0.2-0.1-0.3-0.1-0.6l0,0l0,0c-0.2,0.3-0.4,0.5-0.6,0.7l0,0c-0.2,0.2-0.6,0.3-0.9,0.3
					c-0.4,0-0.7-0.2-0.8-0.6c0-0.1,0-0.3,0-0.4c0,0,0,0,0,0c-0.5,0.1-1.1,0.3-1.6,0.4c-0.8,0.3-1.6,0.5-2.5,0.5
					c-0.4,0-0.9-0.1-1.3-0.2c-0.4-0.2-0.9-0.4-0.9-1c-0.2,0.1-0.3,0.3-0.5,0.4c-0.2,0.3-0.5,0.5-0.9,0.6c-0.1,0-0.3,0.1-0.4,0.1
					c-0.5,0-0.8-0.2-1-0.5c-0.2-0.4-0.2-0.8-0.2-1.3c0-0.1,0-0.3,0-0.4c0-0.5-0.1-1-0.1-1.5c-0.1-1.6-0.2-3.2-0.4-4.7l0-0.1
					c0-0.3-0.1-0.6-0.3-0.9c-0.1,0.6,0.1,1.7,0.3,2.5c0.1,0.3,0.1,0.6,0.1,0.8c0,0.5,0.1,1.1,0.1,1.6c0,0.5,0.1,1,0.1,1.5
					c0,0.2,0,0.4,0,0.5c0,0.8,0,1.5,0.2,2.2c0.1,0.5,0.3,0.8,0.6,0.9c0.2,0.1,0.4,0.1,0.5,0.1c0.5,0,0.8-0.4,1.1-0.7
					c0.2-0.2,0.4-0.5,0.6-0.5h0.1v0.1c0,0,0,0,0,0.1c0,0,0,0,0,0c0.4,0.9,1.2,0.9,2.1,0.9c0.1,0,0.1,0,0.2,0c0.2,0,0.5,0,0.7,0
					l0.1,0c0.3-0.1,0.6-0.2,1-0.3c0.2-0.1,0.3-0.1,0.5-0.2C468.7,55.4,469.1,55.2,469.7,55.2L469.7,55.2z"/>
			</g>
			<g>
				<path class="st8" d="M462.1,45.9c0,0.1,0,0.2,0,0.3c0,0.1,0.1,0.2,0.1,0.3c0.4,0.8,0.7,1.3,0.7,2.3c0,0.1,0,0.3,0.1,0.3v0.1h0.1
					C463.1,47.9,463.1,46.6,462.1,45.9"/>
				<path class="st8" d="M463,49.1h-0.2v-0.1c0,0,0,0,0,0c-0.1,0-0.1-0.1,0-0.3c0,0,0,0,0-0.1c0.1-1-0.2-1.5-0.6-2.2l-0.1-0.1
					c0-0.1-0.1-0.2-0.1-0.3l0,0v0c0-0.1,0-0.2,0-0.3v-0.1l0.1,0.1C463.2,46.6,463.2,47.9,463,49.1L463,49.1L463,49.1z M462.9,48.9
					L462.9,48.9c0.1-1,0.1-2.2-0.7-2.9c0,0,0,0.1,0,0.1c0,0.1,0.1,0.2,0.1,0.2l0.1,0.1c0.4,0.7,0.7,1.3,0.6,2.3c0,0,0,0,0,0
					C462.9,48.8,462.9,48.9,462.9,48.9L462.9,48.9z"/>
			</g>
			<g>
				<path class="st8" d="M473.4,45.9c-0.7,0.2-1.4,0.4-2.1,0.6c-1.6,0.5-10.4,3.3-10.4,4.8h0.2v-0.1c2.6-1.6,5.7-2.6,8.6-3.7
					c0.9-0.3,3.2-0.8,3.7-1.4c0.1-0.1,0.1-0.1,0.1-0.2c0,0,0.1-0.1,0-0.1C473.4,45.9,473.4,45.9,473.4,45.9"/>
				<path class="st8" d="M461.1,51.4h-0.3v-0.1c0-1.4,7.3-3.9,10.4-4.9c0.2,0,0.3-0.1,0.5-0.1c0.5-0.2,1.1-0.3,1.6-0.5l0,0l0,0
					c0,0,0,0,0,0c0,0,0,0,0.1,0c0,0,0.1,0,0.1,0.1c0,0,0,0.1,0,0.1c0,0,0,0.1-0.1,0.1c0,0,0,0.1-0.1,0.1l0,0
					c-0.4,0.5-1.7,0.8-2.7,1.1c-0.4,0.1-0.8,0.2-1.1,0.3c-0.5,0.2-1,0.4-1.5,0.5C465.8,49,463.3,49.9,461.1,51.4L461.1,51.4
					L461.1,51.4z M461,51.2L461,51.2L461,51.2L461,51.2c2.3-1.4,4.7-2.3,7.2-3.2c0.5-0.2,1-0.4,1.5-0.5c0.3-0.1,0.7-0.2,1.1-0.3
					c1-0.3,2.2-0.6,2.6-1c0,0,0-0.1,0.1-0.1c0,0,0-0.1,0.1-0.1c0,0,0,0,0,0c0,0,0,0,0,0c-0.5,0.2-1.1,0.3-1.6,0.5
					c-0.2,0-0.3,0.1-0.5,0.1C466.4,48.1,461.2,50.1,461,51.2L461,51.2z"/>
			</g>
			<g>
				<path class="st8" d="M476.2,46c-0.5,1.5,0.4,5,0.7,6.6c0.2,0.9,0.2,1.9,0.2,2.9h0.1v0.1h0.1v-0.1h0c0-0.5,0.1-1,0.1-1.5
					c-0.1-1.9-0.5-3.7-0.8-5.6c0-0.1-0.1-0.8,0.1-0.8c0,0.1,0.1,0.3,0.2,0.3v0h0C476.8,47.4,476.6,46.3,476.2,46"/>
				<path class="st8" d="M477.2,55.6H477v-0.1h-0.1v-0.3c0-0.9,0-1.8-0.2-2.7c-0.1-0.3-0.1-0.7-0.2-1.1c-0.4-1.8-0.9-4.3-0.5-5.5
					l0-0.1l0.1,0.1c0.5,0.4,0.7,1.5,0.7,2V48h-0.2V48c-0.1,0-0.1-0.1-0.1-0.2c0,0.1,0,0.3,0,0.6c0,0,0,0.1,0,0.1
					c0.1,0.6,0.2,1.1,0.3,1.7c0.2,1.3,0.5,2.6,0.5,3.9v0v0c0,0.4-0.1,0.9-0.1,1.5L477.2,55.6L477.2,55.6L477.2,55.6L477.2,55.6z
					 M477.1,55.4L477.1,55.4c0.1-0.5,0.1-1,0.2-1.4c-0.1-1.3-0.3-2.6-0.5-3.8c-0.1-0.6-0.2-1.1-0.3-1.7c0,0,0,0,0-0.1
					c0-0.3-0.1-0.6,0-0.8c0,0,0.1-0.1,0.1-0.1h0l0,0c0,0,0,0,0,0.1c0,0.1,0,0.1,0,0.1c0-0.5-0.2-1.3-0.6-1.6
					c-0.3,1.3,0.1,3.6,0.5,5.3c0.1,0.4,0.2,0.8,0.2,1.1c0.2,0.9,0.2,1.8,0.2,2.7L477.1,55.4L477.1,55.4L477.1,55.4z"/>
			</g>
			<g>
				<path class="st8" d="M450,46.8c-0.2,0.2-0.4,0.4-0.3,0.7c0,0.2,0.4,0.4,0.4,0.4c0,0,0,0.1,0.1,0.1c-0.5,0.6-1.1,1.1-1.7,1.6
					c-0.5,0.3-1,0.7-1.5,1c0,0.1-0.1,0.1-0.1,0.1h0.1v0.1h0.1v-0.1c0.7-0.4,1.5-0.8,2.2-1.3c0.3-0.2,1.1-1.3,1.4-1.3
					c0,0,0.1,0,0.1,0h0.1v-0.1C450.7,47.7,450.3,47,450,46.8"/>
				<path class="st8" d="M447,50.8h-0.2v-0.1h-0.1l0-0.1c0,0,0-0.1,0.1-0.1c0,0,0,0,0.1-0.1l0,0l0,0c0.2-0.1,0.4-0.3,0.6-0.4
					c0.3-0.2,0.6-0.4,0.9-0.6c0.7-0.4,1.2-1,1.7-1.5c0,0,0,0,0,0c-0.1-0.1-0.4-0.3-0.4-0.5c0-0.3,0.2-0.5,0.3-0.7l0.1-0.1l0,0
					c0.3,0.2,0.7,0.9,0.7,1.3v0.1h-0.1c0,0-0.1,0-0.1,0c-0.1,0-0.5,0.4-0.8,0.7c-0.2,0.2-0.4,0.5-0.6,0.6c-0.3,0.2-0.7,0.4-1,0.6
					C447.7,50.3,447.4,50.5,447,50.8L447,50.8L447,50.8z M446.9,50.6C446.9,50.6,446.9,50.6,446.9,50.6c0.4-0.2,0.8-0.4,1.1-0.7
					c0.3-0.2,0.7-0.4,1-0.6c0.1-0.1,0.3-0.3,0.5-0.5c0.4-0.5,0.7-0.8,0.9-0.8c0,0,0,0,0,0l0,0c0,0,0,0,0,0l0,0
					c0.1-0.3-0.3-0.9-0.6-1.2c-0.1,0.2-0.3,0.4-0.3,0.6c0,0.1,0.2,0.3,0.4,0.4l0,0l0,0c0,0,0,0,0,0.1c0,0,0,0,0,0l0,0l0,0
					c-0.5,0.5-1.1,1.1-1.7,1.6c-0.3,0.2-0.6,0.4-0.9,0.6C447.3,50.3,447.1,50.5,446.9,50.6L446.9,50.6z"/>
			</g>
			<g>
				<path class="st8" d="M471.8,47c-0.1,0.2-0.8,1.8-0.2,1.8c0-0.1,0.1-0.2,0.2-0.2v-0.1h0v-0.1c0,0-0.2,0.1-0.2,0h-0.1
					c0.1-0.4,0.4-0.9,0.4-1.3C471.9,47.1,471.9,47,471.8,47"/>
				<path class="st8" d="M471.7,48.9L471.7,48.9c-0.2,0-0.3-0.1-0.3-0.1c-0.2-0.2,0-0.8,0.4-1.7c0,0,0,0,0-0.1l0-0.1l0.1,0.1
					c0,0,0,0,0,0c0,0,0,0,0.1,0.1l0,0v0c0,0.2-0.1,0.5-0.2,0.7c-0.1,0.2-0.2,0.4-0.2,0.5h0v0c0,0,0,0,0,0c0,0,0,0,0,0l0.1,0v0.1h0
					v0.2h-0.1C471.8,48.7,471.7,48.7,471.7,48.9L471.7,48.9L471.7,48.9z M471.4,48.5c0,0.1,0,0.2,0,0.2c0,0,0,0,0.1,0.1
					c0-0.1,0.1-0.1,0.1-0.2h0v0C471.6,48.5,471.5,48.5,471.4,48.5L471.4,48.5L471.4,48.5z M471.8,47.1c-0.2,0.6-0.4,0.9-0.4,1.2
					c0-0.2,0.1-0.4,0.2-0.5C471.8,47.5,471.9,47.3,471.8,47.1C471.9,47.1,471.9,47.1,471.8,47.1L471.8,47.1z"/>
			</g>
			<g>
				<path class="st8" d="M449.9,47.2c0.1,0,0.2,0,0.2,0.1H450c0,0.1,0,0.1,0.1,0.1v0.1c-0.1,0-0.1,0-0.1-0.1
					C450,47.3,449.9,47.3,449.9,47.2"/>
				<path class="st8" d="M450,47.5c0,0-0.1,0-0.1-0.1c0,0-0.1-0.1-0.1-0.1l-0.1-0.2l0.2,0c0,0,0,0,0,0c0.1,0,0.2,0,0.2,0.2l0,0v0.2
					L450,47.5C450.1,47.5,450.1,47.5,450,47.5C450,47.5,450,47.5,450,47.5L450,47.5z"/>
			</g>
			<g>
				<path class="st8" d="M474.6,47.6c-0.3,0.4-0.6,1-0.6,1.5c0,0.2,0.1,0.4,0.1,0.5h0.1v-0.1c0-0.1,0.2-0.3,0.2-0.3v-0.1h0
					c-0.1,0-0.1,0-0.2,0.1C474.2,48.9,474.7,47.8,474.6,47.6"/>
				<path class="st8" d="M474.2,49.8H474l0-0.1c0-0.1,0-0.2,0-0.3c0-0.1,0-0.2,0-0.2v0v0c0-0.6,0.4-1.2,0.7-1.6l0.1-0.1l0.1,0.1
					c0,0.1,0,0.4-0.2,0.8c-0.1,0.3-0.2,0.6-0.2,0.8c0,0,0,0,0.1,0l0,0h0.1v0.2h-0.1c0,0-0.1,0.1-0.2,0.2V49.8L474.2,49.8z M474,49.2
					c0,0.1,0,0.2,0,0.2c0,0.1,0,0.1,0,0.2c0.1-0.1,0.1-0.2,0.2-0.2c0,0,0,0,0,0l-0.1,0l0-0.1c0-0.2,0.1-0.6,0.2-0.9
					c0-0.1,0.1-0.3,0.1-0.4C474.3,48.3,474.1,48.8,474,49.2L474,49.2z"/>
			</g>
			<g>
				<path class="st8" d="M457.7,47.7c-0.3,0.6-0.6,1.4-0.6,2.2c0,0.3,0.2,0.4,0.2,0.6h0v-0.1c0.2-0.1,0.4-0.4,0.4-0.6h0v-0.1
					c-0.1,0-0.1,0-0.1,0.1C456.9,49.9,457.9,48,457.7,47.7"/>
				<path class="st8" d="M457.5,50.6h-0.2v-0.1c0-0.1,0-0.2-0.1-0.2c-0.1-0.1-0.1-0.2-0.1-0.4c-0.1-0.8,0.2-1.5,0.6-2.2l0-0.1
					l0.1,0.1c0.1,0.1,0,0.4-0.1,0.9c-0.1,0.4-0.3,1-0.1,1.2c0,0,0.1,0.1,0.2,0.1c0,0,0,0,0,0c0,0,0,0,0.1,0c0,0,0,0,0,0c0,0,0,0,0,0
					h0.1v0.1h0v0.1C457.9,50,457.7,50.3,457.5,50.6L457.5,50.6L457.5,50.6z M457.6,48c-0.3,0.6-0.5,1.2-0.4,1.9
					c0,0.1,0.1,0.2,0.1,0.3c0,0.1,0.1,0.1,0.1,0.2c0.1-0.1,0.3-0.3,0.4-0.5h0c-0.2,0-0.3,0-0.4-0.1c-0.2-0.2,0-0.8,0.1-1.3
					C457.6,48.3,457.6,48.1,457.6,48L457.6,48z"/>
			</g>
			<g>
				<path class="st8" d="M437,47.8c-0.3,0.5-0.7,1.3-0.6,1.9c0.1,0.2,0.1,0.4,0.2,0.6h0.1v-0.1c0.1-0.1,0.3-0.3,0.3-0.5
					c-0.1,0-0.2,0.1-0.3,0.1v-0.1h-0.1c0-0.1,0-0.7,0.1-0.7C436.7,48.7,437.2,48.2,437,47.8"/>
				<path class="st8" d="M436.7,50.4h-0.2l0-0.1c0-0.2-0.1-0.4-0.2-0.6l0,0c0-0.7,0.4-1.4,0.7-1.9l0.1-0.1l0.1,0.1
					c0.1,0.3,0,0.6-0.2,0.9c-0.1,0.2-0.1,0.3-0.2,0.5l0,0.1h0c0,0,0,0.2,0,0.5h0.1v0c0,0,0,0,0,0c0.1,0,0.1,0,0.2-0.1l0.1,0v0.1
					c0,0.1-0.1,0.3-0.3,0.5V50.4L436.7,50.4z M436.5,49.7c0.1,0.2,0.1,0.3,0.1,0.5l0,0c0.1-0.1,0.2-0.2,0.2-0.3c0,0,0,0,0,0
					c0,0-0.1,0-0.1,0l-0.1,0v-0.1h0L436.5,49.7c0.1-0.3,0.1-0.5,0.2-0.6c0,0,0,0,0,0c0-0.1,0.1-0.3,0.2-0.5c0.1-0.2,0.2-0.4,0.2-0.6
					C436.8,48.5,436.5,49.1,436.5,49.7L436.5,49.7z"/>
			</g>
			<g>
				<path class="st8" d="M434.1,48.1c-0.5,1-1.2,2.1-1,3.3c0,0.1,0.1,0.4,0.2,0.4c-0.7,2-1.1,5,2,5c0.1,0,0.2,0,0.3,0
					c0.3-0.1,0.7-0.2,1-0.3c0.9-0.3,4.5-2,3.9-3.4c-0.4-0.8-2.7-0.6-2.8-1.6c0-0.5,1.3-1.9,1.8-1.4c0,0.1,0.1,0.1,0.1,0.2h0.1
					c0.1-0.2,0.2-0.5,0.2-0.8c-0.2-0.7-1.2,0-1.4,0.3c-0.6,0.6-1.6,2-0.8,2.9c0.5,0.5,1.2,0.6,1.8,0.8c0.2,0.1,0.7,0.4,0.6,0.4
					c-0.2,0.5-1.1,0.8-1.5,1c-1.3,0.7-3.4,1.8-4.9,0.7c-0.5-0.4-0.7-1-0.7-1.7c0-0.8,0.2-1.6,0.7-2.1c0.1-0.1,0.7-1.1,0.5-1.1v-0.1
					h0v0.1c-0.5,0.6-0.9,0.3-0.8-0.5c0-0.3,0.7-1.9,0.9-1.9C434.2,48.2,434.1,48.1,434.1,48.1"/>
				<path class="st8" d="M435.3,56.9L435.3,56.9c-1,0-1.7-0.3-2.2-0.9c-0.8-1.1-0.3-3.1,0.1-4.2c-0.1-0.1-0.2-0.5-0.2-0.5
					c-0.2-1,0.2-1.9,0.7-2.8c0.1-0.2,0.2-0.4,0.3-0.6l0-0.1l0.1,0.1c0,0,0,0,0.1,0.1c0.1,0,0.1,0.1,0.1,0.1l0.1,0.1h-0.2
					c-0.1,0.1-0.8,1.6-0.8,1.8c0,0.3,0,0.6,0.1,0.7c0.1,0.1,0.3,0,0.5-0.2v-0.1h0.2v0.1c0,0,0,0,0,0c0.1,0.2-0.5,1.2-0.5,1.2l0,0
					c-0.4,0.5-0.7,1.2-0.7,2.1c0,0.7,0.2,1.3,0.7,1.6c0.4,0.3,0.9,0.5,1.5,0.5l0,0c1.1,0,2.2-0.6,3.1-1c0.1,0,0.1-0.1,0.2-0.1
					c0.1,0,0.2-0.1,0.3-0.1c0.4-0.2,1-0.4,1.2-0.8c-0.1-0.1-0.4-0.3-0.6-0.3c-0.1,0-0.3-0.1-0.4-0.1c-0.5-0.1-1-0.3-1.4-0.7
					c-1-0.9,0.3-2.5,0.8-3c0.2-0.2,0.7-0.6,1.1-0.6c0.2,0,0.4,0.1,0.4,0.3c0.1,0.2,0,0.4-0.1,0.6c0,0.1,0,0.1-0.1,0.2l0,0h-0.2l0,0
					c0,0,0-0.1-0.1-0.1c0,0,0-0.1-0.1-0.1c-0.1,0-0.1-0.1-0.2-0.1c-0.3,0-0.7,0.2-1,0.6c-0.3,0.3-0.5,0.6-0.5,0.8
					c0,0.5,0.7,0.7,1.4,0.9c0.6,0.2,1.2,0.3,1.4,0.7c0.1,0.2,0.1,0.5,0,0.8c-0.6,1.4-3.9,2.7-3.9,2.7c-0.3,0.1-0.7,0.2-1,0.3
					C435.6,56.9,435.5,56.9,435.3,56.9L435.3,56.9L435.3,56.9z M434.1,48.2c-0.1,0.2-0.2,0.4-0.3,0.5c-0.4,0.8-0.9,1.7-0.6,2.7
					c0,0.1,0.1,0.4,0.2,0.4h0.1l0,0.1c-0.4,1.1-0.9,3-0.1,4.1c0.4,0.6,1.1,0.8,2,0.8c0.1,0,0.2,0,0.3,0c0.3-0.1,0.7-0.2,1-0.3
					c0.8-0.3,3.4-1.5,3.9-2.6c0.1-0.2,0.1-0.4,0-0.6c-0.2-0.3-0.7-0.5-1.3-0.6c-0.7-0.2-1.5-0.4-1.5-1c0-0.3,0.3-0.7,0.5-0.9
					c0.4-0.4,0.8-0.6,1.1-0.6c0.1,0,0.2,0,0.3,0.1l0,0c0,0,0,0.1,0.1,0.1c0,0,0,0,0,0.1h0c0,0,0-0.1,0.1-0.1
					c0.1-0.2,0.1-0.4,0.1-0.5c0-0.2-0.1-0.2-0.3-0.2c-0.3,0-0.8,0.4-1,0.6c-0.4,0.4-1.7,1.9-0.8,2.8c0.4,0.4,0.8,0.5,1.3,0.6
					c0.1,0,0.3,0.1,0.4,0.1c0.1,0,0.3,0.2,0.4,0.2c0.3,0.2,0.3,0.2,0.3,0.2l0,0.1l0,0c-0.2,0.4-0.8,0.7-1.2,0.9
					c-0.1,0-0.2,0.1-0.3,0.1c-0.1,0-0.1,0.1-0.2,0.1c-0.9,0.5-2.1,1.1-3.2,1.1l0,0c-0.6,0-1.1-0.2-1.5-0.5c-0.5-0.4-0.7-0.9-0.7-1.7
					c0-0.9,0.2-1.7,0.7-2.2c0.1-0.2,0.4-0.8,0.5-1c-0.2,0.2-0.3,0.3-0.5,0.3c-0.1,0-0.2,0-0.2-0.1c-0.1-0.1-0.2-0.4-0.1-0.8
					c0-0.1,0.2-0.7,0.4-1.1C434,48.5,434.1,48.3,434.1,48.2C434.2,48.2,434.1,48.2,434.1,48.2C434.1,48.2,434.1,48.2,434.1,48.2
					L434.1,48.2z"/>
			</g>
			<g>
				<path class="st8" d="M446.7,48.3c-0.1,0.2-0.3,0.9,0.1,0.8C447.4,49.1,447.1,48.4,446.7,48.3"/>
				<path class="st8" d="M446.8,49.2L446.8,49.2c-0.1,0-0.2-0.1-0.2-0.1c-0.1-0.2,0-0.7,0.1-0.8l0-0.1l0.1,0
					c0.3,0.1,0.5,0.4,0.5,0.7C447.2,49,447.1,49.2,446.8,49.2C446.8,49.2,446.8,49.2,446.8,49.2L446.8,49.2z M446.7,48.4
					c-0.1,0.2-0.2,0.5-0.1,0.6c0,0,0,0.1,0.1,0.1l0,0c0,0,0,0,0,0c0.1,0,0.2-0.1,0.2-0.2C447.1,48.7,446.9,48.4,446.7,48.4
					L446.7,48.4z"/>
			</g>
			<g>
				<path class="st8" d="M446.7,48.6c0.1,0.1,0.3,0.1,0.3,0.3h0v0c-0.1,0-0.1,0-0.1,0C446.8,48.8,446.7,48.7,446.7,48.6"/>
				<path class="st8" d="M446.9,49c0,0-0.1,0-0.1-0.1c0,0,0-0.1,0-0.1c0-0.1,0-0.1-0.1-0.2l-0.1-0.2l0.2,0.1
					c0.1,0.1,0.3,0.2,0.3,0.3V49h0v0L446.9,49C446.9,49,446.9,49,446.9,49C446.9,49,446.9,49,446.9,49L446.9,49z"/>
			</g>
			<g>
				<path class="st8" d="M453.2,49.4c-0.3,0.6-0.9,1.8-0.5,2.5c0.2,0.3,0.6-0.1,0.6-0.3c0,0,0,0,0-0.1h0v0h-0.1
					c-0.1,0-0.2,0.1-0.3,0.2C452.6,50.8,453.4,50.1,453.2,49.4"/>
				<path class="st8" d="M452.9,52.2c-0.1,0-0.2,0-0.3-0.2c-0.4-0.7,0-1.8,0.5-2.6l0.1-0.1l0.1,0.2c0.1,0.3,0,0.6-0.1,1
					c-0.1,0.4-0.3,0.8-0.1,1.2c0.1,0,0.1-0.1,0.2-0.1l0,0h0.2v0.1h0.1v0.1c0,0,0,0,0,0.1c0,0,0,0-0.1,0.1
					C453.4,51.9,453.2,52.2,452.9,52.2L452.9,52.2z M453.2,49.6c-0.4,0.7-0.7,1.7-0.4,2.3c0,0.1,0.1,0.1,0.1,0.1
					c0.1,0,0.2-0.1,0.2-0.1c0.1-0.1,0.1-0.2,0.1-0.2v0h0c-0.1,0.1-0.2,0.1-0.2,0.1l-0.1,0l0-0.1c-0.3-0.5-0.1-1,0.1-1.4
					C453.1,50.1,453.2,49.9,453.2,49.6L453.2,49.6z"/>
			</g>
			<g>
				<path class="st8" d="M444,49.8c-0.4,1.8,2.9,2.4,2.9,3.4c0,0.6-3.9,2.7-4.6,2.4c-0.6-0.3-0.5-1-0.4-1.6c0,0,0.1-0.1,0-0.1v-0.1
					h-0.1v0.1c-0.6,1-0.4,2.6,1,2.6c0.2-0.1,1.2-0.5,1.2-0.6c0.1,0,0.1,0,0.2,0.1c0.8-1.1,3.1-1.3,3-3.1c0-0.5-0.4-0.9-0.8-1.1
					c-0.2-0.1-1.6-0.9-1.6-1.1c0.1,0,0.2,0,0.2-0.1v-0.2C444.7,50.2,444.3,50,444,49.8"/>
				<path class="st8" d="M442.8,56.6L442.8,56.6c-0.7,0-1.1-0.4-1.3-0.7c-0.3-0.6-0.2-1.4,0.2-2v-0.1h0.2v0.1c0,0,0,0,0,0
					c0,0.1,0,0.1,0,0.2c0,0,0,0,0,0c-0.1,0.6-0.1,1.3,0.4,1.5c0,0,0.1,0,0.2,0l0,0c0.9,0,3.6-1.4,4.2-2.1c0.1-0.1,0.1-0.2,0.1-0.2
					c0-0.4-0.6-0.8-1.2-1.1c-0.9-0.6-2-1.2-1.7-2.3l0-0.1l0.1,0c0.2,0.1,0.5,0.3,0.8,0.4c0.1,0,0.2,0.1,0.3,0.1l0,0v0.3l0,0
					c0,0-0.1,0-0.1,0c0,0,0,0,0,0c0.1,0.1,0.3,0.4,1.5,1l0,0c0.4,0.2,0.8,0.6,0.9,1.2c0.1,1.2-0.8,1.7-1.7,2.2c-0.5,0.3-1,0.6-1.3,1
					l0,0l0,0c0,0-0.1,0-0.1,0l0,0c-0.1,0.1-0.3,0.2-0.9,0.4C443,56.5,442.9,56.5,442.8,56.6L442.8,56.6L442.8,56.6z M441.8,54
					c-0.4,0.6-0.4,1.3-0.1,1.9c0.2,0.4,0.6,0.6,1.1,0.6c0.1,0,0.2-0.1,0.3-0.1c0.3-0.1,0.8-0.3,0.9-0.4v-0.1l0.1,0c0,0,0.1,0,0.1,0
					c0.3-0.4,0.8-0.7,1.3-1c0.9-0.5,1.8-1,1.7-2.1c0-0.5-0.4-0.9-0.8-1.1l0,0c-1.6-0.9-1.6-1.1-1.6-1.2v-0.1l0,0c0,0,0.1,0,0.1,0
					c0,0,0.1,0,0.1,0v-0.1c-0.1,0-0.2-0.1-0.2-0.1c-0.2-0.1-0.5-0.2-0.7-0.3c-0.1,0.9,0.8,1.5,1.7,2.1c0.7,0.4,1.2,0.8,1.3,1.2
					c0,0.1-0.1,0.2-0.2,0.3c-0.7,0.8-3.4,2.2-4.3,2.2l0,0c-0.1,0-0.2,0-0.2,0C441.7,55.4,441.7,54.7,441.8,54
					C441.8,54,441.8,54,441.8,54C441.8,54,441.8,54,441.8,54L441.8,54L441.8,54z"/>
			</g>
			<g>
				<path class="st8" d="M470.3,49.8L470.3,49.8c-0.2,0.2-0.4,0.5-0.4,0.7h1.3c0,0.1,0,0.1-0.1,0.1c-0.2,0.1-1.3,0.7-1.3,0.7h-0.1
					v0.1h0.4c0.2,0,0.3,0,0.5-0.1c0.5-0.3,0.9-0.8,1.2-1.3c0.1,0,0.1-0.1,0.1-0.1v-0.1h0v-0.1C471.4,49.8,470.9,49.8,470.3,49.8"/>
				<path class="st8" d="M470.2,51.5h-0.5v-0.2h0.1c0.1-0.1,0.3-0.2,0.8-0.5c0.2-0.1,0.4-0.2,0.5-0.2h-1.3v-0.1
					c0-0.3,0.2-0.6,0.4-0.7v-0.1l0.1,0c0.2,0,0.5,0,0.7,0c0.3,0,0.6,0,0.9,0l0.1,0v0.1h0V50l0,0c0,0-0.1,0.1-0.1,0.1
					c-0.3,0.6-0.7,1-1.2,1.3l0,0l0,0c-0.1,0-0.1,0-0.2,0C470.4,51.5,470.3,51.5,470.2,51.5L470.2,51.5L470.2,51.5z M470,51.4h0.2
					c0.1,0,0.2,0,0.3,0c0.1,0,0.1,0,0.2,0c0.5-0.3,0.9-0.7,1.2-1.3l0,0l0,0c0,0,0.1-0.1,0.1-0.1v0v0h0v-0.1c-0.3,0-0.5,0-0.8,0
					c-0.2,0-0.5,0-0.7,0v0l0,0c-0.2,0.1-0.4,0.4-0.4,0.6h1.3v0.1c0,0,0,0,0,0c0,0,0,0.1,0,0.1c0,0-0.1,0-0.1,0
					c-0.1,0-0.3,0.1-0.5,0.3C470.5,51.1,470.2,51.3,470,51.4L470,51.4z"/>
			</g>
			<g>
				<path class="st8" d="M467.6,50.8L467.6,50.8c-0.4,0.3-0.4,0.9-0.4,1.4h-0.1c-0.1-0.4-0.3-1.1-0.8-1c-0.1,0-0.1,0-0.1,0.1
					c0,0.3,0.4,0.4,0.5,0.5c0.6,0.7,0.2,1.4-0.4,1.8c-0.3,0.2-0.6,0.4-0.9,0.6c0,0.1,0,0.1,0.1,0.1v0c1.4-0.5,1.7-1,2-2.5
					c0.1-0.2,0.2-0.4,0.3-0.6h0.1v0.1c0,0.1,0.1,0.2,0.1,0.3h0.1v-0.1h0C467.9,51.1,467.8,50.9,467.6,50.8"/>
				<path class="st8" d="M465.3,54.4L465.3,54.4C465.3,54.3,465.3,54.3,465.3,54.4c-0.1-0.1,0-0.2,0-0.2c0,0,0,0,0,0v0l0,0
					c0.1-0.1,0.2-0.2,0.4-0.2c0.2-0.1,0.4-0.2,0.5-0.4c0.4-0.2,0.7-0.6,0.7-0.9c0-0.3,0-0.5-0.3-0.8c-0.1-0.1-0.1-0.1-0.2-0.2
					c-0.1-0.1-0.3-0.2-0.3-0.4v0c0-0.1,0.1-0.1,0.2-0.1c0.5-0.1,0.7,0.6,0.8,0.9c0-0.4,0.1-0.9,0.4-1.2v-0.1l0.1,0.1
					c0.3,0.1,0.4,0.4,0.4,0.7l0,0.1h0v0.1h-0.2l0-0.1c0-0.1,0-0.1-0.1-0.2l0-0.1c0,0.1-0.1,0.2-0.1,0.3c0,0.1,0,0.1-0.1,0.2
					C467.1,53.3,466.8,53.8,465.3,54.4L465.3,54.4L465.3,54.4z M467,52.3c0,0.1,0,0.2,0,0.4c-0.1,0.4-0.3,0.7-0.8,1
					c-0.2,0.1-0.4,0.2-0.5,0.3c-0.1,0.1-0.2,0.1-0.3,0.2c1.1-0.4,1.5-0.8,1.7-1.9H467L467,52.3z M466.2,51.2c0,0.1,0.1,0.2,0.3,0.3
					c0.1,0.1,0.2,0.1,0.2,0.2c0.1,0.1,0.2,0.3,0.3,0.4c-0.1-0.4-0.3-1-0.7-1C466.3,51.2,466.3,51.2,466.2,51.2L466.2,51.2
					C466.3,51.2,466.2,51.2,466.2,51.2L466.2,51.2z M467.6,50.9L467.6,50.9c-0.3,0.2-0.4,0.6-0.4,1c0-0.1,0-0.1,0-0.2l0,0
					c0-0.1,0.1-0.1,0.1-0.2c0.1-0.1,0.1-0.3,0.2-0.4l0,0h0.2v0.1l0,0c0,0,0,0.1,0,0.1h0C467.8,51.1,467.8,51,467.6,50.9L467.6,50.9z
					"/>
			</g>
			<g>
				<path class="st8" d="M458,51.2c-0.3,0.8,0.2,1.6,0.6,2.2c0.1,0.2,0.2,0.5,0.4,0.7c0,0.1,0.1,0.3,0,0.3c-0.3,0.6-1,0.9-1.5,1.2
					c-1.4,0.9-4.5,2.4-5.6,0.1c-0.2-0.6-0.2-1.6,0-2.2c0.1-0.2,0.2-0.5,0.3-0.7v-0.1h-0.1v-0.1c-0.1,0,0,0,0,0.1h-0.1
					c-1.1,2.1-0.9,5,2.2,5c0.1,0,0.3,0,0.4-0.1c0.1,0,0.2,0,0.3-0.1c0.5-0.3,1.1-0.4,1.6-0.6c0.9-0.4,2.8-1.8,2.7-3
					c0-0.4-0.2-0.8-0.4-1.1c-0.2-0.3-0.3-0.6-0.5-0.9h0c0.1,0,0.1-0.1,0.2-0.1C458.4,51.7,458.2,51.5,458,51.2"/>
				<path class="st8" d="M454.3,57.9L454.3,57.9c-1.1,0-1.9-0.4-2.4-1.1c-0.6-1-0.5-2.6,0.2-4l0,0h0c0,0,0,0,0,0l0,0h0c0,0,0,0,0,0
					c0,0,0,0,0,0h0.1v0h0.1v0.2v0c0,0.1-0.1,0.2-0.1,0.3c0,0.1-0.1,0.2-0.2,0.4c-0.2,0.6-0.3,1.6,0,2.1c0.3,0.8,1,1.2,1.9,1.2l0,0
					c1.4,0,3.1-1,3.6-1.3l0.1,0c0.5-0.3,1.1-0.6,1.4-1.2l0,0h0c0,0,0-0.1,0-0.1c0,0,0,0,0,0c0-0.1-0.1-0.2-0.1-0.3
					c-0.1-0.1-0.1-0.3-0.2-0.4c-0.4-0.7-0.9-1.5-0.6-2.3l0-0.1l0.1,0.1c0.1,0.1,0.3,0.3,0.4,0.4c0.1,0.1,0.2,0.2,0.2,0.2l0.1,0.1
					l-0.1,0c0,0-0.1,0.1-0.1,0.1c0,0,0,0-0.1,0c0.1,0.2,0.2,0.3,0.3,0.5c0.1,0.1,0.1,0.2,0.2,0.3c0.2,0.4,0.3,0.8,0.4,1.2
					c0.1,1.3-1.8,2.6-2.7,3.1c-0.2,0.1-0.5,0.2-0.7,0.3c-0.3,0.1-0.6,0.2-0.8,0.3l0,0c-0.1,0-0.2,0-0.2,0c0,0-0.1,0-0.1,0
					c-0.1,0-0.1,0-0.2,0C454.4,57.9,454.4,57.9,454.3,57.9L454.3,57.9L454.3,57.9z M452.2,52.8c-0.7,1.4-0.7,2.9-0.2,3.8
					c0.4,0.7,1.2,1.1,2.3,1.1c0,0,0.1,0,0.1,0c0.1,0,0.1,0,0.2,0c0,0,0.1,0,0.1,0c0.1,0,0.1,0,0.2,0c0.3-0.1,0.5-0.2,0.8-0.3
					c0.2-0.1,0.5-0.2,0.7-0.3c1-0.5,2.7-1.8,2.6-2.9c0-0.4-0.1-0.7-0.4-1.1c-0.1-0.1-0.1-0.2-0.2-0.3c-0.1-0.2-0.2-0.4-0.3-0.5
					l-0.1-0.1h0.2c0,0,0,0,0.1,0c0,0,0,0,0,0c-0.1-0.1-0.1-0.1-0.2-0.2c-0.1-0.1-0.2-0.2-0.3-0.3c-0.2,0.7,0.2,1.4,0.7,2
					c0.1,0.1,0.2,0.3,0.2,0.4c0,0.1,0.1,0.2,0.1,0.3l0,0c0,0,0,0,0,0c0,0.1,0.1,0.2,0,0.3c0,0,0,0,0,0c-0.3,0.5-0.9,0.9-1.4,1.2
					l-0.1,0c-0.5,0.3-2.2,1.3-3.6,1.3l0,0c-1,0-1.6-0.4-2-1.3c-0.3-0.6-0.2-1.6,0-2.2c0.1-0.1,0.1-0.2,0.2-0.4
					C452.2,53.1,452.2,53,452.2,52.8L452.2,52.8L452.2,52.8L452.2,52.8z"/>
			</g>
			<g>
				<path class="st8" d="M455.1,51.7c-0.2,0.5-0.1,1.3,0.6,1.3c0-0.1,0.2-0.6,0.3-0.6v-0.1C455.7,52.1,455.4,51.9,455.1,51.7"/>
				<path class="st8" d="M455.7,53.1L455.7,53.1c-0.3,0-0.5-0.1-0.7-0.3c-0.2-0.3-0.2-0.7-0.1-1.1l0-0.1l0.1,0
					c0.1,0,0.2,0.1,0.2,0.1c0.2,0.1,0.5,0.3,0.7,0.4l0,0v0.2H456C456,52.4,455.9,52.5,455.7,53.1L455.7,53.1L455.7,53.1z
					 M455.1,51.8c-0.1,0.3-0.1,0.7,0.1,0.9c0.1,0.1,0.3,0.2,0.5,0.2c0.1-0.4,0.2-0.6,0.3-0.6v0c-0.2-0.1-0.5-0.3-0.7-0.4
					C455.2,51.9,455.2,51.9,455.1,51.8L455.1,51.8z"/>
			</g>
			<g>
				<path class="st8" d="M462.9,51.7c-0.1,0.2-0.2,0.4-0.3,0.6c-0.1,0-0.1,0-0.1-0.1c-0.4-0.2-0.9-0.6-0.9,0.4
					c0.2,0.1,0.5,0.5,0.7,0.5c0-0.1,0.1-0.4,0.3-0.5c0.2-0.1,0.8,0.3,0.8,0.4h0.1v-0.1C463.8,52.3,463.5,52,462.9,51.7"/>
				<path class="st8" d="M462.4,53.2L462.4,53.2c-0.3,0-0.5-0.2-0.7-0.3c-0.1-0.1-0.1-0.1-0.2-0.1l0,0v0c0-0.2,0-0.7,0.4-0.7
					c0.2,0,0.3,0.1,0.5,0.2c0,0,0.1,0,0.1,0.1l0,0v0c0.1-0.1,0.1-0.2,0.2-0.3c0-0.1,0.1-0.2,0.1-0.2l0-0.1l0.1,0
					c0.4,0.2,0.6,0.3,0.7,0.6c0.1,0.2,0.1,0.4,0,0.7v0.2h-0.3V53c0-0.1-0.4-0.3-0.7-0.3c0,0,0,0,0,0
					C462.6,52.7,462.5,52.9,462.4,53.2L462.4,53.2L462.4,53.2z M461.7,52.6c0,0,0.1,0.1,0.1,0.1c0.1,0.1,0.3,0.3,0.5,0.3
					c0-0.1,0.1-0.4,0.3-0.4c0,0,0.1,0,0.1,0c0.2,0,0.6,0.2,0.8,0.4v0l0,0c0.1-0.2,0.1-0.4,0.1-0.6c-0.1-0.2-0.3-0.3-0.6-0.5
					c0,0.1-0.1,0.1-0.1,0.2c-0.1,0.1-0.1,0.2-0.2,0.4l0,0h0c0,0,0,0,0,0c0,0,0,0,0,0c0,0-0.1,0-0.1,0c0,0,0,0,0-0.1c0,0,0,0-0.1,0
					c-0.2-0.1-0.3-0.2-0.5-0.2C461.9,52.1,461.7,52.1,461.7,52.6L461.7,52.6z"/>
			</g>
			<g>
				<path class="st8" d="M435.3,52.7c0,0,0,0.1,0,0.1V53c0,0.3,0.4,0.6,0.5,0.9c0.2,0.5,0.2,1,0.2,1.5c0,0.1,0,0.3,0.1,0.3
					C436.2,54.6,436.3,53.3,435.3,52.7"/>
				<path class="st8" d="M436.2,55.8L436.2,55.8c-0.2,0-0.2-0.2-0.2-0.3l0-0.1c0-0.5-0.1-1-0.2-1.4c0-0.1-0.1-0.2-0.2-0.3
					c-0.1-0.2-0.3-0.4-0.3-0.6l0,0l0-0.2c0,0,0,0,0,0c0,0,0-0.1,0-0.1l0-0.1l0.1,0.1C436.3,53.3,436.3,54.5,436.2,55.8L436.2,55.8
					L436.2,55.8z M435.4,53c0,0.2,0.1,0.3,0.3,0.5c0.1,0.1,0.2,0.2,0.2,0.3c0.2,0.4,0.2,0.9,0.2,1.4c0.1-1,0-1.9-0.7-2.4v0V53
					L435.4,53z"/>
			</g>
			<g>
				<path class="st8" d="M451.1,51.1c-0.2-0.2-0.3-0.4-0.4-0.6c0-0.1,0-0.1,0.1-0.1c0.4-0.2-0.3-0.6-0.5-0.7
					c-0.4,1.3,1.7,2.5,0.3,3.1c-0.8,0.3-1.1-1.3-2-0.5c-0.3,0.3-0.4,0.9-0.1,1.3c0.3,0.4,1,0.4,1.4,0.3c0,0,0.1-0.1,0.1,0
					c0.1,0.3-0.2,0.6-0.4,0.7c-1.8,1.5-3.9,2.6-6,3.4c-0.2,0.1-0.5,0.2-0.7,0.3c0,0.1,0,0.1,0,0.1v0c0.5-0.2,1.1-0.4,1.6-0.4
					c0.3-0.1,0.7-0.1,1-0.2c1.4-0.8,3.1-1.5,4.2-2.8c0.3-0.4,0.3-0.9,0.6-1.3c0.2-0.2,0.5-0.4,0.7-0.6
					C451.6,52.7,451.4,51.7,451.1,51.1 M449.4,53.1c-0.3,0-0.5-0.1-0.8-0.2c0-0.1,0-0.1,0.1-0.1c0,0,0-0.1,0-0.1
					c0.1,0,0.6,0.1,0.6,0.3h0.1V53.1z"/>
				<path class="st8" d="M442.7,58.5L442.7,58.5C442.7,58.5,442.7,58.5,442.7,58.5c0-0.1,0-0.2,0-0.2c0,0,0,0,0,0v0l0.1,0
					c0.2-0.1,0.4-0.2,0.6-0.3l0,0c2.3-0.8,4.3-2,6-3.4c0.2-0.2,0.4-0.4,0.4-0.6c0,0,0,0,0,0c-0.2,0-0.4,0.1-0.6,0.1
					c-0.4,0-0.8-0.1-0.9-0.4c-0.3-0.4-0.2-1.1,0.2-1.4c0.2-0.2,0.4-0.3,0.5-0.3c0.3,0,0.5,0.2,0.7,0.4c0.2,0.2,0.4,0.4,0.6,0.4
					c0.1,0,0.1,0,0.2,0c0.2-0.1,0.4-0.2,0.4-0.4c0.1-0.3-0.1-0.6-0.3-1c-0.3-0.5-0.6-1.1-0.5-1.7l0-0.1l0.1,0
					c0.1,0.1,0.6,0.4,0.6,0.6c0,0.1,0,0.2-0.1,0.2l0,0c0,0,0,0,0,0c0,0,0,0,0,0c0.1,0.1,0.2,0.3,0.3,0.4l0.1,0.1
					c0.3,0.6,0.6,1.6-0.1,2.2c-0.1,0.1-0.3,0.2-0.4,0.3c-0.1,0.1-0.2,0.2-0.4,0.3c-0.1,0.2-0.2,0.4-0.3,0.6
					c-0.1,0.2-0.2,0.5-0.3,0.7c-0.9,1.1-2.2,1.8-3.4,2.4c-0.3,0.1-0.6,0.3-0.8,0.4l0,0l0,0c-0.2,0-0.4,0.1-0.6,0.1
					c-0.1,0-0.3,0-0.4,0.1l0,0c-0.4,0-0.8,0.1-1.2,0.3C443,58.4,442.9,58.5,442.7,58.5L442.7,58.5L442.7,58.5z M443.5,58.1
					c-0.2,0.1-0.3,0.2-0.5,0.2c0.1,0,0.1,0,0.2-0.1c0.4-0.1,0.8-0.3,1.3-0.3c0.1,0,0.3,0,0.4-0.1c0.2,0,0.4-0.1,0.6-0.1
					c0.3-0.1,0.5-0.3,0.8-0.4c1.2-0.6,2.5-1.3,3.4-2.4c0.2-0.2,0.2-0.4,0.3-0.6c0.1-0.2,0.1-0.4,0.3-0.6l0,0
					c0.1-0.1,0.2-0.2,0.4-0.3c0.1-0.1,0.2-0.2,0.4-0.3c0.6-0.5,0.3-1.5,0-2l-0.1-0.1c-0.1-0.2-0.2-0.3-0.4-0.5l0,0v0c0,0,0,0,0,0
					c0,0,0-0.1,0-0.1c0,0,0,0,0.1,0c0.1,0,0.1-0.1,0.1-0.1c0-0.1-0.2-0.3-0.5-0.5c-0.1,0.5,0.2,1,0.5,1.5c0.3,0.4,0.5,0.8,0.4,1.1
					c-0.1,0.2-0.2,0.3-0.5,0.5c-0.1,0-0.1,0-0.2,0c-0.3,0-0.5-0.2-0.7-0.4c-0.2-0.2-0.4-0.4-0.6-0.4c-0.1,0-0.3,0.1-0.4,0.2
					c-0.3,0.3-0.4,0.9-0.1,1.2c0.2,0.2,0.5,0.3,0.8,0.3c0.2,0,0.4,0,0.5-0.1c0,0,0,0,0,0c0,0,0,0,0.1,0c0,0,0.1,0,0.1,0.1
					c0.1,0.4-0.2,0.7-0.4,0.8C447.8,56.1,445.8,57.2,443.5,58.1L443.5,58.1z M449.5,53.2L449.5,53.2c-0.2,0-0.4-0.1-0.5-0.1
					c-0.1,0-0.2-0.1-0.4-0.1l-0.1,0V53c0,0,0,0,0,0c0,0,0-0.1,0-0.1c0,0,0,0,0,0c0,0,0,0,0-0.1l0-0.1l0.1,0c0,0,0.1,0,0.1,0
					c0.3,0.1,0.5,0.1,0.6,0.2h0.1V53.2L449.5,53.2z M448.7,52.9c0.1,0,0.2,0,0.3,0.1c0.1,0,0.2,0,0.3,0.1v0
					C449.3,53,449.1,52.9,448.7,52.9C448.8,52.9,448.8,52.9,448.7,52.9C448.8,52.9,448.7,52.9,448.7,52.9
					C448.7,52.9,448.7,52.9,448.7,52.9L448.7,52.9L448.7,52.9z"/>
			</g>
			<g>
				<path class="st8" d="M454.8,53.9c-0.3,0.4-0.6,0.9-0.6,1.5c0,0.2,0,0.3,0.1,0.5h0.2c0-0.1,0.3-0.4,0.2-0.4v-0.1h0
					c-0.1,0-0.1,0.1-0.2,0.1v-0.1h0c0-0.3,0.5-1.5,0.4-1.5C454.8,53.9,454.8,53.9,454.8,53.9"/>
				<path class="st8" d="M454.5,56h-0.3l0-0.1c0-0.2-0.1-0.4-0.1-0.5v0v0c0-0.7,0.4-1.3,0.6-1.5l0-0.1l0.1,0c0,0,0,0,0.1,0h0l0,0
					c0,0,0,0-0.1,0.4c-0.1,0.3-0.3,0.8-0.3,1h0v0c0,0,0,0,0.1,0l0,0h0.1v0.1c0,0,0,0,0,0C454.8,55.6,454.6,55.8,454.5,56L454.5,56
					L454.5,56z M454.3,55.8h0.1c0.1-0.1,0.1-0.2,0.2-0.3l0,0v-0.1c0,0-0.1,0-0.1,0.1l-0.1,0.1v-0.1h-0.1l0-0.1
					c0-0.2,0.2-0.7,0.3-1.1c0-0.1,0.1-0.2,0.1-0.3c0,0,0,0,0,0c-0.3,0.4-0.5,1-0.5,1.4C454.3,55.5,454.3,55.7,454.3,55.8L454.3,55.8
					z"/>
			</g>
			<g>
				<path class="st8" d="M450,56.1c-0.2,0.5-0.2,0.7,0.2,1.1c0,0,0.1,0.1,0.1,0.1v0c0.2-0.2,0.4-0.5,0.4-0.7
					C450.5,56.3,450.3,56.2,450,56.1"/>
				<path class="st8" d="M450.4,57.4l-0.1-0.1c0,0,0,0-0.1,0l0,0c-0.4-0.4-0.5-0.6-0.2-1.2l0-0.1l0.1,0c0.3,0.1,0.5,0.2,0.7,0.3
					c0,0,0.1,0,0.1,0.1l0,0v0c0,0.3-0.3,0.7-0.4,0.8V57.4L450.4,57.4z M450.1,56.2c-0.2,0.4-0.1,0.6,0.2,1l0,0
					c0.1-0.1,0.4-0.4,0.4-0.6c0,0,0,0-0.1,0C450.5,56.4,450.3,56.3,450.1,56.2L450.1,56.2z"/>
			</g>
			<g>
				<path class="st8" d="M460.5,56.3c-0.1,0.1-1,1.8-0.3,1.8v-0.1c0.1-0.1,0.2-0.2,0.3-0.4h-0.1c0,0-0.2,0.1-0.2,0h-0.1
					C460.3,57.3,460.7,56.7,460.5,56.3"/>
				<path class="st8" d="M460.3,58.2L460.3,58.2c-0.2,0-0.3-0.1-0.3-0.1c-0.1-0.2,0-0.8,0.5-1.7c0,0,0,0,0-0.1l0.1-0.1l0.1,0.1
					c0.1,0.3,0,0.6-0.1,0.9c-0.1,0.2-0.1,0.3-0.1,0.4h0v0c0,0,0,0,0,0c0,0,0,0,0,0l0,0h0.2l-0.1,0.1c-0.1,0.1-0.2,0.2-0.3,0.4V58.2
					L460.3,58.2z M460.5,56.5c-0.5,1-0.5,1.4-0.4,1.5c0,0,0,0,0.1,0.1v0l0,0c0.1-0.1,0.1-0.1,0.2-0.2c0,0-0.1,0-0.1-0.1h-0.1l0-0.1
					c0-0.2,0.1-0.4,0.2-0.6C460.4,56.9,460.5,56.7,460.5,56.5L460.5,56.5z"/>
			</g>
			<g>
				<path class="st8" d="M475.3,56.6c-0.1,0.2-0.2,0.4-0.3,0.6c-0.3-0.1-0.5-0.3-0.8-0.4c-0.2,0.3-0.2,1.2,0.4,1.2V58
					c0.1-0.2,0.2-0.3,0.3-0.5c0.2-0.1,0.8,0.3,0.8,0.5h0v-0.1h0.1C476.2,57.1,476,57,475.3,56.6"/>
				<path class="st8" d="M474.7,58.1L474.7,58.1c-0.3,0-0.4-0.1-0.5-0.3c-0.2-0.3-0.2-0.8,0-1.1l0-0.1l0.1,0
					c0.2,0.1,0.3,0.2,0.5,0.2c0.1,0,0.2,0.1,0.3,0.1c0.1-0.1,0.1-0.3,0.2-0.4c0-0.1,0-0.1,0.1-0.2l0-0.1l0.1,0
					c0.7,0.4,1,0.6,0.7,1.4l0,0h0V58h-0.2V58c0-0.1-0.5-0.4-0.7-0.4c0,0,0,0,0,0C474.9,57.7,474.8,57.9,474.7,58.1L474.7,58.1
					L474.7,58.1z M474.2,56.9c-0.1,0.2-0.1,0.6,0,0.9c0.1,0.1,0.2,0.2,0.3,0.2l0,0c0.1-0.2,0.2-0.3,0.3-0.5l0,0l0,0c0,0,0.1,0,0.1,0
					c0.2,0,0.6,0.2,0.8,0.4h0c0.2-0.7,0.1-0.8-0.6-1.2c0,0,0,0.1,0,0.1c-0.1,0.2-0.1,0.3-0.2,0.5l0,0.1l-0.1,0
					c-0.1-0.1-0.2-0.1-0.3-0.2C474.5,57,474.4,57,474.2,56.9L474.2,56.9z"/>
			</g>
			<g>
				<path class="st8" d="M438.9,56.8c-0.1,0.2-0.1,0.3-0.2,0.5c-0.1,0-0.1,0-0.2,0.1c-0.1-0.1-0.6-0.5-0.6-0.4
					c-0.4,0.4-0.1,1.2,0.4,1.2c0.1-0.2,0.1-0.4,0.2-0.5c0.3,0.2,0.6,0.3,0.9,0.5C439.7,57.3,439.7,57.2,438.9,56.8"/>
				<path class="st8" d="M438.3,58.2L438.3,58.2c-0.3,0-0.5-0.2-0.7-0.4c-0.1-0.3-0.1-0.6,0.1-0.9c0,0,0,0,0.1,0
					c0.1,0,0.5,0.3,0.6,0.4c0,0,0.1,0,0.1,0c0-0.1,0.1-0.1,0.1-0.2c0-0.1,0.1-0.2,0.1-0.2l0-0.1l0.1,0c0.8,0.4,0.8,0.5,0.6,1.3
					l0,0.1l-0.1,0c-0.1,0-0.2-0.1-0.2-0.1c-0.2-0.1-0.4-0.2-0.6-0.3c0,0.1,0,0.1-0.1,0.2C438.4,58,438.4,58.1,438.3,58.2L438.3,58.2
					L438.3,58.2z M437.9,57c-0.2,0.2-0.2,0.5-0.1,0.7c0.1,0.2,0.2,0.3,0.4,0.4c0-0.1,0.1-0.2,0.1-0.2c0-0.1,0.1-0.2,0.1-0.2l0-0.1
					l0.1,0c0.2,0.1,0.5,0.2,0.7,0.4c0.1,0,0.1,0.1,0.2,0.1c0.2-0.7,0.2-0.7-0.5-1.1c0,0.1-0.1,0.1-0.1,0.2c0,0.1-0.1,0.2-0.1,0.2
					l0,0l-0.1,0c-0.1,0-0.1,0-0.2,0l0,0l0,0C438.3,57.3,438,57.1,437.9,57L437.9,57z"/>
			</g>
			<g>
				<path class="st8" d="M465.3,57c-0.1,0.2-0.2,0.5-0.2,0.8H465c-0.1-0.3-0.3-0.7-0.7-0.7c0.1,0.5,0.7,0.7,0.7,1.2c0.1,0,0,0,0,0
					h0.1v0c0.1-0.3,0.1-0.6,0.2-1c0.1,0,0.1,0,0.1-0.1h0.1v0.1c0,0.1,0.1,0.1,0.1,0.2h0.1C465.6,57.2,465.5,57.1,465.3,57"/>
				<path class="st8" d="M465.2,58.4h-0.2v0h0v-0.1c0-0.3-0.2-0.4-0.3-0.6c-0.2-0.2-0.3-0.3-0.4-0.6l0-0.1h0.1
					c0.4,0,0.6,0.4,0.7,0.7c0-0.3,0.1-0.5,0.2-0.7l0-0.1l0.1,0c0.3,0.1,0.4,0.2,0.4,0.5l0,0.1h-0.2l0,0c0,0,0,0,0-0.1
					c0,0-0.1-0.1-0.1-0.1c0,0,0,0-0.1,0c0,0.3-0.1,0.6-0.2,0.9V58.4L465.2,58.4z M465,58.2L465,58.2L465,58.2c0-0.1,0.1-0.2,0.1-0.3
					h-0.2C465,58,465,58.1,465,58.2L465,58.2z M464.4,57.2c0.1,0.2,0.2,0.3,0.3,0.4c0.1,0.1,0.2,0.2,0.2,0.3l0,0
					C464.8,57.6,464.7,57.2,464.4,57.2L464.4,57.2z M465.5,57.3C465.5,57.3,465.5,57.4,465.5,57.3C465.5,57.3,465.5,57.3,465.5,57.3
					L465.5,57.3L465.5,57.3z M465.2,57.3L465.2,57.3L465.2,57.3l0.2-0.1c0,0-0.1-0.1-0.2-0.1C465.3,57.2,465.3,57.2,465.2,57.3
					L465.2,57.3z"/>
			</g>
			<g>
				<path class="st8" d="M469.9,57.1L469.9,57.1c0,0.1-0.1,0.2-0.1,0.3c-0.2,0-0.9,0.4-1.1,0.5c-0.3,0.3-0.8,0.9-1.3,0.9v0.1h0.1
					v0.1c0.5-0.2,0.8-0.6,1.3-0.8c0.3-0.2,0.6-0.2,0.9-0.3c0.1,0,0.3,0,0.3-0.1C469.9,57.4,469.9,57.2,469.9,57.1"/>
				<path class="st8" d="M467.4,59L467.4,59L467.4,59l0-0.3h0.1c0.3,0,0.6-0.3,0.9-0.6c0.1-0.1,0.2-0.2,0.3-0.3
					c0.2-0.1,0.8-0.4,1.1-0.5c0,0,0,0,0,0c0,0,0-0.1,0.1-0.1v0l0.1,0c0.1,0.2,0,0.4,0,0.6c0,0.1-0.1,0.1-0.2,0.2c0,0-0.1,0-0.1,0
					c-0.1,0-0.2,0.1-0.3,0.1c-0.2,0.1-0.4,0.1-0.6,0.2c-0.2,0.1-0.4,0.2-0.6,0.4C468,58.7,467.8,58.9,467.4,59L467.4,59L467.4,59z
					 M469.8,57.4C469.8,57.4,469.8,57.4,469.8,57.4L469.8,57.4L469.8,57.4c-0.3,0.1-0.9,0.4-1.1,0.5c-0.1,0.1-0.2,0.2-0.3,0.3
					c0,0,0,0-0.1,0.1c0.1-0.1,0.2-0.2,0.4-0.2c0.2-0.1,0.4-0.2,0.6-0.2c0.1,0,0.2-0.1,0.3-0.1c0,0,0.1,0,0.1,0c0,0,0.1,0,0.1,0l0,0
					C469.8,57.5,469.8,57.4,469.8,57.4L469.8,57.4z"/>
			</g>
		</g>
		<g>
			<g>
				<g>
					<path class="st8" d="M455.6,27.2l-0.5-0.7l0,0c-0.8-1.1-5.7-7.6-11.2-10.4c-6.8-3.9-12.1-3.3-12.1-3.3s-1.2,15.7,16.4,31.3
						c0,0-14.4-15.3-14-29.1c0,0,4.2-0.1,9.3,2.7c7,3.9,11.7,10.2,11.7,10.2v0v0l0,0c4.6,6.1,6.2,12.5,6.7,15
						C460.6,36,458.3,31,455.6,27.2z"/>
				</g>
				<g>
					<path class="st8" d="M461.8,42.9c0.1,0.4,0.1,0.7,0.2,1.1C462,44.1,461.9,43.7,461.8,42.9z"/>
				</g>
			</g>
			<g>
				<path class="st8" d="M461.2,19.7c-1.5-3.5-4.6-6.4-6.1-7.3c-1.5,0.9-4.6,3.8-6.1,7.3c-3.1,7.4-3,14.1-0.8,24.4
					c0,0-1.7-13.2,2.5-22.8c1-2.2,2.5-4.4,4.4-6c1.9,1.6,3.4,3.7,4.4,6c4.2,9.6,2.5,22.8,2.5,22.8C464.2,33.7,464.3,27,461.2,19.7z"
					/>
			</g>
			<g>
				<path class="st8" d="M466.3,16c-2.5-8-8.4-13.8-11.2-16c-2.8,2.2-8.7,8.1-11.2,16c-2.4,7.7-1.2,17.8,4.3,28
					c0,0-6.1-12.3-2.8-25.2c1.7-6.7,4.8-11,9.7-15.1c5,4.1,8,8.4,9.7,15.1c3.3,12.9-2.8,25.2-2.8,25.2
					C467.5,33.9,468.6,23.7,466.3,16z"/>
			</g>
			<g>
				<g>
					<path class="st8" d="M448.4,42.9c-0.1,0.7-0.2,1.1-0.2,1.1C448.2,43.7,448.3,43.3,448.4,42.9z"/>
				</g>
				<g>
					<path class="st8" d="M478.4,12.8c0,0-5.3-0.6-12.1,3.3c-5.5,2.8-10.4,9.3-11.2,10.4l0,0l-0.5,0.7c-2.7,3.8-5,8.8-6.2,15.7
						c0.5-2.5,2.1-9,6.7-15l0,0l0,0v0c0,0,4.7-6.3,11.7-10.2c5.1-2.8,9.3-2.7,9.3-2.7c0.4,13.8-14,29.1-14,29.1
						C479.6,28.5,478.4,12.8,478.4,12.8z"/>
				</g>
			</g>
		</g>
		<g>
			<path class="st8" d="M405.2,69.8v-9.2h1.9v9.2H405.2z"/>
			<path class="st8" d="M408.5,66.8l1.8-0.2c0.1,0.6,0.3,1.1,0.7,1.3c0.3,0.3,0.8,0.4,1.4,0.4c0.6,0,1.1-0.1,1.4-0.4
				c0.3-0.3,0.5-0.6,0.5-0.9c0-0.2-0.1-0.4-0.2-0.6c-0.1-0.2-0.4-0.3-0.7-0.4c-0.2-0.1-0.7-0.2-1.5-0.4c-1-0.2-1.7-0.6-2.1-0.9
				c-0.6-0.5-0.9-1.1-0.9-1.9c0-0.5,0.1-0.9,0.4-1.3c0.3-0.4,0.7-0.7,1.2-0.9c0.5-0.2,1.1-0.3,1.8-0.3c1.2,0,2,0.3,2.6,0.8
				c0.6,0.5,0.9,1.2,0.9,2l-1.9,0.1c-0.1-0.5-0.2-0.8-0.5-1c-0.3-0.2-0.7-0.3-1.2-0.3c-0.5,0-1,0.1-1.3,0.3
				c-0.2,0.1-0.3,0.3-0.3,0.6c0,0.2,0.1,0.4,0.3,0.6c0.2,0.2,0.8,0.4,1.7,0.6c0.9,0.2,1.6,0.4,2,0.7c0.4,0.2,0.8,0.5,1,0.9
				c0.2,0.4,0.4,0.9,0.4,1.5c0,0.5-0.1,1-0.4,1.5c-0.3,0.5-0.7,0.8-1.2,1c-0.5,0.2-1.2,0.3-2,0.3c-1.2,0-2.1-0.3-2.7-0.8
				C409,68.6,408.7,67.8,408.5,66.8z"/>
			<path class="st8" d="M419.9,69.8v-7.7h-2.7v-1.6h7.3v1.6h-2.7v7.7H419.9z"/>
			<path class="st8" d="M433.3,69.8h-2l-0.8-2.1h-3.7l-0.8,2.1h-2l3.6-9.2h2L433.3,69.8z M429.8,66.1l-1.3-3.4l-1.3,3.4H429.8z"/>
			<path class="st8" d="M434.5,69.8v-9.2h1.8l3.8,6.2v-6.2h1.7v9.2h-1.9l-3.7-6v6H434.5z"/>
			<path class="st8" d="M452.3,69.8h-2l-0.8-2.1h-3.7l-0.8,2.1h-2l3.6-9.2h2L452.3,69.8z M448.9,66.1l-1.3-3.4l-1.3,3.4H448.9z"/>
			<path class="st8" d="M456.6,60.5h3.7c0.7,0,1.3,0,1.6,0.1c0.4,0.1,0.7,0.2,1,0.4c0.3,0.2,0.5,0.4,0.7,0.8
				c0.2,0.3,0.3,0.7,0.3,1.1c0,0.4-0.1,0.8-0.4,1.2c-0.2,0.4-0.6,0.6-1,0.8c0.6,0.2,1,0.4,1.3,0.8c0.3,0.4,0.5,0.9,0.5,1.4
				c0,0.4-0.1,0.8-0.3,1.2c-0.2,0.4-0.5,0.7-0.8,1c-0.3,0.2-0.8,0.4-1.2,0.4c-0.3,0-1.1,0.1-2.3,0.1h-3.1V60.5z M458.5,62.1v2.1h1.2
				c0.7,0,1.2,0,1.4,0c0.3,0,0.6-0.1,0.7-0.3c0.2-0.2,0.3-0.4,0.3-0.7c0-0.3-0.1-0.5-0.2-0.7c-0.2-0.2-0.4-0.3-0.7-0.3
				c-0.2,0-0.7,0-1.6,0H458.5z M458.5,65.8v2.5h1.7c0.7,0,1.1,0,1.3-0.1c0.3-0.1,0.5-0.2,0.7-0.4c0.2-0.2,0.3-0.5,0.3-0.8
				c0-0.3-0.1-0.5-0.2-0.7c-0.1-0.2-0.3-0.3-0.6-0.4c-0.3-0.1-0.8-0.1-1.7-0.1H458.5z"/>
			<path class="st8" d="M465.2,60.5h1.9v5c0,0.8,0,1.3,0.1,1.5c0.1,0.4,0.3,0.7,0.6,0.9c0.3,0.2,0.7,0.3,1.2,0.3
				c0.5,0,0.9-0.1,1.2-0.3c0.3-0.2,0.4-0.5,0.5-0.8c0-0.3,0.1-0.8,0.1-1.6v-5.1h1.9v4.9c0,1.1,0,1.9-0.2,2.4
				c-0.1,0.5-0.3,0.8-0.6,1.2c-0.3,0.3-0.6,0.6-1.1,0.8c-0.5,0.2-1,0.3-1.8,0.3c-0.9,0-1.6-0.1-2-0.3c-0.5-0.2-0.8-0.5-1.1-0.8
				c-0.3-0.3-0.4-0.7-0.5-1c-0.1-0.5-0.2-1.3-0.2-2.3V60.5z"/>
			<path class="st8" d="M473.7,60.5h3.4c0.8,0,1.4,0.1,1.8,0.2c0.5,0.2,1,0.4,1.4,0.9c0.4,0.4,0.7,0.9,0.9,1.5
				c0.2,0.6,0.3,1.3,0.3,2.2c0,0.8-0.1,1.4-0.3,2c-0.2,0.7-0.6,1.2-1,1.6c-0.3,0.3-0.8,0.6-1.3,0.7c-0.4,0.1-1,0.2-1.7,0.2h-3.5
				V60.5z M475.6,62.1v6.1h1.4c0.5,0,0.9,0,1.1-0.1c0.3-0.1,0.6-0.2,0.8-0.4c0.2-0.2,0.4-0.5,0.5-0.9c0.1-0.4,0.2-1,0.2-1.7
				c0-0.7-0.1-1.3-0.2-1.6c-0.1-0.4-0.3-0.7-0.5-0.9c-0.2-0.2-0.5-0.4-0.9-0.4c-0.3-0.1-0.8-0.1-1.5-0.1H475.6z"/>
			<path class="st8" d="M490.7,69.8h-2l-0.8-2.1h-3.7l-0.8,2.1h-2l3.6-9.2h2L490.7,69.8z M487.2,66.1l-1.3-3.4l-1.2,3.4H487.2z"/>
			<path class="st8" d="M492.1,69.8v-3.9l-3.4-5.4h2.2l2.2,3.7l2.1-3.7h2.1l-3.4,5.4v3.9H492.1z"/>
			<path class="st8" d="M504.7,69.8h-2l-0.8-2.1h-3.7l-0.8,2.1h-2l3.6-9.2h2L504.7,69.8z M501.3,66.1l-1.3-3.4l-1.2,3.4H501.3z"/>
		</g>
		<g>
			<path class="st8" d="M405,72.6h0.3v1l1-1h0.4l-1.3,1.2l1.4,1.4h-0.4l-1.2-1.2v1.2H405V72.6z"/>
			<path class="st8" d="M407.1,72.6h1.5v0.3h-1.2v0.8h1.2v0.3h-1.2v1h1.2v0.3h-1.5V72.6z"/>
			<path class="st8" d="M409,75.2l0.4-2.6h0l1.1,2.2l1.1-2.2h0l0.4,2.6h-0.3l-0.3-1.9l-0.9,1.9h-0.1l-0.9-1.9l-0.3,1.9H409z"/>
			<path class="st8" d="M412.4,72.6h1.5v0.3h-1.2v0.8h1.2v0.3h-1.2v1h1.2v0.3h-1.5V72.6z"/>
			<path class="st8" d="M414.4,75.2v-2.6h0.1l1.7,2v-2h0.3v2.6h-0.1l-1.7-2v2H414.4z"/>
			<path class="st8" d="M416.8,72.9v-0.3h1.4v0.3h-0.6v2.4h-0.3v-2.4H416.8z"/>
			<path class="st8" d="M418.7,72.6h1.5v0.3h-1.2v0.8h1.2v0.3h-1.2v1h1.2v0.3h-1.5V72.6z"/>
			<path class="st8" d="M420.6,72.6h0.5c0.3,0,0.5,0,0.6,0c0.2,0,0.3,0.1,0.4,0.2c0.1,0.1,0.1,0.3,0.1,0.4c0,0.1,0,0.3-0.1,0.4
				c-0.1,0.1-0.2,0.2-0.3,0.2c-0.1,0.1-0.3,0.1-0.5,0.1l0.9,1.2H422L421,74h-0.1v1.2h-0.3V72.6z M420.9,72.9v0.9l0.4,0
				c0.2,0,0.3,0,0.4,0c0.1,0,0.1-0.1,0.2-0.2c0-0.1,0.1-0.2,0.1-0.2c0-0.1,0-0.2-0.1-0.2c-0.1-0.1-0.1-0.1-0.2-0.2
				c-0.1,0-0.2,0-0.4,0H420.9z"/>
			<path class="st8" d="M422.8,72.6h0.3v2.6h-0.3V72.6z"/>
			<path class="st8" d="M424.7,72.6l1.2,2.6h-0.3l-0.4-0.9h-1.1l-0.4,0.9h-0.3L424.7,72.6L424.7,72.6z M424.7,73.2l-0.4,1h0.9
				L424.7,73.2z"/>
			<path class="st8" d="M426.4,75.2v-2.6h0.1l1.7,2v-2h0.3v2.6h-0.1l-1.7-2v2H426.4z"/>
			<path class="st8" d="M430.1,72.6h0.5c0.3,0,0.5,0,0.6,0c0.2,0,0.3,0.1,0.4,0.2c0.1,0.1,0.1,0.3,0.1,0.4c0,0.2,0,0.3-0.1,0.4
				c-0.1,0.1-0.2,0.2-0.4,0.2c-0.1,0-0.3,0-0.7,0h-0.2v1.2h-0.3V72.6z M430.3,72.9v0.9l0.4,0c0.2,0,0.3,0,0.4,0
				c0.1,0,0.1-0.1,0.2-0.2c0.1-0.1,0.1-0.2,0.1-0.2c0-0.1,0-0.2-0.1-0.2c0-0.1-0.1-0.1-0.2-0.2c-0.1,0-0.2,0-0.4,0H430.3z"/>
			<path class="st8" d="M432.3,72.6h1.5v0.3h-1.2v0.8h1.2v0.3h-1.2v1h1.2v0.3h-1.5V72.6z"/>
			<path class="st8" d="M434.2,72.6h0.3V75h1v0.3h-1.3V72.6z"/>
			<path class="st8" d="M437,72.6l1.2,2.6h-0.3l-0.4-0.9h-1.1l-0.4,0.9h-0.3L437,72.6L437,72.6z M436.9,73.2l-0.4,1h0.9L436.9,73.2z
				"/>
			<path class="st8" d="M438.6,75.2v-2.6h0.1l1.8,2v-2h0.3v2.6h-0.1l-1.7-2v2H438.6z"/>
			<path class="st8" d="M443.8,73.1l-0.2,0.2c-0.1-0.1-0.3-0.3-0.4-0.3c-0.2-0.1-0.3-0.1-0.5-0.1c-0.2,0-0.4,0-0.6,0.1
				c-0.2,0.1-0.3,0.2-0.4,0.4c-0.1,0.2-0.1,0.4-0.1,0.6c0,0.3,0.1,0.6,0.3,0.8c0.2,0.2,0.5,0.3,0.8,0.3c0.4,0,0.7-0.1,0.9-0.4
				l0.2,0.2c-0.1,0.2-0.3,0.3-0.5,0.4c-0.2,0.1-0.4,0.1-0.7,0.1c-0.5,0-0.8-0.2-1.1-0.5c-0.2-0.3-0.3-0.6-0.3-0.9
				c0-0.4,0.1-0.7,0.4-1c0.3-0.3,0.6-0.4,1-0.4c0.2,0,0.5,0,0.7,0.1C443.5,72.8,443.6,72.9,443.8,73.1z"/>
			<path class="st8" d="M445.5,72.5c0.4,0,0.7,0.1,1,0.4c0.3,0.3,0.4,0.6,0.4,1c0,0.4-0.1,0.7-0.4,1c-0.3,0.3-0.6,0.4-1,0.4
				c-0.4,0-0.7-0.1-1-0.4c-0.3-0.3-0.4-0.6-0.4-1c0-0.3,0.1-0.5,0.2-0.7c0.1-0.2,0.3-0.4,0.5-0.5C445.1,72.6,445.3,72.5,445.5,72.5z
				 M445.5,72.8c-0.2,0-0.4,0.1-0.5,0.2c-0.2,0.1-0.3,0.2-0.4,0.4c-0.1,0.2-0.1,0.4-0.1,0.6c0,0.3,0.1,0.6,0.3,0.8
				c0.2,0.2,0.5,0.3,0.8,0.3c0.2,0,0.4-0.1,0.6-0.1c0.2-0.1,0.3-0.2,0.4-0.4c0.1-0.2,0.1-0.4,0.1-0.6c0-0.2,0-0.4-0.1-0.6
				c-0.1-0.2-0.2-0.3-0.4-0.4C445.9,72.8,445.7,72.8,445.5,72.8z"/>
			<path class="st8" d="M447.5,75.2v-2.6h0.1l1.7,2v-2h0.3v2.6h-0.1l-1.7-2v2H447.5z"/>
			<path class="st8" d="M452.7,73l-0.2,0.2c-0.1-0.1-0.3-0.3-0.5-0.3c-0.2-0.1-0.3-0.1-0.5-0.1c-0.2,0-0.4,0.1-0.6,0.2
				c-0.2,0.1-0.3,0.2-0.4,0.4c-0.1,0.2-0.2,0.4-0.2,0.6c0,0.2,0.1,0.4,0.2,0.6c0.1,0.2,0.3,0.3,0.4,0.4c0.2,0.1,0.4,0.2,0.6,0.2
				c0.3,0,0.5-0.1,0.7-0.2c0.2-0.2,0.3-0.4,0.3-0.6h-0.8V74h1.1c0,0.4-0.1,0.7-0.4,1c-0.2,0.2-0.6,0.4-1,0.4c-0.5,0-0.9-0.2-1.2-0.5
				c-0.2-0.3-0.3-0.6-0.3-0.9c0-0.2,0.1-0.5,0.2-0.7c0.1-0.2,0.3-0.4,0.5-0.5c0.2-0.1,0.5-0.2,0.7-0.2c0.2,0,0.4,0,0.6,0.1
				C452.3,72.7,452.5,72.9,452.7,73z"/>
			<path class="st8" d="M454.4,72.6l1.2,2.6h-0.3l-0.4-0.9h-1.1l-0.4,0.9h-0.3L454.4,72.6L454.4,72.6z M454.4,73.2l-0.5,1h0.9
				L454.4,73.2z"/>
			<path class="st8" d="M456.1,75.2v-2.6h0.1l1.7,2v-2h0.3v2.6h-0.1l-1.7-2v2H456.1z"/>
			<path class="st8" d="M461.8,74.3l0.2,0.2c-0.1,0.1-0.2,0.2-0.3,0.3c0.1,0.1,0.2,0.2,0.3,0.3c0.1,0.1,0.2,0.2,0.2,0.2h-0.4
				l-0.3-0.4c-0.2,0.2-0.4,0.3-0.5,0.3c-0.1,0.1-0.3,0.1-0.4,0.1c-0.2,0-0.4-0.1-0.5-0.2c-0.1-0.1-0.2-0.3-0.2-0.4
				c0-0.1,0-0.3,0.1-0.4c0.1-0.1,0.3-0.3,0.5-0.5c-0.1-0.2-0.2-0.3-0.3-0.4c0-0.1-0.1-0.2-0.1-0.2c0-0.1,0-0.2,0.2-0.3
				c0.1-0.1,0.3-0.2,0.4-0.2c0.1,0,0.2,0,0.3,0.1c0.1,0,0.2,0.1,0.2,0.2c0.1,0.1,0.1,0.2,0.1,0.2c0,0.1,0,0.2-0.1,0.3
				c-0.1,0.1-0.2,0.2-0.4,0.4l0.4,0.4l0.3,0.3C461.6,74.4,461.7,74.3,461.8,74.3z M460.6,74c-0.2,0.2-0.4,0.3-0.4,0.4
				c-0.1,0.1-0.1,0.2-0.1,0.3c0,0.1,0,0.2,0.1,0.3c0.1,0.1,0.2,0.1,0.3,0.1c0.1,0,0.2,0,0.3-0.1c0.1-0.1,0.3-0.2,0.5-0.3l-0.4-0.4
				C460.7,74.2,460.7,74.1,460.6,74z M460.6,73.6c0.1-0.1,0.2-0.2,0.3-0.3c0-0.1,0.1-0.1,0.1-0.2c0-0.1,0-0.1-0.1-0.2
				c-0.1,0-0.1-0.1-0.2-0.1c-0.1,0-0.2,0-0.2,0.1c-0.1,0-0.1,0.1-0.1,0.2c0,0.1,0,0.1,0,0.1C460.4,73.4,460.5,73.5,460.6,73.6z"/>
			<path class="st8" d="M463.5,72.6h0.3v1l1.1-1h0.4l-1.3,1.2l1.4,1.4H465l-1.2-1.2v1.2h-0.3V72.6z"/>
			<path class="st8" d="M465.7,72.6h1.5v0.3H466v0.8h1.2v0.3H466v1h1.2v0.3h-1.5V72.6z"/>
			<path class="st8" d="M467.7,72.6h0.5c0.2,0,0.4,0,0.5,0.1c0.1,0,0.2,0.1,0.3,0.2c0.1,0.1,0.1,0.2,0.1,0.3c0,0.1,0,0.2-0.1,0.3
				c-0.1,0.1-0.1,0.2-0.3,0.2c0.1,0,0.2,0.1,0.3,0.2c0.1,0.1,0.1,0.1,0.2,0.2c0,0.1,0.1,0.2,0.1,0.3c0,0.2-0.1,0.4-0.2,0.5
				c-0.2,0.1-0.4,0.2-0.6,0.2h-0.7V72.6z M467.9,72.9v0.8h0.2c0.2,0,0.3,0,0.4,0c0.1,0,0.2-0.1,0.2-0.2c0-0.1,0.1-0.2,0.1-0.2
				c0-0.1,0-0.2-0.1-0.3c-0.1-0.1-0.2-0.1-0.4-0.1H467.9z M467.9,74v1h0.3c0.2,0,0.3,0,0.4-0.1c0.1,0,0.2-0.1,0.2-0.2
				c0.1-0.1,0.1-0.2,0.1-0.3c0-0.1,0-0.2-0.1-0.3c-0.1-0.1-0.2-0.1-0.3-0.2c-0.1,0-0.2,0-0.5,0H467.9z"/>
			<path class="st8" d="M469.8,72.6h0.3v1.6c0,0.2,0,0.3,0,0.4c0,0.1,0,0.2,0.1,0.3c0,0.1,0.1,0.1,0.2,0.2c0.1,0,0.2,0.1,0.3,0.1
				c0.1,0,0.2,0,0.2-0.1c0.1,0,0.1-0.1,0.2-0.2c0.1-0.1,0.1-0.1,0.1-0.2c0-0.1,0-0.2,0-0.4v-1.6h0.3v1.6c0,0.2,0,0.4-0.1,0.6
				c0,0.1-0.1,0.3-0.3,0.4c-0.1,0.1-0.3,0.2-0.5,0.2c-0.2,0-0.4,0-0.5-0.2c-0.2-0.1-0.3-0.2-0.3-0.4c0-0.1,0-0.3,0-0.6V72.6z"/>
			<path class="st8" d="M472.2,75.2v-2.6h0.5c0.4,0,0.7,0,0.9,0.1c0.3,0.1,0.5,0.2,0.6,0.5c0.1,0.2,0.2,0.5,0.2,0.8
				c0,0.3-0.1,0.5-0.2,0.7c-0.1,0.2-0.3,0.3-0.4,0.4c-0.2,0.1-0.4,0.1-0.8,0.1H472.2z M472.4,75h0.3c0.4,0,0.6,0,0.8-0.1
				c0.2-0.1,0.4-0.2,0.5-0.3c0.1-0.2,0.2-0.4,0.2-0.6c0-0.3-0.1-0.5-0.2-0.6c-0.1-0.2-0.3-0.3-0.5-0.4c-0.2,0-0.4-0.1-0.8-0.1h-0.2
				V75z"/>
			<path class="st8" d="M475.9,72.6l1.2,2.6h-0.3l-0.4-0.9h-1.1l-0.4,0.9h-0.3L475.9,72.6L475.9,72.6z M475.9,73.2l-0.4,1h0.9
				L475.9,73.2z"/>
			<path class="st8" d="M476.9,72.6h0.3l0.7,1.1l0.7-1.1h0.3L478,74v1.3h-0.3V74L476.9,72.6z"/>
			<path class="st8" d="M479.9,72.6l1.2,2.6h-0.3l-0.4-0.9h-1.1l-0.4,0.9h-0.3L479.9,72.6L479.9,72.6z M479.9,73.2l-0.5,1h0.9
				L479.9,73.2z"/>
			<path class="st8" d="M482.6,72.6l1.2,2.6h-0.3l-0.4-0.9H482l-0.4,0.9h-0.3L482.6,72.6L482.6,72.6z M482.6,73.2l-0.5,1h0.9
				L482.6,73.2z"/>
			<path class="st8" d="M484.3,75.2v-2.6h0.1l1.7,2v-2h0.3v2.6h-0.1l-1.7-2v2H484.3z"/>
			<path class="st8" d="M487.9,75.2l0.4-2.6h0l1.1,2.2l1.1-2.2h0l0.4,2.6h-0.3l-0.3-1.9l-0.9,1.9h-0.1l-0.9-1.9l-0.3,1.9H487.9z"/>
			<path class="st8" d="M492.4,72.6l1.2,2.6h-0.3l-0.4-0.9h-1.1l-0.4,0.9h-0.3L492.4,72.6L492.4,72.6z M492.4,73.2l-0.5,1h0.9
				L492.4,73.2z"/>
			<path class="st8" d="M494,72.6h0.3V75h1v0.3H494V72.6z"/>
			<path class="st8" d="M496.8,72.6l1.2,2.6h-0.3l-0.4-0.9h-1.1l-0.4,0.9h-0.3L496.8,72.6L496.8,72.6z M496.8,73.2l-0.5,1h0.9
				L496.8,73.2z"/>
			<path class="st8" d="M497.8,72.6h0.3l0.7,1.1l0.7-1.1h0.3l-0.8,1.4v1.3h-0.3V74L497.8,72.6z"/>
			<path class="st8" d="M499.9,74.7l0.2-0.1c0.2,0.3,0.3,0.4,0.5,0.4c0.1,0,0.2,0,0.2-0.1c0.1,0,0.1-0.1,0.2-0.2
				c0-0.1,0.1-0.1,0.1-0.2c0-0.1,0-0.2-0.1-0.3c-0.1-0.1-0.2-0.3-0.5-0.4c-0.2-0.2-0.4-0.3-0.4-0.4c-0.1-0.1-0.1-0.3-0.1-0.4
				c0-0.1,0-0.2,0.1-0.3c0.1-0.1,0.1-0.2,0.2-0.2c0.1-0.1,0.2-0.1,0.3-0.1c0.1,0,0.2,0,0.3,0.1c0.1,0.1,0.2,0.2,0.3,0.3l-0.2,0.2
				c-0.1-0.1-0.2-0.2-0.3-0.3c-0.1,0-0.1-0.1-0.2-0.1c-0.1,0-0.2,0-0.3,0.1c-0.1,0.1-0.1,0.1-0.1,0.2c0,0.1,0,0.1,0,0.2
				c0,0.1,0.1,0.1,0.1,0.2c0,0,0.1,0.1,0.3,0.3c0.2,0.2,0.4,0.3,0.5,0.5c0.1,0.1,0.1,0.3,0.1,0.4c0,0.2-0.1,0.4-0.2,0.5
				c-0.1,0.1-0.3,0.2-0.5,0.2c-0.2,0-0.3,0-0.4-0.1C500.1,75.1,500,74.9,499.9,74.7z"/>
			<path class="st8" d="M501.9,72.6h0.3v2.6h-0.3V72.6z"/>
			<path class="st8" d="M503.9,72.6l1.2,2.6h-0.3l-0.4-0.9h-1.1l-0.4,0.9h-0.3L503.9,72.6L503.9,72.6z M503.8,73.2l-0.4,1h0.9
				L503.8,73.2z"/>
		</g>
	</g>
</g>
</svg>
