<?xml version="1.0" encoding="utf-8"?>
<!-- Generator: Adobe Illustrator 19.0.0, SVG Export Plug-In . SVG Version: 6.00 Build 0)  -->
<svg version="1.1" id="Layer_1" xmlns="http://www.w3.org/2000/svg" xmlns:xlink="http://www.w3.org/1999/xlink" x="0px" y="0px"
	 viewBox="0 0 421.6 155.4" style="enable-background:new 0 0 421.6 155.4;" xml:space="preserve">
<style type="text/css">
	.st0{fill:#FFFFFF;}
	.st1{fill:#FFFFFF;stroke:#FFFFFF;stroke-width:4;stroke-miterlimit:10;}
	.st2{fill:#FFFFFF;stroke:#FFFFFF;stroke-miterlimit:10;}
</style>
<g id="XMLID_59_">
	<path id="XMLID_57_" class="st0" d="M269.3,40.8c0,0,11,24.1-124.8,28.5C8.7,73.6-9.7,82.4,6.5,108.7c0,0-39.5-36.6,135.8-37.2
		c175.2-0.7,130.3-10.9,130.3-10.9L269.3,40.8z"/>
	<polygon id="XMLID_56_" class="st0" points="301,114 11.3,148.2 0,153.4 10.5,155.4 	"/>
	<g id="XMLID_131_">
		<g id="XMLID_340_">
			<path id="XMLID_375_" class="st0" d="M76,16.6c0,0,0.3-0.3,0.8-1c0.6-0.9,1.1-1.4,1.3-1.7c0.6-0.6,1.5-1.2,2.8-2
				c2.9-1.8,5.2-2,6.9-0.6c0.9,0.7,1.4,1.8,1.7,3.3c0.2,1.3,0.2,2.7-0.1,4.2c1.3-1.9,2.9-3.7,4.7-5.3c1.5-1.4,3-2.4,4.5-3
				c2.2-0.9,3.9-0.8,5.3,0.4c1.9,1.5,2.5,5,1.9,10.5c-0.3,2.5-0.7,5.1-1.4,7.7c-0.4,1.8-0.6,2.6-0.6,2.4c0,0.2,0,0.5,0,1.1
				c0,0.4,0,0.8-0.1,1c0,0.2-0.1,0.5-0.3,0.9c-0.2,0.4-0.3,0.8-0.4,1c-0.4,1.4-0.7,2.3-1,2.7c-0.2,1.5-0.9,4.2-2,7.8
				c-0.3,0.9-0.5,1.3-0.7,1.3c-0.1,0.2-0.2,0.4-0.2,0.7c0,0.4,0,0.7-0.1,0.8c0,0.1-0.1,0.2-0.1,0.2c-0.1,0-0.1,0-0.2,0.1
				c-0.2,0.3-0.3,1.2-0.5,2.7c-0.2,1.4-0.4,2.3-0.8,2.8c-0.1,0.1-0.1,0.2-0.1,0.2l-0.3,0c-0.1,0-0.1-0.2,0-0.4c0,0,1-3.1,2.9-9.4
				c0.9-2.9,1.6-5.5,2.1-7.7c0.4-1.9,0.6-2.8,0.5-2.7c0.1-0.2,0.1-0.3,0-0.2c0.2-0.1,0.4-0.2,0.4-0.3c-0.1,0.1,0-0.3,0.2-1.4
				c1.5-7,2.2-12.1,2.2-15.2c-0.1-4.1-1.2-6.4-3.2-6.9c-0.1,0.1-0.3,0.2-0.8,0.2c3.4,0.5,4.3,5.1,2.8,13.7
				c-0.4,2.4-2.6,10.4-6.4,23.8c0,0.1-0.3,1.1-0.7,3.1c-0.2,0.8-0.5,1.7-0.9,2.8c-0.5,1.3-0.9,2.2-1,2.8c-0.8,2.5-0.5,3.9,0.7,4.1
				c0.3-0.1,0.7-0.3,1.1-0.6c0.5-0.4,0.8-0.6,1-0.6c-0.2,0.3-0.4,0.5-0.4,0.6c0.1,0,0.2,0,0.4,0c0.1,0,0.1,0.1,0,0.2
				c0.3,0,0.9-0.4,1.8-1.3c1.7-1.8,2.9-2.8,3.4-3.2c0.9-0.6,1.6-0.9,2.3-0.9c0.3,0.3,0.4,0.6,0.4,0.8c0,0.1-0.1,0.2-0.1,0.2
				c-0.1,0-0.1-0.1-0.1-0.1c0,0-0.1,0.1-0.3,0.4c-0.2,0.3-0.6,1.1-1.2,2.2c-0.5,0.9-1,1.6-1.4,2.1c-0.1,0.1-0.2,0.2-0.3,0.3
				c-0.1,0.1-0.2,0.2-0.3,0.3c0,0-0.1,0.1-0.2,0.3c0,0.1-0.1,0.2-0.2,0.3c-0.9,1.1-2,2.2-3.4,3.2c-2.5,1.7-4.2,2.3-5.2,1.6
				c-0.9-0.6-1.3-2.3-1.1-5.2c0.1-1.5,0.4-3.2,0.8-5.2c1.7-8.7,2.9-15.6,3.5-20.5c0.1-0.6,0.1-1.5,0.3-2.7c0.1-1.4,0.2-2.3,0.2-2.8
				c0.3-2.4,0.3-4.1,0.2-5.1c-0.2-1.9-0.9-3-2.2-3.5c-0.7-0.3-1.6-0.4-2.6-0.2c-1.8,0.3-3.7,1.4-5.7,3.3c-3.6,5.2-6.1,14.6-7.5,28.1
				c-0.1,1.4-0.1,3.3,0.1,5.8c0.1,1.1,0.2,2,0.5,2.8c0.4,1.6,0.7,2.5,0.6,2.6c-0.1,0.6-1,1.3-2.7,2c-2.5,1.1-4.9,1.2-7,0.3
				c-1.2-0.5-1.9-1.1-2.1-1.7c-0.2-0.5-0.1-1.4,0.3-2.6c0.1-0.3,0.3-0.8,0.6-1.5c0.2-0.6,0.4-1.1,0.5-1.3c0.7-2.3,2-6.9,3.8-13.7
				c1.5-5.7,2.9-10.2,4.1-13.5c0.2-0.4,0.5-1.3,0.9-2.6c0.3-1.1,0.7-2,1-2.7c0.2-0.5,0.6-1.4,1.1-2.5c0.8-1.8,0.8-2.9,0-3.2
				c-0.5-0.2-1.6-0.1-3,0.3c-3,1-5.3,2.2-6.8,3.6c-1.2,1.1-2.4,3.2-3.8,6.3c-0.6,1.5-1,2.2-1,2.3c-0.1,0.2-0.2,0.3-0.3,0.4
				c-0.8,1.7-2.2,4.2-4.1,7.3c-1.9,3.2-3.3,5.7-4.2,7.5c-0.6,1.4-1.7,4.1-3.2,8.1c-0.6,1.6-1,3.1-1.3,4.3c-0.4,2.5-0.8,4-1,4.5
				c-1.1,2.1-3.7,3.2-8,3.3c-1.4,0-2.3-0.2-2.7-0.6c-0.4-0.5-0.5-1.6-0.3-3.2c0.2-2.1,1.1-4.8,2.7-8c2.4-4.8,4.1-8,5.1-9.5
				c3.1-4.6,5.2-7.4,6.2-8.5c3.5-3.9,5.8-6.5,6.9-8c0,0,0-0.1,0.1-0.1c0.1-0.1,0.4-0.6,1-1.5c2.4-3.8,3.9-6.6,4.6-8.3
				c0.7-1.7,1-3,1-4c0-0.7-0.1-1.3-0.4-1.8c-0.3-0.5-0.7-0.8-1.2-0.8c-0.7-0.1-1.7,0.6-2.8,1.9c-1.1,1.3-2.3,3.2-3.4,5.7
				c-0.7,1.6-1.1,2.6-1.3,3.1c-0.4,1.5-0.7,2.3-1.1,2.5c-0.7,0.5-2.1,0.6-4.1,0.4c-1.2-0.1-2-0.3-2.4-0.5c-0.7-0.3-1.1-0.9-1.3-1.7
				c-0.3-1.1-0.1-2.4,0.6-3.8c0.6-1.2,1.7-2.7,3.2-4.5c2.5-2.9,5.4-5.2,8.8-6.9c2.3-1.2,4.4-1.8,6.3-1.8c1.9,0,3.5,0.7,4.6,2.2
				c1.2,1.5,1.6,3.4,1.2,5.5C75.8,16.7,76,16.6,76,16.6z M55.5,27.8c0,0,0-0.1-0.1-0.2l0.7-0.1C55.7,27.7,55.5,27.8,55.5,27.8z
				 M62.1,17.5c-1.3,2.1-2.2,3.9-2.6,5.2C61.2,19.4,62.1,17.6,62.1,17.5z M90.1,19c0.1,0,0.2-0.2,0.5-0.6c1.2-1.6,2.7-3.2,4.4-4.7
				c-0.1,0.1-0.3,0.2-0.6,0.4c0-0.1,0-0.1,0.1-0.2c0.1-0.1,0.1-0.1,0.1-0.2c-0.2,0-0.4,0.2-0.6,0.6c-0.2,0.3-0.3,0.4-0.4,0.4
				c-0.8,0.8-1.9,2-3.2,3.7C90.1,18.8,90,19,90.1,19z M95.9,59.6c0,0.1-0.1,0.1-0.1,0.1c0,0,0,0.1,0.1,0.1c0,0,0.1,0,0.1-0.1
				c0.1,0,0.1,0.1,0,0.1c-0.1,0-0.1,0.1-0.2,0.1c0-0.1,0-0.1,0.1-0.2c0.1-0.1,0.1-0.2,0.1-0.2C96,59.5,96,59.6,95.9,59.6z
				 M96.1,58.3c0.1,0.5,0.2,0.8,0.1,1.1c-0.2-0.2-0.3-0.5-0.3-1c-0.1-0.5,0-0.8,0.1-1.1C95.9,57.6,96,57.9,96.1,58.3z M96.3,56.8
				c-0.1-0.1-0.1-0.3,0-0.6c0.1-0.3,0.2-0.6,0.2-0.7C96.6,55.8,96.5,56.2,96.3,56.8z M101.3,10.8c-1.2-0.2-2.3,0.1-3.4,0.9
				C98.7,11.3,99.8,11,101.3,10.8z"/>
			<path id="XMLID_366_" class="st0" d="M130.1,34.6c1.8,0.2,3.3,0.6,4.5,1.3c1.4,0.8,2.1,1.9,2.2,3.3c0,1.3-0.6,3-2,5.3
				c-1.6,2.7-2.9,4.5-3.7,5.4c0,0.1,0,0.2,0.1,0.3c0.1,0.1,0.1,0.2,0.1,0.3c-0.4,1.1-1.1,2.3-1.9,3.4c-0.1,0.1-0.2,0.3-0.5,0.5
				c-0.2,0.2-0.4,0.4-0.5,0.5c-0.4,0.4-0.5,0.8-0.5,1.2c0,1.2,0.4,1.5,1.4,0.8c0.6-0.5,1.2-1.1,1.8-1.9c1.7-2.5,3.3-3.9,4.8-4.3
				c-0.5,0.7-1.2,1.5-2.2,2.5c-1.2,1.2-2,2-2.3,2.3c-1.8,2.1-3.2,3.3-4.2,3.6c-0.1-0.4-0.3-0.8-0.6-1.2c-0.2,1.3,0.2,1.9,1.1,1.7
				c0.7-0.2,1.5-0.6,2.3-1.4c0.5-0.5,1.2-1.2,1.9-2.2c1-1.3,1.6-2,1.8-2.3c0.9-1.1,2-1.9,3-2.4c0.7-0.3,1.3-0.4,1.7-0.3
				c0.6,0.1,0.9,0.5,0.8,1.3c0-0.2-0.8,1-2.5,3.5c-0.7,1-1.7,2.1-3.2,3.2c-2.4,1.8-3.8,2.8-4.2,3c-0.2,0.1-0.7,0.4-1.6,1
				c-0.7,0.4-1.3,0.8-1.7,1c-1.4,0.6-2.4,0.4-3.3-0.7c-0.5-0.6-0.8-1.5-0.8-2.5c0-0.1,0.1-0.5,0.2-1.3c0.1-0.5,0.1-1-0.1-1.3
				c-0.4-0.3-0.8-0.4-1.2-0.2c-0.3,0.1-0.6,0.4-1,0.9c-1.1,1.4-1.7,2.2-1.9,2.3c-0.1,0.1-0.3,0.1-0.6,0.2c-0.3,0-0.4,0.1-0.5,0.1
				c-0.6,0.2-1.9,1.2-4.1,2.9c-1.6,1.3-3.1,1.9-4.5,1.9c-1.7-0.1-2.6-1.2-2.7-3.4c0-1.1,0.2-2.9,0.7-5.4c0,0,0.1-0.1,0.2-0.1
				c0.1,0,0.2-0.1,0.2-0.1c0.5-1.7,1.3-3.5,2.5-5.2c0.6-0.9,1.7-2.3,3.4-4.4c0.3-1,0.9-2,1.7-3.1c0.3-0.4,0.7-0.8,1.2-1.4
				c0.6-0.7,1-1.1,1.2-1.4c0.1-0.1,0.4-0.5,0.7-1c0.3-0.4,0.5-0.7,0.7-0.9c0.3-0.3,0.8-0.6,1.6-1c0.9-0.4,1.4-0.7,1.7-0.9
				c0.2,0,0.6-0.3,1.3-0.8c0.9-0.7,1.4-1.1,1.6-1.2c0.8-0.5,1.9-1,3.3-1.4L130.1,34.6z M124.6,49.1c-0.3,0.3-0.4,0.7-0.2,1.3
				c0,0-0.1-0.1-0.2-0.2c-0.1-0.1-0.1-0.1-0.2-0.1c0,0.4-0.2,0.8-0.5,1.2c-0.4,0.6-0.6,0.9-0.6,1c0.1,0.1,0.2,0.2,0.1,0.4
				c0,0,0,0.1-0.1,0.2c0,0.1-0.1,0.2-0.1,0.2c0.4-0.3,1.9-1.5,4.3-3.6c-0.1-0.2-0.3-0.4-0.7-0.8c-0.3-0.3-0.5-0.5-0.5-0.7
				c0.1,0.1,0.4,0.3,0.7,0.6c0.3,0.3,0.6,0.4,0.8,0.5c0.1-0.2,0.2-0.3,0.3-0.4c0-0.1,0-0.3-0.2-0.4c-0.1-0.1-0.2-0.2-0.1-0.3
				c0.4,0.2,0.6,0.2,0.6,0.2c0-0.1-0.1-0.2-0.2-0.4c-0.2-0.2-0.2-0.3-0.1-0.4c0.1-0.1,0.2-0.2,0.5-0.2c0.3,0,0.5-0.1,0.6-0.2
				c0.3-0.3,0.4-0.6,0.4-1c0-0.2-0.1-0.7-0.2-1.3c-1.1,0.1-2,0.2-2.8,0.3c-0.3,0.6-0.7,1.1-1.3,1.4c-0.7,0.3-1.3,0.3-2-0.1
				c-0.3,0.1-0.6,0.3-0.9,0.6c-0.3,0.5-0.5,0.7-0.6,0.8c-0.1,0-0.2,0-0.3,0c-0.1,0-0.2-0.1-0.3,0c-0.4,0.2-0.8,0.5-1,1.1
				c-0.3,0.8-0.5,1.2-0.6,1.4c-0.2,0.3-0.8,0.6-1.6,1c-0.7,0.4-1.2,0.8-1.5,1.2c-0.1,0-0.2,0-0.3,0c-0.1,0.5-0.5,1-1.1,1.7
				c-0.6,0.7-1,1.3-1.2,1.7c0,0.1-0.1,0.4-0.1,0.9c0,0.4-0.1,0.6-0.3,0.9c0.9-0.2,2-0.7,3.1-1.5c1.2-0.9,2.2-1.4,3.1-1.6
				c0.1-1.1,0.6-1.7,1.7-1.6c0.1,0,0.1-0.3,0-0.7c0.3-0.2,0.7-0.6,1.2-1.1c0.4-0.5,0.8-0.9,1.2-1c0-0.1-0.1-0.2-0.1-0.3
				c-0.1-0.1-0.1-0.2-0.1-0.3c0.1,0.1,0.3,0.1,0.6,0c0-0.4,0.1-0.6,0.3-0.8c0.2-0.2,0.4-0.1,0.6,0.2c0-0.1,0-0.2-0.1-0.4
				c0-0.1,0-0.2,0-0.3c0.1,0,0.2,0.1,0.3,0.2c0.1,0.1,0.2,0.2,0.2,0.1c0-0.1,0-0.3-0.3-0.5c-0.2-0.2-0.2-0.4-0.1-0.5
				c0,0.1,0.1,0.3,0.3,0.6c0.2,0.3,0.3,0.5,0.3,0.7C125.2,48.7,124.9,48.8,124.6,49.1z M114.9,59.1c0,0,0.1,0,0.2-0.1
				c0.2,0,0.2-0.1,0.3-0.2l-0.7,0c0,0,0,0.1,0,0.3c0,0.1,0.1,0.2,0.1,0.2C114.9,59.2,114.9,59.1,114.9,59.1z M122.4,53.4
				c0.1-0.1,0.2-0.2,0.2-0.3c0,0-0.1,0-0.2-0.1c0-0.1-0.1-0.1-0.1-0.1c-0.1,0.5-0.2,0.7-0.2,0.7C122.1,53.6,122.2,53.5,122.4,53.4z
				 M126.6,56.1c-0.1,0.4-0.1,0.8-0.1,1.1c0.1-0.3,0.2-0.3,0.5-0.2c-0.2-0.1-0.2-0.4-0.1-0.8c0.1-0.5,0.2-0.9,0.1-1.1
				C127,55,126.9,55.3,126.6,56.1z M130.5,36.7c0.4,0,0.6,0,0.8-0.1c-0.3-0.2-0.6-0.2-0.9-0.2c-0.4,0-0.6,0.1-0.8,0.4
				C129.8,36.7,130.1,36.7,130.5,36.7z M137.5,54.3c0,0.1,0,0.2,0,0.3c-0.2,0-0.2-0.1-0.2-0.4C137.4,54.1,137.5,54.1,137.5,54.3z
				 M137.6,52.9c0,0.2,0,0.4,0.1,0.7c0.1,0.3,0.1,0.5,0.1,0.7c-0.1-0.1-0.2-0.6-0.5-1.4L137.6,52.9z"/>
			<path id="XMLID_357_" class="st0" d="M147.8,32.2c0.3-0.7,0.7-1,1.1-0.8c-0.1,0.3-0.6,0.8-1.3,1.7c-2,2.2-3.3,4.1-3.9,5.5
				c0,0.1,0,0.1-0.1,0.1c-0.1-0.1-0.2-0.1-0.3-0.1c-2.7,4-4.4,7-5.3,8.8c0.2,0.3,0.3,0.6,0.1,1c-0.3,0.5-0.4,0.9-0.4,1.2
				c1.4-3.1,3.5-6.5,6.4-10.1c0.8-1,2-2.5,3.8-4.5c1.7-2,2.9-3.5,3.8-4.6c-0.3-0.3-0.5-0.6-0.6-0.9c-0.1-0.4,0.1-0.7,0.4-1
				c0,0.2,0.3,0.5,0.9,0.8c1.4-1.3,2.2-2.4,2.3-3.2c0.5,0,0.8,0,0.7,0c0.2-0.2,0.4-0.5,0.6-0.9c0.2-0.4,0.4-0.7,0.6-0.9
				c0.1-0.1,0.2-0.2,0.3-0.5c0.2-0.3,0.3-0.5,0.4-0.6c0.3-0.2,0.6-0.5,1.1-0.9c0.6-0.4,1-0.7,1.2-0.9c0.1-0.1,0.6-0.6,1.3-1.3
				c0.9-1,1.4-1.6,1.5-1.9c0.1,0,0.2-0.1,0.4-0.2c0.2-0.1,0.3-0.2,0.3-0.2c0.2-0.2,0.8-0.9,1.9-1.9c0.8-0.8,1.3-1.5,1.6-2.2
				c0.3,0,0.5,0,0.5,0c0.7-1.1,1.1-1.8,1.2-2.1c0.1,0,0.2,0,0.4-0.1c0.1-0.1,0.2-0.1,0.3-0.1c2.8-3,4.7-5,5.7-6.3
				c1.6-1.9,2.6-3,3.2-3.5c1.5-1.3,3.1-1.9,4.9-1.8c1.6,0,2.9,0.5,3.9,1.4c1.2,1,1.5,2.3,0.9,3.7c-0.5,1.4-1.7,3.3-3.6,5.8
				c-2.7,3.6-5.9,7-9.6,10.2c-4.1,3.5-7.3,6.1-9.8,7.7c-0.2,0.1-1.4,0.9-3.5,2.5c-1.6,1.1-2.8,1.9-3.6,2.4
				c-9.7,5.6-15,10.8-15.9,15.9c-0.2,1.3,0.3,2.8,1.6,4.4c1.2,1.5,2.5,2.4,3.8,2.7c1.7-0.4,4.9-2.2,9.6-5.6c2.2-1.5,3.8-1.9,5-1
				c0.5,0.4,0.8,0.9,0.9,1.6c0.1,0.7,0,1.4-0.5,2c-0.6,0.9-1.8,1.8-3.5,2.7c-0.5,0.3-1.3,0.6-2.3,1.1c-1.1,0.5-1.8,0.8-2.3,1.1
				c-5.7,2.9-8.6,4.4-8.8,4.4c-0.4,0.1-1.5,0-3.4-0.3c-0.1,0-0.3,0-0.6,0c-0.2,0-0.4,0-0.6,0c-1.2-0.3-2.2-1-3.1-2
				c-0.3-0.3-0.6-1.1-1-2.1c-0.6-1.9-0.9-3.9-0.8-6c0-0.6,0.4-1.9,1.1-3.8c1.4-3.8,3.4-6.9,5.7-9.3c-0.1-0.6,0.5-1.4,1.8-2.2
				c0.3-0.8,1-1.9,2.3-3.3c0,0.1,0,0.2,0.2,0.1c0.1,0,0.2-0.1,0.2-0.2c0-0.1,0-0.2-0.1-0.3c0-0.1-0.1-0.2,0-0.2
				C147.1,33.4,147.5,33,147.8,32.2z M136.9,51.5c0,0-0.2,0.7-0.4,1.9c0,0.2,0,0.3,0.1,0.3c0.1,0,0.1-0.1,0-0.3
				c0.1-0.3,0.2-0.7,0.3-1.4c0.2-0.6,0.3-1,0.3-1.2c-0.1,0.3-0.2,0.3-0.3,0L136.9,51.5z M149.4,30.8c0,0,0.1,0.1,0.1,0
				c0,0.1,0,0.2-0.1,0.3c-0.1,0.1-0.2,0.1-0.2,0.2c-0.2,0-0.2-0.2,0-0.6C149.3,30.8,149.4,30.8,149.4,30.8z M149.9,30.7
				c-0.3-0.6-0.4-1-0.2-1.4C150,29.4,150,29.9,149.9,30.7z M180.4,10.3c0.9-1.1,1.5-2,1.8-2.7c0.5-1.2,0.3-2.1-0.6-2.8
				c-0.5,0.7-0.7,1-0.8,1c0.2-0.7,0.3-1.2,0.3-1.3c-0.1,0-0.3,0-0.6,0c-0.2,0-0.5,0-0.7,0c0,0-0.1,0.1-0.1,0.3
				c0,0.1-0.1,0.2-0.2,0.2c-0.3-0.2-0.5-0.3-0.4-0.3c-0.1,0.4-0.5,0.7-1,0.9c-0.1,0-0.4,0.1-0.7,0.1c-0.3,0-0.6,0.1-0.8,0.2
				c-0.2,0.1-0.8,0.5-1.8,1.3c-0.7,0.5-2.3,2-5,4.4c-0.2,0.5-0.6,1.1-1.2,1.5c-0.5,1.3-2,2.9-4.7,4.9c-1.9,2.2-2.7,3.2-2.6,3.1
				c-0.4,0.4-0.9,1-1.2,1.9c-0.5,1.1-0.8,1.8-1,2c-0.4,0.6-1.3,1.6-2.5,2.9c-1.1,1.2-2,2.2-2.4,3c-0.2,0-0.3,0-0.3,0
				c-0.2,0.3-0.5,0.8-0.9,1.5c-0.4,0.6-0.7,1.1-0.8,1.4c0.4-0.4,1.1-1.1,2.2-1.9c1-0.7,1.7-1.4,2.1-2c0.2-0.1,0.6-0.3,1.1-0.8
				c0.5-0.4,0.9-0.6,1.1-0.7c0.9-1.4,3-3.3,6.5-5.6c0.6-0.4,1.7-1.3,3.5-2.7c1.4-1.1,2.6-2,3.6-2.5c0-0.1,0-0.2,0-0.3
				c0-0.1,0-0.2,0-0.4c0.3-0.1,0.5-0.3,0.7-0.7c0.3-0.4,0.4-0.6,0.5-0.7c-0.1,0.1,0.4-0.2,1.3-0.9c0.5-0.3,0.8-0.7,0.8-1.2
				c0.5-0.5,1.2-1.2,2-2.3c0.8-1.1,1.5-1.9,1.9-2.3c-0.1-0.3-0.1-0.5-0.1-0.6c0.2,0,0.3-0.1,0.4-0.2c0.1-0.1,0.2-0.2,0.4-0.2
				c-0.1-0.4,0-0.8,0.2-1.2c0.2-0.5,0.4-0.7,0.7-0.7c-0.5,1.9-0.8,2.8-0.8,2.9c-0.3,0-0.5-0.1-0.4-0.1c-0.4,1.1-1.1,2.4-2.2,3.7
				c0,0.1,0,0.2,0.1,0.3c0.1,0.1,0.1,0.2,0.1,0.3c-0.2,0-0.3,0.1-0.4,0.2c-0.1,0.2-0.1,0.3-0.1,0.4
				C178.2,12.9,179.1,11.8,180.4,10.3z M159.1,51.1c-1.3,0.3-2.1,0.8-2.2,1.5C157.4,52.1,158.2,51.6,159.1,51.1z M164.3,26.5
				c0.2-0.2,0.4-0.3,0.4-0.4c-0.8,0.2-1.1,0.4-0.9,0.8C163.9,26.7,164.1,26.6,164.3,26.5z M178.5,14.6
				C178.5,14.6,178.4,14.6,178.5,14.6c-0.1,0-0.1,0-0.2,0c0-0.1-0.1,0.2-0.6,0.9c-0.1,0-0.1,0-0.1,0.1c0,0,0,0.1,0,0.1
				c0.1-0.1,0.3-0.3,0.5-0.6c0.3-0.3,0.5-0.5,0.6-0.6c0.1,0-0.1-0.1-0.4-0.1L178.5,14.6z"/>
			<path id="XMLID_348_" class="st0" d="M181.1,30.4c1.8,0.2,3.3,0.6,4.5,1.3c1.4,0.8,2.1,1.9,2.2,3.3c0,1.3-0.6,3-2,5.3
				c-1.6,2.7-2.9,4.5-3.7,5.4c0,0.1,0,0.2,0.1,0.3c0.1,0.1,0.1,0.2,0.1,0.3c-0.4,1.1-1.1,2.3-1.9,3.4c-0.1,0.1-0.2,0.3-0.5,0.5
				c-0.2,0.2-0.4,0.4-0.5,0.5c-0.4,0.4-0.5,0.8-0.5,1.2c0,1.2,0.4,1.5,1.4,0.8c0.6-0.5,1.2-1.1,1.8-1.9c1.7-2.5,3.3-3.9,4.8-4.3
				c-0.5,0.7-1.2,1.5-2.2,2.5c-1.2,1.2-2,2-2.3,2.3c-1.8,2.1-3.2,3.3-4.2,3.6c-0.1-0.4-0.3-0.8-0.6-1.2c-0.2,1.3,0.2,1.9,1.1,1.7
				c0.7-0.2,1.5-0.6,2.3-1.4c0.5-0.5,1.2-1.2,1.9-2.2c1-1.3,1.6-2,1.8-2.3c0.9-1.1,2-1.9,3-2.4c0.7-0.3,1.3-0.4,1.7-0.3
				c0.6,0.1,0.9,0.5,0.8,1.3c0-0.2-0.8,1-2.5,3.5c-0.7,1-1.7,2.1-3.2,3.2c-2.4,1.8-3.8,2.8-4.2,3c-0.2,0.1-0.7,0.4-1.6,1
				c-0.7,0.4-1.3,0.8-1.7,1c-1.4,0.6-2.4,0.4-3.3-0.7c-0.5-0.6-0.8-1.5-0.8-2.5c0-0.1,0.1-0.5,0.2-1.3c0.1-0.5,0.1-1-0.1-1.3
				c-0.4-0.3-0.8-0.4-1.2-0.2c-0.3,0.1-0.6,0.4-1,0.9c-1.1,1.4-1.7,2.2-1.9,2.3c-0.1,0.1-0.3,0.1-0.6,0.2c-0.3,0-0.4,0.1-0.5,0.1
				c-0.6,0.2-1.9,1.2-4.1,2.9c-1.6,1.3-3.1,1.9-4.5,1.9c-1.7-0.1-2.6-1.2-2.7-3.4c0-1.1,0.2-2.9,0.7-5.4c0,0,0.1-0.1,0.2-0.1
				c0.1,0,0.2-0.1,0.2-0.1c0.5-1.7,1.3-3.5,2.5-5.2c0.6-0.9,1.7-2.3,3.4-4.4c0.3-1,0.9-2,1.7-3.1c0.3-0.4,0.7-0.8,1.2-1.4
				c0.6-0.7,1-1.1,1.2-1.4c0.1-0.1,0.4-0.5,0.7-1c0.3-0.4,0.5-0.7,0.7-0.9c0.3-0.3,0.8-0.6,1.6-1c0.9-0.4,1.4-0.7,1.7-0.9
				c0.2,0,0.6-0.3,1.3-0.8c0.9-0.7,1.4-1.1,1.6-1.2c0.8-0.5,1.9-1,3.3-1.4L181.1,30.4z M175.6,44.9c-0.3,0.3-0.4,0.7-0.2,1.3
				c0,0-0.1-0.1-0.2-0.2c-0.1-0.1-0.1-0.1-0.2-0.1c0,0.4-0.2,0.8-0.5,1.2c-0.4,0.6-0.6,0.9-0.6,1c0.1,0.1,0.2,0.2,0.1,0.4
				c0,0,0,0.1-0.1,0.2c-0.1,0.1-0.1,0.2-0.1,0.2c0.4-0.3,1.9-1.5,4.3-3.6c-0.1-0.2-0.3-0.4-0.7-0.8c-0.3-0.3-0.5-0.5-0.5-0.7
				c0.1,0.1,0.4,0.3,0.7,0.6c0.3,0.3,0.6,0.4,0.8,0.5c0.1-0.2,0.2-0.3,0.3-0.4c0-0.1,0-0.3-0.2-0.4c-0.1-0.1-0.2-0.2-0.1-0.3
				c0.4,0.2,0.6,0.2,0.6,0.2c0-0.1-0.1-0.2-0.2-0.4c-0.2-0.2-0.2-0.3-0.1-0.4c0.1-0.1,0.2-0.2,0.5-0.2c0.3,0,0.5-0.1,0.6-0.2
				c0.3-0.3,0.4-0.6,0.4-1c0-0.2-0.1-0.7-0.2-1.3c-1.1,0.1-2,0.2-2.8,0.3c-0.3,0.6-0.7,1.1-1.3,1.4c-0.7,0.3-1.3,0.3-2-0.1
				c-0.3,0.1-0.6,0.3-0.9,0.6c-0.3,0.5-0.5,0.7-0.6,0.8c-0.1,0-0.2,0-0.3,0c-0.1,0-0.2-0.1-0.3,0c-0.4,0.2-0.8,0.5-1,1.1
				c-0.3,0.8-0.5,1.2-0.6,1.4c-0.2,0.3-0.8,0.6-1.6,1c-0.7,0.4-1.2,0.8-1.5,1.2c-0.1,0-0.2,0-0.3,0c-0.1,0.5-0.5,1-1.1,1.7
				c-0.6,0.7-1,1.3-1.2,1.7c0,0.1-0.1,0.4-0.1,0.9c0,0.4-0.1,0.6-0.3,0.9c0.9-0.2,2-0.7,3.1-1.5c1.2-0.9,2.2-1.4,3.1-1.6
				c0.1-1.1,0.6-1.7,1.7-1.6c0.1,0,0.1-0.3,0-0.7c0.3-0.2,0.7-0.6,1.2-1.1c0.4-0.5,0.8-0.9,1.2-1c0-0.1-0.1-0.2-0.1-0.3
				c-0.1-0.1-0.1-0.2-0.1-0.3c0.1,0.1,0.3,0.1,0.6,0c0-0.4,0.1-0.6,0.3-0.8c0.2-0.2,0.4-0.1,0.6,0.2c0-0.1,0-0.2-0.1-0.4
				c0-0.1,0-0.2,0-0.3c0.1,0,0.2,0.1,0.3,0.2c0.1,0.1,0.2,0.2,0.2,0.1c0-0.1,0-0.3-0.3-0.5c-0.2-0.2-0.2-0.4-0.1-0.5
				c0,0.1,0.1,0.3,0.3,0.6c0.2,0.3,0.3,0.5,0.3,0.7C176.2,44.5,175.9,44.6,175.6,44.9z M165.9,54.9c0,0,0.1,0,0.2-0.1
				c0.2-0.1,0.2-0.1,0.3-0.2l-0.7,0c0,0,0,0.1,0,0.3c0,0.1,0.1,0.2,0.1,0.2C165.9,55,165.9,54.9,165.9,54.9z M173.4,49.3
				c0.1-0.1,0.2-0.2,0.2-0.3c0,0-0.1,0-0.2-0.1c0-0.1-0.1-0.1-0.1-0.1c-0.1,0.5-0.2,0.7-0.2,0.7C173.1,49.5,173.2,49.4,173.4,49.3z
				 M177.6,51.9c-0.1,0.4-0.1,0.8-0.1,1.1c0.1-0.3,0.2-0.3,0.5-0.2c-0.2-0.1-0.2-0.4-0.1-0.8c0.1-0.5,0.2-0.9,0.1-1.1
				C178,50.8,177.9,51.1,177.6,51.9z M181.5,32.5c0.4,0,0.6,0,0.8-0.1c-0.3-0.2-0.6-0.2-0.9-0.2c-0.4,0-0.6,0.1-0.8,0.4
				C180.8,32.5,181.1,32.5,181.5,32.5z M188.5,50.1c0,0.1,0,0.2,0,0.3c-0.2,0-0.2-0.1-0.2-0.4C188.4,49.9,188.5,50,188.5,50.1z
				 M188.6,48.7c0,0.2,0,0.4,0.1,0.7c0.1,0.3,0.1,0.5,0.1,0.7c-0.1-0.1-0.2-0.6-0.5-1.4L188.6,48.7z"/>
			<path id="XMLID_341_" class="st0" d="M199.5,44c-0.1,0.3-0.5,1.1-1,2.4c-0.4,1-0.8,1.8-1,2.4c-0.1,0.1-0.1,0.2,0,0.3
				c0.1,0.1,0.2,0.2,0.2,0.3c-0.5,0.8-0.8,1.6-1,2.5c0.4-1,1.2-2.6,2.3-5c1-2,1.7-3.7,2.2-5c0.5-1.3,0.7-2.3,0.6-3.1
				c-0.1-1.2-0.7-1.8-2-1.5c-1.1,0.2-2.3,0.9-3.6,2.2c-0.4,0.4-0.9,0.9-1.5,1.6c-0.8,0.9-1.2,1.4-1.3,1.4c-0.4,0.4-1.3,1.5-2.6,3.1
				c-0.2,0.2-0.4,0.4-0.6,0.8c-0.3,0.5-0.6,0.8-0.7,0.9c-0.5,0.7-1,1.1-1.4,1.3c-0.1,0-0.2,0-0.4,0c-0.2,0-0.4,0-0.5,0
				c-0.2,0.1-0.4,0.2-0.7,0.5c-0.2,0.2-0.4,0.4-0.4,0.4c-0.4,0-0.8-0.2-1.1-0.7c-0.3-0.4-0.5-1-0.5-1.6c0.1,0,0.1,0.1,0.2,0.3
				c0.1,0.2,0.2,0.2,0.3,0.2c0.3-0.2,0.6-0.4,0.9-0.5c0-0.9,0.3-1.9,0.9-2.8c0.7-1.2,1.2-2,1.3-2.5c0.1-0.1,0.2-0.1,0.5-0.1
				c0.2,0.1,0.3,0.1,0.4,0c0.3-0.1,0.6-0.4,0.8-0.9c0.4-0.7,0.5-1,0.6-1.1c0.7-0.9,1-1.3,1-1.2c2.7-2.5,4.6-4.3,5.9-5.4
				c1.3-1.1,2.4-1.9,3.4-2.3c0.8-0.4,1.6-0.6,2.4-0.7c1.1-0.2,1.8,0,2.1,0.4c0.3,0.4,0.4,1,0.3,1.8c0,0.3-0.1,0.6-0.2,1
				c-0.1,0.5-0.2,0.8-0.2,0.8c-0.3,1.5-0.3,2.8-0.1,3.8c1.3-0.6,3.5-2.5,6.6-5.7c1.5-1.6,2.6-2.7,3.2-3.2c1.4-1.1,2.7-1.8,4-2.1
				c2.1-0.4,3.5,0.1,4.3,1.6c0.7,1.3,1.3,3.8,1.9,7.4c0.5,3.4,1.2,5.8,2.1,7.1c0.4-1,1-3,1.8-6c0.6-2.5,1.4-4.3,2.2-5.6
				c0.1-0.1,0.5-0.7,1.1-1.7c0.4-0.7,0.8-1.2,1.2-1.6c1-1.1,2.2-1.8,3.7-2c1.9-0.3,3.7,0.3,5.3,1.6c1.4,1.1,2.4,3,3.2,5.6
				c0.1,0.5,0.5,1.6,1,3.4c0.4,1.5,0.7,2.6,1.1,3.5c0.9,2.3,1.7,3.7,2.6,4.3c1.2,0.8,2.6,0.7,4.2-0.5c0.5-0.4,1.6-1.3,3.1-2.9
				c0.1-0.1,0.2-0.1,0.3-0.1c0.1,0,0.2,0,0.3-0.1c1.8-2.1,2.9-3.3,3.4-3.6c0.6-0.5,1.1-0.7,1.5-0.7c0.5,0,0.8,0.5,0.7,1.4
				c-0.1,0.6-0.2,1-0.6,1.5c-0.3,0.5-1.6,1.7-3.8,3.5c-0.4,0.3-1.1,0.9-2,1.6c-0.9,0.7-1.6,1.2-2.1,1.6c-0.4,0.4-1.1,1-1.8,1.7
				c-0.8,0.7-1.4,1.3-1.9,1.8c0,0-0.4,0.4-1.1,1.1c-0.5,0.5-1,0.9-1.4,1.2c-1.2,0.8-2.3,0.9-3.1,0.3c-0.6-0.4-1.2-1.5-1.7-3.1
				c-0.2-0.5-0.4-1.2-0.6-2.1c-0.2-1.1-0.4-1.7-0.5-1.9c-1.1-4-2-6.4-2.6-7.2c-0.4,0.6-0.8,1.4-1.3,2.6c-0.6,1.3-1,2.2-1.2,2.6
				c-0.1,0.2-0.4,2-1.1,5.2c-0.4,2-1,3.4-1.9,4.4c-0.8,0.9-2.3,1.7-4.4,2.3c-2.8,0.7-4.2,1.1-4.3,1.1c-1.7,0.2-2.9-0.2-3.6-1.2
				c-0.5-0.7-0.9-2.4-1.4-5c-0.5-3.3-0.9-6.7-1-10.2c-0.1-1.5-0.2-2.5-0.3-3.2c-0.3-1.2-0.8-1.8-1.4-2c-0.8-0.1-2.1,0.3-3.6,1.4
				c-1.1,0.8-2.4,1.9-3.9,3.3c-1.7,1.7-2.9,2.8-3.6,3.4c0,0.1-0.1,0.4-0.2,0.7c-0.1,0.3-0.2,0.5-0.2,0.7c-1.1,1-1.9,2.3-2.3,3.7
				c-0.2,0.3-1,1.6-2.3,3.7c-1,1.7-1.9,3-2.7,3.7c-0.5,0.5-1.1,0.9-1.7,1.2c-0.8,0.4-1.4,0.6-1.9,0.4c-0.2-0.1-0.5-0.3-0.8-0.6
				c-0.3-0.4-0.5-0.6-0.7-0.7c0.3-2.3,1.2-5.1,2.6-8.4c1.6-3.7,2.7-6.4,3.1-8.1c-0.2,0-0.4,0-0.7,0.3c-0.3,0.2-0.6,0.4-0.9,0.4
				c-0.3,0.5-0.9,1.2-1.7,2.1c-0.8,0.9-1.4,1.6-1.7,2.1c0,0-0.1-0.1-0.3-0.2c-0.1-0.1-0.2,0-0.3,0.1c-0.2,0.1-0.2,0.2-0.1,0.4
				c0.1,0.2,0.1,0.4,0,0.5c-0.1,0.1-0.2,0.1-0.3,0c-0.1-0.1-0.2-0.1-0.3,0c-0.2,0.2-0.6,0.7-1,1.6c-0.3,0.5-0.4,0.8-0.4,0.8
				c-0.3,0.4-0.5,0.4-0.7,0.1c-0.1-0.1,0.1-0.5,0.6-1c0.1-0.1,0.4-0.4,0.6-0.7c0.3-0.3,0.4-0.5,0.5-0.5c0.8-0.9,1.8-2.1,3.2-3.6
				c1.7-1.9,2.7-3.1,3-3.3c0.1,0.2,0.3,0.3,0.5,0.2c0.4-0.1,0.6-0.1,0.6-0.2C200.6,40.2,200.2,42,199.5,44z M186.6,50.8
				c0.2,0,0.3,0,0.3,0c0,0-0.1,0.1-0.3,0.1c-0.5,0.1-0.8,0-0.8-0.1C185.9,50.7,186.1,50.7,186.6,50.8z M189.8,50.3
				c-0.7,0.7-1.4,1-2,0.9c-0.1,0.1,0.4-0.2,1.3-0.9c0.5-0.3,0.7-0.8,0.7-1.3C189.5,49,189.5,49.4,189.8,50.3z M191,48.4
				c-0.1,0.2-0.2,0.4-0.5,0.3c-0.1-0.2,0-0.3,0.1-0.4c0.1-0.1,0.2-0.3,0.2-0.4C191,48,191,48.2,191,48.4z M196.3,56
				c0.6,0,1-0.2,1.4-0.5c-0.7,0.4-1.3,0.4-1.8,0.2c0-0.3,0-0.7,0.1-1.1c0.1-0.5,0.2-0.8,0.1-0.9c0,0.1-0.1,0.2-0.1,0.2
				c0,0-0.1,0-0.1-0.1c0,0-0.1-0.1-0.1,0c0,0.4,0.1,0.7,0.2,1c-0.1-0.1-0.2-0.1-0.1,0c0,0.1-0.1,0.2-0.1,0.2
				C195.4,55.6,195.6,56,196.3,56z M223.4,53.8c0.1,0.8,0.5,1.3,1.3,1.5c0.7,0.2,1.4,0,1.9-0.5C225,55.3,223.9,55,223.4,53.8z"/>
		</g>
	</g>
	<g id="XMLID_60_">
		<g id="XMLID_251_">
			<g id="XMLID_267_">
				<path id="XMLID_282_" class="st1" d="M27.9,99.4l10.9-1.3l0,0.4c-1.2,0.1-2,0.4-2.4,0.8c-0.4,0.5-0.6,1.5-0.4,3.3l1.7,14.6
					l20.7-19.6c0.4-0.4,0.6-0.7,0.6-0.9c0-0.3-0.6-0.4-1.6-0.3l0-0.4l8.2-1l0,0.4c-2.1,0.3-4,1.3-5.8,3l-18,17L63.2,128
					c0,0,0,0,0.1,0c0,0,0.1,0,0.1,0.1c0,0,0.1,0,0.1,0c2.8,1.6,5,2.8,6.5,3.4c1.5,0.6,2.9,0.9,4.1,0.7l0,0.4l-13,1.5l0-0.4
					c1.2-0.1,1.7-0.3,1.7-0.6c0-0.2-0.6-0.6-1.6-1.3L37.9,118l1.6,14.1c0.2,1.7,0.4,2.7,0.7,3c0.3,0.4,0.6,0.6,1,0.7
					c0.4,0.1,1,0.1,1.9-0.1l0,0.4l-10.9,1.3l0-0.4c1.5-0.1,2.3-0.4,2.7-1c0.3-0.5,0.4-1.6,0.2-3.3l-3.4-29.5
					c-0.2-1.7-0.5-2.8-0.9-3.2c-0.4-0.5-1.4-0.6-2.8-0.3L27.9,99.4z"/>
				<path id="XMLID_279_" class="st1" d="M94.5,112.4l-11.2,1.3l-4.1,15c-0.3,1.1-0.4,1.7-0.4,2c0.1,0.6,0.5,0.8,1.4,0.7l0,0.4
					l-5.7,0.7l0-0.4c0.8-0.1,1.4-0.3,1.8-0.8c0.5-0.4,0.9-1.5,1.4-3.1l9.8-36.4l0.7-0.1l17.5,32.1c0,0.2,0.5,0.9,1.3,2.3
					c0.9,1.4,2,2,3.4,1.8l0,0.4l-8.9,1l0-0.4c0.8-0.1,1.2-0.5,1.1-1.1c-0.1-0.4-0.3-1.1-0.8-2c-0.1-0.1-0.2-0.2-0.2-0.3
					c-0.1-0.2-0.1-0.3-0.1-0.3L94.5,112.4z M83.6,112.6l10.3-1.2l-6.7-12.4L83.6,112.6z"/>
				<path id="XMLID_277_" class="st1" d="M111.5,128.3l0-0.4c1.2-0.1,1.9-0.5,2.2-0.9c0.3-0.5,0.4-1.3,0.3-2.4l-3.6-31.2
					c-0.1-1.1-0.4-1.9-0.7-2.3c-0.3-0.5-1.2-0.6-2.6-0.5l0-0.4l10.2-1.2l0,0.4c-0.9,0.1-1.6,0.3-1.9,0.6c-0.4,0.3-0.6,0.6-0.7,0.9
					c-0.1,0.3-0.1,1.1,0.1,2.2l3.1,26.7c0.3,2.3,1,3.8,2.2,4.7c1.2,0.8,3.2,1.1,5.8,0.8l4.6-0.5c2.2-0.3,3.8-1,4.7-2.2
					c0.9-1.2,1.3-3.4,1-6.4l0.4,0l1.1,9.2L111.5,128.3z"/>
				<path id="XMLID_275_" class="st1" d="M147.1,85.5l0,0.4c-0.5,0-1.1,0.1-1.6,0.4c-0.6,0.3-0.9,0.6-1,1c-0.1,0.4,0,1.4,0.2,2.8
					l3.4,29.2c0.2,1.6,0.4,2.5,0.5,2.9c0.2,0.3,0.5,0.6,0.9,0.8c0.4,0.2,1.1,0.2,2,0.1l0,0.4l-10.2,1.2l0-0.4c1.3-0.1,2-0.5,2.3-1
					c0.3-0.5,0.3-1.7,0.1-3.4L140.3,91c-0.2-1.8-0.5-3-0.9-3.5c-0.4-0.5-1.2-0.7-2.4-0.5l0-0.4L147.1,85.5z"/>
				<path id="XMLID_273_" class="st1" d="M185.7,81l6-0.7l0,0.4c-2,0.3-2.9,1.5-2.7,3.5c0.1,0.4,0.2,1,0.4,1.8l7.4,28.4
					c0.4,1.4,0.8,2.3,1.1,2.7c0.3,0.4,1,0.5,2,0.5l0,0.4l-8.6,1l0-0.4c1.1-0.1,1.7-0.7,1.5-1.8c0-0.3-0.1-0.8-0.3-1.5l-7.2-27.5
					l-10,33.1l-0.3,0L157.8,91l-0.6,28.6c0,0.4,0,0.9,0.1,1.5c0.1,1,0.8,1.4,1.9,1.3l0,0.4l-5.8,0.7l0-0.4c0.9-0.1,1.4-0.3,1.7-0.5
					c0.2-0.2,0.4-0.6,0.5-1.1c0.1-0.5,0.1-1,0.1-1.6l0.8-31.3c-0.9-1.6-1.7-2.6-2.5-2.8c-0.7-0.3-1.5-0.4-2.1-0.3l0-0.4l7.2-0.8
					l17,29.6L185.7,81z"/>
				<path id="XMLID_270_" class="st1" d="M220.3,97.9l-11.2,1.3l-4.1,15c-0.3,1.1-0.4,1.7-0.4,2c0.1,0.6,0.5,0.8,1.4,0.7l0,0.4
					l-5.7,0.7l0-0.4c0.8-0.1,1.4-0.3,1.8-0.8c0.5-0.4,0.9-1.5,1.4-3.1l9.8-36.4l0.7-0.1l17.5,32.1c0,0.2,0.5,0.9,1.3,2.3
					c0.9,1.4,2,2,3.4,1.8l0,0.4l-8.9,1l0-0.4c0.8-0.1,1.2-0.5,1.1-1.1c-0.1-0.4-0.3-1.1-0.8-2c-0.1-0.1-0.2-0.2-0.2-0.3
					c-0.1-0.2-0.1-0.3-0.1-0.3L220.3,97.9z M209.4,98.1l10.3-1.2L213,84.5L209.4,98.1z"/>
				<path id="XMLID_268_" class="st1" d="M264.4,91.2l-20.9,2.4l1.7,14.6c0.2,1.4,0.3,2.2,0.5,2.6c0.2,0.4,0.5,0.7,0.8,0.9
					c0.4,0.2,1,0.3,1.9,0.2l0,0.4l-9.9,1.1l0-0.4c1.8-0.1,2.6-1.1,2.4-2.9l-3.6-30.6c-0.2-1.7-0.5-2.8-0.8-3.3
					c-0.3-0.4-1.1-0.6-2.4-0.5l0-0.4l9.9-1.1l0,0.4c-1.1,0.2-1.8,0.5-2.1,0.9c-0.3,0.4-0.4,1.1-0.3,2.2l1.7,14.9l20.9-2.4l-1.6-13.6
					c-0.2-1.6-0.4-2.6-0.8-3.1c-0.3-0.5-1.1-0.7-2.3-0.6l0-0.4l9.7-1.1l0,0.4c-0.8,0.1-1.3,0.2-1.7,0.5c-0.4,0.2-0.6,0.5-0.7,0.9
					c-0.1,0.4,0,1.4,0.1,2.9l3.4,29.2c0.2,1.5,0.3,2.4,0.5,2.8c0.2,0.4,0.5,0.6,0.8,0.8c0.4,0.2,1,0.3,1.8,0.2l0,0.4l-9.7,1.1l0-0.4
					c1.1-0.1,1.7-0.4,2-0.9c0.3-0.5,0.3-1.7,0.1-3.5L264.4,91.2z"/>
			</g>
			<g id="XMLID_264_">
				<path id="XMLID_266_" class="st2" d="M308,53.3c0,0,21.2-24.3,35-7.4c0,0,27,22.4-38.5,42.1c0,0,56.2-21.7,35.2-40
					C339.6,48,331.4,38.7,308,53.3z"/>
				<path id="XMLID_265_" class="st2" d="M307.1,53.4c0,0-9.3-30.7-28.8-20.9c0,0-33.7,9.4,17.9,53.9c0,0-42.2-42.6-15.6-50.7
					C280.6,35.8,291.8,30.7,307.1,53.4z"/>
			</g>
			<g id="XMLID_252_">
				<path id="XMLID_262_" class="st1" d="M289.2,95.9l1.9,3.9l-0.4,0c-4.1-3.3-8.7-4.6-13.7-4c-5.2,0.6-9.2,2.6-12.1,6.1
					c-2.8,3.5-4,7.4-3.5,11.8c0.3,2.7,1.4,5.8,3.2,9.1c1.8,3.4,4.4,6,7.8,7.9c3.3,1.9,7.2,2.6,11.6,2.1c2.9-0.3,5.6-1.1,8.3-2.4
					c2.7-1.2,4.6-2.7,5.7-4.4l0.3,0.1l-2.2,4.4c-4.2,1.4-7,2.3-8.2,2.6c-1.3,0.3-3,0.6-5.1,0.9c-8,0.9-14-0.3-17.8-3.6
					c-3.9-3.3-6.1-7.6-6.7-12.7c-0.4-3.5,0.1-7,1.5-10.4c1.4-3.4,3.7-6.3,6.8-8.5c3.1-2.2,6.8-3.6,11.1-4.1c2.1-0.2,4-0.3,5.6-0.1
					c1.6,0.2,3,0.5,4,0.8l1.8,0.4C289.1,95.9,289.2,95.9,289.2,95.9z"/>
				<path id="XMLID_260_" class="st1" d="M306.9,92.1l0,0.4c-0.5,0-1.1,0.1-1.6,0.4c-0.6,0.3-0.9,0.6-1,1c-0.1,0.4,0,1.4,0.2,2.8
					l3.4,29.2c0.2,1.6,0.4,2.5,0.5,2.9c0.2,0.3,0.5,0.6,0.9,0.8c0.4,0.2,1.1,0.2,2,0.1l0,0.4l-10.2,1.2l0-0.4c1.3-0.1,2-0.5,2.3-1
					c0.3-0.5,0.3-1.7,0.1-3.4l-3.4-28.9c-0.2-1.8-0.5-3-0.9-3.5c-0.4-0.5-1.2-0.7-2.4-0.5l0-0.4L306.9,92.1z"/>
				<path id="XMLID_258_" class="st1" d="M342,88l7.4-0.9l0,0.4c-1.1,0.2-1.9,0.5-2.2,1c-0.4,0.5-0.5,1.4-0.3,2.9l4,34.7l-34.1-28.8
					l3.3,28.2c0.1,0.9,0.2,1.6,0.4,2c0.2,0.4,0.4,0.7,0.7,0.8c0.3,0.1,0.9,0.2,2,0.2l0,0.4l-7.3,0.8l0-0.4c1.3-0.2,2.1-0.5,2.4-1
					c0.3-0.5,0.3-1.6,0.1-3.4l-3-25.8c-0.3-2.3-0.8-4.1-1.6-5.4c-0.8-1.4-2.3-1.9-4.6-1.5l0-0.4l7.2-0.8l32.1,27.1l-3.1-26.9
					c-0.2-1.4-0.5-2.3-1.1-2.6c-0.6-0.3-1.2-0.3-2-0.2L342,88z"/>
				<path id="XMLID_256_" class="st1" d="M383.1,81.9l-1.3,4.8l-0.4,0c0-0.3,0-0.7,0-1.1c0-0.4-0.2-0.6-0.5-0.7
					c-0.3-0.1-0.8-0.1-1.4,0l-9.9,1.2l3.8,32.6c0.2,1.3,0.4,2.2,0.6,2.7c0.3,0.5,0.6,0.7,1,0.8c0.4,0.1,1,0.1,1.8,0l0,0.4l-10.3,1.2
					l0-0.4c1.3-0.2,2.1-0.6,2.3-1c0.3-0.5,0.3-1.3,0.2-2.6l-3.8-33.1l-9.5,1.1c-1,0.1-1.6,0.2-1.9,0.4c-0.3,0.1-0.4,0.4-0.3,0.9
					c0,0.2,0.1,0.6,0.3,1l-0.4,0l-2.3-4.4l0.4,0c0.4,0.6,0.7,0.9,1,1c0.3,0.1,1,0.1,2,0l25.3-2.9c1-0.1,1.7-0.3,2.1-0.4
					c0.4-0.2,0.7-0.6,0.8-1.2L383.1,81.9z"/>
				<path id="XMLID_253_" class="st1" d="M403.4,101.7l-11.2,1.3l-4.1,15c-0.3,1.1-0.4,1.7-0.4,2c0.1,0.6,0.5,0.8,1.4,0.7l0,0.4
					l-5.7,0.7l0-0.4c0.8-0.1,1.4-0.3,1.8-0.8c0.5-0.4,0.9-1.5,1.4-3.1l9.8-36.4l0.7-0.1l17.5,32.1c0,0.2,0.5,0.9,1.3,2.3
					c0.9,1.4,2,2,3.4,1.8l0,0.4l-8.9,1l0-0.4c0.8-0.1,1.2-0.5,1.1-1.1c-0.1-0.4-0.3-1.1-0.8-2c-0.1-0.1-0.2-0.2-0.2-0.3
					c-0.1-0.2-0.1-0.3-0.1-0.3L403.4,101.7z M392.5,101.9l10.3-1.2l-6.7-12.4L392.5,101.9z"/>
			</g>
		</g>
	</g>
</g>
</svg>
