<?xml version="1.0" encoding="utf-8"?>
<!-- Generator: Adobe Illustrator 19.1.0, SVG Export Plug-In . SVG Version: 6.00 Build 0)  -->
<svg version="1.1" id="Layer_1" xmlns="http://www.w3.org/2000/svg" xmlns:xlink="http://www.w3.org/1999/xlink" x="0px" y="0px"
	 viewBox="0 0 502.7 72.3" style="enable-background:new 0 0 502.7 72.3;" xml:space="preserve">
<style type="text/css">
	.st0{fill:#FFFFFF;}
</style>
<g>
	<g>
		<path class="st0" d="M257.7,57.3c-3.7,0-7.4,0.1-11.1,0c-1.8-0.1-3.3-1.2-4.5-2.5c-3.2-3.5-4.6-7.6-4.2-12.3
			c0.2-1.7,0.3-3.4,0.8-4.9c1.5-5,5.2-7.6,10.3-7.7c0.9,0,1.8-0.1,2.8,0c1.1,0.1,1.4-0.3,1.4-1.4c-0.1-4.9,0-9.8,0-14.6
			c0-0.5,0-0.9,0-1.5c1.5,0,3,0,4.5,0C257.7,27.3,257.7,42.2,257.7,57.3z M253.1,55.4c0-0.3,0.1-0.7,0.1-1c0-6.9,0-13.8,0-20.7
			c0-1-0.5-1.3-1.3-1.5c-3.4-0.6-5.9,0.5-7.5,3.6c-2.5,5-2.4,10.1,0,15.1C246.1,54.5,249.2,56,253.1,55.4z"/>
		<path class="st0" d="M291.4,44.5c1.5,0,3,0,4.4,0c0,8.6,0,17.1,0,25.7c-1.3,0-2.5,0.1-3.7-0.1c-0.2,0-0.6-0.7-0.6-1.1
			c0-3.7,0-7.4,0-11.2c0-0.5,0-0.9,0-1.5c-0.3,0.1-0.5,0.2-0.6,0.3c-3.2,2.9-8.4,2-11.3-1.3c-2.3-2.7-3.3-5.8-3.5-9.2
			c-0.3-4.3,0.2-8.4,2.6-12.1c2.4-3.6,6.1-5.2,9.9-4.2c2.2,0.6,4.7,2.8,6.3,5.6c-1.2,1.7-1.9,1.7-3,0c-0.3-0.5-0.6-0.9-0.9-1.4
			c-1.3-3-5.6-3.1-7.6-0.4c-1.3,1.8-2,3.9-2.3,6.1c-0.6,3.8-0.7,7.7,0.6,11.4c0.4,1.3,1.1,2.5,2,3.5c1.2,1.5,3.2,1.9,4.8,1.3
			c1.8-0.7,2.9-2.3,2.9-4.3C291.4,49.2,291.4,46.8,291.4,44.5z"/>
		<path class="st0" d="M216.5,35.1c0,0.5-0.1,0.9-0.1,1.4c0,6.6,0,13.2,0,19.8c0,0.9-0.3,1.3-1.2,1.2c-0.8,0-1-0.3-1-1.1
			c0-3.3,0-6.6,0-9.8c0-3.9,0-7.8,0-11.6c0-0.3,0-0.6,0-0.8c0.1-2,1-3.5,2.6-3.9c1.5-0.4,3.2,0.3,4.2,2c2.2,3.9,4.4,7.8,6.5,11.7
			c0.7,1.3,1.5,2.6,2.5,3.9c0-5.6,0-11.3,0-17c0.8,0,1.3,0,2.1,0c0,0.4,0.1,0.8,0.1,1.3c0,7.8,0,15.6,0,23.4c0,0.3,0,0.6,0,1
			c-0.1,0.8-0.5,1.3-1.3,1.5c-0.8,0.2-1.2-0.2-1.6-0.9c-3.9-7-7.8-13.9-11.7-20.9c-0.2-0.4-0.5-0.8-0.7-1.1
			C216.7,35,216.6,35,216.5,35.1z"/>
		<path class="st0" d="M199.8,16.6c2.1,0,3.9,0,5.8,0c0,0.5,0.1,0.9,0.1,1.3c0,12.7,0,25.4,0,38.1c0,1.1-0.4,1.5-1.4,1.4
			c-1.2-0.1-2.3,0-3.5,0c-0.8,0-1-0.3-1-1.1c0-2.5,0-5,0-7.4c0-10.2,0-20.5,0-30.7C199.8,17.7,199.8,17.2,199.8,16.6z"/>
		<path class="st0" d="M351.3,12.3c1.5,0,2.8,0,4.4,0c0,0.6,0,1.1,0,1.6c0,13,0,26,0,39c0,2.2,0.3,2.7,2.5,2.5c0.5,0,0.9,0,1.5,0
			c0,0.7,0,1.3,0,2c-2.1,0-4.3,0.1-6.3-0.1c-0.6,0-1.3-0.8-1.6-1.4c-0.4-0.8-0.5-1.7-0.5-2.6c0-13.3,0-26.6,0-39.8
			C351.3,13.1,351.3,12.8,351.3,12.3z"/>
		<path class="st0" d="M346.8,57.4c-1.5,0-2.9,0-4.2,0c-0.3,0-0.7-0.5-0.8-0.8c-0.6-2.2-1.1-4.3-1.6-6.5c-0.2-0.7-0.5-0.9-1.1-0.9
			c-2.2,0-4.4,0-6.6,0c-0.7,0-1,0.2-1.1,0.9c-0.4,2-0.8,4-1.3,6c-0.3,1.6-0.4,1.6-2.3,1.2c0.3-1.3,0.5-2.7,0.9-4
			c1.6-6.8,3.1-13.6,4.7-20.4c0.5-2,1.5-3,3.2-3.2c1.6-0.2,3.2,0.6,3.9,2.4c0.6,1.5,1,3.2,1.4,4.8C343.5,43.5,345.1,50.4,346.8,57.4
			z M339.4,46.8c-0.5-2.2-0.9-4.2-1.4-6.1c-0.5-2-1-4-1.5-6c-0.1-0.4-0.5-0.6-0.7-1c-0.3,0.3-0.7,0.6-0.8,0.9c-0.4,1-0.7,2-0.9,3
			c-0.7,3-1.3,6.1-1.9,9.2C334.6,46.8,337,46.8,339.4,46.8z"/>
		<path class="st0" d="M312.1,30.4c4.5,0,9,0,13.4,0c0.4,1.8,0.3,1.9-1.4,1.9c-1,0-2.1,0-3.2,0c0,0.6-0.1,1-0.1,1.5
			c0,7.4,0,14.9,0,22.3c0,1.1-0.4,1.4-1.4,1.4c-2.9,0-2.9,0-2.9-3c0-7,0-13.9,0-20.9c0-1-0.3-1.5-1.3-1.4c-0.6,0.1-1.2,0-1.8,0
			C311.9,32.2,311.8,32.1,312.1,30.4z"/>
		<path class="st0" d="M265.6,30.6c1.5,0,2.9,0,4.3,0c0,8.9,0,17.8,0,26.7c-1.5,0-2.9,0-4.3,0C265.6,48.4,265.6,39.5,265.6,30.6z"/>
		<path class="st0" d="M302.6,30.7c0.2-0.1,0.3-0.1,0.3-0.1c4.1-0.3,4.1-0.3,4.1,3.8c0,7.2,0,14.4,0,21.6c0,1.2-0.3,1.6-1.5,1.6
			c-3-0.1-3,0-3-3c0-7.5,0-14.9,0-22.4C302.5,31.6,302.6,31.1,302.6,30.7z"/>
		<path class="st0" d="M316.5,63.3c0-1.1,0-2,0-3c0.5,0,0.9,0,1.4,0c0,1.2,0,2.3,0,3.4c0,2,0,4,0,6c0,1.7-0.8,2.5-2.5,2.5
			c-0.8,0-1.7,0-2.5,0c-1.3,0-2.2-0.8-2.2-2.1c-0.1-1.6-0.1-3.2,0-4.8c0.1-1.3,0.7-1.9,2.1-2c0.6,0,1.2,0,1.8,0
			C315.1,63.3,315.7,63.3,316.5,63.3z M312,67.8c0,3.2,0,3.2,3.2,3c0.9,0,1.3-0.5,1.3-1.3c0-1.2,0-2.3,0-3.5c0-0.8-0.4-1.3-1.2-1.3
			C311.7,64.7,312,64.4,312,67.8z"/>
		<path class="st0" d="M334.4,60.4c0.5,0,0.9,0,1.3,0c0,0.9,0,1.9,0,3c1.2,0,2.2,0,3.3,0c1.9,0,2.6,0.6,2.6,2.6c0,1.4,0,2.7,0,4.1
			c-0.1,1.6-0.8,2.2-2.3,2.3c-0.9,0-1.8,0-2.8,0c-1.1,0-2.1-0.8-2.1-1.9C334.3,67,334.4,63.7,334.4,60.4z M340.1,67.9
			c-0.1-3.4,0.6-3.2-3.2-3.2c0,0-0.1,0-0.1,0c-0.7,0-1.1,0.4-1.1,1.1c0,1.2,0,2.4,0,3.6c0,1,0.4,1.4,1.3,1.4
			C340.6,70.8,340.1,71.2,340.1,67.9z"/>
		<path class="st0" d="M359.1,63.3c0-1,0-1.9,0-2.9c0.5,0,0.9,0,1.5,0c0,0.5,0,1,0,1.5c0,2.5,0,5,0,7.6c0,2-0.8,2.7-2.8,2.8
			c-0.8,0-1.6,0-2.4,0c-1.2-0.1-2.1-0.8-2.1-2c-0.1-1.7-0.1-3.4,0-5c0-1.2,0.8-1.8,2.1-1.8C356.6,63.3,357.8,63.3,359.1,63.3z
			 M359.1,67.8c0-0.7,0-1.4,0-2c0-0.8-0.5-1.1-1.2-1c-1.1,0.2-2.4-0.7-3.2,0.7c0,0.1,0,0.2,0,0.2c0,1.4-0.1,2.7,0,4.1
			c0,0.4,0.6,0.9,0.9,0.9C359.3,70.8,359.1,71.2,359.1,67.8z"/>
		<path class="st0" d="M307.9,20.8c0,2-1.4,3.8-3.1,3.8c-1.6,0-3.1-1.7-3.1-3.8c0,0,0-0.1,0-0.1c0-2,1.4-3.7,3.1-3.7
			C306.5,17,307.9,18.8,307.9,20.8z"/>
		<path class="st0" d="M264.7,20.6c0.1-0.4,0.1-0.8,0.2-1.2c0.5-1.5,1.8-2.5,3.1-2.3c1.3,0.1,2.5,1.4,2.7,2.9
			c0.1,0.7,0.1,1.5-0.1,2.2c-0.4,1.4-1.8,2.5-3.1,2.4c-1.3-0.1-2.6-1.5-2.8-2.9C264.7,21.4,264.7,21,264.7,20.6z"/>
		<path class="st0" d="M343.8,60.4c0.4,0,0.8,0,1.3,0c0,0.9,0.1,1.9,0.1,3c1.2,0,2.3,0,3.5,0c1.7,0,2.4,0.7,2.4,2.4
			c0,2.1,0,4.2,0,6.4c-0.5,0-0.9,0-1.4,0c0-1.9,0-3.7,0-5.5c0-1.7-0.2-1.9-1.8-1.9c-2.7,0-2.7,0-2.7,2.7c0,1.5,0,3,0,4.4
			c0,0.1-0.1,0.1-0.1,0.3c-0.3,0-0.7,0-1.2,0.1C343.8,68.3,343.8,64.4,343.8,60.4z"/>
		<path class="st0" d="M308.6,63.3c0,0.5,0,0.9,0,1.4c-1.3,0-2.6,0-3.9,0c-0.7,0-1.2,0.1-1.2,1c0,0.8,0.4,1.2,1.2,1.2
			c0.7,0,1.4,0,2,0c1.2,0.1,1.8,0.8,1.9,1.9c0,0.6,0.1,1.2,0,1.8c-0.1,0.9-0.7,1.6-1.6,1.6c-1.6,0.1-3.1,0-4.7,0c0-0.5,0-0.9,0-1.4
			c1.3,0,2.6,0,4,0c0.8,0,1.1-0.3,1-1.1c0-0.7,0-1.4-1-1.4c-0.7,0-1.4,0-2.2,0c-1.5-0.1-2-0.9-1.9-2.9c0.1-1.4,0.7-2,2.1-2
			C305.7,63.3,307.2,63.3,308.6,63.3z"/>
		<path class="st0" d="M327.3,72.2c-0.5,0-0.9,0-1.4,0c0-1.9,0-3.8,0-5.7c0-1.5-0.2-1.7-1.6-1.7c-3.1,0-2.8-0.2-2.8,2.7
			c0,1.5,0,3,0,4.7c-0.5,0-0.8,0-1.3,0.1c0-2.5-0.1-5,0.1-7.4c0-0.5,0.9-1.3,1.4-1.3c1.3-0.2,2.7-0.2,4,0c0.9,0.1,1.6,0.7,1.6,1.7
			C327.4,67.4,327.3,69.8,327.3,72.2z"/>
	</g>
	<g>
		<path class="st0" d="M49,0c1.1,0.2,2.3,0.4,3.4,0.6c1.7,0.3,3,1.2,4.3,2.3c0.9,0.8,1.1,1.9,0.9,3c-0.5,3.7-2.1,7-4,10.2
			c-0.6,1-1.6,1.2-2.7,1.2c-2.2,0.1-4.5-0.2-6.7-0.5c-3.1-0.3-6.1,0-9.2,0.2c-1.3,0.1-2.6,0.1-4,0.1c-1.1,0-1.9-0.6-2.5-1.5
			c-2-2.5-2.9-5.5-3.8-8.5c-1-3.3-0.2-4.9,3.1-6c2-0.7,4.1-0.8,6.2-1.2C39,0,44,0,49,0z M30.6,7.5c1.2,1.6,2.8,2.4,4.7,2.7
			c1,0.1,1.9,0,2.3-1.1C36.6,6.2,32.6,5.3,30.6,7.5z M52.5,7.5c-0.3-0.5-0.7-0.7-1.1-0.9c-2-0.7-3.6,0-5,1.3
			c-0.4,0.4-0.8,0.8-0.6,1.5c0.2,0.7,0.8,0.8,1.4,0.9C48.5,10.5,51.7,9.2,52.5,7.5z"/>
		<path class="st0" d="M146.4,55.9c-2.1,0-4.2,0-6.4,0c-0.6,0-1.1-0.1-1.6-0.7c-4.7-5.8-9.5-11.5-14.3-17.3
			c-0.1-0.1-0.2-0.3-0.3-0.5c4.8-6.2,9.6-12.4,14.4-18.6c2,0,4,0,6.4,0c-4.9,6.1-9.7,12-14.5,18c1.1,1.2,2,2.4,3,3.5
			c4.2,4.9,8.4,9.9,12.6,14.8c0.2,0.2,0.4,0.4,0.6,0.6C146.4,55.8,146.4,55.8,146.4,55.9z"/>
		<path class="st0" d="M0,59.8c9.1,0,18.2,0,27.3,0c16.2,0,32.3,0,48.5,0c0.6,0,1.2-0.1,1.8,0.2c0.3,0.7,0.1,1.4,0.1,2.1
			c-0.4,0.4-0.9,0.3-1.3,0.3c-25.2,0-50.4,0-75.6,0c-0.3,0-0.6,0-0.8-0.1C0,61.5,0,60.6,0,59.8z"/>
		<path class="st0" d="M49.5,31.5c-6,8.2-11.9,16.2-17.8,24.2c-1.5,0.1-2.8,0.1-4.4-0.1c0-8,0-16,0-24c-0.1,0-0.2,0-0.3-0.1
			c-5.5,8.1-11,16.2-16.5,24.3c-2.9,0-5.8,0-9,0c8.6-12.5,17-24.8,25.5-37.1c2.1-0.1,4-0.1,6,0c0,7.5,0,14.9,0,22.3
			c0.1,0,0.2,0.1,0.3,0.1c5.3-7.4,10.7-14.9,16-22.4c2.3,0,4.6,0,6.9,0c0,12.4,0,24.6,0,37c-3.7,0-7.3,0-11,0
			c-0.1-1.7-0.1-3.3,0-4.9c1.4-0.5,2.7,0,4.1-0.4C49.5,44.3,49.5,38,49.5,31.5z"/>
		<path class="st0" d="M89.5,18.9c0,12.2,0,24.5,0,36.7c-1,0.4-3.8,0.4-5.2,0.1c0-9.1,0-18.3,0-27.4c-0.1,0-0.2-0.1-0.4-0.1
			c-6.3,9.2-12.7,18.4-19,27.7c-1.8,0.2-3.6,0.1-5.8,0.1c8.7-12.6,17.1-24.8,25.5-37C86.1,18.6,88.4,18.6,89.5,18.9z"/>
		<path class="st0" d="M114,18.7c-0.3,0.4-0.4,0.6-0.5,0.7c-1.5,1.5-2.9,3-4.3,4.4c-1.7-0.1-3.4-0.4-5-0.3c-1,0-1.9,0.1-2.8,0.4
			c-1.8,0.5-3.1,1.4-3.5,3.4c-0.4,2,0.4,3.5,2.1,4.6c1.9,1.2,4,2,6,2.9c2.1,1,4.1,2.1,5.8,3.8c3.8,3.7,3.9,12.7-2.9,15.6
			c-2.8,1.2-5.8,1.6-8.8,1.8c-2.5,0.1-5,0-7.4,0c-0.2,0-0.5,0-0.6-0.1c1.5-1.5,3-3,4.7-4.7c1.7-0.1,3.9,0.2,6.1-0.3
			c1.3-0.3,2.6-0.7,3.8-1.5c2.6-1.7,3.1-6.4-0.2-8.2c-2.2-1.2-4.6-1.9-6.9-2.8c-2.2-0.9-4.4-2-5.8-4.1c-3.5-5.2-1.1-12.5,4.8-14.5
			c1.8-0.6,3.7-0.9,5.6-1C107.4,18.7,110.5,18.7,114,18.7z"/>
		<path class="st0" d="M116.8,18.7c2-0.1,3.8-0.1,5.7,0c0,12.3,0,24.6,0,37c-1.9,0.2-3.7,0.2-5.7,0
			C116.8,43.4,116.8,31.2,116.8,18.7z"/>
		<path class="st0" d="M136.3,66c-0.8-0.1-0.7-0.7-0.7-1.1c0-1.8,0-3.7,0-5.5c0-1.4-0.3-1.7-1.7-1.7c-1.6,0-3.2-0.1-4.6,0.1
			c-0.6,0.7-0.4,1.4-0.4,1.9c0,1.8,0,3.5,0,5.3c0,0.5,0,1-0.6,1c-0.5-0.4-0.3-0.9-0.3-1.4c0-1.8,0-3.7,0-5.5c0-1-0.4-1.5-1.4-1.4
			c-1.3,0-2.6,0-3.8,0c-1.1,0-1.6,0.6-1.6,1.6c0,1.8,0,3.6,0,5.4c0,0.5,0.1,1-0.3,1.3c-0.8-0.1-0.6-0.7-0.6-1.1
			c0-2.6-0.2-5.2,0.2-7.9c2.6-0.4,5.3-0.5,8.1,0c1.9-0.6,4-0.3,6-0.3c1.4,0,2.1,0.9,2.1,2.4c0,1.9,0,3.8,0,5.8
			C136.6,65.2,136.6,65.6,136.3,66z"/>
		<path class="st0" d="M114.5,66c-2.5,0-4.9,0.1-7.1,0c-1.6-0.1-2.2-1.4-2-3.5c0.1-1.2,0.9-1.9,2.4-2c1.8,0,3.6,0,5.4,0
			c0.6-1.8,0-2.6-1.7-2.7c-1.5-0.1-3.1,0.1-4.6-0.1c-0.3-0.8,0.1-1,0.6-1c1.4,0,2.9-0.1,4.3,0c1.7,0.1,2.6,1.2,2.6,2.9
			C114.5,61.6,114.5,63.7,114.5,66z M106.5,61.8c-0.2,0.9-0.2,1.6-0.1,2.2c0,0.5,0.3,0.9,0.8,1c2,0.2,4.1,0.1,6.2,0
			c0.2-1.2,0.2-2.3-0.1-3.5C111,61.6,108.8,61.2,106.5,61.8z"/>
		<path class="st0" d="M99.9,61.5c-2.5,0-5,0-7.4,0c-0.5,1-0.4,1.8-0.2,2.7c0.1,0.7,0.7,0.9,1.4,0.9c1.4,0,2.7,0,4.1,0
			c0.4,0,1-0.1,1.1,0.5c-0.1,0.3-0.2,0.4-0.5,0.4c-1.8,0-3.6,0.1-5.4,0c-1,0-1.9-1.3-1.9-2.6c-0.1-1.4-0.1-2.8,0-4.2
			c0.1-1.4,1.2-2.5,2.7-2.5c1.2-0.1,2.5-0.1,3.7,0C99.5,56.8,100.5,58.8,99.9,61.5z M98.9,60.4c0.5-1.7-0.2-2.7-1.8-2.7
			c-1,0-1.9,0.1-2.9,0c-1.4-0.1-2.5,1.2-1.7,2.8C94.5,60.5,96.7,60.5,98.9,60.4z"/>
		<path class="st0" d="M83.2,56.4c0.9,0.6,2.2-0.3,3,0.8c-1,0.8-2.1,0.1-3.1,0.7c-0.2,1.7-0.2,3.5,0,5.3c0.1,1.1,1.1,1.5,2,1.7
			c0.3,0.4,0.3,0.6,0.1,0.9c-1.8-0.1-3.1-1.3-3.2-3c0-1.6,0-3.3,0-4.8c-1-0.6-2.1,0-2.9-0.5c-0.1-0.9,0.6-0.7,1.1-0.8
			c0.5-0.1,1.1,0.1,1.7-0.2c0.5-1.1-0.2-2.4,0.6-3.6C83.5,54,82.7,55.3,83.2,56.4z"/>
	</g>
	<g>
		<g>
			<g>
				<path class="st0" d="M449.6,41.6c-0.6,1.3,0.3,3.6,0.5,4.9c0.1,0.6-0.1,1.3-0.1,1.8h0.1v0c0.8-1.6-0.3-3.6-0.3-5.2
					c0.1,0,0,0,0,0h0c0.1,0.1,0.2,0.2,0.3,0.2C450.1,42.8,450,41.9,449.6,41.6"/>
				<path class="st0" d="M450.2,48.4H450v-0.1c0-0.2,0-0.4,0-0.7c0-0.4,0.1-0.8,0-1.1c0-0.3-0.1-0.7-0.2-1.1
					c-0.3-1.3-0.7-2.8-0.3-3.8l0-0.1l0.1,0c0.3,0.2,0.5,0.9,0.6,1.4c0,0.1,0.1,0.2,0.1,0.3l0,0.1h-0.1c-0.1,0-0.2-0.1-0.3-0.2
					c0,0,0,0,0,0c0,0.6,0.1,1.2,0.3,1.8C450.4,46.1,450.7,47.3,450.2,48.4L450.2,48.4L450.2,48.4z M449.6,41.7c-0.4,1,0,2.5,0.3,3.7
					c0.1,0.4,0.2,0.8,0.3,1.1c0.1,0.4,0,0.8,0,1.2c0,0.2,0,0.4,0,0.5c0.5-1,0.2-2.1,0-3.3c-0.2-0.7-0.3-1.3-0.3-1.9v-0.1h0.1v0h0.1
					l0,0c0,0.1,0.1,0.1,0.1,0.2c0-0.1,0-0.1-0.1-0.2C450,42.5,449.8,42,449.6,41.7L449.6,41.7z"/>
			</g>
			<g>
				<path class="st0" d="M448.7,41.7c-0.5,0.3-1.2,0.5-1.8,0.6c-0.6,0.2-1.1,0.4-1.6,0.7c-0.3,0.2-0.7,0.3-0.9,0.5
					c-0.1,0-0.3,0.4-0.2,0.4v0c0.1,0,0.1,0,0.1,0c0.7-0.3,1.4-0.7,2-1c0.6-0.3,1.3-0.4,1.9-0.7c0.1,0,0.6-0.4,0.6-0.4
					C448.8,41.7,448.7,41.7,448.7,41.7L448.7,41.7z"/>
				<path class="st0" d="M444.2,44L444.2,44C444.2,44,444.2,44,444.2,44C444.2,44,444.1,44,444.2,44l-0.1,0v-0.1c0,0,0,0,0,0
					c0-0.1,0.2-0.4,0.2-0.4c0.2-0.2,0.4-0.3,0.7-0.4c0.1,0,0.2-0.1,0.3-0.1l0,0c0.5-0.3,1-0.5,1.6-0.7c0.1,0,0.3-0.1,0.4-0.1
					c0.5-0.1,1-0.3,1.4-0.5l0,0h0.1l0,0c0,0,0,0.1,0,0.1l0,0.1l0,0c0,0-0.5,0.3-0.6,0.4c-0.2,0.1-0.5,0.2-0.7,0.2
					c-0.4,0.1-0.8,0.3-1.2,0.4c-0.4,0.2-0.7,0.4-1.1,0.5C444.9,43.6,444.6,43.8,444.2,44C444.3,43.9,444.3,43.9,444.2,44
					C444.3,44,444.2,44,444.2,44L444.2,44z M444.2,43.9L444.2,43.9L444.2,43.9C444.2,43.9,444.2,43.9,444.2,43.9L444.2,43.9z
					 M444.2,43.8L444.2,43.8L444.2,43.8L444.2,43.8c0.3-0.1,0.7-0.3,1-0.5c0.3-0.2,0.7-0.4,1.1-0.5c0.4-0.2,0.8-0.3,1.2-0.4
					c0.2-0.1,0.5-0.1,0.7-0.2c0.1,0,0.4-0.2,0.5-0.3c0,0,0,0,0,0c-0.4,0.2-0.9,0.4-1.4,0.5c-0.1,0-0.3,0.1-0.4,0.1
					c-0.6,0.2-1.1,0.4-1.6,0.7l0,0c-0.1,0-0.2,0.1-0.3,0.1c-0.2,0.1-0.5,0.2-0.7,0.4l0,0C444.3,43.6,444.2,43.7,444.2,43.8
					L444.2,43.8z"/>
			</g>
			<g>
				<path class="st0" d="M451.5,41.7c-0.2,0.4-0.3,0.7-0.3,1.2c0.1,0,0.1,0,0.2,0c0-0.1,0.1-0.2,0.2-0.2
					C451.4,42.3,451.7,42,451.5,41.7"/>
				<path class="st0" d="M451.5,43L451.5,43c-0.1,0-0.1,0-0.2,0c0,0,0,0-0.1,0l0,0v0c0-0.5,0.1-0.8,0.3-1.2l0.1-0.1l0,0.1
					c0.1,0.2,0,0.3,0,0.5c0,0.2-0.1,0.3,0,0.6l0.1,0.1h-0.1C451.6,42.8,451.5,42.9,451.5,43L451.5,43L451.5,43z M451.3,42.9
					C451.3,42.9,451.3,42.9,451.3,42.9C451.3,42.9,451.4,42.9,451.3,42.9c0.1,0,0.1-0.1,0.2-0.2c-0.1-0.2-0.1-0.4,0-0.6
					c0-0.1,0-0.2,0-0.2C451.4,42.2,451.3,42.5,451.3,42.9L451.3,42.9z"/>
			</g>
			<g>
				<path class="st0" d="M456.2,41.7c-0.8,0.4-5.6,1.9-5.6,2.7h0.1v-0.1c0.8-0.4,1.7-0.9,2.6-1.2c0.9-0.3,1.8-0.7,2.7-1
					C456.2,42,456.2,41.9,456.2,41.7"/>
				<path class="st0" d="M450.7,44.5h-0.2v-0.1c0-0.6,1.9-1.4,4.2-2.2c0.7-0.2,1.2-0.5,1.5-0.6l0.1,0l0,0.1c0,0.2-0.1,0.4-0.3,0.5
					c-0.9,0.4-1.9,0.7-2.7,1c-0.7,0.3-1.5,0.7-2.2,1C451,44.3,450.9,44.4,450.7,44.5L450.7,44.5L450.7,44.5z M456.2,41.8
					c-0.3,0.1-0.8,0.3-1.4,0.5c-1.4,0.5-3.8,1.4-4.1,2c0.1-0.1,0.3-0.1,0.4-0.2c0.7-0.4,1.4-0.7,2.2-1c0.9-0.3,1.8-0.7,2.7-1
					C456.1,42,456.1,41.9,456.2,41.8L456.2,41.8z"/>
			</g>
			<g>
				<path class="st0" d="M459.2,41.7c-0.3,0.5-0.3,0.9-0.3,1.5h0.2c0.1-0.1,0.1-0.3,0.2-0.4c0,0-0.2,0.1-0.2,0h0
					C459,42.5,459.3,41.9,459.2,41.7"/>
				<path class="st0" d="M459.1,43.3h-0.3v-0.1c0-0.6,0-1,0.3-1.5l0-0.1l0.1,0.1c0.1,0.2,0,0.4-0.1,0.7c0,0.1-0.1,0.3-0.1,0.4h0v0
					c0,0,0,0,0.1,0c0,0,0,0,0,0l0.1,0l0,0.1c0,0.1-0.1,0.2-0.1,0.3L459.1,43.3L459.1,43.3z M458.9,43.2L458.9,43.2l0.1-0.1
					c0-0.1,0.1-0.1,0.1-0.2c-0.1,0-0.1,0-0.1,0h-0.1v-0.1c0-0.1,0.1-0.3,0.1-0.5c0.1-0.2,0.1-0.3,0.1-0.5
					C459,42.3,458.9,42.6,458.9,43.2L458.9,43.2z"/>
			</g>
			<g>
				<path class="st0" d="M464,41.8c-0.8,0.5-5.4,1.8-5.4,2.7h0v0h0v0c1.4-0.7,2.9-1.3,4.4-2c0.3-0.2,0.8-0.2,1.1-0.6h0
					C464.1,41.9,464,41.9,464,41.8"/>
				<path class="st0" d="M458.7,44.6h-0.2v0h0v-0.1c0-0.6,1.9-1.3,3.6-1.9c0.9-0.3,1.6-0.6,1.9-0.8l0,0l0,0c0,0,0.1,0.1,0.1,0.1
					c0,0,0,0,0.1,0l0.1,0.1h-0.2c-0.2,0.2-0.5,0.3-0.8,0.4c-0.1,0-0.2,0.1-0.3,0.1c-0.6,0.3-1.2,0.5-1.7,0.8
					C460.5,43.7,459.6,44.1,458.7,44.6L458.7,44.6L458.7,44.6z M458.6,44.4L458.6,44.4c0.9-0.5,1.8-0.8,2.7-1.2
					c0.6-0.2,1.2-0.5,1.7-0.8c0.1,0,0.2-0.1,0.3-0.1c0.3-0.1,0.5-0.2,0.7-0.4c0,0,0,0-0.1,0c-0.3,0.2-1,0.5-1.9,0.8
					C460.7,43.2,458.8,43.9,458.6,44.4L458.6,44.4z"/>
			</g>
			<g>
				<path class="st0" d="M470.2,41.9c-0.2,0.3-0.5,0.8-0.5,1.2c0,0.1,0.1,0.3,0.1,0.4h0.1c0-0.1,0.3-0.4,0.2-0.4v-0.1
					c-0.1,0-0.1,0.1-0.2,0.1C469.9,42.7,470.2,42.3,470.2,41.9C470.3,41.9,470.3,41.9,470.2,41.9C470.2,41.9,470.2,41.9,470.2,41.9"
					/>
				<path class="st0" d="M469.9,43.6h-0.2l0-0.1c0-0.1,0-0.3-0.1-0.4l0,0v0c0-0.4,0.3-0.8,0.4-1.1c0,0,0-0.1,0.1-0.1l0-0.1l0,0
					c0,0,0,0,0.1,0c0.1,0,0.1,0,0.1,0c0,0,0,0.1,0,0.1c0,0.2-0.1,0.3-0.2,0.5c-0.1,0.2-0.2,0.3-0.2,0.6c0,0,0,0,0.1,0l0.1,0l0,0.1
					c0,0,0,0,0,0C470.1,43.2,469.9,43.5,469.9,43.6L469.9,43.6L469.9,43.6z M469.8,43.5L469.8,43.5c0.1-0.1,0.2-0.2,0.2-0.3h0v0
					c0,0-0.1,0-0.1,0l-0.1,0l0-0.1c0-0.3,0.1-0.5,0.2-0.7c0.1-0.2,0.2-0.3,0.2-0.5c0,0,0,0,0,0c0,0,0,0.1,0,0.1
					c-0.2,0.3-0.4,0.7-0.4,1C469.7,43.2,469.8,43.3,469.8,43.5L469.8,43.5z"/>
			</g>
			<g>
				<path class="st0" d="M464.9,41.9c-0.2,0.6,0.2,2.3,0.3,2.9c0.1,0.9,0.1,1.7,0.2,2.6c0,0.8,0,1.6,0.2,2.3
					c0.1,0.3,0.3,0.7,0.6,0.8c1.1,0.5,1.5-0.9,1.9-0.9c0,0.1,0,0,0,0v0c0.3,0.8,1,0.8,1.8,0.8c0.3,0,0.5,0,0.7,0
					c0.3-0.1,0.6-0.2,0.9-0.3c0.5-0.2,1-0.5,1.6-0.5c0,0.6,0.2,0.9,0.9,0.9c0.4-0.2,0.6-0.4,0.8-0.8c0,0,0.1,0,0.1,0v-0.1
					c0.2,0.4,0.4,1,0.9,0.6c0.2-0.2,0.3-0.5,0.5-0.7v0h0v0c0.3,0.3,0.4,0.7,0.9,0.7c1.1-0.7,0.4-1.8,0-2.7c0,0-0.1-0.3,0-0.3
					c0.1,0,0.1,0.1,0.2,0.1v0c0,0,0,0,0,0c-0.1-0.2-0.3-0.8-0.5-0.8v0c-0.4,0.8,1.2,2.9,0.5,3c-0.4,0.1-0.8-0.2-0.8-0.6
					c0,0-0.1,0-0.1,0.1c-0.2,0.2-0.3,0.5-0.5,0.6c-0.6,0.4-0.8-0.1-0.8-0.6h-0.1v0c-0.1,0.2-0.3,0.4-0.5,0.6
					c-0.4,0.3-1.1,0.4-1.3-0.2c0-0.1,0-0.3,0-0.3v-0.1c-1.4,0.2-2.8,1.2-4.5,0.6c-0.4-0.1-0.7-0.4-0.7-0.9c0,0-0.1,0-0.1,0
					c-0.4,0.3-0.6,0.7-1.1,0.9c-0.4,0.1-0.9,0-1.1-0.4c-0.2-0.4-0.2-0.9-0.2-1.4c-0.1-1.8-0.2-3.6-0.5-5.2
					C465.2,42.6,465.1,42.2,464.9,41.9"/>
				<path class="st0" d="M474.1,50.7L474.1,50.7c-0.6,0-0.9-0.3-0.9-0.9c-0.4,0-0.7,0.2-1.1,0.3c-0.2,0.1-0.3,0.1-0.5,0.2
					c-0.3,0.1-0.5,0.2-0.8,0.2l-0.1,0c-0.2,0-0.4,0-0.6,0c-0.1,0-0.1,0-0.1,0l0,0c-0.9,0-1.5-0.1-1.9-0.9l0,0v0
					c-0.1,0.1-0.2,0.2-0.3,0.3c-0.2,0.3-0.6,0.6-1,0.6c-0.2,0-0.3,0-0.5-0.1c-0.3-0.1-0.5-0.4-0.6-0.9c-0.1-0.6-0.1-1.2-0.1-1.9
					c0-0.1,0-0.3,0-0.4c0-0.4-0.1-0.8-0.1-1.3c0-0.4-0.1-0.9-0.1-1.3c0-0.2-0.1-0.4-0.1-0.7c-0.1-0.8-0.3-1.9-0.2-2.3l0-0.1l0.1,0.1
					c0.2,0.3,0.3,0.6,0.3,0.9l0,0.1c0.2,1.3,0.3,2.6,0.4,4c0,0.4,0,0.9,0.1,1.3c0,0.1,0,0.2,0,0.4c0,0.4,0,0.7,0.2,1
					c0.1,0.2,0.4,0.4,0.7,0.4c0.1,0,0.2,0,0.3,0c0.3-0.1,0.5-0.3,0.7-0.5c0.1-0.1,0.2-0.3,0.4-0.4c0-0.1,0.1-0.1,0.1-0.1
					c0,0,0,0,0,0h0.1V49c0,0.5,0.3,0.7,0.7,0.8c0.3,0.1,0.7,0.2,1,0.2c0.7,0,1.4-0.2,2-0.4c0.5-0.2,1-0.3,1.5-0.4l0.1,0v0.2h0
					c0,0,0,0.1,0,0.2c0.1,0.3,0.4,0.4,0.5,0.4c0.2,0,0.5-0.1,0.6-0.2c0.1-0.2,0.3-0.4,0.4-0.6v-0.1h0.3v0.1c0,0.2,0,0.4,0.1,0.5
					c0.1,0.2,0.3,0.2,0.6,0.1c0.1-0.1,0.2-0.2,0.3-0.3c0.1-0.1,0.1-0.2,0.2-0.3c0-0.1,0-0.1,0.1-0.1c0,0,0,0,0,0c0,0,0,0,0,0h0.1V49
					c0,0.1,0.1,0.3,0.2,0.4c0.1,0.1,0.3,0.2,0.5,0.2c0.1,0,0.1,0,0.1-0.1c0.1-0.2-0.1-0.6-0.3-1.1c-0.3-0.6-0.6-1.4-0.4-1.8v-0.1
					h0.1c0.2,0,0.3,0.3,0.6,0.8c0,0,0,0,0,0c0,0,0,0,0,0c0,0,0,0.1,0,0.1v0.1l-0.1,0c0,0-0.1,0-0.1-0.1c0,0.1,0,0.2,0.1,0.3
					c0,0.1,0.1,0.2,0.1,0.2c0.4,0.8,0.8,1.9-0.2,2.5l0,0h0c-0.4,0-0.6-0.3-0.8-0.5c0,0-0.1-0.1-0.1-0.1c-0.1,0.2-0.3,0.4-0.5,0.6
					l0,0c-0.1,0.1-0.3,0.1-0.4,0.1c-0.3,0-0.5-0.3-0.6-0.7c0,0,0,0,0,0C474.7,50.3,474.4,50.5,474.1,50.7L474.1,50.7L474.1,50.7z
					 M473.2,49.7L473.2,49.7L473.2,49.7c0.1,0.7,0.3,0.9,0.9,0.9c0.4-0.2,0.6-0.4,0.8-0.8l0,0l0,0c0,0,0,0,0,0c0,0,0,0,0,0v0l0.1,0
					c0.1,0.3,0.3,0.7,0.5,0.7c0.1,0,0.2,0,0.3-0.1c0.2-0.2,0.3-0.5,0.5-0.7v-0.1h0.2v0.1c0,0.1,0.1,0.1,0.1,0.2
					c0.2,0.3,0.3,0.5,0.7,0.5c0.9-0.6,0.5-1.6,0.1-2.4c0-0.1-0.1-0.2-0.1-0.2c0-0.1-0.1-0.3-0.1-0.4c0,0,0,0,0.1,0h0l0,0
					c0,0,0.1,0,0.1,0c0,0,0,0,0,0c-0.2-0.5-0.3-0.6-0.4-0.7c-0.2,0.4,0.1,1.1,0.4,1.7c0.2,0.5,0.4,1,0.3,1.2c0,0.1-0.1,0.1-0.2,0.1
					c-0.2,0-0.5,0-0.6-0.2c-0.1-0.1-0.2-0.2-0.2-0.4c-0.1,0.1-0.1,0.2-0.2,0.3c-0.1,0.1-0.2,0.3-0.3,0.4c-0.3,0.2-0.6,0.2-0.8-0.1
					c-0.1-0.1-0.1-0.3-0.1-0.5l0,0l0,0c-0.2,0.2-0.3,0.4-0.5,0.6l0,0c-0.2,0.1-0.5,0.2-0.7,0.2c-0.4,0-0.6-0.2-0.6-0.5
					c0-0.1,0-0.3,0-0.3c0,0,0,0,0,0c-0.5,0.1-0.9,0.2-1.4,0.4c-0.7,0.2-1.3,0.4-2,0.4c-0.4,0-0.7-0.1-1.1-0.2
					c-0.4-0.1-0.7-0.3-0.8-0.8c-0.1,0.1-0.3,0.2-0.4,0.4c-0.2,0.2-0.4,0.4-0.7,0.5c-0.1,0-0.2,0-0.3,0c-0.4,0-0.7-0.2-0.9-0.5
					c-0.2-0.3-0.2-0.7-0.2-1.1c0-0.1,0-0.2,0-0.4c0-0.4-0.1-0.9-0.1-1.3c-0.1-1.3-0.1-2.7-0.4-3.9l0-0.1c0-0.3-0.1-0.5-0.2-0.8
					c-0.1,0.5,0.1,1.4,0.2,2.1c0,0.3,0.1,0.5,0.1,0.7c0,0.4,0.1,0.9,0.1,1.3c0,0.4,0.1,0.8,0.1,1.3c0,0.1,0,0.3,0,0.4
					c0,0.6,0,1.3,0.1,1.8c0.1,0.4,0.3,0.7,0.5,0.8c0.2,0.1,0.3,0.1,0.4,0.1c0.4,0,0.7-0.3,0.9-0.6c0.2-0.2,0.4-0.4,0.5-0.4h0.1v0.1
					c0,0,0,0,0,0.1c0,0,0,0,0,0c0.3,0.7,1,0.8,1.8,0.8c0,0,0.1,0,0.1,0c0.2,0,0.4,0,0.6,0l0.1,0c0.3-0.1,0.5-0.2,0.8-0.2
					c0.1,0,0.3-0.1,0.4-0.2C472.3,49.9,472.7,49.7,473.2,49.7L473.2,49.7z"/>
			</g>
			<g>
				<path class="st0" d="M466.9,41.9c0,0.1,0,0.1,0,0.2c0,0.1,0.1,0.1,0.1,0.2c0.4,0.7,0.6,1.1,0.6,1.9c0,0.1,0,0.2,0,0.2v0h0.1
					C467.7,43.6,467.7,42.5,466.9,41.9"/>
				<path class="st0" d="M467.6,44.6h-0.2v-0.1c0,0,0,0,0,0c0,0,0-0.1,0-0.2c0,0,0,0,0,0c0.1-0.8-0.2-1.2-0.5-1.8l0-0.1
					c0-0.1-0.1-0.2-0.1-0.2l0,0v0c0-0.1,0-0.2,0-0.2v-0.1l0.1,0.1C467.8,42.5,467.8,43.6,467.6,44.6L467.6,44.6L467.6,44.6z
					 M467.5,44.5L467.5,44.5c0.1-0.9,0.1-1.8-0.6-2.4c0,0,0,0.1,0,0.1c0,0.1,0,0.1,0.1,0.2l0,0.1c0.3,0.6,0.6,1,0.5,1.9c0,0,0,0,0,0
					C467.5,44.4,467.5,44.4,467.5,44.5L467.5,44.5z"/>
			</g>
			<g>
				<path class="st0" d="M476.2,41.9c-0.6,0.2-1.2,0.3-1.8,0.5c-1.3,0.4-8.7,2.7-8.7,4h0.1v0c2.2-1.3,4.7-2.1,7.1-3
					c0.8-0.3,2.6-0.6,3.1-1.2C476.3,42.1,476.3,42.1,476.2,41.9C476.3,42,476.4,42,476.2,41.9C476.3,41.9,476.3,41.9,476.2,41.9"/>
				<path class="st0" d="M466,46.5h-0.2v-0.1c0-1.2,6.1-3.2,8.7-4.1c0.1,0,0.3-0.1,0.4-0.1c0.4-0.1,0.9-0.3,1.4-0.4l0,0l0,0
					c0,0,0,0,0,0c0,0,0,0,0,0c0,0,0.1,0,0.1,0c0,0,0,0.1,0,0.1c0,0,0,0.1-0.1,0.1c0,0,0,0,0,0.1l0,0c-0.4,0.4-1.4,0.7-2.2,0.9
					c-0.3,0.1-0.7,0.2-0.9,0.3c-0.4,0.1-0.8,0.3-1.2,0.4C469.9,44.6,467.9,45.3,466,46.5L466,46.5L466,46.5z M465.9,46.4L465.9,46.4
					L465.9,46.4L465.9,46.4c1.9-1.2,4-1.9,6-2.6c0.4-0.1,0.8-0.3,1.2-0.4c0.2-0.1,0.6-0.2,0.9-0.3c0.8-0.2,1.8-0.5,2.2-0.9
					c0,0,0,0,0-0.1c0,0,0,0,0-0.1c0,0,0,0,0,0c0,0,0,0,0,0c-0.4,0.1-0.9,0.3-1.3,0.4c-0.1,0-0.3,0.1-0.4,0.1
					C470.4,43.8,466.1,45.4,465.9,46.4L465.9,46.4z"/>
			</g>
			<g>
				<path class="st0" d="M478.6,42c-0.4,1.3,0.3,4.1,0.6,5.5c0.1,0.8,0.1,1.6,0.1,2.4h0v0h0.1v0h0c0-0.4,0.1-0.8,0.1-1.2
					c-0.1-1.6-0.4-3.1-0.7-4.6c0-0.1-0.1-0.7,0.1-0.7c0,0.1,0,0.3,0.1,0.3v0h0C479.1,43.2,478.9,42.3,478.6,42"/>
				<path class="st0" d="M479.5,50h-0.2v0h0v-0.2c0-0.7,0-1.5-0.1-2.2c0-0.3-0.1-0.6-0.2-0.9c-0.3-1.5-0.7-3.5-0.4-4.6l0-0.1
					l0.1,0.1c0.4,0.3,0.6,1.2,0.6,1.7v0.1h-0.1v0c-0.1,0-0.1-0.1-0.1-0.2c0,0.1,0,0.2,0,0.5c0,0,0,0,0,0.1c0.1,0.5,0.2,0.9,0.2,1.4
					c0.2,1,0.4,2.1,0.4,3.2v0v0c0,0.4-0.1,0.8-0.1,1.2L479.5,50L479.5,50L479.5,50L479.5,50z M479.4,49.8L479.4,49.8
					c0.1-0.5,0.1-0.8,0.1-1.2c0-1.1-0.2-2.2-0.4-3.2c-0.1-0.5-0.2-0.9-0.2-1.4c0,0,0,0,0-0.1c0-0.3-0.1-0.5,0-0.6c0,0,0.1,0,0.1,0h0
					l0,0c0,0,0,0,0,0c0,0.1,0,0.1,0,0.1c0-0.5-0.2-1.1-0.5-1.4c-0.3,1.1,0.1,3,0.4,4.5c0.1,0.3,0.1,0.7,0.2,0.9
					c0.1,0.7,0.1,1.5,0.1,2.2L479.4,49.8L479.4,49.8L479.4,49.8z"/>
			</g>
			<g>
				<path class="st0" d="M456.8,42.7c-0.1,0.2-0.3,0.3-0.3,0.6c0,0.1,0.3,0.4,0.3,0.4c0,0,0,0.1,0,0.1c-0.4,0.5-0.9,0.9-1.4,1.3
					c-0.4,0.3-0.8,0.5-1.3,0.8c0,0-0.1,0.1-0.1,0.1h0v0h0.1v0c0.6-0.4,1.2-0.7,1.8-1.1c0.3-0.2,0.9-1.1,1.2-1.1c0,0,0,0,0.1,0h0v0
					C457.3,43.5,457,42.8,456.8,42.7"/>
				<path class="st0" d="M454.2,46.1h-0.2v0H454l0-0.1c0,0,0,0,0-0.1c0,0,0,0,0-0.1l0,0l0,0c0.2-0.1,0.3-0.2,0.5-0.3
					c0.2-0.2,0.5-0.3,0.8-0.5c0.5-0.4,1-0.8,1.4-1.3c0,0,0,0,0,0c-0.1,0-0.3-0.2-0.3-0.4c0-0.2,0.1-0.4,0.3-0.6l0.1-0.1l0,0
					c0.2,0.2,0.6,0.8,0.6,1.1v0.1h-0.1c0,0,0,0-0.1,0c-0.1,0-0.4,0.4-0.7,0.6c-0.2,0.2-0.4,0.4-0.5,0.5c-0.3,0.2-0.6,0.3-0.8,0.5
					C454.9,45.6,454.6,45.8,454.2,46.1L454.2,46.1L454.2,46.1z M454.2,45.9C454.2,45.9,454.2,45.9,454.2,45.9c0.3-0.2,0.6-0.4,1-0.6
					c0.3-0.2,0.5-0.3,0.8-0.5c0.1-0.1,0.3-0.3,0.4-0.5c0.4-0.4,0.6-0.7,0.7-0.7c0,0,0,0,0,0l0,0c0,0,0,0,0,0l0,0
					c0-0.2-0.2-0.8-0.5-1c-0.1,0.1-0.3,0.3-0.2,0.5c0,0.1,0.2,0.2,0.3,0.3l0,0l0,0c0,0,0,0,0,0c0,0,0,0,0,0l0,0l0,0
					c-0.4,0.5-0.9,0.9-1.4,1.3c-0.2,0.2-0.5,0.3-0.8,0.5C454.5,45.7,454.4,45.8,454.2,45.9L454.2,45.9z"/>
			</g>
			<g>
				<path class="st0" d="M475,42.9c-0.1,0.2-0.7,1.5-0.2,1.5c0-0.1,0.1-0.2,0.1-0.2v-0.1h0V44c0,0-0.1,0.1-0.1,0h0
					C474.7,43.7,475.1,43.3,475,42.9C475,42.9,475,42.9,475,42.9"/>
				<path class="st0" d="M474.8,44.4L474.8,44.4c-0.2,0-0.2-0.1-0.3-0.1c-0.1-0.2,0-0.7,0.3-1.4c0,0,0,0,0,0l0-0.1l0.1,0.1
					c0,0,0,0,0,0c0,0,0,0,0.1,0.1l0,0v0c0,0.2-0.1,0.4-0.2,0.6c-0.1,0.1-0.1,0.3-0.2,0.4h0v0c0,0,0,0,0,0c0,0,0,0,0,0l0.1,0V44h0
					v0.2h-0.1C474.9,44.2,474.9,44.3,474.8,44.4L474.8,44.4L474.8,44.4z M474.6,44.1c0,0.1,0,0.1,0,0.2c0,0,0,0,0.1,0
					c0-0.1,0-0.1,0.1-0.2h0v0C474.8,44.1,474.7,44.1,474.6,44.1L474.6,44.1L474.6,44.1z M475,43c-0.2,0.5-0.3,0.8-0.3,1
					c0-0.1,0.1-0.3,0.2-0.4C474.9,43.3,475,43.1,475,43C475,43,475,43,475,43L475,43z"/>
			</g>
			<g>
				<path class="st0" d="M456.7,43c0.1,0,0.2,0,0.2,0.1h-0.1c0,0.1,0,0,0.1,0v0c-0.1,0-0.1,0-0.1,0C456.7,43.1,456.7,43.1,456.7,43"
					/>
				<path class="st0" d="M456.8,43.3C456.8,43.3,456.7,43.3,456.8,43.3c-0.1-0.1-0.1-0.2-0.2-0.2l-0.1-0.1l0.2,0c0,0,0,0,0,0
					c0.1,0,0.2,0,0.2,0.1l0,0v0.2L456.8,43.3C456.8,43.3,456.8,43.3,456.8,43.3C456.8,43.3,456.8,43.3,456.8,43.3L456.8,43.3z"/>
			</g>
			<g>
				<path class="st0" d="M477.3,43.4c-0.2,0.4-0.5,0.8-0.5,1.3c0,0.2,0,0.3,0.1,0.4h0.1v-0.1c0-0.1,0.1-0.2,0.2-0.2v-0.1h0
					c0,0-0.1,0-0.1,0C477,44.4,477.4,43.5,477.3,43.4"/>
				<path class="st0" d="M477,45.2h-0.2l0-0.1c0-0.1,0-0.2,0-0.2c0-0.1,0-0.1,0-0.2v0v0c0-0.5,0.3-1,0.6-1.3l0.1-0.1l0,0.1
					c0,0.1,0,0.3-0.2,0.7c-0.1,0.2-0.2,0.5-0.2,0.7c0,0,0,0,0.1,0l0,0h0.1v0.2h-0.1C477.1,44.9,477,45,477,45.2L477,45.2L477,45.2z
					 M476.8,44.7c0,0.1,0,0.1,0,0.2c0,0.1,0,0.1,0,0.2c0-0.1,0.1-0.1,0.1-0.2c0,0,0,0,0,0l-0.1,0l0-0.1c0-0.2,0.1-0.5,0.2-0.8
					c0-0.1,0.1-0.2,0.1-0.4C477,44,476.8,44.3,476.8,44.7L476.8,44.7z"/>
			</g>
			<g>
				<path class="st0" d="M463.2,43.4c-0.3,0.5-0.5,1.1-0.5,1.8c0,0.2,0.2,0.4,0.2,0.5h0v0c0.1-0.1,0.4-0.3,0.4-0.5h0v0
					c-0.1,0-0.1,0-0.1,0C462.5,45.3,463.4,43.7,463.2,43.4"/>
				<path class="st0" d="M463,45.8h-0.2v-0.1c0-0.1,0-0.1-0.1-0.2c-0.1-0.1-0.1-0.2-0.1-0.3c-0.1-0.7,0.2-1.3,0.5-1.8l0-0.1l0.1,0.1
					c0.1,0.1,0,0.4-0.1,0.7c-0.1,0.4-0.2,0.8-0.1,1c0,0,0.1,0.1,0.1,0c0,0,0,0,0,0c0,0,0,0,0,0c0,0,0,0,0,0c0,0,0,0,0,0h0.1v0h0v0.1
					C463.4,45.4,463.2,45.6,463,45.8L463,45.8L463,45.8z M463.1,43.7c-0.2,0.5-0.4,1-0.4,1.6c0,0.1,0.1,0.2,0.1,0.3
					c0,0,0.1,0.1,0.1,0.1c0.1-0.1,0.3-0.2,0.3-0.4h0c-0.1,0-0.2,0-0.3-0.1c-0.1-0.2,0-0.6,0.1-1.1C463.1,44,463.1,43.8,463.1,43.7
					L463.1,43.7z"/>
			</g>
			<g>
				<path class="st0" d="M446,43.5c-0.2,0.4-0.5,1.1-0.5,1.6c0.1,0.2,0.1,0.3,0.1,0.5h0.1v-0.1c0.1-0.1,0.2-0.2,0.2-0.4
					c-0.1,0-0.1,0.1-0.2,0.1v0h0c0-0.1,0-0.6,0.1-0.6C445.7,44.3,446.1,43.8,446,43.5"/>
				<path class="st0" d="M445.7,45.7h-0.2l0,0c0-0.2-0.1-0.3-0.1-0.5l0,0c0-0.6,0.3-1.2,0.5-1.6l0.1-0.1l0,0.1
					c0.1,0.2,0,0.5-0.1,0.7c-0.1,0.1-0.1,0.3-0.1,0.4l0,0.1h0c0,0,0,0.1,0,0.5h0v0c0,0,0,0,0,0c0,0,0.1,0,0.1,0l0.1,0v0.1
					C445.9,45.3,445.8,45.4,445.7,45.7L445.7,45.7L445.7,45.7z M445.5,45.1c0,0.1,0.1,0.3,0.1,0.4l0,0c0.1-0.1,0.2-0.2,0.2-0.3
					c0,0,0,0,0,0c0,0-0.1,0-0.1,0l-0.1,0v-0.1h0L445.5,45.1c0.1-0.3,0.1-0.5,0.1-0.5c0,0,0,0,0,0c0-0.1,0.1-0.3,0.1-0.4
					c0.1-0.2,0.2-0.3,0.2-0.5C445.7,44.1,445.5,44.6,445.5,45.1L445.5,45.1z"/>
			</g>
			<g>
				<path class="st0" d="M443.5,43.7c-0.4,0.8-1,1.7-0.8,2.8c0,0.1,0.1,0.4,0.2,0.4c-0.6,1.7-1,4.2,1.7,4.2c0.1,0,0.2,0,0.3,0
					c0.3-0.1,0.6-0.2,0.8-0.2c0.7-0.3,3.8-1.6,3.3-2.8c-0.3-0.7-2.3-0.5-2.3-1.3c0-0.4,1-1.6,1.5-1.2c0,0.1,0.1,0.1,0.1,0.1h0.1
					c0-0.2,0.2-0.4,0.1-0.6c-0.2-0.5-1,0-1.2,0.3c-0.5,0.5-1.4,1.7-0.6,2.4c0.4,0.4,1,0.5,1.5,0.6c0.1,0.1,0.6,0.3,0.5,0.3
					c-0.2,0.4-0.9,0.7-1.3,0.8c-1.1,0.6-2.8,1.5-4.1,0.6c-0.4-0.3-0.6-0.8-0.6-1.4c0-0.6,0.2-1.3,0.6-1.8c0.1-0.1,0.5-0.9,0.4-0.9
					v-0.1h0v0.1c-0.4,0.5-0.7,0.3-0.6-0.4c0-0.2,0.6-1.6,0.7-1.6C443.6,43.8,443.5,43.8,443.5,43.7"/>
				<path class="st0" d="M444.5,51.1L444.5,51.1c-0.8,0-1.4-0.3-1.8-0.8c-0.7-0.9-0.3-2.6,0-3.5c-0.1-0.1-0.2-0.4-0.2-0.4
					c-0.2-0.9,0.2-1.6,0.6-2.3c0.1-0.2,0.2-0.3,0.3-0.5l0-0.1l0.1,0c0,0,0,0,0.1,0.1c0,0,0.1,0.1,0.1,0.1l0.1,0.1h-0.1
					c-0.1,0.1-0.6,1.3-0.7,1.5c0,0.3,0,0.5,0.1,0.6c0.1,0.1,0.3,0,0.5-0.2v-0.1h0.2v0.1c0,0,0,0,0,0c0.1,0.2-0.4,1-0.4,1l0,0
					c-0.4,0.4-0.6,1-0.5,1.7c0,0.6,0.2,1,0.6,1.4c0.3,0.3,0.7,0.4,1.2,0.4l0,0c0.9,0,1.9-0.5,2.6-0.9c0.1,0,0.1-0.1,0.2-0.1
					c0.1,0,0.2-0.1,0.3-0.1c0.3-0.2,0.8-0.4,1-0.7c-0.1-0.1-0.4-0.2-0.5-0.3c-0.1,0-0.2-0.1-0.4-0.1c-0.4-0.1-0.8-0.2-1.2-0.5
					c-0.8-0.8,0.3-2.1,0.6-2.5c0.2-0.2,0.6-0.5,0.9-0.5c0.2,0,0.3,0.1,0.4,0.3c0,0.2,0,0.3-0.1,0.5c0,0.1,0,0.1-0.1,0.2l0,0h-0.2
					l0,0c0,0,0,0,0-0.1c0,0,0,0,0-0.1c-0.1,0-0.1-0.1-0.2-0.1c-0.2,0-0.5,0.2-0.8,0.5c-0.2,0.3-0.4,0.5-0.4,0.7
					c0,0.4,0.6,0.6,1.2,0.7c0.5,0.1,1,0.3,1.2,0.6c0.1,0.2,0.1,0.4,0,0.6c-0.5,1.2-3.3,2.2-3.3,2.2c-0.3,0.1-0.6,0.2-0.8,0.2
					C444.7,51.1,444.6,51.1,444.5,51.1L444.5,51.1L444.5,51.1z M443.5,43.8c-0.1,0.1-0.1,0.3-0.2,0.5c-0.4,0.7-0.7,1.4-0.5,2.2
					c0,0.1,0.1,0.3,0.1,0.3h0.1l0,0.1c-0.3,0.9-0.7,2.5-0.1,3.4c0.3,0.5,0.9,0.7,1.7,0.7c0.1,0,0.2,0,0.2,0c0.3-0.1,0.5-0.2,0.8-0.2
					c0.7-0.3,2.8-1.2,3.2-2.2c0.1-0.2,0.1-0.4,0-0.5c-0.1-0.3-0.6-0.4-1.1-0.5c-0.6-0.2-1.2-0.3-1.3-0.8c0-0.2,0.2-0.6,0.4-0.8
					c0.3-0.3,0.7-0.5,0.9-0.5c0.1,0,0.2,0,0.3,0.1l0,0c0,0,0,0,0,0.1c0,0,0,0,0,0h0c0,0,0-0.1,0-0.1c0.1-0.2,0.1-0.3,0.1-0.4
					c0-0.1-0.1-0.2-0.2-0.2c-0.3,0-0.7,0.3-0.8,0.5c-0.3,0.4-1.4,1.6-0.6,2.3c0.3,0.3,0.7,0.4,1.1,0.5c0.1,0,0.2,0.1,0.4,0.1
					c0.1,0,0.3,0.1,0.3,0.2c0.2,0.1,0.2,0.2,0.2,0.2l0,0l0,0c-0.2,0.3-0.6,0.6-1,0.7c-0.1,0-0.2,0.1-0.3,0.1c-0.1,0-0.1,0.1-0.2,0.1
					c-0.8,0.4-1.7,0.9-2.7,0.9l0,0c-0.5,0-0.9-0.1-1.3-0.4c-0.4-0.3-0.6-0.8-0.6-1.4c0-0.7,0.2-1.4,0.6-1.8c0.1-0.1,0.4-0.6,0.4-0.8
					c-0.1,0.2-0.3,0.2-0.4,0.2c-0.1,0-0.1,0-0.2-0.1c-0.1-0.1-0.1-0.3-0.1-0.6c0-0.1,0.2-0.5,0.3-0.9
					C443.4,44.1,443.5,44,443.5,43.8C443.5,43.9,443.5,43.9,443.5,43.8C443.5,43.8,443.5,43.8,443.5,43.8L443.5,43.8z"/>
			</g>
			<g>
				<path class="st0" d="M454,43.9c-0.1,0.2-0.3,0.7,0.1,0.7C454.6,44.6,454.3,44,454,43.9"/>
				<path class="st0" d="M454.1,44.7L454.1,44.7c-0.1,0-0.2-0.1-0.2-0.1c-0.1-0.2,0-0.6,0.1-0.7l0,0l0.1,0c0.2,0.1,0.4,0.4,0.4,0.6
					C454.4,44.6,454.3,44.7,454.1,44.7C454.1,44.7,454.1,44.7,454.1,44.7L454.1,44.7z M454,44c-0.1,0.2-0.1,0.4-0.1,0.5
					c0,0,0,0.1,0.1,0.1l0,0c0,0,0,0,0,0c0.1,0,0.2-0.1,0.2-0.1C454.3,44.3,454.2,44.1,454,44L454,44z"/>
			</g>
			<g>
				<path class="st0" d="M454,44.2c0.1,0,0.2,0.1,0.2,0.2h0v0c-0.1,0-0.1,0-0.1,0C454.1,44.4,454,44.3,454,44.2"/>
				<path class="st0" d="M454.1,44.6C454.1,44.6,454.1,44.5,454.1,44.6c-0.1-0.1-0.1-0.2-0.1-0.2c0,0,0-0.1-0.1-0.1l-0.1-0.2
					l0.2,0.1c0.1,0.1,0.2,0.1,0.2,0.3v0.1h0v0L454.1,44.6C454.2,44.6,454.2,44.6,454.1,44.6C454.2,44.6,454.1,44.6,454.1,44.6
					L454.1,44.6z"/>
			</g>
			<g>
				<path class="st0" d="M459.4,44.9c-0.3,0.5-0.7,1.5-0.4,2.1c0.2,0.3,0.5-0.1,0.5-0.3c0,0,0,0,0,0h0v0h-0.1
					c-0.1,0-0.2,0.1-0.2,0.1C458.9,46.1,459.6,45.5,459.4,44.9"/>
				<path class="st0" d="M459.2,47.2c-0.1,0-0.1,0-0.2-0.1c-0.3-0.6,0-1.5,0.4-2.2l0.1-0.1l0,0.1c0.1,0.3,0,0.5-0.1,0.8
					c-0.1,0.3-0.2,0.7-0.1,1c0.1,0,0.1-0.1,0.2-0.1l0,0h0.2v0h0v0.1c0,0,0,0,0,0.1c0,0,0,0,0,0C459.6,47,459.4,47.2,459.2,47.2
					L459.2,47.2z M459.4,45.1c-0.3,0.6-0.6,1.4-0.3,1.9c0,0.1,0.1,0.1,0.1,0.1c0.1,0,0.1,0,0.2-0.1c0.1-0.1,0.1-0.1,0.1-0.2v0h0
					c-0.1,0-0.1,0.1-0.2,0.1l-0.1,0l0-0.1c-0.2-0.4-0.1-0.8,0-1.2C459.3,45.4,459.4,45.3,459.4,45.1L459.4,45.1z"/>
			</g>
			<g>
				<path class="st0" d="M451.7,45.2c-0.3,1.5,2.4,2,2.4,2.8c0,0.5-3.3,2.3-3.9,2c-0.5-0.2-0.4-0.9-0.3-1.3c0,0,0.1-0.1,0-0.1v-0.1
					h0v0.1c-0.5,0.8-0.4,2.2,0.8,2.2c0.1-0.1,1-0.4,1-0.5c0,0,0.1,0,0.2,0c0.6-0.9,2.6-1.1,2.5-2.6c0-0.4-0.4-0.8-0.7-1
					c-0.2-0.1-1.3-0.7-1.3-0.9c0.1,0,0.1,0,0.2,0v-0.1C452.3,45.5,452,45.3,451.7,45.2"/>
				<path class="st0" d="M450.8,50.8L450.8,50.8c-0.6,0-0.9-0.3-1-0.6c-0.3-0.5-0.2-1.2,0.1-1.7v-0.1h0.2v0.1c0,0,0,0,0,0
					c0,0,0,0.1,0,0.1c0,0,0,0,0,0c-0.1,0.5-0.1,1.1,0.3,1.2c0,0,0.1,0,0.1,0l0,0c0.7,0,3-1.2,3.5-1.8c0.1-0.1,0.1-0.2,0.1-0.2
					c0-0.3-0.5-0.6-1-0.9c-0.8-0.5-1.6-1-1.4-1.9l0-0.1l0.1,0c0.2,0.1,0.4,0.2,0.6,0.3c0.1,0,0.2,0.1,0.2,0.1l0,0v0.2l0,0
					c0,0-0.1,0-0.1,0c0,0,0,0,0,0c0.1,0.1,0.3,0.3,1.2,0.8l0,0c0.3,0.2,0.7,0.5,0.7,1c0.1,1-0.7,1.4-1.4,1.8
					c-0.4,0.2-0.8,0.5-1.1,0.8l0,0l0,0c0,0-0.1,0-0.1,0l0,0c-0.1,0.1-0.3,0.2-0.8,0.4C450.9,50.8,450.8,50.8,450.8,50.8L450.8,50.8
					L450.8,50.8z M449.9,48.7c-0.3,0.5-0.4,1.1-0.1,1.5c0.2,0.3,0.5,0.5,0.9,0.5c0,0,0.1-0.1,0.3-0.1c0.2-0.1,0.7-0.3,0.7-0.3v-0.1
					l0.1,0c0,0,0.1,0,0.1,0c0.2-0.3,0.6-0.6,1.1-0.8c0.7-0.4,1.5-0.8,1.4-1.7c0-0.4-0.4-0.7-0.7-0.9l0,0c-1.3-0.7-1.3-0.9-1.3-1v0
					l0,0c0,0,0,0,0.1,0c0,0,0,0,0.1,0v-0.1c-0.1,0-0.1-0.1-0.2-0.1c-0.2-0.1-0.4-0.2-0.6-0.3c-0.1,0.8,0.7,1.3,1.4,1.7
					c0.6,0.3,1,0.6,1.1,1c0,0.1,0,0.2-0.1,0.3c-0.6,0.6-2.9,1.8-3.6,1.8l0,0c-0.1,0-0.1,0-0.2,0C449.8,49.9,449.8,49.2,449.9,48.7
					C449.9,48.7,449.9,48.7,449.9,48.7C449.9,48.7,449.9,48.7,449.9,48.7L449.9,48.7L449.9,48.7z"/>
			</g>
			<g>
				<path class="st0" d="M473.7,45.2L473.7,45.2c-0.2,0.2-0.3,0.4-0.3,0.6h1.1c0,0.1,0,0.1-0.1,0.1c-0.1,0.1-1.1,0.6-1.1,0.6h0v0
					h0.3c0.1,0,0.3,0,0.4,0c0.4-0.3,0.7-0.6,1-1.1c0,0,0.1-0.1,0.1-0.1v-0.1h0v0C474.6,45.2,474.2,45.2,473.7,45.2"/>
				<path class="st0" d="M473.6,46.6h-0.4v-0.2h0.1c0.1,0,0.2-0.1,0.7-0.4c0.2-0.1,0.3-0.2,0.4-0.2h-1.1v-0.1c0-0.2,0.2-0.5,0.3-0.6
					v-0.1l0.1,0c0.2,0,0.4,0,0.6,0c0.2,0,0.5,0,0.7,0l0.1,0v0h0v0.2l0,0c0,0,0,0-0.1,0.1c-0.3,0.5-0.6,0.8-1,1.1l0,0l0,0
					c-0.1,0-0.1,0-0.2,0C473.8,46.6,473.7,46.6,473.6,46.6L473.6,46.6L473.6,46.6z M473.5,46.5h0.1c0.1,0,0.1,0,0.2,0
					c0.1,0,0.1,0,0.2,0c0.4-0.3,0.7-0.6,1-1.1l0,0l0,0c0,0,0.1,0,0.1-0.1v0v0h0v0c-0.2,0-0.5,0-0.7,0c-0.2,0-0.4,0-0.5,0v0l0,0
					c-0.1,0.1-0.3,0.3-0.3,0.5h1.1v0.1c0,0,0,0,0,0c0,0,0,0.1,0,0.1c0,0,0,0-0.1,0c-0.1,0-0.2,0.1-0.4,0.2
					C473.9,46.3,473.6,46.4,473.5,46.5L473.5,46.5z"/>
			</g>
			<g>
				<path class="st0" d="M471.4,46L471.4,46c-0.3,0.3-0.4,0.8-0.4,1.2H471c-0.1-0.3-0.3-0.9-0.7-0.9c-0.1,0-0.1,0-0.1,0.1
					c0,0.2,0.3,0.3,0.4,0.5c0.5,0.6,0.2,1.2-0.4,1.5c-0.3,0.2-0.5,0.3-0.8,0.5c0,0.1,0,0,0,0v0c1.2-0.4,1.4-0.9,1.6-2.1
					c0.1-0.2,0.1-0.3,0.2-0.5h0.1v0.1c0,0.1,0.1,0.1,0.1,0.2h0.1v0h0C471.7,46.3,471.6,46.1,471.4,46"/>
				<path class="st0" d="M469.5,49L469.5,49C469.5,48.9,469.5,48.9,469.5,49c0-0.1,0-0.1,0-0.1c0,0,0,0,0,0v0l0,0
					c0.1-0.1,0.2-0.1,0.3-0.2c0.2-0.1,0.3-0.2,0.5-0.3c0.3-0.2,0.5-0.5,0.6-0.7c0-0.2,0-0.4-0.2-0.7c0,0-0.1-0.1-0.2-0.1
					c-0.1-0.1-0.3-0.2-0.3-0.4v0c0-0.1,0.1-0.1,0.2-0.1c0.4,0,0.6,0.5,0.7,0.7c0-0.4,0.1-0.8,0.4-1v-0.1l0.1,0
					c0.2,0.1,0.3,0.3,0.3,0.6l0,0.1h0v0h-0.2l0,0c0-0.1,0-0.1-0.1-0.2l0,0c0,0.1-0.1,0.2-0.1,0.3c0,0.1,0,0.1-0.1,0.2
					C471.1,48.1,470.8,48.5,469.5,49L469.5,49L469.5,49z M471,47.3c0,0.1,0,0.2,0,0.3c0,0.3-0.3,0.6-0.6,0.8
					c-0.1,0.1-0.3,0.2-0.5,0.3c-0.1,0-0.1,0.1-0.2,0.1c0.9-0.3,1.2-0.7,1.4-1.6H471L471,47.3z M470.3,46.4c0,0.1,0.1,0.2,0.2,0.3
					c0.1,0,0.1,0.1,0.2,0.1c0.1,0.1,0.2,0.2,0.2,0.4C470.9,46.9,470.7,46.4,470.3,46.4C470.4,46.4,470.4,46.4,470.3,46.4L470.3,46.4
					C470.3,46.4,470.3,46.4,470.3,46.4L470.3,46.4z M471.5,46.1L471.5,46.1c-0.2,0.2-0.3,0.5-0.3,0.8c0,0,0-0.1,0-0.1l0,0
					c0-0.1,0-0.1,0.1-0.2c0-0.1,0.1-0.2,0.1-0.3l0,0h0.2v0.1l0,0c0,0,0,0.1,0,0.1h0C471.6,46.3,471.6,46.2,471.5,46.1L471.5,46.1z"
					/>
			</g>
			<g>
				<path class="st0" d="M463.5,46.4c-0.2,0.6,0.2,1.4,0.5,1.8c0.1,0.2,0.2,0.4,0.3,0.6c0,0,0.1,0.2,0,0.2c-0.3,0.5-0.8,0.8-1.2,1
					c-1.1,0.7-3.8,2-4.6,0.1c-0.2-0.5-0.1-1.3,0-1.8c0.1-0.2,0.2-0.4,0.2-0.6v-0.1h0v0c-0.1,0,0,0,0,0h0c-0.9,1.8-0.7,4.2,1.8,4.2
					c0.1,0,0.2,0,0.3,0c0.1,0,0.2,0,0.3,0c0.4-0.2,0.9-0.3,1.3-0.5c0.8-0.4,2.3-1.5,2.2-2.5c0-0.4-0.1-0.7-0.3-0.9
					c-0.1-0.2-0.3-0.5-0.4-0.7h0c0.1,0,0.1-0.1,0.2-0.1C463.8,46.8,463.6,46.6,463.5,46.4"/>
				<path class="st0" d="M460.4,51.9L460.4,51.9c-0.9,0-1.6-0.3-2-1c-0.5-0.8-0.5-2.1,0.1-3.3l0,0h0c0,0,0,0,0,0l0,0h0c0,0,0,0,0,0
					c0,0,0,0,0,0h0.1v0h0v0.2v0c0,0.1-0.1,0.2-0.1,0.3c0,0.1-0.1,0.2-0.1,0.3c-0.2,0.5-0.2,1.3,0,1.8c0.3,0.7,0.8,1,1.6,1l0,0
					c1.2,0,2.6-0.8,3-1.1l0.1,0c0.4-0.3,0.9-0.5,1.2-1l0,0h0c0,0,0-0.1,0-0.1c0,0,0,0,0,0c0-0.1-0.1-0.1-0.1-0.2
					c-0.1-0.1-0.1-0.2-0.2-0.3c-0.4-0.5-0.8-1.3-0.5-1.9l0-0.1l0.1,0.1c0.1,0.1,0.2,0.2,0.3,0.4c0.1,0.1,0.1,0.1,0.2,0.2l0.1,0.1
					l-0.1,0c0,0-0.1,0-0.1,0.1c0,0,0,0,0,0c0.1,0.1,0.1,0.3,0.2,0.4c0.1,0.1,0.1,0.2,0.2,0.3c0.2,0.3,0.3,0.6,0.3,1
					c0.1,1.1-1.5,2.2-2.3,2.6c-0.2,0.1-0.4,0.2-0.6,0.3c-0.2,0.1-0.5,0.2-0.7,0.3l0,0c-0.1,0-0.1,0-0.2,0c0,0-0.1,0-0.1,0
					c-0.1,0-0.1,0-0.2,0C460.5,51.9,460.4,51.9,460.4,51.9L460.4,51.9L460.4,51.9z M458.6,47.7c-0.6,1.2-0.6,2.4-0.1,3.2
					c0.4,0.6,1,0.9,1.9,0.9c0,0,0.1,0,0.1,0c0.1,0,0.1,0,0.2,0c0,0,0.1,0,0.1,0c0.1,0,0.1,0,0.2,0c0.2-0.1,0.5-0.2,0.7-0.3
					c0.2-0.1,0.4-0.2,0.6-0.2c0.8-0.4,2.3-1.5,2.2-2.4c0-0.3-0.1-0.6-0.3-0.9c-0.1-0.1-0.1-0.2-0.2-0.3c-0.1-0.1-0.2-0.3-0.2-0.4
					l0-0.1h0.1c0,0,0,0,0.1,0c0,0,0,0,0,0c0,0-0.1-0.1-0.1-0.2c-0.1-0.1-0.2-0.2-0.3-0.3c-0.2,0.6,0.2,1.2,0.5,1.7
					c0.1,0.1,0.1,0.2,0.2,0.4c0,0.1,0.1,0.2,0.1,0.2l0,0c0,0,0,0,0,0c0,0.1,0,0.2,0,0.2c0,0,0,0,0,0c-0.3,0.4-0.7,0.7-1.2,1l-0.1,0
					c-0.4,0.3-1.8,1.1-3,1.1l0,0c-0.8,0-1.4-0.4-1.7-1.1c-0.2-0.5-0.2-1.3,0-1.9c0-0.1,0.1-0.2,0.1-0.3
					C458.6,47.9,458.6,47.8,458.6,47.7L458.6,47.7L458.6,47.7L458.6,47.7z"/>
			</g>
			<g>
				<path class="st0" d="M461,46.8c-0.2,0.4-0.1,1.1,0.5,1.1c0-0.1,0.2-0.5,0.3-0.5v-0.1C461.5,47.1,461.3,46.9,461,46.8"/>
				<path class="st0" d="M461.6,47.9L461.6,47.9c-0.3,0-0.5-0.1-0.6-0.3c-0.1-0.2-0.2-0.6,0-0.9l0-0.1l0.1,0c0.1,0,0.1,0.1,0.2,0.1
					c0.2,0.1,0.4,0.2,0.6,0.3l0,0v0.2h-0.1C461.8,47.4,461.7,47.4,461.6,47.9L461.6,47.9L461.6,47.9z M461,46.9
					c-0.1,0.3-0.1,0.5,0,0.7c0.1,0.1,0.2,0.2,0.4,0.2c0.1-0.3,0.2-0.5,0.3-0.5v0c-0.2-0.1-0.4-0.2-0.6-0.3
					C461.1,46.9,461.1,46.9,461,46.9L461,46.9z"/>
			</g>
			<g>
				<path class="st0" d="M467.6,46.8c-0.1,0.2-0.2,0.3-0.3,0.5c0,0-0.1,0-0.1,0c-0.3-0.2-0.7-0.5-0.7,0.3c0.2,0.1,0.4,0.4,0.6,0.4
					c0-0.1,0.1-0.3,0.2-0.4c0.1-0.1,0.7,0.2,0.7,0.3h0.1v-0.1C468.3,47.3,468.1,47,467.6,46.8"/>
				<path class="st0" d="M467.1,48L467.1,48c-0.2,0-0.4-0.2-0.6-0.3c-0.1,0-0.1-0.1-0.1-0.1l0,0v0c0-0.1,0-0.6,0.3-0.6
					c0.1,0,0.3,0.1,0.4,0.2c0,0,0.1,0,0.1,0l0,0v0c0.1-0.1,0.1-0.2,0.1-0.3c0-0.1,0.1-0.1,0.1-0.2l0,0l0,0c0.3,0.1,0.5,0.3,0.6,0.5
					c0.1,0.2,0.1,0.4,0,0.6V48h-0.2v-0.1c0-0.1-0.4-0.3-0.5-0.3c0,0,0,0,0,0C467.2,47.6,467.2,47.8,467.1,48L467.1,48L467.1,48z
					 M466.5,47.5c0,0,0.1,0.1,0.1,0.1c0.1,0.1,0.3,0.2,0.4,0.3c0-0.1,0.1-0.3,0.2-0.4c0,0,0,0,0.1,0c0.2,0,0.5,0.2,0.6,0.3v0l0,0
					c0.1-0.2,0.1-0.4,0-0.5c-0.1-0.2-0.2-0.3-0.5-0.4c0,0,0,0.1-0.1,0.1c-0.1,0.1-0.1,0.2-0.2,0.3l0,0h0c0,0,0,0,0,0c0,0,0,0,0,0
					c0,0,0,0-0.1,0c0,0,0,0,0,0c0,0,0,0-0.1,0c-0.1-0.1-0.3-0.1-0.4-0.1C466.7,47.1,466.5,47.1,466.5,47.5L466.5,47.5z"/>
			</g>
			<g>
				<path class="st0" d="M444.5,47.6C444.5,47.7,444.5,47.7,444.5,47.6l0,0.3c0,0.3,0.3,0.5,0.4,0.7c0.2,0.4,0.2,0.8,0.2,1.3
					c0,0.1,0,0.2,0.1,0.2C445.3,49.2,445.3,48.2,444.5,47.6"/>
				<path class="st0" d="M445.3,50.2L445.3,50.2c-0.2,0-0.2-0.2-0.2-0.3l0-0.1c0-0.4,0-0.8-0.2-1.2c0-0.1-0.1-0.2-0.2-0.3
					c-0.1-0.1-0.2-0.3-0.2-0.5l0,0l0-0.2c0,0,0,0,0,0c0,0,0,0,0-0.1l0-0.1l0.1,0C445.3,48.1,445.4,49.1,445.3,50.2L445.3,50.2
					L445.3,50.2z M444.6,47.9c0,0.1,0.1,0.3,0.2,0.4c0.1,0.1,0.1,0.2,0.2,0.3c0.1,0.4,0.2,0.8,0.2,1.2c0-0.8,0-1.6-0.6-2v0V47.9
					L444.6,47.9z"/>
			</g>
			<g>
				<path class="st0" d="M457.7,46.3c-0.1-0.2-0.3-0.3-0.4-0.5c0,0,0-0.1,0-0.1c0.3-0.2-0.2-0.5-0.4-0.6c-0.3,1.1,1.5,2.1,0.3,2.6
					c-0.6,0.3-0.9-1.1-1.7-0.4c-0.2,0.2-0.4,0.8-0.1,1.1c0.2,0.3,0.8,0.3,1.2,0.2c0,0,0.1,0,0.1,0c0.1,0.3-0.1,0.5-0.3,0.6
					c-1.5,1.3-3.2,2.2-5,2.9c-0.2,0.1-0.4,0.2-0.6,0.3c0,0.1,0,0,0,0v0c0.4-0.1,0.9-0.3,1.4-0.3c0.3,0,0.6-0.1,0.8-0.1
					c1.2-0.6,2.6-1.2,3.5-2.3c0.3-0.3,0.3-0.8,0.5-1.1c0.2-0.2,0.4-0.3,0.6-0.5C458.1,47.6,457.9,46.8,457.7,46.3 M456.3,48
					c-0.2,0-0.4-0.1-0.7-0.1c0-0.1,0-0.1,0-0.1c0,0,0-0.1,0-0.1C455.8,47.7,456.2,47.8,456.3,48L456.3,48L456.3,48z"/>
				<path class="st0" d="M450.7,52.5L450.7,52.5C450.7,52.4,450.7,52.4,450.7,52.5c0-0.1,0-0.1,0-0.1c0,0,0,0,0,0v0l0.1,0
					c0.2-0.1,0.4-0.2,0.5-0.3l0,0c1.9-0.7,3.6-1.6,5-2.8c0.2-0.2,0.4-0.3,0.3-0.5c0,0,0,0,0,0c-0.1,0-0.3,0.1-0.5,0.1
					c-0.4,0-0.6-0.1-0.8-0.3c-0.2-0.3-0.1-0.9,0.1-1.1c0.2-0.1,0.3-0.2,0.5-0.2c0.2,0,0.4,0.2,0.6,0.3c0.2,0.2,0.3,0.3,0.5,0.3
					c0.1,0,0.1,0,0.1,0c0.2-0.1,0.3-0.2,0.4-0.3c0.1-0.2-0.1-0.5-0.3-0.8c-0.2-0.4-0.5-0.9-0.4-1.4l0-0.1l0.1,0
					c0.1,0,0.5,0.3,0.5,0.5c0,0.1,0,0.1-0.1,0.2l0,0c0,0,0,0,0,0c0,0,0,0,0,0c0.1,0.1,0.2,0.2,0.3,0.4l0.1,0.1
					c0.3,0.5,0.5,1.3-0.1,1.8c-0.1,0.1-0.2,0.2-0.3,0.2c-0.1,0.1-0.2,0.2-0.3,0.2c-0.1,0.1-0.2,0.3-0.2,0.5
					c-0.1,0.2-0.1,0.4-0.3,0.6c-0.8,0.9-1.8,1.5-2.9,2c-0.2,0.1-0.5,0.2-0.7,0.4l0,0l0,0c-0.2,0-0.3,0-0.5,0.1c-0.1,0-0.2,0-0.4,0.1
					l0,0c-0.4,0-0.7,0.1-1,0.2C451,52.4,450.9,52.4,450.7,52.5L450.7,52.5L450.7,52.5z M451.3,52.1c-0.1,0.1-0.3,0.1-0.4,0.2
					c0,0,0.1,0,0.1,0c0.3-0.1,0.7-0.2,1.1-0.2c0.1,0,0.2,0,0.3-0.1c0.2,0,0.3-0.1,0.5-0.1c0.2-0.1,0.4-0.2,0.7-0.4
					c1-0.5,2.1-1.1,2.8-2c0.1-0.2,0.2-0.4,0.3-0.5c0.1-0.2,0.1-0.4,0.2-0.5l0,0c0.1-0.1,0.2-0.2,0.3-0.2c0.1-0.1,0.2-0.1,0.3-0.2
					c0.5-0.4,0.3-1.2,0-1.7l-0.1-0.1c-0.1-0.1-0.2-0.3-0.3-0.4l0,0v0c0,0,0,0,0,0c0,0,0-0.1,0-0.1c0,0,0,0,0.1,0c0,0,0-0.1,0-0.1
					c0-0.1-0.2-0.3-0.4-0.4c-0.1,0.4,0.2,0.9,0.4,1.2c0.2,0.4,0.4,0.7,0.3,0.9c-0.1,0.2-0.2,0.3-0.4,0.4c-0.1,0-0.1,0-0.2,0
					c-0.2,0-0.4-0.2-0.6-0.3c-0.2-0.2-0.3-0.3-0.5-0.3c-0.1,0-0.2,0.1-0.4,0.2c-0.2,0.2-0.3,0.7-0.1,1c0.1,0.2,0.4,0.3,0.7,0.3
					c0.1,0,0.3,0,0.4-0.1c0,0,0,0,0,0c0,0,0,0,0.1,0c0,0,0.1,0,0.1,0.1c0.1,0.3-0.2,0.6-0.3,0.7C454.9,50.4,453.2,51.4,451.3,52.1
					L451.3,52.1z M456.3,48.1L456.3,48.1c-0.2,0-0.3-0.1-0.4-0.1c-0.1,0-0.2,0-0.3-0.1l0,0v0c0,0,0,0,0,0c0,0,0-0.1,0-0.1
					c0,0,0,0,0,0c0,0,0,0,0-0.1l0-0.1l0.1,0c0,0,0.1,0,0.1,0c0.2,0.1,0.4,0.1,0.5,0.2h0.1V48.1L456.3,48.1z M455.7,47.8
					c0.1,0,0.2,0,0.2,0c0.1,0,0.2,0,0.2,0v0C456.2,47.9,456,47.8,455.7,47.8C455.7,47.7,455.7,47.7,455.7,47.8
					C455.7,47.7,455.7,47.8,455.7,47.8C455.7,47.8,455.7,47.8,455.7,47.8L455.7,47.8L455.7,47.8z"/>
			</g>
			<g>
				<path class="st0" d="M460.7,48.6c-0.2,0.3-0.5,0.8-0.5,1.2c0,0.1,0,0.3,0.1,0.4h0.2c0,0,0.3-0.4,0.2-0.4v-0.1h0
					c0,0-0.1,0.1-0.1,0.1v0h0C460.5,49.6,460.8,48.6,460.7,48.6C460.8,48.6,460.7,48.6,460.7,48.6"/>
				<path class="st0" d="M460.5,50.3h-0.3l0,0c0-0.1,0-0.3-0.1-0.4v0v0c0-0.6,0.3-1.1,0.5-1.3l0,0l0,0c0,0,0,0,0.1,0h0l0,0
					c0,0,0,0-0.1,0.4c-0.1,0.3-0.2,0.7-0.3,0.8h0v0c0,0,0,0,0,0l0,0h0.1v0.1c0,0,0,0,0,0C460.8,50,460.6,50.2,460.5,50.3L460.5,50.3
					L460.5,50.3z M460.4,50.2h0.1c0-0.1,0.1-0.2,0.1-0.2l0,0v-0.1c0,0-0.1,0-0.1,0.1l-0.1,0v-0.1h-0.1l0-0.1c0-0.2,0.2-0.6,0.3-0.9
					c0-0.1,0.1-0.2,0.1-0.3c0,0,0,0,0,0c-0.3,0.4-0.4,0.8-0.4,1.2C460.3,50,460.4,50.1,460.4,50.2L460.4,50.2z"/>
			</g>
			<g>
				<path class="st0" d="M456.8,50.5c-0.2,0.4-0.2,0.6,0.2,0.9c0,0,0.1,0,0.1,0.1v0c0.1-0.1,0.4-0.4,0.4-0.6
					C457.2,50.6,457,50.5,456.8,50.5"/>
				<path class="st0" d="M457.1,51.6l-0.1-0.1c0,0,0,0,0,0l0,0c-0.4-0.3-0.4-0.5-0.2-1l0,0l0,0c0.2,0.1,0.4,0.2,0.5,0.3
					c0,0,0.1,0,0.1,0.1l0,0v0c0,0.3-0.3,0.5-0.3,0.6V51.6L457.1,51.6z M456.8,50.5c-0.2,0.4-0.1,0.5,0.2,0.8l0,0
					c0.1-0.1,0.3-0.4,0.3-0.5c0,0,0,0-0.1,0C457.1,50.7,457,50.6,456.8,50.5L456.8,50.5z"/>
			</g>
			<g>
				<path class="st0" d="M465.6,50.6c-0.1,0.1-0.8,1.5-0.3,1.5v-0.1c0.1-0.1,0.2-0.2,0.2-0.3h0c0,0-0.1,0.1-0.1,0h0
					C465.3,51.4,465.7,50.9,465.6,50.6"/>
				<path class="st0" d="M465.4,52.2L465.4,52.2c-0.2,0-0.2-0.1-0.3-0.1c-0.1-0.2,0-0.7,0.4-1.4c0,0,0,0,0,0l0-0.1l0.1,0.1
					c0.1,0.2,0,0.5-0.1,0.8c-0.1,0.1-0.1,0.3-0.1,0.4h0v0c0,0,0,0,0,0c0,0,0,0,0,0l0,0h0.2l-0.1,0.1C465.5,51.9,465.4,52,465.4,52.2
					L465.4,52.2L465.4,52.2z M465.5,50.8c-0.4,0.9-0.4,1.2-0.3,1.2c0,0,0,0,0.1,0v0l0,0c0-0.1,0.1-0.1,0.1-0.2c0,0-0.1,0-0.1,0h-0.1
					l0-0.1c0-0.1,0.1-0.3,0.1-0.5C465.5,51.1,465.5,51,465.5,50.8L465.5,50.8z"/>
			</g>
			<g>
				<path class="st0" d="M477.8,50.9c-0.1,0.2-0.2,0.3-0.2,0.5c-0.2-0.1-0.4-0.2-0.7-0.4c-0.2,0.3-0.1,1,0.4,1v0
					c0.1-0.1,0.2-0.3,0.3-0.4c0.1-0.1,0.7,0.2,0.7,0.4h0v0h0C478.6,51.3,478.4,51.2,477.8,50.9"/>
				<path class="st0" d="M477.4,52.1L477.4,52.1c-0.2,0-0.4-0.1-0.4-0.2c-0.1-0.3-0.1-0.7,0-0.9l0-0.1l0.1,0
					c0.1,0.1,0.3,0.1,0.4,0.2c0.1,0,0.1,0.1,0.2,0.1c0-0.1,0.1-0.2,0.1-0.3c0,0,0-0.1,0.1-0.1l0-0.1l0.1,0c0.6,0.3,0.8,0.5,0.6,1.2
					l0,0h0v0h-0.2V52c0-0.1-0.4-0.3-0.6-0.3c0,0,0,0,0,0C477.5,51.8,477.4,51.9,477.4,52.1L477.4,52.1L477.4,52.1z M477,51.1
					c-0.1,0.2-0.1,0.5,0,0.7c0.1,0.1,0.1,0.1,0.2,0.2l0,0c0.1-0.1,0.2-0.3,0.3-0.4l0,0l0,0c0,0,0,0,0.1,0c0.2,0,0.5,0.2,0.7,0.3h0
					c0.2-0.6,0.1-0.7-0.5-1c0,0,0,0,0,0.1c-0.1,0.1-0.1,0.3-0.2,0.4l0,0.1l-0.1,0c-0.1,0-0.2-0.1-0.3-0.1
					C477.2,51.2,477.1,51.2,477,51.1L477,51.1z"/>
			</g>
			<g>
				<path class="st0" d="M447.5,51c-0.1,0.1-0.1,0.3-0.2,0.4c-0.1,0-0.1,0-0.2,0c-0.1-0.1-0.5-0.4-0.5-0.3c-0.3,0.3-0.1,1,0.4,1
					c0.1-0.2,0.1-0.3,0.2-0.4c0.3,0.1,0.5,0.3,0.8,0.4C448.2,51.4,448.2,51.4,447.5,51"/>
				<path class="st0" d="M447,52.2L447,52.2c-0.3,0-0.4-0.1-0.5-0.4c-0.1-0.3-0.1-0.5,0.1-0.7c0,0,0,0,0.1,0c0.1,0,0.4,0.2,0.5,0.3
					c0,0,0.1,0,0.1,0c0-0.1,0-0.1,0.1-0.2c0-0.1,0.1-0.1,0.1-0.2l0-0.1l0.1,0c0.7,0.3,0.7,0.4,0.5,1.1l0,0.1l-0.1,0
					c-0.1,0-0.1-0.1-0.2-0.1c-0.2-0.1-0.4-0.2-0.5-0.3c0,0,0,0.1-0.1,0.1C447.1,52,447.1,52.1,447,52.2L447,52.2L447,52.2z
					 M446.7,51.2c-0.1,0.1-0.2,0.4-0.1,0.6c0.1,0.2,0.2,0.3,0.4,0.3c0-0.1,0.1-0.1,0.1-0.2c0-0.1,0.1-0.1,0.1-0.2l0-0.1l0.1,0
					c0.2,0.1,0.4,0.2,0.6,0.3c0,0,0.1,0,0.1,0.1c0.1-0.6,0.1-0.6-0.4-0.9c0,0,0,0.1-0.1,0.1c0,0.1-0.1,0.1-0.1,0.2l0,0l-0.1,0
					c-0.1,0-0.1,0-0.2,0l0,0l0,0C447,51.5,446.8,51.3,446.7,51.2L446.7,51.2z"/>
			</g>
			<g>
				<path class="st0" d="M469.5,51.2c-0.1,0.2-0.2,0.4-0.2,0.7h-0.1c-0.1-0.3-0.3-0.6-0.6-0.6c0.1,0.4,0.6,0.6,0.6,1c0,0,0,0,0,0
					h0.1v0c0-0.3,0.1-0.5,0.1-0.8c0.1,0,0,0,0,0h0.1v0c0,0,0.1,0.1,0.1,0.1h0.1C469.8,51.4,469.7,51.3,469.5,51.2"/>
				<path class="st0" d="M469.4,52.4h-0.2v0h0v-0.1c0-0.2-0.1-0.4-0.3-0.5c-0.1-0.1-0.3-0.3-0.3-0.5l0-0.1h0.1
					c0.3,0,0.5,0.4,0.6,0.6c0-0.2,0.1-0.4,0.2-0.6l0,0l0.1,0c0.3,0.1,0.3,0.2,0.3,0.4l0,0.1h-0.2l0,0c0,0,0,0,0,0c0,0,0-0.1-0.1-0.1
					c0,0,0,0,0,0C469.5,51.8,469.5,52,469.4,52.4L469.4,52.4L469.4,52.4z M469.3,52.2L469.3,52.2L469.3,52.2c0-0.1,0-0.2,0.1-0.3
					h-0.2C469.2,52,469.3,52.1,469.3,52.2L469.3,52.2z M468.7,51.3c0,0.1,0.1,0.2,0.2,0.3c0.1,0.1,0.1,0.2,0.2,0.3l0,0
					C469.1,51.7,469,51.4,468.7,51.3L468.7,51.3z M469.7,51.5C469.7,51.5,469.7,51.5,469.7,51.5C469.7,51.5,469.7,51.4,469.7,51.5
					L469.7,51.5L469.7,51.5z M469.5,51.4L469.5,51.4L469.5,51.4l0.2,0c0,0-0.1-0.1-0.1-0.1C469.5,51.3,469.5,51.4,469.5,51.4
					L469.5,51.4z"/>
			</g>
			<g>
				<path class="st0" d="M473.3,51.3L473.3,51.3c0,0.1-0.1,0.2-0.1,0.2c-0.2,0-0.8,0.3-0.9,0.4c-0.3,0.2-0.7,0.8-1.1,0.8v0.1h0v0
					c0.4-0.2,0.7-0.5,1.1-0.7c0.2-0.1,0.5-0.2,0.7-0.3c0.1,0,0.2,0,0.2-0.1C473.4,51.6,473.4,51.4,473.3,51.3"/>
				<path class="st0" d="M471.2,52.9L471.2,52.9L471.2,52.9l0-0.3h0.1c0.2,0,0.5-0.3,0.7-0.5c0.1-0.1,0.2-0.2,0.3-0.3
					c0.2-0.1,0.7-0.4,0.9-0.4c0,0,0,0,0,0c0,0,0-0.1,0-0.1v0l0.1,0c0.1,0.1,0,0.3,0,0.5c0,0.1-0.1,0.1-0.2,0.1c0,0,0,0-0.1,0
					c-0.1,0-0.2,0.1-0.3,0.1c-0.2,0.1-0.3,0.1-0.5,0.2c-0.2,0.1-0.3,0.2-0.5,0.3C471.8,52.6,471.6,52.8,471.2,52.9L471.2,52.9
					L471.2,52.9z M473.3,51.5C473.3,51.5,473.3,51.5,473.3,51.5L473.3,51.5L473.3,51.5c-0.2,0.1-0.8,0.3-0.9,0.5
					c-0.1,0.1-0.2,0.2-0.3,0.3c0,0,0,0-0.1,0.1c0.1-0.1,0.2-0.1,0.3-0.2c0.1-0.1,0.3-0.1,0.5-0.2c0.1,0,0.2-0.1,0.3-0.1
					c0,0,0.1,0,0.1,0c0,0,0.1,0,0.1,0l0,0C473.3,51.6,473.3,51.6,473.3,51.5L473.3,51.5z"/>
			</g>
		</g>
		<g>
			<g>
				<g>
					<path class="st0" d="M461.5,26.4l-0.4-0.6l0,0c-0.6-0.9-4.8-6.3-9.3-8.7c-5.7-3.3-10.1-2.7-10.1-2.7s-1,13.1,13.7,26.1
						c0,0-12-12.7-11.7-24.3c0,0,3.5,0,7.7,2.3c5.8,3.2,9.7,8.5,9.7,8.5v0v0l0,0c3.8,5.1,5.2,10.4,5.6,12.5
						C465.6,33.7,463.7,29.6,461.5,26.4z"/>
				</g>
				<g>
					<path class="st0" d="M466.6,39.5c0.1,0.3,0.1,0.6,0.2,0.9C466.8,40.4,466.7,40.1,466.6,39.5z"/>
				</g>
			</g>
			<g>
				<path class="st0" d="M466.1,20.1c-1.2-3-3.8-5.3-5.1-6.1c-1.3,0.8-3.9,3.1-5.1,6.1c-2.6,6.1-2.5,11.7-0.6,20.3
					c0,0-1.5-11,2.1-19c0.9-1.9,2.1-3.6,3.7-5c1.6,1.3,2.8,3.1,3.7,5c3.5,8,2.1,19,2.1,19C468.6,31.8,468.7,26.2,466.1,20.1z"/>
			</g>
			<g>
				<path class="st0" d="M470.3,17c-2.1-6.7-7-11.5-9.3-13.4c-2.3,1.9-7.3,6.7-9.3,13.4c-2,6.4-1,14.9,3.6,23.4c0,0-5.1-10.3-2.3-21
					c1.4-5.6,4-9.2,8.1-12.6c4.1,3.4,6.7,7,8.1,12.6c2.8,10.8-2.3,21-2.3,21C471.4,31.9,472.3,23.4,470.3,17z"/>
			</g>
			<g>
				<g>
					<path class="st0" d="M455.4,39.5c-0.1,0.6-0.2,0.9-0.2,0.9C455.3,40.1,455.3,39.8,455.4,39.5z"/>
				</g>
				<g>
					<path class="st0" d="M480.4,14.3c0,0-4.4-0.5-10.1,2.7c-4.6,2.4-8.7,7.7-9.3,8.7l0,0l-0.4,0.6c-2.2,3.2-4.1,7.3-5.2,13.1
						c0.4-2.1,1.8-7.5,5.6-12.5l0,0l0,0v0c0,0,3.9-5.3,9.7-8.5c4.2-2.3,7.7-2.3,7.7-2.3c0.3,11.5-11.7,24.3-11.7,24.3
						C481.4,27.4,480.4,14.3,480.4,14.3z"/>
				</g>
			</g>
		</g>
		<g>
			<path class="st0" d="M419.4,61.9v-7.7h1.6v7.7H419.4z"/>
			<path class="st0" d="M422.2,59.4l1.5-0.1c0.1,0.5,0.3,0.9,0.6,1.1c0.3,0.2,0.7,0.4,1.1,0.4c0.5,0,0.9-0.1,1.1-0.3
				c0.3-0.2,0.4-0.5,0.4-0.7c0-0.2-0.1-0.3-0.2-0.5c-0.1-0.1-0.3-0.2-0.6-0.3c-0.2-0.1-0.6-0.2-1.2-0.3c-0.8-0.2-1.4-0.5-1.8-0.8
				c-0.5-0.4-0.7-0.9-0.7-1.6c0-0.4,0.1-0.8,0.3-1.1c0.2-0.3,0.5-0.6,1-0.8c0.4-0.2,0.9-0.3,1.5-0.3c1,0,1.7,0.2,2.2,0.6
				c0.5,0.4,0.7,1,0.8,1.7l-1.6,0.1c-0.1-0.4-0.2-0.7-0.4-0.9c-0.2-0.2-0.5-0.3-1-0.3c-0.4,0-0.8,0.1-1.1,0.3
				c-0.2,0.1-0.2,0.3-0.2,0.5c0,0.2,0.1,0.3,0.2,0.5c0.2,0.2,0.7,0.3,1.4,0.5c0.8,0.2,1.3,0.4,1.7,0.6c0.4,0.2,0.6,0.5,0.9,0.8
				c0.2,0.3,0.3,0.7,0.3,1.2c0,0.4-0.1,0.9-0.4,1.2c-0.2,0.4-0.6,0.7-1,0.9c-0.4,0.2-1,0.3-1.7,0.3c-1,0-1.7-0.2-2.2-0.7
				C422.6,60.9,422.3,60.2,422.2,59.4z"/>
			<path class="st0" d="M431.7,61.9v-6.4h-2.3v-1.3h6.1v1.3h-2.3v6.4H431.7z"/>
			<path class="st0" d="M442.8,61.9h-1.7l-0.7-1.8h-3.1l-0.6,1.8h-1.6l3-7.7h1.6L442.8,61.9z M439.9,58.8l-1.1-2.9l-1,2.9H439.9z"/>
			<path class="st0" d="M443.8,61.9v-7.7h1.5l3.2,5.1v-5.1h1.4v7.7h-1.6l-3.1-5v5H443.8z"/>
			<path class="st0" d="M458.7,61.9H457l-0.7-1.8h-3.1l-0.6,1.8H451l3-7.7h1.6L458.7,61.9z M455.8,58.8l-1.1-2.9l-1,2.9H455.8z"/>
			<path class="st0" d="M462.3,54.2h3.1c0.6,0,1.1,0,1.4,0.1c0.3,0.1,0.6,0.2,0.8,0.3c0.2,0.2,0.4,0.4,0.6,0.6
				c0.2,0.3,0.2,0.6,0.2,0.9c0,0.4-0.1,0.7-0.3,1c-0.2,0.3-0.5,0.5-0.8,0.7c0.5,0.1,0.8,0.4,1.1,0.7c0.2,0.3,0.4,0.7,0.4,1.2
				c0,0.4-0.1,0.7-0.2,1c-0.2,0.3-0.4,0.6-0.7,0.8c-0.3,0.2-0.6,0.3-1,0.4c-0.3,0-0.9,0-1.9,0.1h-2.6V54.2z M463.8,55.4v1.8h1
				c0.6,0,1,0,1.1,0c0.3,0,0.5-0.1,0.6-0.3c0.2-0.2,0.2-0.4,0.2-0.6c0-0.2-0.1-0.4-0.2-0.6c-0.1-0.1-0.3-0.2-0.6-0.3
				c-0.2,0-0.6,0-1.3,0H463.8z M463.8,58.5v2.1h1.4c0.6,0,0.9,0,1.1,0c0.2,0,0.4-0.1,0.6-0.3c0.1-0.2,0.2-0.4,0.2-0.7
				c0-0.2-0.1-0.4-0.2-0.6c-0.1-0.2-0.3-0.3-0.5-0.4c-0.2-0.1-0.7-0.1-1.4-0.1H463.8z"/>
			<path class="st0" d="M469.4,54.2h1.6v4.2c0,0.7,0,1.1,0.1,1.3c0.1,0.3,0.2,0.6,0.5,0.8c0.3,0.2,0.6,0.3,1,0.3
				c0.4,0,0.8-0.1,1-0.3c0.2-0.2,0.4-0.4,0.4-0.7c0-0.3,0.1-0.7,0.1-1.3v-4.3h1.6v4c0,0.9,0,1.6-0.1,2c-0.1,0.4-0.2,0.7-0.5,1
				c-0.2,0.3-0.5,0.5-0.9,0.6c-0.4,0.2-0.9,0.2-1.5,0.2c-0.7,0-1.3-0.1-1.7-0.3c-0.4-0.2-0.7-0.4-0.9-0.7c-0.2-0.3-0.4-0.6-0.4-0.9
				c-0.1-0.4-0.1-1.1-0.1-2V54.2z"/>
			<path class="st0" d="M476.6,54.2h2.8c0.6,0,1.1,0.1,1.5,0.1c0.4,0.1,0.8,0.4,1.2,0.7c0.3,0.3,0.6,0.8,0.7,1.2
				c0.2,0.5,0.2,1.1,0.2,1.8c0,0.6-0.1,1.2-0.2,1.6c-0.2,0.6-0.5,1-0.8,1.4c-0.3,0.3-0.6,0.5-1.1,0.6c-0.3,0.1-0.8,0.2-1.4,0.2h-2.9
				V54.2z M478.1,55.5v5.1h1.2c0.4,0,0.8,0,0.9-0.1c0.3-0.1,0.5-0.2,0.6-0.3c0.2-0.2,0.3-0.4,0.4-0.7c0.1-0.3,0.2-0.8,0.2-1.4
				c0-0.6-0.1-1.1-0.2-1.4c-0.1-0.3-0.3-0.6-0.4-0.7c-0.2-0.2-0.4-0.3-0.7-0.4c-0.2-0.1-0.6-0.1-1.3-0.1H478.1z"/>
			<path class="st0" d="M490.7,61.9H489l-0.7-1.8h-3.1l-0.6,1.8h-1.7l3-7.7h1.6L490.7,61.9z M487.8,58.8l-1.1-2.9l-1,2.9H487.8z"/>
			<path class="st0" d="M491.9,61.9v-3.2l-2.8-4.5h1.8l1.8,3l1.8-3h1.8l-2.8,4.5v3.2H491.9z"/>
			<path class="st0" d="M502.4,61.9h-1.7l-0.7-1.8H497l-0.6,1.8h-1.7l3-7.7h1.6L502.4,61.9z M499.5,58.8l-1.1-2.9l-1,2.9H499.5z"/>
		</g>
		<g>
			<path class="st0" d="M419.2,66.7h0.2v0.8l0.9-0.8h0.3l-1.1,1l1.1,1.2h-0.3l-1-1v1h-0.2V66.7z"/>
			<path class="st0" d="M421,66.7h1.3v0.2h-1v0.7h1v0.2h-1v0.9h1v0.2H421V66.7z"/>
			<path class="st0" d="M422.5,68.9l0.3-2.2h0l0.9,1.8l0.9-1.8h0l0.3,2.2h-0.2l-0.2-1.6l-0.8,1.6h-0.1l-0.8-1.6l-0.2,1.6H422.5z"/>
			<path class="st0" d="M425.4,66.7h1.3v0.2h-1v0.7h1v0.2h-1v0.9h1v0.2h-1.2V66.7z"/>
			<path class="st0" d="M427.1,68.9v-2.2h0l1.5,1.7v-1.7h0.2v2.2h-0.1l-1.4-1.7v1.7H427.1z"/>
			<path class="st0" d="M429.1,66.9v-0.2h1.2v0.2h-0.5v2h-0.2v-2H429.1z"/>
			<path class="st0" d="M430.6,66.7h1.3v0.2h-1v0.7h1v0.2h-1v0.9h1v0.2h-1.2V66.7z"/>
			<path class="st0" d="M432.3,66.7h0.4c0.2,0,0.4,0,0.5,0c0.1,0,0.2,0.1,0.3,0.2c0.1,0.1,0.1,0.2,0.1,0.4c0,0.1,0,0.2-0.1,0.3
				c-0.1,0.1-0.1,0.2-0.2,0.2c-0.1,0-0.2,0.1-0.4,0.1l0.8,1h-0.3l-0.8-1h-0.1v1h-0.2V66.7z M432.5,66.9v0.7l0.4,0c0.1,0,0.3,0,0.3,0
				c0.1,0,0.1-0.1,0.2-0.1c0-0.1,0.1-0.1,0.1-0.2c0-0.1,0-0.1-0.1-0.2c0-0.1-0.1-0.1-0.2-0.1c-0.1,0-0.2,0-0.3,0H432.5z"/>
			<path class="st0" d="M434.1,66.7h0.2v2.2h-0.2V66.7z"/>
			<path class="st0" d="M435.7,66.7l1,2.2h-0.2l-0.3-0.7h-0.9l-0.3,0.7h-0.2L435.7,66.7L435.7,66.7z M435.7,67.2l-0.4,0.8h0.7
				L435.7,67.2z"/>
			<path class="st0" d="M437.1,68.9v-2.2h0l1.5,1.7v-1.7h0.2v2.2h-0.1l-1.4-1.7v1.7H437.1z"/>
			<path class="st0" d="M440.2,66.7h0.4c0.2,0,0.4,0,0.5,0c0.1,0,0.2,0.1,0.3,0.2c0.1,0.1,0.1,0.2,0.1,0.4c0,0.1,0,0.3-0.1,0.4
				c-0.1,0.1-0.2,0.2-0.3,0.2c-0.1,0-0.3,0-0.6,0h-0.2v1h-0.2V66.7z M440.4,66.9v0.7l0.4,0c0.1,0,0.3,0,0.3,0c0.1,0,0.1-0.1,0.2-0.1
				c0-0.1,0.1-0.1,0.1-0.2s0-0.1-0.1-0.2c0-0.1-0.1-0.1-0.2-0.1c-0.1,0-0.2,0-0.3,0H440.4z"/>
			<path class="st0" d="M442,66.7h1.3v0.2h-1v0.7h1v0.2h-1v0.9h1v0.2H442V66.7z"/>
			<path class="st0" d="M443.6,66.7h0.2v2h0.8v0.2h-1.1V66.7z"/>
			<path class="st0" d="M445.9,66.7l1,2.2h-0.2l-0.3-0.7h-0.9l-0.3,0.7h-0.2L445.9,66.7L445.9,66.7z M445.9,67.2l-0.4,0.8h0.7
				L445.9,67.2z"/>
			<path class="st0" d="M447.3,68.9v-2.2h0l1.5,1.7v-1.7h0.2v2.2h-0.1l-1.4-1.7v1.7H447.3z"/>
			<path class="st0" d="M451.6,67.1l-0.2,0.1c-0.1-0.1-0.2-0.2-0.3-0.3c-0.1-0.1-0.3-0.1-0.4-0.1c-0.2,0-0.3,0-0.5,0.1
				c-0.2,0.1-0.3,0.2-0.3,0.3c-0.1,0.1-0.1,0.3-0.1,0.5c0,0.3,0.1,0.5,0.3,0.7c0.2,0.2,0.4,0.3,0.7,0.3c0.3,0,0.6-0.1,0.8-0.4
				l0.2,0.1c-0.1,0.1-0.2,0.2-0.4,0.3c-0.2,0.1-0.3,0.1-0.5,0.1c-0.4,0-0.7-0.1-0.9-0.4c-0.2-0.2-0.3-0.5-0.3-0.8
				c0-0.3,0.1-0.6,0.3-0.8c0.2-0.2,0.5-0.3,0.8-0.3c0.2,0,0.4,0,0.5,0.1C451.3,66.9,451.4,67,451.6,67.1z"/>
			<path class="st0" d="M453,66.7c0.3,0,0.6,0.1,0.8,0.3c0.2,0.2,0.3,0.5,0.3,0.8c0,0.3-0.1,0.6-0.3,0.8c-0.2,0.2-0.5,0.3-0.8,0.3
				c-0.3,0-0.6-0.1-0.8-0.3c-0.2-0.2-0.3-0.5-0.3-0.8c0-0.2,0.1-0.4,0.2-0.6c0.1-0.2,0.2-0.3,0.4-0.4
				C452.6,66.7,452.8,66.7,453,66.7z M453,66.9c-0.2,0-0.3,0-0.5,0.1c-0.1,0.1-0.3,0.2-0.3,0.3c-0.1,0.1-0.1,0.3-0.1,0.5
				c0,0.3,0.1,0.5,0.3,0.7c0.2,0.2,0.4,0.3,0.6,0.3c0.2,0,0.3,0,0.5-0.1c0.1-0.1,0.3-0.2,0.3-0.3c0.1-0.1,0.1-0.3,0.1-0.5
				c0-0.2,0-0.3-0.1-0.5c-0.1-0.1-0.2-0.3-0.3-0.3C453.4,66.9,453.2,66.9,453,66.9z"/>
			<path class="st0" d="M454.6,68.9v-2.2h0l1.5,1.7v-1.7h0.2v2.2h-0.1l-1.4-1.7v1.7H454.6z"/>
			<path class="st0" d="M459,67.1l-0.2,0.2c-0.1-0.1-0.3-0.2-0.4-0.3c-0.1-0.1-0.3-0.1-0.4-0.1c-0.2,0-0.3,0-0.5,0.1
				c-0.2,0.1-0.3,0.2-0.4,0.3c-0.1,0.1-0.1,0.3-0.1,0.5c0,0.2,0,0.3,0.1,0.5c0.1,0.1,0.2,0.3,0.4,0.4c0.2,0.1,0.3,0.1,0.5,0.1
				c0.2,0,0.4-0.1,0.6-0.2c0.2-0.1,0.2-0.3,0.3-0.5h-0.7v-0.2h0.9c0,0.3-0.1,0.6-0.3,0.8c-0.2,0.2-0.5,0.3-0.8,0.3
				c-0.4,0-0.7-0.1-1-0.4c-0.2-0.2-0.3-0.5-0.3-0.7c0-0.2,0.1-0.4,0.2-0.6c0.1-0.2,0.2-0.3,0.4-0.4c0.2-0.1,0.4-0.2,0.6-0.2
				c0.2,0,0.4,0,0.5,0.1C458.7,66.8,458.9,66.9,459,67.1z"/>
			<path class="st0" d="M460.5,66.7l1,2.2h-0.2l-0.3-0.7h-0.9l-0.3,0.7h-0.2L460.5,66.7L460.5,66.7z M460.4,67.2L460,68h0.7
				L460.4,67.2z"/>
			<path class="st0" d="M461.8,68.9v-2.2h0l1.5,1.7v-1.7h0.2v2.2h0l-1.4-1.7v1.7H461.8z"/>
			<path class="st0" d="M466.6,68.1l0.2,0.2c-0.1,0.1-0.2,0.2-0.3,0.2c0.1,0.1,0.1,0.1,0.2,0.2c0.1,0.1,0.1,0.1,0.2,0.2h-0.3
				l-0.3-0.3c-0.2,0.1-0.3,0.2-0.4,0.3c-0.1,0-0.2,0.1-0.4,0.1c-0.2,0-0.3,0-0.4-0.1c-0.1-0.1-0.2-0.2-0.2-0.4c0-0.1,0-0.2,0.1-0.3
				c0.1-0.1,0.2-0.2,0.4-0.4c-0.1-0.1-0.2-0.2-0.2-0.3c0-0.1,0-0.1,0-0.2c0-0.1,0-0.2,0.1-0.3c0.1-0.1,0.2-0.1,0.4-0.1
				c0.1,0,0.2,0,0.2,0.1c0.1,0,0.1,0.1,0.2,0.1c0,0.1,0.1,0.1,0.1,0.2c0,0.1,0,0.2-0.1,0.2c-0.1,0.1-0.2,0.2-0.3,0.3l0.3,0.3
				l0.2,0.2C466.4,68.2,466.5,68.2,466.6,68.1z M465.6,67.9c-0.2,0.1-0.3,0.3-0.4,0.3c-0.1,0.1-0.1,0.2-0.1,0.2c0,0.1,0,0.2,0.1,0.2
				c0.1,0.1,0.2,0.1,0.3,0.1c0.1,0,0.2,0,0.2,0c0.1,0,0.2-0.1,0.4-0.3l-0.3-0.4C465.7,68,465.7,68,465.6,67.9z M465.6,67.6
				c0.1-0.1,0.2-0.2,0.2-0.2c0-0.1,0.1-0.1,0.1-0.1c0-0.1,0-0.1-0.1-0.1c0,0-0.1-0.1-0.2-0.1c-0.1,0-0.1,0-0.2,0.1
				c-0.1,0-0.1,0.1-0.1,0.1c0,0,0,0.1,0,0.1C465.4,67.4,465.5,67.5,465.6,67.6z"/>
			<path class="st0" d="M468.1,66.7h0.2v0.8l0.9-0.8h0.3l-1.1,1l1.1,1.2h-0.3l-1-1v1h-0.2V66.7z"/>
			<path class="st0" d="M469.9,66.7h1.3v0.2h-1v0.7h1v0.2h-1v0.9h1v0.2h-1.2V66.7z"/>
			<path class="st0" d="M471.5,66.7h0.4c0.2,0,0.3,0,0.4,0.1c0.1,0,0.2,0.1,0.2,0.2c0.1,0.1,0.1,0.2,0.1,0.3c0,0.1,0,0.2-0.1,0.3
				c0,0.1-0.1,0.1-0.2,0.2c0.1,0,0.2,0.1,0.3,0.1c0.1,0.1,0.1,0.1,0.1,0.2c0,0.1,0.1,0.2,0.1,0.2c0,0.2-0.1,0.3-0.2,0.4
				c-0.1,0.1-0.3,0.2-0.5,0.2h-0.6V66.7z M471.7,66.9v0.7h0.1c0.2,0,0.3,0,0.3,0c0.1,0,0.1-0.1,0.2-0.1c0-0.1,0.1-0.1,0.1-0.2
				c0-0.1,0-0.2-0.1-0.2c-0.1-0.1-0.2-0.1-0.3-0.1H471.7z M471.7,67.9v0.8h0.3c0.2,0,0.3,0,0.4,0c0.1,0,0.1-0.1,0.2-0.1
				c0-0.1,0.1-0.1,0.1-0.2c0-0.1,0-0.2-0.1-0.3c-0.1-0.1-0.1-0.1-0.3-0.1c-0.1,0-0.2,0-0.4,0H471.7z"/>
			<path class="st0" d="M473.3,66.7h0.2V68c0,0.2,0,0.3,0,0.3c0,0.1,0,0.2,0.1,0.2c0,0.1,0.1,0.1,0.2,0.1c0.1,0,0.2,0.1,0.2,0.1
				c0.1,0,0.1,0,0.2,0c0.1,0,0.1-0.1,0.2-0.1c0-0.1,0.1-0.1,0.1-0.2c0-0.1,0-0.2,0-0.3v-1.3h0.2V68c0,0.2,0,0.4-0.1,0.5
				c0,0.1-0.1,0.2-0.2,0.3c-0.1,0.1-0.3,0.1-0.4,0.1c-0.2,0-0.3,0-0.5-0.1c-0.1-0.1-0.2-0.2-0.3-0.3c0-0.1,0-0.2,0-0.5V66.7z"/>
			<path class="st0" d="M475.2,68.9v-2.2h0.5c0.3,0,0.6,0,0.7,0.1c0.2,0.1,0.4,0.2,0.5,0.4c0.1,0.2,0.2,0.4,0.2,0.7
				c0,0.2,0,0.4-0.1,0.6c-0.1,0.2-0.2,0.3-0.4,0.4c-0.1,0.1-0.4,0.1-0.6,0.1H475.2z M475.5,68.7h0.3c0.3,0,0.5,0,0.6-0.1
				c0.2-0.1,0.3-0.2,0.4-0.3c0.1-0.1,0.1-0.3,0.1-0.5c0-0.2-0.1-0.4-0.1-0.5c-0.1-0.2-0.2-0.3-0.4-0.3c-0.1,0-0.4-0.1-0.7-0.1h-0.2
				V68.7z"/>
			<path class="st0" d="M478.4,66.7l1,2.2h-0.2l-0.3-0.7h-0.9l-0.3,0.7h-0.2L478.4,66.7L478.4,66.7z M478.4,67.2L478,68h0.7
				L478.4,67.2z"/>
			<path class="st0" d="M479.2,66.7h0.2l0.6,0.9l0.5-0.9h0.3l-0.7,1.1v1h-0.2v-1L479.2,66.7z"/>
			<path class="st0" d="M481.7,66.7l1,2.2h-0.2l-0.3-0.7h-0.9l-0.3,0.7h-0.2L481.7,66.7L481.7,66.7z M481.7,67.2l-0.4,0.8h0.7
				L481.7,67.2z"/>
			<path class="st0" d="M484,66.7l1,2.2h-0.2l-0.3-0.7h-0.9l-0.3,0.7h-0.2L484,66.7L484,66.7z M483.9,67.2l-0.4,0.8h0.7L483.9,67.2z
				"/>
			<path class="st0" d="M485.3,68.9v-2.2h0l1.5,1.7v-1.7h0.2v2.2H487l-1.4-1.7v1.7H485.3z"/>
			<path class="st0" d="M488.3,68.9l0.3-2.2h0l0.9,1.8l0.9-1.8h0l0.3,2.2h-0.2l-0.2-1.6l-0.8,1.6h-0.1l-0.8-1.6l-0.2,1.6H488.3z"/>
			<path class="st0" d="M492.1,66.7l1,2.2h-0.2l-0.3-0.7h-0.9l-0.3,0.7H491L492.1,66.7L492.1,66.7z M492.1,67.2l-0.4,0.8h0.8
				L492.1,67.2z"/>
			<path class="st0" d="M493.5,66.7h0.2v2h0.8v0.2h-1.1V66.7z"/>
			<path class="st0" d="M495.8,66.7l1,2.2h-0.2l-0.3-0.7h-0.9l-0.3,0.7h-0.2L495.8,66.7L495.8,66.7z M495.8,67.2l-0.4,0.8h0.8
				L495.8,67.2z"/>
			<path class="st0" d="M496.6,66.7h0.3l0.6,0.9l0.6-0.9h0.3l-0.7,1.1v1h-0.2v-1L496.6,66.7z"/>
			<path class="st0" d="M498.4,68.5l0.2-0.1c0.1,0.2,0.3,0.4,0.5,0.4c0.1,0,0.1,0,0.2-0.1c0.1,0,0.1-0.1,0.1-0.1
				c0-0.1,0.1-0.1,0.1-0.2c0-0.1,0-0.1-0.1-0.2c-0.1-0.1-0.2-0.2-0.4-0.3c-0.2-0.1-0.3-0.2-0.3-0.3c-0.1-0.1-0.1-0.2-0.1-0.3
				c0-0.1,0-0.2,0.1-0.3c0-0.1,0.1-0.1,0.2-0.2c0.1,0,0.2-0.1,0.3-0.1c0.1,0,0.2,0,0.3,0.1c0.1,0.1,0.2,0.1,0.3,0.3l-0.2,0.1
				c-0.1-0.1-0.2-0.2-0.2-0.2c-0.1,0-0.1-0.1-0.2-0.1c-0.1,0-0.2,0-0.2,0.1c-0.1,0.1-0.1,0.1-0.1,0.2c0,0,0,0.1,0,0.1
				c0,0,0.1,0.1,0.1,0.1c0,0,0.1,0.1,0.3,0.2c0.2,0.1,0.3,0.3,0.4,0.4c0.1,0.1,0.1,0.2,0.1,0.3c0,0.2-0.1,0.3-0.2,0.4
				c-0.1,0.1-0.3,0.2-0.4,0.2c-0.1,0-0.3,0-0.4-0.1C498.6,68.8,498.5,68.7,498.4,68.5z"/>
			<path class="st0" d="M500.1,66.7h0.2v2.2h-0.2V66.7z"/>
			<path class="st0" d="M501.7,66.7l1,2.2h-0.2l-0.3-0.7h-0.9l-0.3,0.7h-0.2L501.7,66.7L501.7,66.7z M501.7,67.2l-0.4,0.8h0.7
				L501.7,67.2z"/>
		</g>
	</g>
</g>
</svg>
